<svg width="305" height="394" viewBox="0 0 305 394" fill="none" xmlns="http://www.w3.org/2000/svg">
<mask id="mask0_1127_534" style="mask-type:alpha" maskUnits="userSpaceOnUse" x="0" y="0" width="305" height="453">
<rect y="0.786621" width="305" height="452.213" fill="#D9D9D9"/>
</mask>
<g mask="url(#mask0_1127_534)">
<path d="M-45.8893 240.737C-47.5252 236.154 -49.161 231.616 -49.0701 226.594C-48.8581 214.948 -48.8429 203.301 -48.752 191.654C-46.8133 191.79 -46.5406 193.378 -46.1165 194.77C-44.9048 198.687 -43.1326 202.317 -40.694 205.615C-38.3918 210.062 -34.6657 213.299 -31.0911 216.596C-22.4272 224.643 -12.067 230.043 -1.54008 235.171C-0.176883 235.836 1.23175 236.366 2.45862 237.273C3.64006 238.574 5.15472 238.967 6.85114 238.862C17.999 244.125 30.1618 246.364 41.7035 250.493C43.9906 251.31 46.5504 251.613 48.9738 252.203C51.5639 252.823 53.7602 254.26 54.1994 257.028C54.6387 259.872 55.1688 262.398 58.0921 263.714C58.5465 263.925 58.5616 264.545 58.3799 265.06C56.9258 266.542 55.1234 266.406 53.4572 265.801C43.8997 262.307 33.6909 261.187 24.1183 257.784C22.0129 257.028 20.6497 257.527 20.6194 260.038C20.574 264.682 20.574 269.325 20.6194 273.969C20.6497 276.344 22.2552 277.024 24.1183 277.766C32.5398 281.123 41.3097 283.211 50.1098 285.238C51.6699 285.601 53.8965 285.571 53.018 288.323C52.715 295.054 52.609 294.873 45.9142 293.179C36.5385 290.819 27.1779 288.308 18.1202 284.965C7.79023 281.154 -2.46402 277.115 -12.1275 271.67C-19.3373 267.616 -25.9715 262.821 -32.4694 257.784C-38.6795 253.458 -43.0418 247.68 -45.9045 240.737H-45.8893Z" stroke="#6F6F6F" stroke-width="1.03481" stroke-miterlimit="10"/>
<path d="M-41.7985 206.235C-44.7218 202.892 -46.5999 199.035 -47.5693 194.694C-47.8117 193.62 -47.8117 192.44 -48.7659 191.623C-49.4929 187.66 -49.3263 183.697 -48.9325 179.719C-45.267 167.785 -38.1784 158.437 -27.9999 151.161C-23.4559 147.909 -18.8817 144.778 -14.1408 141.874C-4.20461 136.988 5.61038 131.861 16.1373 128.321C22.0293 126.325 28.0425 124.691 34.0102 122.891C39.7054 122.089 45.143 120.229 50.717 118.883C56.3818 117.506 57.5632 118.414 57.5784 124.041C57.5784 134.084 57.5178 144.128 57.639 154.171C57.6692 156.123 57.23 156.879 55.1852 157.514C51.959 158.513 48.6419 159.208 45.4005 160.131C41.8562 161.144 40.0234 159.375 40.8262 155.729C41.22 153.945 41.3564 152.356 40.7505 150.602C39.5236 147.123 38.8723 146.82 35.2826 148.575C32.4804 150.39 29.436 151.524 26.0583 151.585C24.2407 150.829 23.9378 149.286 23.9529 147.561C23.9832 145.005 22.6049 144.612 20.4843 145.323C8.4125 149.437 -2.96259 154.867 -12.8382 163.096C-18.9877 168.223 -21.3354 174.864 -20.775 182.699C-21.5323 184.302 -21.2294 186.087 -21.5929 187.751C-23.9103 192.001 -28.5149 193.771 -31.726 197.069C-33.8919 199.292 -36.4214 201.168 -38.1633 203.83C-38.9661 205.055 -40.0718 206.19 -41.7833 206.22L-41.7985 206.235Z" stroke="#6F6F6F" stroke-width="1.03481" stroke-miterlimit="10"/>
<path d="M53.0188 288.308C52.837 287.022 51.8979 286.886 50.8225 286.735C40.644 285.253 30.9805 281.94 21.3018 278.628C19.5599 278.023 18.9844 276.933 18.9844 275.255C19.0147 269.613 19.0147 263.971 18.9844 258.329C18.9844 255.591 20.2113 254.608 22.8013 255.666C32.7678 259.75 43.7491 260.204 53.6701 264.394C55.109 264.999 56.6237 264.893 58.1232 264.576C59.1229 263.623 60.4103 263.26 61.6221 263.653C69.1802 266.149 77.1928 265.892 84.8872 267.586C89.7341 268.66 90.1128 269.189 90.4612 274.075C90.4612 275.073 89.9765 275.935 89.5978 276.828C88.2801 280.836 88.6284 285.026 88.9465 289.049C89.2646 293.164 87.1441 293.118 84.4328 292.695C78.4045 291.742 72.3913 290.683 66.3781 289.67C62.8186 289.004 59.3349 287.87 55.6694 287.93L53.0036 288.338L53.0188 288.308Z" stroke="#6F6F6F" stroke-width="1.03481" stroke-miterlimit="10"/>
<path d="M133.022 382.709C131.492 379.911 131.931 376.795 131.522 373.815C131.325 372.454 131.083 371.107 130.856 369.746C130.704 369.549 130.417 369.323 130.432 369.156C131.189 364.165 127.66 359.808 128.281 354.847C128.448 351.565 127.948 348.328 127.508 345.091C127.887 340.16 125.736 335.44 126.327 330.494C126.721 328.452 128.205 326.562 127.175 324.323C126.721 310.528 126.312 296.733 125.782 282.938C125.706 280.806 126.115 279.58 128.493 279.807C130.25 278.461 132.219 278.809 134.173 279.081C134.567 279.232 134.915 279.459 135.218 279.762C136.657 282.137 136.46 284.693 136.399 287.385C136.263 292.604 137.399 297.852 135.536 303.01C134.915 304.75 136.43 305.037 137.763 305.189C140.853 305.642 144.079 304.508 147.063 306.02C149.91 310.074 147.896 314.415 147.229 318.378C146.245 324.187 146.896 329.798 147.32 335.501C148.017 344.879 147.502 354.272 147.623 363.665C147.684 368.551 146.896 373.376 146.108 378.186C145.881 379.578 145.457 380.848 144.73 382.028C144.473 382.361 144.155 382.618 143.806 382.815C141.716 383.027 139.701 382.346 137.778 381.801C136.233 381.363 135.218 381.696 134.067 382.452C133.749 382.603 133.4 382.694 133.052 382.739L133.022 382.709Z" stroke="#6F6F6F" stroke-width="1.03481" stroke-miterlimit="10"/>
<path d="M174.721 306.656C174.251 311.39 173.782 316.11 173.297 320.844C173.131 322.493 173.449 324.021 173.948 325.609C179.704 343.684 182.749 362.138 181.613 381.166C179.856 382.513 178.023 383.224 175.751 382.377C174.297 381.832 172.828 382.301 171.449 383.027C171.055 383.103 170.662 383.057 170.283 382.936C168.238 381.726 167.723 379.624 167.133 377.582C160.938 356.012 155.757 334.216 152.228 312.041C151.925 310.12 151.35 308.063 152.652 306.202C153.773 305.144 155.197 305.295 156.545 305.28C161.286 305.234 166.027 305.234 170.753 305.28C172.191 305.295 173.827 304.977 174.721 306.671V306.656Z" stroke="#6F6F6F" stroke-width="1.03481" stroke-miterlimit="10"/>
<path d="M136.854 155.911C135.582 153.778 135.279 151.418 135.369 148.998C135.157 148.635 134.976 148.272 134.809 147.894C135.082 142.01 139.398 137.639 145.063 137.775C147.002 137.82 148.744 137.487 150.531 136.867C161.21 133.207 167.586 136.64 170.494 147.531C170.434 148.953 171.085 150.193 171.509 151.494C172.342 154.958 174.417 157.484 177.401 159.39C179.295 160.6 181.158 161.87 182.839 163.368C190.821 170.492 190.2 183.077 181.551 189.415C180.325 190.322 179.037 191.063 177.401 190.837C173.191 186.934 168.086 185.618 162.497 185.452C160.77 185.391 159.483 184.317 159.21 182.427C158.513 178.569 158.877 174.682 158.998 170.81C159.059 168.813 160.316 167.376 161.528 165.909C164.103 162.793 163.663 161.674 159.771 161.008C156.65 160.479 145.836 155.033 141.443 151.781C140.095 152.901 140.262 155.124 138.505 155.956C137.944 156.168 137.384 156.138 136.839 155.926L136.854 155.911Z" stroke="#6F6F6F" stroke-width="1.03481" stroke-miterlimit="10"/>
<path d="M322.174 150.178C325.975 153.612 330.58 156.093 333.927 160.071C334.882 161.205 336.124 162.143 336.517 163.686C338.971 168.45 340.456 173.397 338.35 178.645C337.441 180.899 336.911 184.06 333.109 183.032C329.929 181.837 327.596 179.386 324.855 177.541C323.809 176.603 322.658 175.802 321.28 175.408C316.706 173.034 312.343 170.22 307.466 168.42C306.769 168.072 306.254 167.528 305.982 166.817C304.089 161.689 299.984 158.8 295.44 156.319C294.152 155.609 292.668 155.049 292.668 153.173C293.365 149.18 292.683 145.157 292.819 141.148C292.91 138.425 293.637 138.078 296.243 138.94C305.24 141.92 313.631 146.215 322.174 150.193V150.178Z" stroke="#6F6F6F" stroke-width="1.03481" stroke-miterlimit="10"/>
<path d="M40.9764 160.812C40.8552 169.433 40.734 178.04 40.6432 186.662C40.6432 187.509 40.9006 188.371 41.0521 189.218C40.2039 190.232 39.2345 189.657 38.2803 189.445C28.3744 187.206 19.0744 183.425 10.9104 177.465C3.80662 172.292 2.38284 166.045 10.2591 159.632C11.804 158.376 13.5913 157.363 14.5607 155.502C15.3635 154.519 16.3934 153.96 17.6658 153.854C23.4669 152.023 29.5104 151.025 35.0844 148.454C37.0989 147.531 39.0679 146.744 40.7795 148.968C41.8852 152.901 40.7492 156.864 40.9764 160.812V160.812Z" stroke="#6F6F6F" stroke-width="1.03481" stroke-miterlimit="10"/>
<path d="M160.226 181.973C160.423 183.198 160.922 184.045 162.407 184C163.664 183.969 164.921 184.272 166.163 184.227C171.192 184.03 175.024 186.178 178.008 190.065C180.537 191.971 181.401 194.906 182.476 197.643C183.188 199.443 182.764 201.107 180.552 201.727C162.437 202.03 144.337 201.803 126.222 201.833C124.313 201.833 122.48 201.455 121.132 199.897C123.389 196.448 124.692 192.455 127.267 189.188C128.509 187.615 129.584 185.558 131.583 185.164C134.264 184.635 133.401 183.122 133.159 181.625C136.43 182.29 139.702 183.017 142.989 181.761C143.307 181.625 143.64 181.549 143.989 181.534C145.155 181.655 145.594 182.774 146.427 183.334C150.184 184.242 153.894 184.136 157.605 183.107C158.423 182.608 159.014 181.564 160.226 181.973V181.973Z" stroke="#6F6F6F" stroke-width="1.03481" stroke-miterlimit="10"/>
<path d="M121.132 199.898C132.022 201.41 142.989 200.76 153.924 200.957C163.103 201.123 172.297 200.775 181.491 200.654C184.187 198.688 187.474 198.658 190.503 198.552C200.636 198.189 210.724 197.145 220.827 196.404C233.58 195.133 246.182 192.97 258.769 190.565C271.295 188.175 283.352 184.333 294.879 178.858C297.878 177.436 300.498 175.5 302.573 172.928C305.224 169.661 305.224 167.453 302.573 164.186C298.287 158.907 292.349 156.093 286.169 153.93C269.75 148.152 252.817 144.597 235.549 142.54C230.975 141.996 226.249 142.117 221.887 140.196C220.418 138.35 221.645 137.503 223.205 136.898C224.523 136.384 225.931 136.505 227.295 136.656C235.216 137.458 242.971 139.606 251.029 139.47C253.044 139.44 254.695 140.997 256.603 141.587C257.497 141.86 257.951 142.631 258.527 143.266C270.265 145.369 281.641 148.697 292.682 153.189C295.015 154.611 297.363 156.033 299.695 157.454C303.588 159.814 306.178 163.217 307.662 167.483C308.889 168.542 309.329 169.903 309.344 171.491C309.404 180.612 309.45 189.733 309.313 198.854C309.298 200.261 309.086 201.607 307.753 202.469C307.647 203.074 307.465 203.483 306.89 202.787C304.663 201.864 304.8 199.837 304.739 197.992C304.588 192.849 304.709 187.706 304.648 182.548C304.648 181.323 304.936 180.053 304.164 178.631C291.728 187.283 277.43 191.17 262.95 194.271C248.227 197.432 233.368 199.747 218.328 200.987C207.816 201.849 197.35 202.999 186.808 203.074C184.066 203.089 181.309 202.348 178.598 203.377C175.236 204.073 171.828 203.876 168.435 203.876C158.998 203.891 149.562 203.785 140.141 203.921C133.704 204.012 127.357 203.165 120.981 202.696C113.316 202.968 105.698 202.121 98.0788 201.441C85.2042 200.276 72.3599 198.642 59.6368 196.268C46.7621 193.863 34.0693 190.792 21.8914 185.921C16.8476 183.91 12.0916 181.369 7.77479 177.133C7.69905 185.574 7.80508 193.636 7.7142 201.698C7.6839 203.619 8.18375 205.842 5.80573 206.962C4.00328 206.16 4.32136 204.511 4.30621 203.059C4.24563 197.417 4.23048 191.775 4.30621 186.148C4.33651 183.244 4.15475 180.401 3.44286 177.587C3.32168 176.952 3.38227 176.301 3.47315 175.666C3.44286 173.669 3.44286 171.673 3.50344 169.676C3.6852 163.172 7.72934 157.893 14.1515 155.806C14.5453 155.806 14.9088 155.957 15.1966 156.229C15.9388 157.182 15.0603 157.56 14.515 157.969C13.2124 158.952 11.7583 159.754 10.5921 160.858C4.03358 167.135 4.82119 171.219 11.8947 176.695C18.8924 182.11 27.1624 185.241 35.69 187.555C37.4924 188.039 39.2646 188.69 41.0519 189.264C51.8817 192.047 62.8781 193.984 73.9049 195.693C84.4469 197.326 95.0647 198.4 105.713 199.172C110.832 199.535 115.952 200.533 121.132 199.928V199.898Z" stroke="#6F6F6F" stroke-width="1.03481" stroke-miterlimit="10"/>
<path d="M127.782 330.556C128.07 335.32 128.358 340.085 128.645 344.85C126.752 345.062 127.979 343.383 127.418 342.989C127.873 346.756 127.827 350.794 129.463 354.561C130.311 359.598 130.857 364.65 130.842 369.762C129.751 369.974 128.645 370.352 127.555 370.367C126.434 370.367 125.752 369.55 125.707 368.401C125.661 367.251 126.07 366.419 127.434 366.556C128.585 366.661 129.842 366.888 129.978 365.24C130.115 363.636 128.873 363.198 127.646 362.774C126.464 362.351 125.359 361.745 124.162 361.398C120.815 360.399 119.118 358.357 119.542 354.757C119.966 351.218 119.148 348.873 114.801 349.327C112.56 349.554 110.742 348.404 109.621 346.347C110.394 342.551 111.727 340.705 114.423 339.737C112.438 339.329 112.03 340.947 111.333 342.082C108.94 345.924 108.955 345.939 105.289 343.549C104.759 343.201 104.153 343.02 103.669 342.611H103.684C101.154 341.068 100.76 343.549 99.9274 344.759C97.7008 347.966 94.1565 348.026 91.7331 344.82C90.9606 343.806 91.2029 342.944 91.8694 342.142C93.1568 340.599 93.7324 338.633 95.0047 337.105C95.959 335.941 96.7466 334.625 97.3222 333.278C98.5793 330.314 100.306 330.238 102.472 332.174C104.895 334.337 106.789 334.428 108.394 331.161C109.879 328.121 112.181 327.924 114.665 330.057C116.68 331.781 118.058 331.539 119.376 329.149C120.148 327.742 120.921 325.61 123.177 326.215C125.389 326.805 127.282 328.045 127.752 330.601L127.782 330.556Z" stroke="#6F6F6F" stroke-width="1.03481" stroke-miterlimit="10"/>
<path d="M209.073 328.619C205.362 333.853 200 335.38 195.562 332.476C190.019 328.846 188.868 323.537 192.366 317.774C194.457 317.108 195.926 318.318 197.35 319.498C198.395 320.36 199.304 321.374 200.546 321.964C201.606 322.795 202.636 322.327 203.741 321.994C205.832 321.358 208.134 320.043 209.952 322.402C211.693 324.671 210.058 326.653 209.073 328.634V328.619Z" stroke="#6F6F6F" stroke-width="1.03481" stroke-miterlimit="10"/>
<path d="M55.3506 92.6995C55.2295 96.118 53.5482 99.7028 51.3519 103.061C50.7158 104.029 49.6404 105.466 48.3378 104.195C44.8692 100.807 41.2037 97.3886 41.0068 92.0642C40.8553 88.1164 44.2633 85.2576 48.7467 85.2576C52.2607 85.2576 55.2901 88.3433 55.3506 92.6844V92.6995Z" stroke="#6F6F6F" stroke-width="1.03481" stroke-miterlimit="10"/>
<path d="M9.76172 104.689C9.92833 98.0636 14.7904 93.3443 21.258 93.5107C27.0591 93.662 32.4513 99.0317 32.4362 104.628C32.4059 111.223 27.256 116.321 20.7581 116.2C14.0634 116.079 9.5951 111.39 9.77686 104.689H9.76172Z" stroke="#6F6F6F" stroke-width="1.03481" stroke-miterlimit="10"/>
<path d="M303.089 276.132C303.372 281.699 300.893 285.359 295.652 287.114C290.063 288.959 284.459 290.744 278.87 292.559C276.704 293.633 274.265 293.603 272.008 294.329C266.283 295.539 260.557 296.704 254.847 297.959C245.184 300.077 235.384 301.393 225.584 302.663C222.236 303.102 218.904 303.51 215.557 303.934C213.951 303.904 212.194 304.735 210.846 303.147C212.27 300.092 215.36 300.546 217.723 300.44C229.946 299.85 241.76 296.915 253.726 294.843C266.601 292.604 279.051 288.702 291.593 285.223C294.319 284.936 296.97 284.452 298.984 282.334C300.923 280.655 299.56 277.66 301.514 275.996C302.074 275.709 302.604 275.709 303.089 276.132V276.132Z" stroke="#6F6F6F" stroke-width="1.03481" stroke-miterlimit="10"/>
<path d="M40.9757 160.812C39.9458 158.165 40.1427 155.442 40.3547 152.704C40.4608 151.343 40.7334 149.967 39.8852 148.726C38.2797 146.457 36.038 149.513 34.3264 148.061C35.4018 145.883 37.4466 145.55 39.4308 145.928C41.2787 146.291 41.521 148.091 41.8694 149.755C42.3389 152.009 42.3995 154.126 41.8694 156.41C41.2332 159.133 42.7176 160.57 45.1411 159.587C48.3219 158.316 51.7147 158.029 54.9258 156.985C56.2738 156.546 56.9554 156.274 56.9251 154.535C56.7585 144.264 56.8039 133.994 56.7585 123.708C56.7434 119.79 55.6074 119.095 51.7147 119.306C47.3979 119.548 43.9596 122.543 39.5974 122.634C37.7495 122.679 35.8865 123.073 33.9932 122.876C40.8243 120.017 48.0946 118.747 55.2893 117.264C57.531 116.81 58.2429 117.869 58.1974 120.244C58.0308 131.679 58.0308 143.13 58.1217 154.565C58.1368 156.41 57.7279 157.212 55.9103 157.756C51.0028 159.224 46.2922 161.553 40.9454 160.782L40.9757 160.812Z" stroke="#6F6F6F" stroke-width="1.03481" stroke-miterlimit="10"/>
<path d="M143.669 395.369C135.687 395.339 127.72 395.308 119.738 395.263C119.586 390.786 123.948 391.89 126.039 390.181C127.447 390.347 129.098 391.497 129.962 389.273C130.34 388.638 130.946 388.471 131.628 388.502C135.657 387.382 139.701 386.429 143.745 388.502C145.608 390.816 145.835 393.1 143.669 395.369Z" stroke="#6F6F6F" stroke-width="1.03481" stroke-miterlimit="10"/>
<path d="M41.4814 362.137C42.0419 359.46 42.6174 356.767 43.1627 354.06C43.4202 352.759 44.2836 352.517 45.4044 352.668C46.1466 352.774 46.8736 352.986 47.6158 353.137C54.1591 354.423 53.2352 355.119 54.3409 348.614C54.8862 345.423 56.1131 344.228 59.2938 345.105C61.3538 345.665 63.4592 345.998 65.5342 346.512C66.2764 346.693 67.0489 347.102 66.8369 348.04C66.6248 349.008 65.6857 348.932 64.989 348.841C63.2471 348.614 61.4901 348.433 59.824 347.934C57.5217 347.238 56.8401 348.282 56.7795 350.293C56.7795 350.414 56.7644 350.551 56.7492 350.672C55.7798 357.75 55.7647 357.811 48.9942 356.117C46.8433 355.572 45.5862 355.89 45.2681 358.28C45.0863 359.641 44.7986 360.987 44.5108 362.334C44.2533 363.529 44.1775 365.223 42.572 365.056C40.9816 364.89 41.8904 363.211 41.4966 362.167L41.4814 362.137Z" stroke="#6F6F6F" stroke-width="1.03481" stroke-miterlimit="10"/>
<path d="M258.512 143.236C257.906 143.311 257.361 143.236 257.012 142.661C255.558 141.33 255.528 139.575 255.528 137.79C255.498 133.026 255.452 128.246 255.528 123.481C255.588 120.517 254.589 118.822 251.484 118.217C240.896 116.16 230.263 114.496 219.555 113.196C215.208 112.666 210.8 112.56 206.483 111.728C205.347 111.501 204.272 111.29 203.499 110.337C202.863 108.87 204.272 109.172 204.878 108.794C218.661 109.717 232.293 111.834 245.895 114.239C248.985 114.784 252.029 115.585 255.134 115.964C257.891 116.296 258.633 117.703 258.603 120.259C258.497 127.913 258.542 135.582 258.527 143.236H258.512Z" stroke="#6F6F6F" stroke-width="1.03481" stroke-miterlimit="10"/>
<path d="M135.642 147.909C135.551 148.272 135.461 148.635 135.385 148.983C127.993 149.407 120.587 149.74 113.195 150.299C110.499 150.496 109.666 149.573 109.696 146.956C109.802 135.4 109.817 123.844 109.696 112.288C109.666 109.626 110.363 108.295 113.241 108.431C115.104 108.506 116.997 108.204 118.875 108.068C120.829 108.884 123.162 107.417 124.994 109.021C124.313 110.745 122.798 110.881 121.253 110.972C119.617 111.063 117.981 111.017 116.346 111.093C114.286 111.168 112.968 112.061 112.922 114.254C112.741 124.298 112.786 134.326 112.907 144.37C112.938 146.835 114.71 147.047 116.588 147.062C121.359 147.093 126.07 145.898 130.856 146.321C132.583 146.472 134.446 146.14 135.612 147.924L135.642 147.909Z" stroke="#6F6F6F" stroke-width="1.03481" stroke-miterlimit="10"/>
<path d="M174.72 306.656C167.435 306.686 160.134 306.732 152.848 306.762C150.849 309.273 148.895 308.002 146.941 306.701C143.609 306.58 140.277 306.459 136.929 306.323C135.854 305.325 135.263 304.145 135.581 302.648C136.96 296.37 135.718 290.002 136.157 283.695C136.248 282.273 135.869 280.972 134.657 280.05L134.703 279.853C134.142 279.021 134.9 278.386 135.021 277.645C135.415 276.404 135.596 275.103 135.899 273.833C136.202 272.865 136.611 272.033 137.868 272.29C138.383 272.668 138.641 273.197 138.762 273.818C139.232 275.618 139.292 277.448 139.444 279.293C139.444 279.717 139.398 280.125 139.277 280.534C138.353 287.34 138.989 294.177 138.914 300.999C138.898 302.754 139.777 303.525 141.579 303.903C143.442 304.296 145.245 304.493 147.123 304.402C149.274 303.752 151.41 303.979 153.56 304.417C160.649 304.175 167.768 305.174 174.826 303.812C175.069 303.737 175.311 303.631 175.553 303.616C184.535 303.48 193.472 302.073 202.484 302.769C203.332 303.222 204.347 303.54 204.286 304.796C194.486 306.021 184.626 306.399 174.75 306.641L174.72 306.656Z" stroke="#6F6F6F" stroke-width="1.03481" stroke-miterlimit="10"/>
<path d="M136.884 163.595L136.99 164.593C138.065 169.902 138.989 175.257 143.049 179.356C144.033 180.339 142.973 181.807 143.715 182.896C139.474 184.771 135.794 184.333 133.173 181.625C132.386 179.538 132.022 177.42 132.401 175.197C134.854 172.277 135.188 168.587 136.157 165.123C136.187 164.503 136.172 163.867 136.899 163.58L136.884 163.595Z" stroke="#6F6F6F" stroke-width="1.03481" stroke-miterlimit="10"/>
<path d="M181.416 383.526L181.658 388.079C183.097 393.328 181.901 394.976 176.69 394.386C173.04 393.978 169.48 394.795 165.876 394.674C163.149 394.583 162.134 393.57 163.331 390.938C165.27 388.457 168.36 388.472 170.98 387.444C171.889 387.202 172.752 386.763 173.706 386.672C173.949 386.597 174.206 386.476 174.433 386.521C177.357 387.081 178.962 385.795 179.492 382.966C180.265 382.694 180.962 382.724 181.416 383.526V383.526Z" stroke="#6F6F6F" stroke-width="1.03481" stroke-miterlimit="10"/>
<path d="M124.812 108.733C122.859 108.279 120.753 109.262 118.875 108.068C147.563 106.358 176.235 106.268 204.877 108.809L203.242 109.565C200.697 112.046 197.516 111.062 194.638 110.866C184.763 110.2 174.887 109.505 164.966 109.535C153.424 109.58 141.883 109.338 130.356 110.231C128.433 110.382 126.251 110.654 124.797 108.733H124.812Z" stroke="#6F6F6F" stroke-width="1.03481" stroke-miterlimit="10"/>
<path d="M197.335 313.977C203.5 312.087 208.468 314.96 210.028 321.298C206.514 321.117 203.167 323.597 199.577 321.933C197.502 319.649 195.442 317.365 197.35 313.977H197.335Z" stroke="#6F6F6F" stroke-width="1.03481" stroke-miterlimit="10"/>
<path d="M127.782 330.555C123.996 325.881 121.981 325.82 119.27 330.706C118.24 332.582 117.483 332.567 115.847 331.689C111.061 329.073 110.924 329.042 107.743 333.262C106.547 334.851 105.653 334.972 104.048 334.079C99.5037 331.538 99.4885 331.599 96.6713 336.03C96.338 336.545 95.8382 336.938 95.3989 337.392C94.9143 337.331 94.8385 336.878 94.6265 336.56C95.0354 335.788 95.3838 334.972 95.8533 334.23C97.9335 330.873 100.635 330.197 103.957 332.204C105.138 332.93 105.623 333.671 106.85 331.614C109.758 326.713 110.091 326.849 115.574 329.874C117.816 331.115 118.588 329.647 119.149 328.044C120.345 324.61 122.087 323.657 125.283 326.047C128.237 328.241 126.51 324.913 127.146 324.323C128.312 326.304 127.616 328.483 127.752 330.57L127.782 330.555Z" stroke="#6F6F6F" stroke-width="1.03481" stroke-miterlimit="10"/>
<path d="M142.943 388.82C139.171 388.85 135.37 389.803 131.628 388.518C132.946 386.778 132.234 384.57 133.022 382.709C133.173 382.694 133.295 382.618 133.385 382.497C136.506 380.592 139.611 381.756 142.701 382.603C142.701 382.739 142.746 382.845 142.867 382.936C144.988 384.872 144.942 386.839 142.943 388.835V388.82Z" stroke="#6F6F6F" stroke-width="1.03481" stroke-miterlimit="10"/>
<path d="M163.982 390.984C163.286 393.298 164.164 394.205 166.527 393.948C170.45 393.51 174.297 392.874 178.357 393.389C182.234 393.873 181.386 390.394 181.643 388.079C183.885 390.046 183.037 392.859 183.628 395.279C175.161 395.295 166.678 395.31 158.212 395.325C156.954 393.979 157.469 392.708 158.59 391.74C160.165 390.394 161.922 389.426 163.967 390.984H163.982Z" stroke="#6F6F6F" stroke-width="1.03481" stroke-miterlimit="10"/>
<path d="M303.09 276.132H301.787C300.424 275.346 300.166 274.014 300.166 272.608C300.121 267.42 299.803 262.216 300.484 257.028C300.53 256.075 300.409 255.137 300.121 254.23C300.257 251.205 299.591 248.104 300.893 245.184C301.439 244.277 302.181 243.868 303.241 244.232C305.771 246.425 304.271 249.178 304.256 251.719C304.165 252.717 303.377 253.504 303.393 254.532C303.287 261.732 303.181 268.932 303.074 276.132H303.09Z" stroke="#6F6F6F" stroke-width="1.03481" stroke-miterlimit="10"/>
<path d="M94.6404 336.56C94.8979 336.832 95.1554 337.12 95.4129 337.392C94.8828 338.375 94.3678 339.373 93.8225 340.342C92.7774 342.172 90.7477 343.684 94.0042 345.742C97.2759 347.814 98.3362 345.847 99.7145 343.669C101.623 340.705 101.653 340.72 103.683 342.595C101.82 342.822 100.911 344.153 100.23 345.681C98.9269 348.615 97.0184 349.251 94.3223 347.36C93.3075 346.649 92.2018 346.044 91.1415 345.378C89.8995 344.592 89.43 343.79 90.5811 342.384C92.0655 340.553 93.2772 338.511 94.6101 336.56H94.6404Z" stroke="#6F6F6F" stroke-width="1.03481" stroke-miterlimit="10"/>
<path d="M257.043 100.912C255.665 100.912 255.559 99.7327 255.271 98.8402C254.938 97.8117 254.074 96.768 254.665 95.6638C255.044 94.9377 255.937 95.2554 256.195 95.7999C257.846 99.1276 260.012 98.0991 262.42 96.7982C263.162 96.405 264.45 95.4974 265.055 96.7075C265.676 97.9629 264.192 98.2503 263.389 98.7343C261.435 99.9293 259.254 100.474 257.028 100.912H257.043Z" stroke="#6F6F6F" stroke-width="1.03481" stroke-miterlimit="10"/>
<path d="M197.335 313.977C197.517 316.654 198.88 318.908 199.941 321.267C200.198 321.782 200.289 322.311 200.047 322.871C197.487 321.177 194.912 319.483 192.352 317.789C193.231 315.505 195.26 314.718 197.32 313.977H197.335Z" stroke="#6F6F6F" stroke-width="1.03481" stroke-miterlimit="10"/>
<path d="M103.668 342.58C103.789 342.58 103.956 342.519 104.031 342.58C108.015 345.469 109.666 343.14 112.029 339.903C114.604 336.378 116.24 341.113 119.33 341.43C116.346 343.23 114.892 339.116 113.044 341.007C111.605 342.489 110.741 344.531 109.621 346.331C106.773 346.467 105.213 344.546 103.668 342.595V342.58Z" stroke="#6F6F6F" stroke-width="1.03481" stroke-miterlimit="10"/>
<path d="M228.173 86.8156C229.491 84.6828 230.733 82.9433 229.324 80.4929C231.293 82.1114 233.005 83.2005 236.064 81.0072C234.716 83.8055 232.262 85.4391 234.868 87.9046C232.429 87.3903 230.793 85.1215 228.188 86.8156H228.173Z" stroke="#6F6F6F" stroke-width="1.03481" stroke-miterlimit="10"/>
<path d="M73.1028 166.273C73.7692 166.333 74.466 166.621 74.5569 167.256C74.7689 168.965 75.9201 169.706 77.253 170.523C78.1921 171.083 78.3132 172.384 77.3741 173.11C76.4199 173.851 74.9355 173.972 74.5872 172.595C74.1782 170.932 73.4966 169.994 71.8305 169.51C71.058 169.283 71.1186 168.239 71.3912 167.513C71.6639 166.742 72.2546 166.303 73.1028 166.288V166.273Z" stroke="#6F6F6F" stroke-width="1.03481" stroke-miterlimit="10"/>
<path d="M303.407 254.532C302.816 253.972 302.967 253.398 303.376 252.823C305.83 246.651 305.391 240.178 305.436 233.749C305.451 231.813 304.967 229.741 306.466 228.047C306.663 227.441 307.027 227.184 307.663 227.441C307.693 233.688 307.738 239.936 307.769 246.183C307.784 249.737 305.906 252.293 303.391 254.517L303.407 254.532Z" stroke="#6F6F6F" stroke-width="1.03481" stroke-miterlimit="10"/>
<path d="M200.06 322.856C200.03 322.326 199.984 321.797 199.954 321.252C203.317 322.463 206.679 320.042 210.027 321.283C211.678 323.99 211.602 326.471 209.072 328.619C209.224 328.029 209.33 327.439 209.512 326.864C210.814 322.962 209.83 321.903 205.695 322.599C203.847 322.916 201.999 324.429 200.045 322.841L200.06 322.856Z" stroke="#6F6F6F" stroke-width="1.03481" stroke-miterlimit="10"/>
<path d="M60.6673 313.054C62.8333 313.342 64.3631 314.264 64.3328 316.594C64.3025 318.636 63.1665 319.891 61.0611 319.937C58.7891 319.982 57.532 318.711 57.4714 316.488C57.4259 314.401 58.7285 313.357 60.6673 313.039V313.054Z" stroke="#6F6F6F" stroke-width="1.03481" stroke-miterlimit="10"/>
<path d="M173.903 387.746L171.647 388.669C169.147 386.778 168.89 384.827 171.465 382.77C171.586 382.694 171.692 382.573 171.753 382.452C175.024 381.242 178.251 382.119 181.477 382.724C181.462 382.997 181.431 383.269 181.416 383.541C180.78 383.541 180.144 383.541 179.508 383.541C177.887 385.281 174.237 384.343 173.903 387.777V387.746Z" stroke="#6F6F6F" stroke-width="1.03481" stroke-miterlimit="10"/>
<path d="M204.256 304.811L202.938 304.039C204.68 301.211 207.392 300.953 210.845 303.283C212.405 303.601 214.086 303.041 215.556 303.964C211.905 305.718 208.028 304.478 204.256 304.811Z" stroke="#6F6F6F" stroke-width="1.03481" stroke-miterlimit="10"/>
<path d="M139.733 100.535C139.612 101.866 138.945 102.577 137.567 102.486C136.219 102.396 135.568 101.639 135.583 100.308C135.613 98.8409 136.643 98.4628 137.824 98.4023C139.279 98.3267 139.733 99.2493 139.718 100.535H139.733Z" stroke="#6F6F6F" stroke-width="1.03481" stroke-miterlimit="10"/>
<path d="M85.2957 132.073C86.5831 132.073 86.9618 132.859 86.9618 133.994C86.9618 135.219 86.3559 135.748 85.1442 135.733C83.7204 135.733 83.1903 135.007 83.2963 133.646C83.3872 132.36 84.19 132.027 85.3108 132.073H85.2957Z" stroke="#6F6F6F" stroke-width="1.03481" stroke-miterlimit="10"/>
<path d="M181.476 382.709C178.234 382.618 174.993 382.528 171.751 382.437C171.327 381.454 171.797 381.06 172.706 381.06C175.674 381.06 178.643 381.121 181.612 381.151C181.566 381.665 181.521 382.18 181.476 382.709Z" stroke="#6F6F6F" stroke-width="1.03481" stroke-miterlimit="10"/>
<path d="M273.719 310.332C274.87 310.317 275.673 310.71 275.748 311.981C275.824 313.13 275.445 313.947 274.112 313.947C273.007 313.947 272.143 313.66 272.083 312.329C272.037 311.164 272.401 310.377 273.703 310.332H273.719Z" stroke="#6F6F6F" stroke-width="1.03481" stroke-miterlimit="10"/>
<path d="M81.6898 178.418C81.7049 179.628 81.1445 180.324 79.9025 180.37C78.9179 180.4 78.1606 180.052 78.0697 178.933C77.9637 177.511 78.7362 176.83 80.0842 176.785C81.1748 176.739 81.6595 177.39 81.6898 178.433V178.418Z" stroke="#6F6F6F" stroke-width="1.03481" stroke-miterlimit="10"/>
<path d="M274.825 120.274C276.128 120.319 276.749 120.924 276.764 122.134C276.764 123.39 276.097 123.919 274.901 123.919C273.704 123.919 273.068 123.375 273.083 122.119C273.083 120.864 273.78 120.35 274.81 120.274H274.825Z" stroke="#6F6F6F" stroke-width="1.03481" stroke-miterlimit="10"/>
<path d="M129.962 389.29C130.401 390.182 131.886 391.211 130.492 392.058C128.493 393.268 127.069 391.937 126.039 390.197C127.251 389.517 128.599 389.35 129.962 389.29V389.29Z" stroke="#6F6F6F" stroke-width="1.03481" stroke-miterlimit="10"/>
<path d="M55.6978 287.915C59.4693 287.28 63.0136 287.991 66.4215 289.654C62.7561 289.669 59.2724 288.52 55.6978 287.915Z" stroke="#6F6F6F" stroke-width="1.03481" stroke-miterlimit="10"/>
<path d="M293.349 303.328C293.333 304.387 292.773 304.871 291.743 304.81C290.88 304.75 290.456 304.205 290.456 303.374C290.456 302.315 291.046 301.846 292.076 301.891C292.955 301.937 293.333 302.481 293.364 303.328H293.349Z" stroke="#6F6F6F" stroke-width="1.03481" stroke-miterlimit="10"/>
<path d="M128.538 279.233L130.825 278.658C132.658 276.601 134.43 276.691 136.142 278.824C135.657 279.172 135.172 279.535 134.688 279.883C132.613 279.853 130.537 279.823 128.478 279.807C128.523 279.626 128.553 279.444 128.538 279.248V279.233Z" stroke="#6F6F6F" stroke-width="1.03481" stroke-miterlimit="10"/>
<path d="M272.007 294.343C274.052 292.831 276.491 292.831 278.869 292.574C276.869 294.298 274.643 295.115 272.007 294.343Z" stroke="#6F6F6F" stroke-width="1.03481" stroke-miterlimit="10"/>
<path d="M138.52 155.2C138.035 156.864 139.959 159.193 137.111 160.192C137.036 158.77 136.945 157.348 136.869 155.926C137.414 155.684 137.975 155.457 138.52 155.215V155.2Z" stroke="#6F6F6F" stroke-width="1.03481" stroke-miterlimit="10"/>
<path d="M125.812 278.371C113.679 278.144 101.638 276.767 89.5809 275.572C90.005 268.75 84.8249 268.917 80.3415 268.191C72.95 266.996 65.5433 265.786 58.1517 264.576C54.0773 264.334 52.5323 262.171 52.9564 258.177C53.2291 255.591 51.4872 254.441 49.1849 253.821C45.0045 252.702 40.8695 251.416 36.6739 250.342C26.2378 247.665 15.9684 244.458 6.1686 239.905C4.33586 237.334 4.91143 234.596 5.57788 231.858C6.1686 231.087 6.95622 230.905 7.86502 231.057C9.74319 231.752 9.65232 233.537 10.0613 235.05C10.7126 237.5 11.7728 238.786 14.8173 238.257C17.9829 237.697 21.194 237.455 24.2536 236.336C25.9804 236.094 26.4953 234.974 26.5105 233.401C26.5559 228.5 26.5105 223.6 26.5256 218.714C26.5256 216.959 25.7077 215.946 24.1476 215.28C22.6481 214.645 21.1334 213.979 20.2095 212.497C19.4673 210.274 20.6185 208.837 22.6027 208.761C24.5717 208.685 26.1318 208.02 27.8585 207.263C32.8569 205.1 37.098 207.566 37.0222 212.936C36.9313 219.273 39.0216 225.672 36.6284 231.994C36.1589 233.25 36.3709 234.823 37.4766 235.882C40.1576 238.438 39.7335 240.964 37.0525 243.808C38.9458 243.808 39.7032 242.704 40.6726 242.129C42.4447 241.1 44.2623 240.268 46.3525 240.359C48.3519 240.45 49.6999 241.463 50.124 243.43C50.5179 245.26 49.7454 246.606 48.1095 247.483C47.3825 247.877 46.5494 248.043 45.3831 248.572C49.397 248.648 52.8504 247.514 56.3796 248.028C61.1205 248.724 62.1504 250.569 60.1662 255.092C64.5285 254.986 67.2548 256.756 67.3154 261.399C67.3306 262.821 68.2242 263.245 69.4511 263.547C72.3138 264.228 75.2068 264.303 78.0847 264.046C81.1897 263.759 84.2493 262.851 87.3847 264.001C88.5207 264.424 89.4749 263.653 90.3837 262.851C93.201 260.386 95.4275 260.083 97.2906 261.989C99.4717 264.213 99.3505 266.618 97.442 269.008C103.061 265.65 105 265.907 109.802 270.626C111.18 271.972 112.861 272.214 114.679 272.002C117.193 271.715 119.708 271.776 122.192 272.275C123.797 272.713 125.63 272.759 126.463 274.604C127.023 275.996 126.766 277.251 125.796 278.386L125.812 278.371Z" stroke="#6F6F6F" stroke-width="1.03481" stroke-miterlimit="10"/>
<path d="M-41.8003 206.236C-38.4075 200.291 -33.2273 196.026 -27.9412 191.972C-26.1841 190.626 -24.6543 188.886 -22.5641 187.979C-21.3372 188.735 -21.1555 189.991 -21.0646 191.261C-20.9737 192.38 -20.898 193.53 -21.0343 194.649C-22.655 207.854 -15.627 216.173 -5.26669 222.617C-4.20643 223.283 -3.17646 224.145 -2.02532 224.523C5.09358 226.868 6.62339 231.98 5.2602 238.636C4.23023 240.314 3.26085 238.757 2.27632 238.575C-5.10008 235.444 -12.1432 231.647 -18.9592 227.518C-25.3359 223.661 -31.6066 219.441 -36.2263 213.421C-38.0742 211.016 -41.5277 209.851 -41.8003 206.236V206.236Z" stroke="#6F6F6F" stroke-width="1.03481" stroke-miterlimit="10"/>
<path d="M2.27735 238.589L4.67052 238.952C5.48843 236.396 4.79169 233.764 5.06433 231.178C5.12491 230.557 5.29153 229.831 6.15488 230.391C6.63957 230.709 6.4881 231.253 6.24576 231.707C6.21547 234.445 6.18518 237.168 6.15488 239.905C4.68566 239.996 3.18615 240.132 2.26221 238.589H2.27735Z" stroke="#6F6F6F" stroke-width="1.03481" stroke-miterlimit="10"/>
<path d="M6.2598 231.706C6.21436 231.601 6.19921 231.434 6.10833 231.374C5.95687 231.283 5.75996 231.238 5.5782 231.177C4.82087 233.718 6.21436 236.501 4.66941 238.937C5.53277 232.962 4.09384 228.802 -2.20715 226.095C-8.61416 223.342 -14.0064 218.698 -18.3989 212.965C-21.1707 209.35 -22.3067 205.448 -22.4884 201.152C-22.6702 196.766 -22.549 192.379 -22.5642 187.977C-22.4127 186.193 -22.9277 184.332 -21.8977 182.653C-21.2919 182.608 -20.8072 182.85 -20.3831 183.258C-19.1108 185.043 -18.202 187.024 -17.1568 188.93C-12.219 193.756 -6.88745 198.082 -0.813662 201.424C2.82152 203.421 3.10931 203.194 3.12446 199.201C3.1396 193.196 3.07902 187.176 3.15475 181.171C3.1699 179.462 2.92755 177.586 4.80573 176.497C6.04775 182.714 4.95719 189.006 5.3813 195.238C5.63879 199.065 4.50279 202.997 6.13863 206.734C6.74449 206.597 7.33521 206.038 7.91078 206.265C12.1973 208.034 17.0442 208.609 20.5582 212.058C21.1338 212.285 21.6942 212.633 22.3001 212.723C28.2224 213.661 28.601 217.685 28.1769 222.54C27.8286 226.639 28.0861 230.799 28.1012 234.928C28.1164 237.651 26.7834 238.438 24.2994 237.681C20.5733 237.545 17.0896 236.441 13.6211 235.155C11.6217 234.414 9.72837 233.537 8.44091 231.737L6.2598 231.676V231.706Z" stroke="#6F6F6F" stroke-width="1.03481" stroke-miterlimit="10"/>
<path d="M-13.3237 162.097C-8.70402 157.605 -3.08463 154.61 2.51961 151.63C8.53281 148.438 14.7732 145.806 21.3014 143.764C24.0126 142.917 25.3758 143.099 25.1335 146.336C25.0275 147.803 24.8608 149.346 25.6788 150.737C24.9517 152.658 23.1341 152.719 21.5286 153.143C17.4087 151.63 17.227 150.238 21.1196 146.88C17.1664 148.348 13.8644 150.541 9.896 150.768C8.16929 151.887 6.29112 152.734 4.42809 153.581C2.86799 154.262 1.56538 155.427 -0.0704565 155.956C-1.70629 156.909 -3.31183 157.877 -4.69017 159.178C-5.93219 160.206 -7.52258 160.736 -8.68887 161.87C-10.1884 163.05 -11.6879 163.958 -13.3086 162.082L-13.3237 162.097Z" stroke="#6F6F6F" stroke-width="1.03481" stroke-miterlimit="10"/>
<path d="M21.6941 152.492C23.1936 152.311 24.5265 151.736 25.6777 150.753C28.7524 150.481 31.5394 149.24 34.3415 148.061C35.6744 147.743 37.0073 147.38 38.3554 147.123C39.5974 146.896 40.3547 147.259 39.9003 148.726C33.4782 149.407 27.571 151.842 21.6335 154.126C20.3158 154.64 19.1343 156.062 17.5136 154.882C17.4985 154.308 17.6651 153.778 18.0438 153.339C19.1192 152.417 20.4066 152.417 21.7092 152.477L21.6941 152.492Z" stroke="#6F6F6F" stroke-width="1.03481" stroke-miterlimit="10"/>
<path d="M306.482 228.046C307.179 234.127 306.815 240.238 306.648 246.318C306.588 248.829 305.376 251.098 303.392 252.807C303.271 250.009 303.134 247.226 303.013 244.428C302.21 243.702 301.453 244.065 300.605 244.428C284.807 250.977 268.191 254.486 251.484 257.678C247.91 257.224 244.653 258.888 241.261 259.508C235.02 260.628 228.659 260.854 222.509 262.397C220.161 262.987 217.798 262.957 215.42 262.987C202.985 264.651 190.489 265.422 177.933 265.543C177.236 265.317 176.706 264.878 176.297 264.288C173.994 256.846 173.207 249.102 171.798 241.493C170.556 234.732 169.875 227.85 170.132 220.937C170.193 219.44 169.996 217.912 170.799 216.535C172.465 214.539 173.404 216.172 174.146 217.367C175.449 219.47 176.342 221.799 177.19 224.114C177.584 225.203 177.933 226.186 178.902 226.851C179.22 227.078 179.478 227.35 179.674 227.683C179.841 228.016 179.947 228.364 179.993 228.742C180.023 228.984 180.038 229.226 179.993 229.468C179.366 233.834 181.209 235.957 185.521 235.836C186.612 235.836 187.702 235.806 188.778 235.942C190.792 236.577 192.549 237.803 194.564 238.513C201.319 240.873 202.924 240.45 206.696 234.762C207.044 234.566 207.423 234.46 207.817 234.414C210.604 234.611 213.254 233.567 216.011 233.552C218.51 233.552 219.631 232.221 219.661 229.801C219.692 226.67 219.54 223.539 219.722 220.423C219.889 217.473 218.435 216.414 215.754 216.218C211.967 215.961 208.256 216.747 204.56 217.216C199.214 217.897 193.806 217.398 188.52 218.472C187.49 218.426 186.415 218.547 185.476 217.957C184.976 217.579 184.718 217.065 184.612 216.46C184.718 212.164 183.416 208.262 181.144 204.662C180.901 204.465 180.704 204.223 180.553 203.936C180.689 202.907 179.402 202.862 179.205 202.06C179.932 201.878 180.644 201.561 181.371 201.561C205.787 201.561 229.961 198.778 253.938 194.497C268.025 191.986 281.944 188.583 294.97 182.305C298.939 180.4 302.468 177.843 306.103 174.304C306.997 184.166 305.724 193.514 306.876 202.756C302.604 206.93 296.758 207.702 291.487 209.351C276.522 214.055 261.148 217.216 245.683 219.909C241.23 220.695 236.717 221.164 232.218 221.618C229.325 221.92 228.522 223.176 228.749 226.11C229.143 230.981 229.128 235.897 228.946 240.782C228.795 244.67 229.355 245.668 232.96 245.139C241.17 243.944 249.349 242.643 257.528 241.266C271.796 238.876 285.61 234.687 299.423 230.497C301.786 229.786 303.861 228.167 306.451 228.031L306.482 228.046Z" stroke="#6F6F6F" stroke-width="1.03481" stroke-miterlimit="10"/>
<path d="M171.463 382.754C170.812 384.736 170.57 386.717 171.645 388.653C169.085 389.425 166.526 390.196 163.981 390.983C161.694 391.936 158.21 391.316 158.21 395.324C153.363 395.339 148.516 395.354 143.654 395.385C143.912 393.146 143.882 390.938 142.927 388.82C142.897 386.854 142.867 384.887 142.852 382.921C145.608 377.007 145.745 370.593 145.881 364.316C146.154 351.55 146.078 338.798 144.927 326.032C144.412 320.314 146.108 314.4 146.79 308.577C146.865 307.957 146.881 307.321 146.926 306.701C148.91 306.02 150.864 307.2 152.833 306.762C154.575 316.215 156.211 325.699 158.104 335.138C161.179 350.491 165.42 365.556 169.782 380.591C170.07 381.59 170.191 382.573 171.463 382.754V382.754Z" stroke="#6F6F6F" stroke-width="1.03481" stroke-miterlimit="10"/>
<path d="M129.463 354.56C126.873 352.866 126.403 349.75 126.63 347.466C126.948 344.32 126.585 341.612 124.676 338.602C129.099 339.373 126.933 343.185 128.63 344.849C129.296 348.056 129.538 351.293 129.463 354.56V354.56Z" stroke="#6F6F6F" stroke-width="1.03481" stroke-miterlimit="10"/>
<path d="M142.7 382.588C139.595 382.558 136.49 382.528 133.385 382.482C134.248 380.138 135.596 379.064 137.989 380.728C139.413 381.711 141.867 380.108 142.7 382.588Z" stroke="#6F6F6F" stroke-width="1.03481" stroke-miterlimit="10"/>
<path d="M124.813 108.734C150.971 107.267 177.114 107.796 203.257 109.566C208.862 110.957 214.663 110.988 220.358 111.698C231.672 113.12 242.926 114.86 254.105 117.129C256.316 117.582 257.24 118.475 257.179 120.85C256.998 128.11 257.073 135.386 257.043 142.661C247.652 140.377 237.943 140.181 228.446 138.502C226.72 138.199 224.947 138.154 223.19 138.093C222.085 138.063 221.388 138.441 222.312 139.636C223.599 143.599 224.054 147.532 221.797 151.344C217.813 153.159 213.83 151.495 209.937 151.041C205.317 150.512 200.667 150.164 196.078 149.967C188.565 149.649 181.068 148.545 173.51 148.999C172.01 149.09 170.45 149.12 169.405 147.668C169.253 147.471 169.041 147.29 168.981 147.063C165.891 136.611 158.514 134.448 149.093 139.137C148.457 139.455 147.685 139.666 146.973 139.666C139.339 139.606 137.991 140.559 135.673 147.91C128.373 147.547 121.117 148.454 113.847 148.833C111.833 148.939 111.227 148.606 111.242 146.564C111.318 135.28 111.318 123.981 111.227 112.697C111.212 110.307 112.378 109.747 114.423 109.596C117.906 109.324 121.451 109.914 124.859 108.749L124.813 108.734Z" stroke="#6F6F6F" stroke-width="1.03481" stroke-miterlimit="10"/>
<path d="M221.554 197.659C208.271 199.489 194.881 200.064 181.507 200.654C182.446 198.369 180.371 197.054 179.78 195.269C179.189 193.529 177.826 192.047 178.023 190.05C183.779 186.919 187.005 182.26 187.156 175.56C187.338 168.163 182.673 164.17 176.993 160.993C173.221 158.876 170.662 156.123 170.192 151.706C169.101 148.968 170.207 148.167 172.918 148.227C186.959 148.56 200.97 149.316 214.92 151.056C217.343 151.358 220.024 150.602 222.175 152.402C223.357 153.778 223.19 155.457 223.19 157.076C223.251 168.874 223.251 180.672 223.19 192.47C223.19 194.346 223.281 196.282 221.539 197.628L221.554 197.659Z" stroke="#6F6F6F" stroke-width="1.03481" stroke-miterlimit="10"/>
<path d="M221.449 152.266C205.605 150.451 189.732 149.241 173.797 148.651C171.51 148.56 169.708 148.711 170.177 151.721C169.147 150.526 169.405 149.074 169.375 147.683C186.823 147.895 204.197 149.195 221.555 150.935C221.948 151.419 221.964 151.857 221.449 152.266V152.266Z" stroke="#6F6F6F" stroke-width="1.03481" stroke-miterlimit="10"/>
<path d="M18.4377 154.081C18.1197 154.353 17.8167 154.61 17.4986 154.882C16.7413 155.321 15.9688 155.745 15.2115 156.183H14.4996C10.713 155.548 6.80515 155.245 3.85156 152.326C5.79033 151.661 7.63821 150.798 9.24375 149.482C10.5312 150.496 12.167 150.087 13.5605 150.541C15.5296 151.177 17.8622 151.464 18.4377 154.081V154.081Z" stroke="#6F6F6F" stroke-width="1.03481" stroke-miterlimit="10"/>
<path d="M131.614 196.449H178.508V197.19H131.614V196.449Z" stroke="#6F6F6F" stroke-width="1.03481" stroke-miterlimit="10"/>
<path d="M221.448 152.266C221.479 151.828 221.524 151.374 221.554 150.935C221.948 147.184 220.873 143.327 222.296 139.651C234.717 140.362 246.97 142.162 259.103 144.87C270.872 147.486 282.671 149.952 293.576 155.412C297.893 157.575 301.816 160.177 304.664 164.155C306.693 166.999 306.936 169.858 304.755 172.837C301.998 176.604 298.317 179.024 294.137 180.975C282.232 186.526 269.751 190.066 256.861 192.531C246.758 194.452 236.595 195.874 226.447 197.432C224.841 197.674 223.19 197.599 221.569 197.674C221.539 182.548 221.509 167.422 221.479 152.281L221.448 152.266Z" stroke="#6F6F6F" stroke-width="1.03481" stroke-miterlimit="10"/>
<path d="M121.859 204.51C120.753 203.815 119.435 203.24 120.344 201.531C138.581 202.272 156.832 202.453 175.084 202.136C176.462 202.105 177.856 202.075 179.234 202.045C179.704 202.105 180.188 202.136 180.658 202.241C181.188 202.347 181.96 201.894 182.142 202.665C182.188 202.846 181.279 203.27 180.809 203.573C180.294 205.554 178.537 206.099 176.947 206.688C174.357 207.657 172.751 209.093 173.1 212.149C173.251 213.48 173.084 214.902 171.767 215.794C170.979 230.103 173.811 244.019 176.432 257.95C176.811 259.947 177.068 261.913 177.007 263.925C175.917 265.68 174.13 265.196 172.569 265.211C162.876 265.271 153.182 265.226 143.488 265.241C139.287 265.241 136.94 267.369 136.445 271.624C136.369 272.244 136.202 272.849 136.112 273.485C135.597 275.209 134.203 275.844 132.658 275.708C130.326 275.511 127.917 275.905 125.66 274.967C124.782 273.56 122.767 274.528 121.874 273.167C123.616 263.184 125.388 253.216 127.099 243.233C127.948 238.302 128.553 233.31 129.553 228.409C130.023 226.095 129.917 223.962 129.25 221.769C125.403 219.182 125.373 214.781 124.418 210.954C123.843 208.64 123.404 206.401 121.874 204.525L121.859 204.51Z" stroke="#6F6F6F" stroke-width="1.03481" stroke-miterlimit="10"/>
<path d="M-18.6562 189.188C-17.0962 189.823 -16.4903 188.583 -15.5815 187.736C-9.70461 182.2 -3.16128 177.677 4.54834 175.015C4.63922 175.514 4.71496 176.013 4.80584 176.512C4.7604 185.27 4.65437 194.028 4.68466 202.771C4.68466 205.343 4.2757 205.675 1.76137 204.48C-6.11487 200.744 -12.9005 195.692 -18.6562 189.203V189.188Z" stroke="#6F6F6F" stroke-width="1.03481" stroke-miterlimit="10"/>
<path d="M144.458 180.657C143.989 179.538 143.504 178.418 143.035 177.284C148.836 179.795 153.077 177.345 156.53 172.489C154.834 178.343 148.472 182.351 144.458 180.657Z" stroke="#6F6F6F" stroke-width="1.03481" stroke-miterlimit="10"/>
<path d="M143.035 166.121C143.625 164.23 143.05 161.038 145.685 161.129C147.624 161.19 146.579 164.291 147.245 165.954C147.806 167.346 148.109 169.131 146.791 170.522C144.655 169.585 142.671 168.571 144.504 165.743C144.549 165.667 144.655 165.591 144.58 165.47C144.231 166.06 143.731 166.302 143.05 166.121H143.035Z" stroke="#6F6F6F" stroke-width="1.03481" stroke-miterlimit="10"/>
<path d="M143.034 166.121C144.609 165.274 144.17 163.141 145.806 161.991C145.836 164.986 143.489 168.163 146.775 170.522C143.645 170.775 142.398 169.307 143.034 166.121V166.121Z" stroke="#6F6F6F" stroke-width="1.03481" stroke-miterlimit="10"/>
<path d="M48.7166 95.0738C46.6869 95.2553 45.6418 94.1511 45.5509 92.2604C45.4752 90.536 46.4597 89.2352 48.2016 89.2806C49.9132 89.3259 51.337 90.2184 51.4127 92.2604C51.4884 94.1057 50.6099 95.0738 48.7014 95.0738H48.7166Z" stroke="#6F6F6F" stroke-width="1.03481" stroke-miterlimit="10"/>
<path d="M20.8326 99.5307C23.7256 99.4702 26.3308 102.042 26.4066 105.006C26.4672 107.865 24.1194 110.119 21.075 110.104C17.9093 110.104 15.4404 107.759 15.4404 104.764C15.4404 102.087 18.0305 99.5912 20.8478 99.5307H20.8326Z" stroke="#6F6F6F" stroke-width="1.03481" stroke-miterlimit="10"/>
<path d="M14.3209 104.477C14.0937 107.956 15.7295 110.316 18.9406 111.359C20.5916 111.904 21.4701 112.706 20.8794 114.264C20.2887 115.837 18.8194 114.778 17.9258 114.566C13.2304 113.477 9.65576 107.412 11.0038 102.813C11.2916 101.83 11.0492 99.8486 12.9577 100.272C14.3361 100.575 14.639 101.966 14.3966 103.343C14.3361 103.706 14.3361 104.084 14.3209 104.462V104.477Z" stroke="#6F6F6F" stroke-width="1.03481" stroke-miterlimit="10"/>
<path d="M30.4823 107.472C30.6489 109.756 26.2564 114.445 23.8784 114.536C23.2271 114.566 22.5909 114.536 22.3032 113.84C22.0002 113.114 21.9093 112.161 22.6667 111.813C24.9538 110.754 26.3322 108.879 27.6651 106.867C28.1043 106.202 28.998 106.277 29.7553 106.428C30.346 106.549 30.6035 106.897 30.4823 107.457V107.472Z" stroke="#6F6F6F" stroke-width="1.03481" stroke-miterlimit="10"/>
<path d="M23.7574 96.5364C23.7574 96.5364 23.6665 97.081 23.409 97.1717C20.6826 98.1247 17.9714 99.1532 15.1693 99.8188C14.4725 99.9852 13.2759 99.002 14.0484 97.6709C15.0178 96.007 21.2885 94.2827 23.1212 95.16C23.5908 95.3869 24.0603 95.5381 23.7574 96.5516V96.5364Z" stroke="#6F6F6F" stroke-width="1.03481" stroke-miterlimit="10"/>
<path d="M25.6964 96.5963C28.0896 96.7627 31.7551 102.556 30.7402 104.099C29.8617 105.445 28.3774 105.248 27.7564 103.932C26.9536 102.223 26.0448 100.726 24.8179 99.2736C23.788 98.0635 24.9997 97.1711 25.6964 96.5963V96.5963Z" stroke="#6F6F6F" stroke-width="1.03481" stroke-miterlimit="10"/>
<path d="M292.668 286.569C294.501 283.892 297.076 283.317 300.09 283.892C297.621 284.784 295.152 285.676 292.668 286.569Z" stroke="#6F6F6F" stroke-width="1.03481" stroke-miterlimit="10"/>
<path d="M138.566 279.112C136.961 277.463 137.854 275.542 137.945 273.697C138.475 273.183 139.142 272.941 139.869 272.85C144.08 271.897 148.381 272.003 152.562 272.456C158.56 273.092 164.543 272.941 170.526 273.107C171.147 273.122 171.783 273.107 172.389 273.243C173.964 273.546 175.236 274.226 175.585 275.966C175.994 278.068 174.782 279.218 173.085 280.065C162.468 280.655 151.835 280.246 141.202 280.292C140.157 280.292 139.233 279.959 138.551 279.127L138.566 279.112Z" stroke="#6F6F6F" stroke-width="1.03481" stroke-miterlimit="10"/>
<path d="M138.566 279.112C148.972 279.097 159.363 279.081 169.768 279.051C171.01 279.051 172.252 278.9 173.51 278.809C174.767 278.976 175.297 277.765 176.281 277.387C177.327 276.797 178.478 276.903 179.599 276.873C205.499 276.177 231.233 273.848 256.695 268.796C258.709 268.402 260.906 267.661 262.935 268.977C263.314 269.325 263.405 269.734 263.223 270.218C254.09 272.986 244.623 274.105 235.217 275.391C215.208 278.128 195.078 279.55 174.888 280.065C174.04 281.154 172.873 281.486 171.556 281.502C161.635 281.607 151.714 281.653 141.793 281.486C141.02 281.486 140.308 281.229 139.627 280.896C139.157 280.67 138.794 280.337 138.536 279.898L138.566 279.112V279.112Z" stroke="#6F6F6F" stroke-width="1.03481" stroke-miterlimit="10"/>
<path d="M177.795 264.636C185.262 263.426 192.851 264.576 200.348 263.426C205.422 262.655 210.572 262.443 215.692 261.974C216.464 262.836 218.524 261.157 218.6 263.426C217.1 265.241 214.98 265.513 212.844 265.634C202.378 266.255 191.942 267.298 181.475 267.858C180.461 267.918 179.491 267.676 178.492 267.586C168.737 267.404 158.968 267.555 149.198 267.51C148.441 267.51 147.668 267.631 146.956 267.495C142.488 266.587 138.671 266.86 137.641 272.411L136.748 274.634C135.687 274.544 135.839 273.742 135.793 273.046C135.733 262.609 135.566 264.576 144.184 264.545C155.378 264.5 166.586 264.334 177.78 264.651L177.795 264.636Z" stroke="#6F6F6F" stroke-width="1.03481" stroke-miterlimit="10"/>
<path d="M152.502 305.325L147.625 305.28C147.216 305.023 146.882 304.675 146.625 304.251C145.231 299.729 145.989 295.1 146.125 290.517C146.17 288.944 147.079 287.643 148.912 287.522C150.699 287.401 151.926 288.535 152.199 290.033C153.077 294.767 154.531 299.471 153.547 304.372C153.289 304.781 152.941 305.098 152.502 305.325V305.325Z" stroke="#6F6F6F" stroke-width="1.03481" stroke-miterlimit="10"/>
<path d="M137.658 272.395C138.082 265.861 138.082 266.027 144.777 266.148C154.425 266.33 164.074 266.224 173.707 266.269C175.328 266.269 176.948 266.375 178.584 266.436C178.827 267.404 178.387 268.085 177.66 268.644C173.192 270.49 168.527 268.644 163.953 269.325C160.272 269.885 156.47 269.491 152.744 268.811C151.154 268.508 149.503 268.72 147.867 268.72C143.989 268.72 140.43 269.234 139.249 273.802C138.824 273.772 138.385 273.757 137.961 273.726C137.855 273.288 137.764 272.849 137.658 272.411V272.395Z" stroke="#6F6F6F" stroke-width="1.03481" stroke-miterlimit="10"/>
<path d="M136.158 273.832C136.355 274.089 136.552 274.362 136.748 274.619C136.552 276.01 136.339 277.417 136.143 278.824C134.37 278.763 132.598 278.718 130.826 278.657C129.145 278.567 127.479 278.476 125.813 278.37C125.752 277.236 125.707 276.086 125.646 274.952C127.691 273.666 129.963 273.741 132.159 274.15C133.356 274.377 134.34 274.483 135.34 273.757C135.643 273.439 135.915 273.454 136.158 273.817V273.832Z" stroke="#6F6F6F" stroke-width="1.03481" stroke-miterlimit="10"/>
<path d="M173.903 387.747C172.328 384.873 172.813 383.678 175.842 383.39C177.054 383.269 178.281 383.466 179.508 383.511C180.326 384.752 181.462 386.037 180.598 387.58C179.659 389.259 178.129 387.641 176.872 387.868C175.918 388.034 174.888 387.807 173.903 387.747V387.747Z" stroke="#6F6F6F" stroke-width="1.03481" stroke-miterlimit="10"/>
<path d="M301.681 245.244C299.969 244.957 298.454 245.728 296.94 246.242C282.217 251.325 267.161 255.076 251.878 257.965C251.454 257.42 251.242 256.906 252.106 256.558C263.481 254.062 274.886 251.718 286.019 248.284C290.684 246.847 295.274 245.153 299.908 243.641C301.014 243.278 302.559 241.962 303.013 244.442C302.574 244.699 302.12 244.972 301.681 245.244V245.244Z" stroke="#6F6F6F" stroke-width="1.03481" stroke-miterlimit="10"/>
<path d="M296.515 257.376C298.514 256.967 299.847 255.47 301.452 254.396C301.452 255.122 301.452 255.848 301.468 256.574C299.468 257.043 298.317 259.751 295.757 258.737C295.379 257.935 295.757 257.557 296.499 257.376H296.515Z" stroke="#6F6F6F" stroke-width="1.03481" stroke-miterlimit="10"/>
<path d="M60.8632 318.893C59.6515 318.712 58.667 318.137 58.5761 316.851C58.4701 315.429 59.288 314.355 60.7269 314.325C61.9689 314.295 62.7414 315.233 62.8323 316.518C62.9383 317.895 62.0144 318.485 60.8632 318.908V318.893Z" stroke="#6F6F6F" stroke-width="1.03481" stroke-miterlimit="10"/>
<path d="M8.44258 231.752C13.7893 233.552 19.1967 235.216 24.2859 237.697C20.8022 239.845 16.5612 238.695 12.9411 240.299C11.5173 240.934 10.7146 240.238 9.9421 238.952C8.5789 236.683 8.24568 234.294 8.42744 231.752H8.44258Z" stroke="#6F6F6F" stroke-width="1.03481" stroke-miterlimit="10"/>
<path d="M32.2675 236.638C32.7067 238.453 33.04 239.905 31.601 240.949C31.1769 241.251 30.6014 240.964 30.3893 240.48C29.6623 238.786 30.5862 237.757 32.2675 236.623V236.638Z" stroke="#6F6F6F" stroke-width="1.03481" stroke-miterlimit="10"/>
<path d="M31.9494 234.808C30.9497 233.447 30.874 232.206 32.2978 230.739C33.0703 232.494 32.5401 233.658 31.9494 234.808Z" stroke="#6F6F6F" stroke-width="1.03481" stroke-miterlimit="10"/>
<path d="M18.4376 154.081C16.4534 152.825 14.1966 152.235 12.0155 151.479C10.9249 151.101 9.486 151.086 9.24365 149.497C14.3329 149.24 18.3468 145.867 23.33 144.521C23.33 146.578 24.8144 149.134 20.8762 148.832C20.0886 148.771 19.3616 149.271 19.2707 150.102C19.0587 151.872 20.9823 151.6 21.7093 152.492C20.7248 153.218 19.7251 153.944 18.4528 154.081H18.4376Z" stroke="#6F6F6F" stroke-width="1.03481" stroke-miterlimit="10"/>
<path d="M179.113 228.727C179.219 228.485 179.234 228.243 179.158 228.001C177.431 225.505 177.946 222.662 178.385 220.045C178.961 216.687 184.641 215.976 187.383 218.82C188.064 219.531 188.367 220.559 189.185 221.179C190.094 222.223 190.927 223.342 192.108 224.114C192.729 224.628 193.487 225.006 193.85 225.793C194.774 228.999 196.168 232.161 194.85 235.609C192.29 237.818 189.306 236.441 186.519 236.578C186.141 236.578 185.747 236.547 185.368 236.472C182.884 235.231 180.279 234.157 178.946 231.465C178.916 230.557 178.749 229.635 179.113 228.742V228.727Z" stroke="#6F6F6F" stroke-width="1.03481" stroke-miterlimit="10"/>
<path d="M188.14 217.322C197.955 216.505 207.8 215.779 217.6 214.811C219.993 214.569 220.842 215.204 220.826 217.488C220.781 222.238 220.796 227.003 220.826 231.752C220.826 233.582 220.054 234.687 218.206 234.656C214.571 234.596 211.042 235.942 207.376 235.382C207.028 235.095 206.937 234.747 207.104 234.324C207.482 233.567 208.088 233.098 208.906 232.917C210.133 232.781 211.33 232.433 212.587 232.372C217.54 232.13 217.827 231.888 217.752 226.867C217.706 224.038 218.948 220.574 217.085 218.562C215.298 216.626 211.905 218.578 209.239 218.109C208.891 218.169 208.558 218.214 208.209 218.29C206.876 218.487 205.544 217.73 204.211 218.381C203.862 218.426 203.514 218.456 203.15 218.456C202.605 218.456 202.045 218.472 201.499 218.472C200.712 218.472 199.924 218.502 199.136 218.593C195.577 219.742 192.002 220.483 188.458 218.562C188.14 218.214 188.034 217.806 188.155 217.337L188.14 217.322Z" stroke="#6F6F6F" stroke-width="1.03481" stroke-miterlimit="10"/>
<path d="M206.347 235.625C206.892 239.18 203.424 242.159 199.243 241.388C195.593 240.722 192.079 239.497 189.201 236.971C194.184 235.746 199.198 234.838 204.363 234.869C205.151 234.869 205.878 234.884 206.347 235.625Z" stroke="#6F6F6F" stroke-width="1.03481" stroke-miterlimit="10"/>
<path d="M252.089 256.559C252.013 257.028 251.938 257.496 251.862 257.965C243.925 259.357 236.064 261.172 228.021 262.11C224.916 262.473 221.826 262.443 218.736 262.7C217.722 262.458 216.555 262.806 215.677 261.974C225.28 260.627 234.898 259.463 244.455 257.829C246.985 257.391 249.393 256.15 252.074 256.559H252.089Z" stroke="#6F6F6F" stroke-width="1.03481" stroke-miterlimit="10"/>
<path d="M136.157 273.833C135.885 273.818 135.612 273.788 135.339 273.772C135.385 271.64 135.597 269.492 135.415 267.374C135.173 264.591 136.369 264.016 138.929 264.031C151.622 264.092 164.315 263.986 177.008 263.941C177.265 264.167 177.538 264.409 177.795 264.636C165.602 265.226 153.409 264.954 141.201 264.712C136.415 264.621 136.4 264.591 136.324 269.325C136.294 270.823 136.218 272.335 136.157 273.833Z" stroke="#6F6F6F" stroke-width="1.03481" stroke-miterlimit="10"/>
<path d="M206.348 235.625C200.638 236.078 194.912 236.517 189.202 236.971C187.945 236.971 186.688 236.971 185.43 236.956C185.173 236.819 185.067 236.653 185.127 236.472C185.188 236.275 185.264 236.184 185.34 236.184C188.46 236.426 191.504 235.882 194.534 235.246C195.003 234.823 195.518 234.46 196.154 234.339C198.593 233.477 201.183 233.749 203.667 233.235C205.076 233.174 206.363 233.416 207.196 234.717C207.257 234.929 207.317 235.156 207.378 235.367C207.045 235.458 206.696 235.534 206.363 235.625H206.348Z" stroke="#6F6F6F" stroke-width="1.03481" stroke-miterlimit="10"/>
<path d="M188.14 217.322C188.171 217.565 188.186 217.807 188.186 218.064C188.943 219.667 190.14 221.225 188.564 223.01C186.762 223.04 187.231 221.361 187.004 220.544C186.489 218.759 185.596 218.26 183.808 218.215C180.491 218.109 178.613 218.971 179.189 222.783C179.446 224.492 179.189 226.262 179.158 228.017C178.916 227.911 178.674 227.79 178.431 227.684C178.401 226.822 178.371 225.959 178.356 225.097C178.285 220.166 180.617 217.514 185.353 217.141C186.277 217.201 187.216 217.277 188.14 217.338V217.322Z" stroke="#6F6F6F" stroke-width="1.03481" stroke-miterlimit="10"/>
<path d="M185.43 216.067C183.991 211.953 182.552 207.838 181.113 203.724C182.037 203.588 183.294 203.754 183.37 204.556C183.749 208.307 185.96 211.484 186.445 215.159C186.475 215.416 185.778 215.764 185.43 216.067V216.067Z" stroke="#6F6F6F" stroke-width="1.03481" stroke-miterlimit="10"/>
<path d="M185.339 236.185C185.369 236.442 185.399 236.699 185.43 236.956C177.023 237.682 176.569 237.092 179.098 228.728L179.417 231.48C180.098 234.612 182.946 235.035 185.263 236.139L185.324 236.2L185.339 236.185Z" stroke="#6F6F6F" stroke-width="1.03481" stroke-miterlimit="10"/>
<path d="M224.205 124.373C223.221 124.433 222.585 124.146 222.464 123.238C222.357 122.437 222.63 121.741 223.539 121.605C224.508 121.454 225.25 121.771 225.326 122.906C225.387 123.783 224.902 124.252 224.19 124.373H224.205Z" stroke="#6F6F6F" stroke-width="1.03481" stroke-miterlimit="10"/>
<path d="M94.338 233.401C94.4137 237.954 94.3077 238.075 89.8697 237.561C85.6438 237.062 81.4179 236.442 77.192 235.958C72.6632 235.443 74.4051 232.025 74.2839 229.62C74.1173 226.549 76.4196 227.608 78.01 227.775C82.2359 228.243 86.4618 228.788 90.6725 229.317C94.2925 229.771 94.2925 229.786 94.338 233.386V233.401Z" stroke="#6F6F6F" stroke-width="1.03481" stroke-miterlimit="10"/>
<path d="M90.0055 216.49C91.0658 219.137 92.944 217.821 94.6253 217.443C94.4738 222.586 91.9292 224.855 86.9914 224.25C84.2498 223.917 81.5083 223.66 78.7668 223.373C77.4339 222.253 75.1316 223.993 74.1622 221.815C74.1622 217.428 74.2228 213.057 74.1622 208.67C74.1319 206.295 74.7378 205.04 77.449 205.887C79.0848 206.401 80.9933 205.584 82.5231 206.794C82.7352 207.127 82.7352 207.46 82.5231 207.808C82.4322 207.899 82.3414 207.974 82.2505 208.065C80.963 209.396 78.2821 208.201 77.6308 210.001C76.6765 212.588 77.2672 215.447 77.343 218.184C77.3733 219.515 78.1912 220.196 79.4938 220.347C80.3723 220.453 81.1751 220.967 82.0384 220.983C84.7648 221.043 87.5064 221.149 90.3994 221.603C90.2327 219.939 88.6575 219.848 88.3243 218.82C87.8547 217.352 87.6427 215.976 90.0055 216.49V216.49Z" stroke="#6F6F6F" stroke-width="1.03481" stroke-miterlimit="10"/>
<path d="M91.0206 251.385C86.1737 250.811 81.2814 250.493 76.495 249.57C72.2691 248.753 74.5411 245.093 74.3139 242.748C74.0564 240.086 76.2527 241.311 77.5553 241.448C82.1599 241.932 86.7493 242.643 91.3539 242.96C96.1099 243.293 94.1863 246.787 94.4892 249.132C94.8527 252.021 92.7928 251.537 91.0206 251.385V251.385Z" stroke="#6F6F6F" stroke-width="1.03481" stroke-miterlimit="10"/>
<path d="M117.392 215.265C117.392 215.492 117.331 215.704 117.21 215.9C116.846 216.747 116.24 217.004 115.392 216.596C109.076 211.529 102.23 207.43 94.3232 205.357C101.033 204.45 106.198 208.08 111.499 211.226C113.544 212.436 115.438 213.904 117.392 215.265Z" stroke="#6F6F6F" stroke-width="1.03481" stroke-miterlimit="10"/>
<path d="M82.3564 207.626C82.417 207.354 82.4625 207.082 82.5231 206.809C84.0226 206.734 85.5069 206.643 87.0065 206.567C89.0664 208.125 92.0806 207.142 94.4586 209.351C90.7931 209.698 87.8092 207.914 84.6436 208.307C83.6439 208.897 82.7503 209.109 82.3564 207.641V207.626Z" stroke="#6F6F6F" stroke-width="1.03481" stroke-miterlimit="10"/>
<path d="M74.1632 221.83C75.693 222.344 77.238 222.873 78.7678 223.388C76.2686 223.388 73.7845 223.388 70.9824 223.388C71.9215 221.482 73.1787 222.072 74.1632 221.83Z" stroke="#6F6F6F" stroke-width="1.03481" stroke-miterlimit="10"/>
<path d="M296.515 257.375L295.773 258.737C295.773 261.868 295.682 264.999 295.773 268.13C295.833 270.202 295.046 271.306 293.031 271.957C284.322 274.77 275.643 277.614 266.661 279.489C263.813 280.079 262.98 279.278 263.132 276.6C263.253 274.483 263.192 272.35 263.208 270.217L263.132 269.416C263.268 260.733 263.223 260.597 272.023 258.374C278.93 256.634 285.806 254.804 292.44 252.202C294.849 251.249 296.015 251.809 295.727 254.532C295.621 255.575 295.879 256.513 296.485 257.36L296.515 257.375Z" stroke="#6F6F6F" stroke-width="1.03481" stroke-miterlimit="10"/>
<path d="M177.826 267.919C178.129 270.248 181.4 273.107 176.296 274.438C174.781 274.831 175.705 277.085 175.599 278.507C174.948 278.93 174.281 279.203 173.509 278.824C175.16 278.25 174.918 276.949 174.615 275.739C174.221 274.181 172.797 274.589 171.797 274.65C161.528 275.24 151.289 273.47 141.004 274.317C140.444 274.362 139.838 273.984 139.247 273.803C139.096 272.698 138.778 271.579 138.823 270.475C138.899 268.962 139.172 267.541 141.322 267.495C146.654 267.389 151.955 267.177 157.317 267.707C164.103 268.372 170.979 267.329 177.826 267.934V267.919Z" stroke="#6F6F6F" stroke-width="1.03481" stroke-miterlimit="10"/>
<path d="M188.566 223.009C188.672 221.346 186.915 219.818 188.187 218.063C192.11 218.351 195.988 217.957 199.865 217.519C200.683 220.196 199.335 222.223 197.851 224.219C197.29 224.522 196.548 224.658 196.154 224.235C194.125 222.056 192.686 223.357 191.262 224.946L188.581 223.009H188.566Z" stroke="#6F6F6F" stroke-width="1.03481" stroke-miterlimit="10"/>
<path d="M191.247 224.946C191.307 223.433 191.353 221.815 193.034 221.225C195.594 220.332 195.548 223.509 197.214 224.069C198.426 226.519 201.122 228.213 200.91 231.389C198.153 232.932 197.017 230.8 195.639 229.121C194.685 227.956 195.215 226.126 193.791 225.248C193.428 225.49 193.125 225.778 192.731 225.929L191.231 224.946H191.247Z" stroke="#6F6F6F" stroke-width="1.03481" stroke-miterlimit="10"/>
<path d="M185.278 236.139C184.793 236.154 184.309 236.139 183.824 236.215C180.067 236.759 178.659 235.126 179.431 231.495C181.537 232.857 183.915 233.87 185.278 236.154V236.139Z" stroke="#6F6F6F" stroke-width="1.03481" stroke-miterlimit="10"/>
<path d="M192.745 225.914C192.548 224.78 191.639 223.585 192.957 222.541C195.32 226.443 197.622 230.376 195.941 235.232C195.471 235.232 195.002 235.232 194.517 235.232C193.926 232.116 193.336 229.015 192.73 225.899L192.745 225.914Z" stroke="#6F6F6F" stroke-width="1.03481" stroke-miterlimit="10"/>
<path d="M207.937 217.292C211.012 216.006 214.344 216.717 217.51 216.006C218.979 215.674 219.312 217.005 219.312 218.245C219.312 222.389 219.252 226.534 219.358 230.663C219.418 232.887 217.995 233.537 216.313 233.704C213.814 233.946 211.3 233.885 208.785 233.961C207.528 232.811 208.164 231.465 208.346 230.149C208.467 229.257 210.436 227.608 207.316 227.774C206.271 227.835 206.18 226.02 206.529 224.915C207.316 222.435 207.619 219.863 207.952 217.307L207.937 217.292Z" stroke="#6F6F6F" stroke-width="1.03481" stroke-miterlimit="10"/>
<path d="M207.938 217.292C209.832 219.198 208.408 221.24 208.181 223.221C208.029 224.552 207.666 225.853 207.363 227.366C209.135 226.715 208.59 224.492 210.453 223.917C211.725 227.653 209.074 230.633 208.772 233.945C208.241 234.203 207.711 234.46 207.181 234.717C205.969 234.656 204.773 234.611 203.561 234.55C202.531 233.809 200.486 234.263 200.653 232.1C200.108 229.166 196.412 227.577 197.215 224.068C198.093 221.875 198.972 219.697 199.85 217.503H201.713C202.789 220.589 200.501 223.07 200.259 225.369C201.668 223.221 200.986 219.697 203.531 217.458L204.349 217.156C206.621 216.853 206.484 218.184 206.03 219.666C205.439 221.557 204.849 223.463 204.424 224.93C205.545 222.767 205.121 219.44 207.772 217.458L207.938 217.277V217.292Z" stroke="#6F6F6F" stroke-width="1.03481" stroke-miterlimit="10"/>
<path d="M207.77 217.473C206.604 220.71 205.453 223.962 203.923 228.228C203.302 224.492 204.862 222.253 205.18 219.803C205.316 218.729 206.104 217.594 204.347 217.171C205.604 216.021 206.619 217.458 207.77 217.473Z" stroke="#6F6F6F" stroke-width="1.03481" stroke-miterlimit="10"/>
<path d="M203.544 217.473C202.454 220.257 202.499 223.539 199.894 226.352C199.727 222.843 201.121 220.257 201.727 217.519C202.333 217.519 202.939 217.489 203.544 217.473Z" stroke="#6F6F6F" stroke-width="1.03481" stroke-miterlimit="10"/>
<path d="M200.667 232.115C201.637 232.932 202.606 233.749 203.575 234.566C201.046 234.944 198.531 235.519 195.941 235.246C194.684 231.072 195.048 226.534 192.958 222.556C195.23 222.011 195.23 224.098 195.442 225.157C196.078 228.409 198.032 230.466 200.667 232.115V232.115Z" stroke="#6F6F6F" stroke-width="1.03481" stroke-miterlimit="10"/>
<path d="M82.3576 207.627C83.1149 207.854 83.8874 208.08 84.6447 208.292C83.2209 210.047 81.7517 211.741 82.918 214.312C83.5087 215.598 82.1304 216.279 81.6003 217.201C81.2216 217.852 80.6157 218.532 81.3731 219.168C82.1001 219.773 82.7665 219.122 83.327 218.653C84.9628 217.307 86.5683 215.916 88.2193 214.585C89.5371 213.526 91.3547 211.575 92.6118 213.344C93.9902 215.28 90.9609 215.432 89.9915 216.506C87.7043 217.776 88.4617 218.608 90.461 218.759C92.3695 218.911 93.2177 219.561 92.9905 221.512C92.7179 223.872 91.0063 223.373 89.5825 223.221C85.7353 222.813 81.9032 222.208 78.0408 221.86C76.2535 221.709 75.6476 220.922 75.6779 219.258C75.7234 216.506 75.8445 213.738 75.6022 211C75.3599 208.05 76.3595 206.885 79.3283 207.491C80.2976 207.687 81.3276 207.581 82.3273 207.627H82.3576Z" stroke="#6F6F6F" stroke-width="1.03481" stroke-miterlimit="10"/>
<path d="M115.391 216.596C115.997 216.369 116.603 216.127 117.209 215.9C119.36 218.048 121.51 220.211 123.676 222.359C120.117 221.497 117.83 218.956 115.391 216.596Z" stroke="#6F6F6F" stroke-width="1.03481" stroke-miterlimit="10"/>
<path d="M90.0965 236.003C86.007 235.534 81.9022 235.035 77.8127 234.596C75.0863 234.309 75.6921 232.252 75.6921 230.618C75.6921 228.349 77.2068 228.939 78.6154 229.151C82.5687 229.741 86.5219 230.406 90.5055 230.724C93.1107 230.936 93.0956 232.403 93.0198 234.294C92.929 236.457 91.4597 236.124 90.0965 235.988V236.003Z" stroke="#6F6F6F" stroke-width="1.03481" stroke-miterlimit="10"/>
<path d="M88.2486 249.813C85.3859 249.405 81.6901 248.724 77.964 248.376C75.2225 248.119 75.7375 246.304 75.6466 244.595C75.5254 242.144 77.2673 242.87 78.4639 243.006C82.19 243.415 85.8857 244.08 89.6118 244.383C91.7172 244.549 93.1561 244.731 93.0652 247.469C92.9592 250.721 90.7781 249.647 88.2183 249.813H88.2486Z" stroke="#6F6F6F" stroke-width="1.03481" stroke-miterlimit="10"/>
</g>
</svg>
