<svg width="301" height="393" viewBox="0 0 301 393" fill="none" xmlns="http://www.w3.org/2000/svg">
<mask id="mask0_1127_1153" style="mask-type:alpha" maskUnits="userSpaceOnUse" x="0" y="0" width="302" height="395">
<rect x="0.111328" width="301.217" height="395" fill="#D9D9D9"/>
</mask>
<g mask="url(#mask0_1127_1153)">
<path d="M348.29 227.693C348.341 232.966 347.9 238.232 349.858 243.382C353.025 251.723 351.904 256.947 346.617 260.696C345.621 261.403 344.579 262.107 343.247 261.994C342.546 260.369 343.571 259.098 344.15 257.755C346.006 253.489 346.961 249.025 347.235 244.848C346.644 250.3 345.042 255.913 342.236 261.152C341.476 262.572 340.813 264.226 338.698 264.065C337.16 263.211 336.162 264.238 335.115 265.114C332.38 267.387 329.246 269.066 326.084 270.579C324.283 271.448 321.919 273.155 320.133 270.199C321.143 268.908 322.793 268.487 323.926 267.38C330.267 264.784 334.964 259.927 340.318 255.505C338.637 253.558 334.436 254.999 334.238 251.189C339.117 243.141 337.876 234.332 337.905 225.543C337.956 210.979 337.858 196.407 338.183 181.842C338.463 169.337 338.514 156.827 338.703 144.327C338.731 142.428 338.506 140.459 339.393 138.653C341.283 137.632 341.856 139.176 342.644 140.307C344.118 142.848 344.095 145.43 343.98 148.416C343.753 154.192 344.613 160.056 347.226 165.436C348.504 167.497 348.409 169.533 347.13 171.578C344.075 176.437 346.538 181.672 346.299 186.72C346.21 188.72 348.525 188.585 350.232 188.166C351.6 187.828 352.801 186.39 354.398 187.518C356.123 192.708 355.849 197.945 354.685 203.187C352.171 202.296 351.772 199.114 349.086 198.218C347.283 197.616 346.105 197.271 346.153 199.669C346.317 209.052 344.724 218.565 348.257 227.699L348.29 227.693Z" stroke="white" stroke-miterlimit="10"/>
<path d="M236.811 185.282C233.685 186.607 234.649 189.361 234.716 191.677C234.768 193.573 235.604 195.448 234.793 197.367C232.13 197.266 232.519 195.02 232.362 193.507C232.034 190.404 232.031 187.268 232.056 183.898C231.1 185.637 231.554 187.749 229.951 188.971C228.049 185.272 229.957 181.841 230.953 178.476C231.641 176.179 233.048 174.009 234.485 172.017C243.235 159.881 251.269 147.23 260.865 135.702C264.864 130.897 269.591 127.005 275.59 124.878C277.16 124.323 278.853 124.021 278.953 121.882C284.285 122.174 285.703 123.391 286.893 128.718C288.164 130.804 286.425 131.24 285.116 131.784C283.509 132.46 281.676 132.41 280.12 133.248C278.41 133.918 276.665 134.515 275.198 135.668C272.053 137.543 269.387 139.952 267.119 142.817C257.422 155.88 248.205 169.282 239.101 182.744C238.546 183.763 238.09 184.891 236.807 185.26L236.811 185.282Z" stroke="white" stroke-miterlimit="10"/>
<path d="M220.193 298.1C222.989 292.601 226.682 288.533 233.496 288.16C239.815 287.826 243.749 282.644 248.776 279.704C257.283 274.717 265.633 269.471 274.45 265.024C276.465 264.005 278.275 263.055 279.39 266.023C279.041 267.976 277.342 268.508 275.887 269.203C266.628 273.601 257.931 278.883 249.725 285.027C244.067 289.274 238.212 293.166 230.923 294.031C230.375 294.092 229.836 294.275 229.357 294.54C228.419 295.055 227.101 295.487 227.509 296.865C227.854 298.004 229.08 297.77 230.027 297.71C232.113 297.568 234.052 296.836 235.985 296.07C243.623 293.057 250.351 288.467 257.081 283.888C264.148 279.08 271.319 274.414 278.632 269.974C280.006 269.145 281.366 267.964 283.194 268.779C285.381 269.487 286.828 271.075 288.107 272.874C275.075 280.008 263.194 288.929 250.568 296.7C247.401 298.647 244.206 300.497 240.643 301.668C233.193 304.113 226.297 303.416 220.206 298.11L220.193 298.1Z" stroke="white" stroke-miterlimit="10"/>
<path d="M68.2286 259.594C67.3696 261.498 66.4641 263.331 64.0523 263.7C63.5648 263.784 62.8862 264.083 62.6923 264.481C58.0491 274.165 49.4874 281.227 44.8962 290.947C44.1704 292.498 43.2742 293.987 41.5863 294.984C40.5103 295.625 39.66 297.049 39.2468 298.295C38.7445 299.819 38.7513 301.517 38.621 303.148C38.4549 305.366 35.4264 301.883 35.6015 304.693C32.4065 298.98 29.5988 293.132 29.1785 286.44C29.6635 285.878 29.311 284.159 30.2024 284.633C33.931 286.616 33.9692 283.586 34.5818 281.576C36.8102 274.235 39.7445 267.217 43.7233 260.636C44.3098 259.668 44.8076 258.716 46.1405 258.772C48.6706 259.489 49.9651 262.175 52.5686 262.788C54.9455 264.273 57.173 263.628 59.5909 262.63C62.4015 261.463 64.7747 258.945 68.2305 259.605L68.2286 259.594Z" stroke="white" stroke-miterlimit="10"/>
<path d="M274.486 135.117C275.713 133.697 277.318 133.011 279.111 132.691C288.599 133.011 295.485 135.443 303.324 141.361C304.08 138.859 302.674 136.386 303.582 134.108C304.773 130.55 306.051 127.033 308.878 124.369C310.789 122.283 313.462 122.702 315.883 122.252C318.209 123.175 316.976 124.231 315.741 124.615C311.826 125.858 309.892 129.008 307.888 132.147C307.266 133.771 308.315 135.758 306.803 137.182C305.552 144.971 307.616 148.745 314.796 151.96C315.661 152.347 316.504 152.875 317.197 153.52C318.549 154.748 319.04 156.409 318.027 157.951C316.826 159.789 315.419 158.571 314.16 157.749C313.709 157.45 313.25 157.165 312.263 156.536C313.528 160.311 312.043 160.897 308.956 160.458C305.929 160.031 303.992 162.566 301.904 164.225C296.47 168.513 290.401 172.225 287.523 179.039C287.151 179.925 286.539 180.68 286.752 181.716C287.482 183.575 285.826 184.362 285.002 185.473C281.852 189.71 278.613 193.894 277.419 199.221C273.946 202.043 271.951 205.967 269.604 209.633C268.489 211.376 267.735 213.753 264.821 212.931C263.28 209.272 266.621 207.408 268.019 204.989C270.759 200.229 273.904 195.765 275.024 190.2C275.992 185.345 279.27 181.257 279.787 176.172C279.986 174.21 281.778 173.423 283.594 172.837C290.454 170.608 295.774 165.986 300.882 161.196C304.193 158.094 304.13 154.215 302.313 150.147C299.238 143.273 294.074 139.313 286.639 138.196C283.911 137.786 281.184 137.388 278.469 136.919C277.011 136.668 275.376 136.71 274.501 135.138L274.486 135.117Z" stroke="white" stroke-miterlimit="10"/>
<path d="M46.2731 259.148C43.848 262.36 41.6085 265.722 40.1195 269.468C38.1998 274.292 36.6839 279.275 34.7993 284.105C34.0622 285.989 33.5397 289.717 30.4891 285.508C29.9214 284.727 29.7556 286.284 29.1742 286.418C26.1514 276.067 23.0399 265.731 22.8382 254.804C22.8122 253.326 22.2372 251.839 22.8026 250.35C24.5277 251.959 26.429 250.411 28.2377 250.648C30.7807 250.975 33.3777 249.958 35.902 250.973C36.8197 252.994 35.4294 253.997 34.0927 254.98C33.1996 255.624 32.0993 255.858 31.0623 256.196C25.1764 258.121 24.9516 258.604 26.953 264.739C28.793 266.75 30.0042 265.435 31.2499 263.989C33.3701 261.526 33.6751 258.257 35.1044 255.49C36.3127 253.229 37.3781 250.867 39.113 248.949C39.918 248.058 40.6083 246.434 42.3352 247.654C43.892 251.401 46.1277 254.918 46.2731 259.148Z" stroke="white" stroke-miterlimit="10"/>
<path d="M21.9905 224.79C21.6469 221.199 22.4722 217.772 23.401 214.35C26.2519 214.544 24.7881 216.712 24.9666 218.016C25.1947 219.608 24.6593 221.537 26.7177 222.164C28.6317 222.747 29.7032 221.217 30.778 219.971C36.6591 213.109 42.5512 206.244 49.7453 200.65C50.9641 199.71 51.4515 198.167 52.6553 197.207C55.1028 196.581 57.4576 197.339 59.8507 197.658C61.2335 199.531 59.3287 199.664 58.4342 200.035C57.0159 200.609 56.4837 201.362 57.1306 202.802C57.2457 204.733 55.7963 205.724 54.6264 206.815C44.874 215.974 36.4705 226.145 30.7423 238.343C30.0402 239.832 29.149 241.217 27.8646 242.305C24.0235 244.38 23.6198 244.221 22.8986 240.159C22.0023 235.077 22.752 229.883 22.0145 224.797L21.9905 224.79Z" stroke="white" stroke-miterlimit="10"/>
<path d="M125.85 139.727C126.023 140.998 126.037 142.273 128.041 141.392C132.876 139.26 138.058 137.948 142.676 135.283C145.94 134.631 149.253 134.13 152.297 132.66C155.047 131.936 157.633 131.651 158.717 135.172C156.533 138.855 153.144 139.974 149.105 139.642C147.774 139.528 146.451 139.197 145.106 139.268C143.466 139.482 141.822 139.673 140.329 140.477C137.165 141.649 134.725 143.973 131.941 145.763C124.243 149.288 116.307 152.295 109.041 156.738C107.388 157.741 105.319 157.583 103.583 158.429C102.674 158.848 101.735 159.226 100.882 159.772C99.6915 160.479 98.613 161.371 97.4116 162.08C96.8587 162.38 96.2795 162.594 95.6834 162.776C92.7336 163.466 90.3329 165.293 87.665 166.561C86.0942 167.31 84.5801 168.323 82.6987 167.598C80.9529 165.206 82.2697 163.576 84.0621 162.059C85.7257 160.655 88.002 160.161 89.4496 158.429C93.7659 155.338 98.6647 153.378 103.446 151.198C109.439 147.909 115.821 145.615 122.091 143.738C122.308 143.804 122.211 143.774 122.126 143.743C120.57 143.315 118.449 146.372 117.379 143.065C116.633 140.787 119.073 136.934 121.587 136.296C124.504 135.544 125.619 137.12 125.852 139.738L125.85 139.727Z" stroke="white" stroke-miterlimit="10"/>
<path d="M89.4476 158.418C89.29 160.487 87.3076 160.634 86.0756 161.496C83.9742 162.941 82.356 164.542 82.6067 167.328C81.9717 170.734 80.458 173.275 76.7364 174.12C72.7305 175.037 69.5747 178.112 65.4738 178.874C63.9452 179.205 62.343 179.241 60.9406 180.041C59.3958 180.809 58.156 181.957 56.9608 183.166C55.2801 184.471 54.3779 186.588 52.3665 187.561C49.1249 188.677 46.4616 190.834 43.5147 192.47C42.0145 193.299 40.663 194.66 38.6883 194.121C38.1459 193.952 37.6234 193.7 37.1139 193.457C36.3023 193.049 35.2912 193.006 34.714 192.17C42.817 183.237 53.8042 178.473 63.7748 172.242C72.0357 167.081 80.5035 162.26 89.4809 158.412L89.4476 158.418Z" stroke="white" stroke-miterlimit="10"/>
<path d="M320.366 269.952C326.749 271.251 330.404 266.173 335.117 263.595C335.93 263.148 336.438 262.125 337.262 261.744C339.976 260.479 338.547 262.583 338.6 263.487C338.622 267.065 335.568 269.073 334.263 271.966C323.529 279.264 312.081 281.346 299.693 276.769C298.088 275.06 298.88 273.498 299.981 271.94C300.744 271.136 301.351 270.221 301.371 269.077C301.432 265.713 303.167 265.061 305.891 266.372C310.469 268.585 315.442 269.111 320.353 269.943L320.366 269.952Z" stroke="white" stroke-miterlimit="10"/>
<path d="M52.5196 197.675C52.7383 199.611 51.4924 200.658 50.1503 201.676C43.0383 207.084 37.3121 213.852 31.6099 220.627C30.1898 222.32 28.757 224.403 26.2576 223.532C23.8284 222.672 23.7504 220.427 23.9452 218.044C24.0375 216.921 25.1178 215.31 23.3996 214.339C23.8647 211.67 24.5333 209.057 25.6943 206.587C30.2933 209.253 30.3082 209.273 34.7654 204.811C38.6489 200.926 42.9307 197.567 47.5137 194.566C48.6429 193.836 49.7321 192.873 51.2606 193.603C52.3587 194.748 52.5784 196.159 52.5066 197.666L52.5196 197.675Z" stroke="white" stroke-miterlimit="10"/>
<path d="M125.85 139.727C124.434 138.453 123.745 135.378 120.908 137.451C119.074 138.793 117.464 140.975 118.171 143.032C119.014 145.476 120.776 142.322 122.275 142.817C122.843 143.004 123.601 142.634 124.552 143.258C119.722 145.218 114.961 147.382 110.033 149.039C107.845 149.78 106.2 152.356 103.42 151.18C106.004 148.694 105.42 144.3 108.686 142.267C111.859 140.284 114.127 137.419 116.487 134.629C119.073 135.668 120.731 133.501 122.778 132.738C127.045 131.149 130.826 128.195 136.361 128.076C132.566 132.276 129.201 135.991 125.837 139.718L125.85 139.727Z" stroke="white" stroke-miterlimit="10"/>
<path d="M157.496 109.819C153.065 109.725 149.794 112.66 146.062 114.305C140.2 116.899 134.53 119.949 128.799 122.84C127.886 123.304 127.081 123.728 126.211 122.851C131.831 116.524 139.077 112.495 146.387 108.569C147.934 107.744 149.458 106.855 150.987 105.999C156.497 104.607 160.912 100.893 166.126 98.8448C166.864 98.5583 167.594 98.2274 168.723 98.4213C164.983 102.212 161.243 106.004 157.494 109.808L157.496 109.819Z" stroke="white" stroke-miterlimit="10"/>
<path d="M304.614 134.273C303.624 136.473 304.673 138.597 304.873 140.753C304.953 141.617 304.908 142.481 304.164 142.997C303.195 143.665 302.641 142.768 302.163 142.177C297.817 136.867 291.608 135.653 285.361 134.548C283.208 134.166 280.995 134.033 279.124 132.7C280.529 131.387 282.349 131.291 284.096 130.967C285.41 130.719 286.994 130.777 286.906 128.739C289.725 129.475 292.398 127.84 295.183 128.183C296.392 129.241 297.973 129.483 299.362 129.335C303.225 128.911 305.023 130.347 304.627 134.282L304.614 134.273Z" stroke="white" stroke-miterlimit="10"/>
<path d="M21.9906 224.79C24.1482 227.853 22.7411 231.345 23.0887 234.628C23.3914 237.45 23.6127 240.264 24.3267 243.29C25.7406 242.556 26.924 241.942 28.0963 241.33C33.3873 241.983 36.6335 246.136 35.5543 250.873C31.7629 252.905 27.5278 250.895 23.6306 252.113C23.5439 252.139 23.0925 250.973 22.8048 250.361C22.0831 241.85 20.9974 233.345 21.9887 224.779L21.9906 224.79Z" stroke="white" stroke-miterlimit="10"/>
<path d="M304.615 134.273C303.762 134.157 303.404 133.534 303.602 132.827C304.366 130.106 302.843 130.402 300.985 130.539C298.755 130.706 296.225 131.118 295.173 128.185C299.744 126.909 304.307 125.645 308.878 124.369L304.615 134.273V134.273Z" stroke="white" stroke-miterlimit="10"/>
<path d="M158.537 134.792C156.866 132.9 154.4 133.29 152.294 132.648C154.306 125.709 157.934 119.61 161.839 113.589C164.219 109.918 167.288 108.66 171.52 108.663C197.481 108.66 218.506 119.486 236.161 137.782C238.617 140.326 240.792 143.157 243.865 146.769C233.649 144.339 224.414 142.904 214.996 144.386C207.517 145.535 199.94 145.651 192.443 146.701C187.369 148.371 183.405 146.212 179.665 143.103C175.405 139.557 170.406 138.078 164.938 137.923C164.894 137.668 164.788 137.447 164.619 137.26C163.468 136.933 162.257 136.924 161.109 136.551C160.135 136.125 159.107 135.789 158.524 134.783L158.537 134.792Z" stroke="white" stroke-miterlimit="10"/>
<path d="M181.608 281.425C183.903 282.618 186.045 281.337 188.256 281.174C189.094 288.549 188.101 295.716 186.82 302.911C186.039 307.297 183.674 309.63 179.734 311.187C155.573 320.756 131.775 318.152 108.195 307.167C104.915 305.641 101.784 303.736 97.5124 301.415C107.97 299.974 117.126 297.943 125.313 293.056C131.825 289.202 138.831 286.299 145.398 282.534C149.468 279.067 154.001 279.67 158.697 281.265C164.046 283.085 169.277 282.657 174.427 280.791C174.567 281.018 174.753 281.19 174.983 281.307C176.183 281.196 177.313 280.758 178.527 280.691C179.6 280.739 180.688 280.683 181.624 281.429L181.608 281.425Z" stroke="white" stroke-miterlimit="10"/>
<path d="M103.404 303.041C104.022 301.726 106.113 301.811 106.254 300.042C106.362 299.875 106.481 299.706 106.587 299.528C109.28 297.674 112.732 297.514 115.383 295.552C115.761 295.362 116.152 295.249 116.573 295.176C124.724 292.098 132.738 288.747 140.269 284.316C144.322 281.418 149.055 279.885 153.537 277.894C161.367 274.404 168.614 270.112 174.855 264.214C177.78 260.928 180.413 257.464 181.281 253.026C181.645 251.161 182.143 248.885 180.039 247.924C177.973 246.99 177.029 249.126 175.908 250.436C174.512 252.068 173.801 254.301 171.634 255.232C168.634 255.896 165.728 255.05 162.869 254.412C160.96 253.987 159.163 253.885 157.302 254.342C155.774 253.019 156.205 251.542 157.393 250.494C159.822 248.365 162.418 246.345 166.023 246.946C168.87 248.247 170.866 247.915 172.979 245.077C174.861 242.552 177.064 240.108 179.986 238.26C183.761 235.866 182.732 231.012 181.804 228.001C179.902 221.849 179.865 215.593 178.87 209.41C177.389 200.129 174.72 191.04 174.749 181.522C174.751 180.141 174.043 177.947 171.538 179.564C168.952 181.241 168.664 179.899 169.148 177.671C169.442 176.331 169.368 174.702 170.122 173.716C173.811 168.896 172.03 163.579 171.846 158.397C171.752 155.596 170.628 152.173 173.234 150.345C176.125 148.32 178.116 151.673 180.434 152.883C180.923 153.141 181.427 153.351 181.913 153.587C182.579 155.275 181.939 156.662 180.922 157.978C180.082 157.666 179.509 156.259 178.492 156.913C176.797 158.002 178.242 159.636 178.114 161.016C177.092 161.374 177.066 162.154 177.25 163.024C178.153 167.214 177.916 171.544 178.656 175.717C181.97 194.265 183.519 213.094 187.343 231.554C187.703 233.317 187.483 235.42 189.431 236.602C190.962 235.221 189.809 234.222 189.201 233.277C185.551 227.505 185.056 221.704 189.091 215.912C190.454 213.955 190.673 211.91 190.304 209.635C188.177 196.461 185.807 183.339 182.433 170.414C182.059 168.972 181.355 167.531 182.405 166.073C187.634 168.619 190.485 172.531 189.656 178.594C189.623 178.862 189.61 179.184 189.729 179.414C195.361 190.081 191.039 202.892 197.076 213.524C198.04 215.217 197.915 217.543 198.299 219.576C197.573 221.195 195.864 222.07 195.248 223.796C193.8 227.912 196.313 230.389 198.864 232.882C197.405 241.049 194.091 247.984 186.5 252.334C185.452 252.936 184.854 254.499 184.3 255.724C181.399 262.074 177.556 267.651 171.746 271.741C170.473 272.633 168.238 273.964 169.067 275.27C170.146 276.967 172.534 276.396 174.311 275.315C179.628 272.074 186.343 271.057 190.089 265.314C190.559 264.594 191.49 264.172 192.207 264.893C193.255 265.945 193.084 267.343 192.108 268.229C190.073 270.062 188.02 271.989 185.646 273.31C181.098 275.848 176.371 278.075 171.649 280.267C169.051 281.478 166.202 280.964 163.509 280.56C156.403 279.5 150.417 281.841 144.532 285.625C135.378 291.499 125.024 294.967 115.105 299.307C111.37 300.942 107.607 302.741 103.41 303.074L103.404 303.041Z" stroke="white" stroke-miterlimit="10"/>
<path d="M254.522 219.173C249.393 228.222 249.569 238.002 251.132 247.759C252.1 253.787 257.613 257.459 265.497 258.465C263.437 262.937 259.094 265.212 255.56 268.078C252.789 270.334 249.216 268.598 246.342 266.742C243.301 264.778 241.978 261.926 242.281 258.315C242.56 255.028 243.881 251.96 244.106 248.625C244.37 244.918 242.77 243.642 239.382 243.574C233.364 243.468 227.353 243.269 221.332 243.084C218.375 242.999 216.452 241.699 215.819 238.613C214.612 232.787 214.451 226.94 215.169 221.033C215.577 217.701 217.152 216.38 220.508 217.389C224.247 218.503 228.288 218.652 230.761 222.619C231.957 224.535 234.817 224.648 236.88 224.441C242.073 223.925 246.883 222.049 251.12 218.891C252.361 217.685 253.454 218.204 254.52 219.162L254.522 219.173Z" stroke="white" stroke-miterlimit="10"/>
<path d="M116.451 295.791L115.62 295.933C112.79 297.983 109.165 298.195 106.254 300.042C97.3582 301.377 89.4182 305.685 80.8866 308.144C76.952 309.277 73.1871 311.064 69.0455 311.457C67.6878 311.588 65.9968 312.7 65.2312 310.436C64.5782 308.495 65.5609 307.311 67.0547 306.313C70.5929 303.936 74.2113 301.695 78.1526 300.07C86.6752 296.563 94.1039 290.94 102.465 287.222C115.817 281.287 129.411 275.893 143.006 270.511C145.9 269.363 149.18 269.198 152.289 268.641C153.916 268.35 155.573 268.168 156.873 266.975C160.397 266.369 163.909 265.765 167.434 265.171C170.232 265.191 172.89 263.332 175.776 264.592C167.732 273.275 156.99 277.472 146.568 282.206C144.578 283.107 142.604 284.028 140.627 284.939C135.09 288.491 128.803 290.473 122.894 293.257C120.836 294.227 118.888 295.702 116.453 295.802L116.451 295.791Z" stroke="white" stroke-miterlimit="10"/>
<path d="M182.404 166.072C186.75 180.736 189.257 195.784 191.786 210.828C192.131 212.834 191.954 214.324 190.527 216.041C185.864 221.633 186.146 228.178 191.224 233.499C192.489 234.821 192.309 235.833 191.758 237.137C191.265 238.317 190.289 238.747 189.086 238.646C187.547 238.523 187.046 237.4 186.868 236.096C185.102 223.567 181.814 211.276 181.078 198.57C180.828 194.324 179.963 190.093 179.031 185.93C177.312 178.252 177.423 170.339 175.905 162.638C175.691 161.523 175.805 160.465 176.428 159.377C177.002 159.929 177.561 160.46 178.12 160.991C178.715 163.387 180.895 164.461 182.426 166.069L182.404 166.072Z" stroke="white" stroke-miterlimit="10"/>
<path d="M273.702 247.734C275.387 241.148 277.881 234.685 278.325 227.913C278.645 223.136 280.089 219.26 283.07 215.702C284.196 214.356 284.977 212.728 285.917 211.232C286.088 209.103 288.116 208.23 289.049 206.621C291.715 202.889 295.83 200.881 299.27 198.065C300.281 196.979 301.34 195.976 302.841 195.615C303.927 195.36 305.005 195.266 306.034 195.808C307.227 198.169 306.776 200.79 306.913 203.242C307.027 205.435 305.208 206.729 302.823 206.66C300.397 204.157 298.239 205.669 296.38 207.334C289.553 213.47 286.684 221.663 286.209 230.379C285.891 236.228 282.485 240.898 281.774 246.449C281.701 247.021 281.098 247.889 280.603 247.997C275.877 249.037 277.804 251.889 278.672 254.546C279.177 256.09 279.488 257.702 279.875 259.289C277.74 257.021 276.825 254.156 276.021 251.271C275.618 249.789 275.544 248.228 273.693 247.747L273.702 247.734Z" stroke="white" stroke-miterlimit="10"/>
<path d="M218.064 280.798C209.065 282.733 199.766 283.179 191.016 286.292C185.007 288.431 179.487 286.312 173.351 284.526C177.758 281.499 182.367 280.17 186.828 278.719C198.775 274.829 210.839 271.283 222.812 267.48C229.582 265.323 233.457 266.231 236.616 271.072C238.535 274.005 237.964 275.996 234.617 277.028C232.395 277.707 230.025 277.92 227.724 278.339C226.931 277.836 226.941 276.968 226.684 276.202C225.429 272.619 223.147 271.084 219.512 271.64C215.568 272.25 211.899 273.804 208.259 275.388C207.516 275.71 206.664 276.13 206.689 277.073C206.721 278.253 207.763 278.542 208.689 278.816C210.297 279.281 211.97 278.925 213.588 279.115C215.195 279.306 217.259 278.507 218.079 280.818L218.064 280.798Z" stroke="white" stroke-miterlimit="10"/>
<path d="M283.194 268.78C274.354 273.288 266.288 279.055 258.073 284.551C250.748 289.449 243.471 294.361 235.23 297.649C233.127 298.489 230.962 298.702 228.802 299.073C227.306 299.33 225.917 298.748 225.462 297.297C225.034 295.934 226.296 295.112 227.229 294.302C228.204 293.473 229.361 293.034 230.62 292.932C237.073 292.381 242.423 289.26 247.33 285.428C257.258 277.687 268.278 271.789 279.392 266.034C281.532 265.746 282.188 267.504 283.194 268.78V268.78Z" stroke="white" stroke-miterlimit="10"/>
<path d="M236.81 185.282L238.199 182.545C240.227 181.866 241.295 183.302 242.309 184.554C247.957 191.533 251.264 199.691 253.698 208.204C254.405 210.661 254.874 213.454 251.998 215.238C246.773 215.965 245.077 211.739 242.656 208.54C237.93 201.481 235.566 193.835 236.808 185.271L236.81 185.282Z" stroke="white" stroke-miterlimit="10"/>
<path d="M218.064 280.798C215.082 279.314 211.866 280.642 208.789 280.065C206.891 279.707 205.172 279.261 204.915 277.104C204.678 275.057 206.702 274.823 207.936 274.303C211.582 272.752 215.239 271.2 219.187 270.544C224.666 269.636 228.142 272.803 227.71 278.318C224.794 280.336 221.317 280.147 218.051 280.788L218.064 280.798Z" stroke="white" stroke-miterlimit="10"/>
<path d="M146.536 211.683C142.271 211.025 145.17 208.051 144.75 206.139C147.924 201.51 152.414 198.764 157.729 197.303C159.396 196.845 161.559 195.629 162.806 196.978C164.263 198.552 162.76 200.693 161.968 202.323C158.896 208.737 153.122 210.916 146.534 211.672L146.536 211.683Z" stroke="white" stroke-miterlimit="10"/>
<path d="M175.763 264.583C172.97 264.527 170.379 267.505 167.421 265.161C169.798 262.266 172.63 259.566 171.601 255.238C173.261 252.751 174.895 250.246 176.594 247.786C177.572 246.375 179.08 246.127 180.605 246.503C182.069 246.856 182.237 248.231 182.376 249.439C183.084 255.75 179.603 260.25 175.751 264.585L175.763 264.583Z" stroke="white" stroke-miterlimit="10"/>
<path d="M166.001 246.95C163.794 247.979 161.542 248.948 159.371 250.051C157.662 250.927 156.537 252.215 157.267 254.337C155.272 257.531 152.406 258.709 150.34 256.908C147.721 254.609 148.766 252.331 150.852 250.261C151.046 250.068 151.289 249.889 151.399 249.665C152.277 247.803 151.272 245.01 154.857 244.565C158.978 244.05 162.715 244.092 165.99 246.951L166.001 246.95Z" stroke="white" stroke-miterlimit="10"/>
<path d="M198.86 232.86C195.281 232.482 194.153 229.699 193.786 226.899C193.358 223.551 194.621 220.676 198.284 219.556C200.978 223.883 200.422 228.348 198.86 232.86Z" stroke="white" stroke-miterlimit="10"/>
<path d="M180.908 157.957C180.384 156.302 181.296 154.971 181.898 153.567C183.786 154.063 184.84 155.548 185.845 157.017C186.655 158.213 188.14 159.68 186.449 160.929C184.84 162.118 183.023 161.7 181.9 159.749C181.559 159.157 181.238 158.551 180.908 157.957Z" stroke="white" stroke-miterlimit="10"/>
<path d="M140.888 198.408C138.75 198.376 138.019 196.848 137.913 195.166C137.772 192.955 138.776 190.432 140.944 190.504C143.146 190.571 142.377 193.201 142.334 194.874C142.313 195.414 142.282 195.966 142.261 196.506C141.811 197.142 141.351 197.78 140.899 198.406L140.888 198.408Z" stroke="white" stroke-miterlimit="10"/>
<path d="M157.424 175.625C158.398 174.522 156.433 171.917 158.757 171.7C160.384 171.546 162.041 173.086 161.968 175.186C161.91 176.77 161.124 178.172 159.345 178.238C157.848 178.29 157.273 177.203 157.413 175.627L157.424 175.625Z" stroke="white" stroke-miterlimit="10"/>
<path d="M243.263 155.804C246.812 150.837 250.361 145.869 253.909 140.891L252.937 140.214C249.414 145.2 245.879 150.187 242.354 155.162L243.263 155.804Z" stroke="white" stroke-miterlimit="10"/>
<path d="M150.929 307.083C149.155 306.453 147.379 305.481 146.749 303.342C146.552 302.657 147.343 301.951 148.03 302.163C149.899 302.755 151.345 304 152.188 305.783C152.55 306.565 151.952 306.999 150.927 307.072L150.929 307.083Z" stroke="white" stroke-miterlimit="10"/>
<path d="M161.467 135.908C162.695 135.948 164.032 135.764 164.633 137.269C164.423 137.442 164.223 137.67 163.99 137.778C150.285 143.785 146.078 156.668 141.715 169.178C138.431 178.606 136.226 188.407 133.185 197.918C131.931 201.841 130.711 206.089 126.647 208.395C125.175 207.462 125.115 205.853 124.843 204.405C124.285 201.49 123.123 198.906 120.953 196.838C118.314 194.691 118.37 192.229 120.101 189.559C125.72 180.905 129.678 171.282 135.743 162.904C137.07 161.068 137.73 159.004 138.348 156.89C138.729 156.186 139.325 155.673 139.936 155.18C144.343 152.346 147.131 148.194 149.362 143.59C149.649 143.073 149.937 142.555 150.223 142.027C153.001 138.219 157.228 137.059 161.456 135.91L161.467 135.908Z" stroke="white" stroke-miterlimit="10"/>
<path d="M68.2281 259.594C65.1418 261.083 62.0426 262.562 58.9731 264.082C56.429 265.341 54.0049 265.838 51.9823 263.163C50.54 261.939 49.2227 260.58 48.0656 259.091C47.0256 257.752 46.1756 256.324 48.0351 254.932C50.1946 254.356 52.3911 254.526 54.585 254.548C55.4711 254.726 56.2897 255.042 56.8241 255.828C56.7412 257.337 55.4397 257.264 55.3419 257.292C67.9726 250.079 82.0792 243.821 96.2588 237.722C104.372 235.883 112.308 233.674 118.228 227.238C120.475 227.765 119.439 229.174 119.013 230.343C118.324 232.241 116.798 233.849 117.078 236.071C114.417 239.574 110.169 240.339 106.507 241.995C93.7097 247.776 80.7708 253.263 68.2151 259.585L68.2281 259.594Z" stroke="white" stroke-miterlimit="10"/>
<path d="M117.078 236.071C115.284 236.117 115.376 235.325 116.018 234.017C117.092 231.836 118.804 229.922 118.954 227.341C118.158 225.961 119.227 224.751 119.3 223.449C119.457 222.635 119.691 221.409 119.148 221.103C115.454 219.057 117.403 216.064 117.444 213.251C117.496 209.706 118.053 205.778 114.303 203.343C113.06 202.416 111.775 201.507 112.444 199.624C114.933 197.451 116.946 194.162 121.12 195.885C125.924 198.744 125.637 203.847 126.645 208.384C127.468 218.281 126.444 227.651 118.808 235.055C118.349 235.499 117.659 235.731 117.087 236.058L117.078 236.071Z" stroke="white" stroke-miterlimit="10"/>
<path d="M302.821 206.649C305.037 205.07 307.677 203.772 305.24 200.279C304.301 198.934 306.444 197.597 305.981 196.033C307.197 194.547 308.651 194.445 310.26 195.309C311.897 198.598 313.833 201.63 317.316 203.313C317.856 208.376 320.181 213.007 320.781 218.094C321.16 221.291 320.807 224.146 318.997 226.693C317.573 228.695 317.296 230.065 319.499 231.865C321.7 233.654 320.818 236.224 317.886 237.549C312.585 239.955 312.312 241.553 316.959 244.895C318.443 245.963 319.159 248.27 321.577 247.934C322.816 248.508 323.122 249.824 323.796 250.826C324.593 252.012 326.262 253.094 325.328 254.761C324.322 256.542 322.295 256.56 320.528 256.43C315.399 256.057 311.762 252.815 308.061 249.733C307.242 248.687 306.663 247.509 306.167 246.283C305.173 243.02 303.699 239.886 303.5 236.407C303.261 232.296 304.584 228.646 306.525 225.073C309.846 218.981 309.001 214.199 304.056 209.585C303.362 208.997 302.983 208.252 302.917 207.34C302.877 207.107 302.85 206.883 302.821 206.649V206.649Z" stroke="white" stroke-miterlimit="10"/>
<path d="M310.21 196.151C308.834 194.984 307.4 195.995 305.983 196.045C304.897 196.232 303.811 196.418 302.725 196.605C298.046 193.805 296.048 188.753 292.816 184.746C291.438 183.032 289.518 181.286 290.376 178.583C293.644 173.242 302.121 170.929 307.037 174.042C309.52 174.357 310.476 176.531 311.889 178.113C314.177 180.674 314.332 180.648 315.966 177.481C316.813 175.841 316.975 173.726 318.999 172.83C319.227 172.494 319.462 171.872 319.7 171.865C320.894 171.843 320.25 172.741 320.245 173.243C320.091 179.646 319.889 186.034 319.746 192.435C319.727 193.385 320.003 194.33 320.145 195.287C317.886 198.801 315.109 199.039 310.223 196.16L310.21 196.151Z" stroke="white" stroke-miterlimit="10"/>
<path d="M308.465 249.298C310.51 250.646 312.556 251.994 314.599 253.331C316.811 254.788 319.193 255.701 321.903 255.407C324.455 255.127 326.147 254.551 323.29 251.997C322.131 250.964 321.769 249.452 321.576 247.934C321.961 245.461 321.416 242.555 324.713 241.498C325.074 242.668 324.81 243.785 324.464 244.894C325.537 245.759 325.003 246.832 324.86 247.86C324.398 251.145 326.085 250.342 327.831 249.414C330.346 249.518 332.035 252.376 334.842 251.517C336.228 253.206 338.093 253.376 340.066 253.174C340.973 253.075 341.699 253.315 341.95 254.31C342.204 255.327 342.105 256.473 341.105 256.828C335.932 258.653 333.394 264.062 328.32 266.064C326.942 266.609 325.688 267.474 324.155 267.647C321.911 269.458 319.312 269.335 316.682 269.034C314.633 268.793 312.606 268.412 310.676 267.603C307.15 266.133 302.645 265.276 302.248 260.713C301.825 255.927 304.635 252.17 308.456 249.311L308.465 249.298Z" stroke="white" stroke-miterlimit="10"/>
<path d="M256.647 217.131C254.459 217.142 252.61 216.41 251.179 214.717C254.65 212.614 253.103 209.39 252.281 206.999C249.553 198.958 246.423 191.033 240.865 184.38C240.147 183.522 239.289 182.848 238.188 182.547C241.837 176.102 246.493 170.34 250.674 164.272C255.776 156.858 260.627 149.249 266.497 142.388C272.931 138.407 280.013 137.27 287.378 138.114C295.443 139.043 302.58 146.588 303.324 154.627C303.529 156.816 303.729 159.109 301.062 160.183C299.138 159.408 299.815 157.637 299.671 156.271C299.195 151.71 297.539 147.785 294.065 144.698C292.276 143.112 290.208 142.099 287.827 141.721C281.191 140.672 277.407 144.87 279.428 151.252C280.423 154.389 282.058 157.393 284.116 159.88C286.521 162.786 289.745 164.821 293.938 163.131C294.834 162.771 295.773 162.53 296.742 162.922C296.602 165.889 292.933 168.699 289.07 168.724C286.679 168.747 284.507 167.923 282.48 166.686C280.723 165.619 279.105 164.369 277.595 162.952C273.402 158.996 270.745 159.601 268.522 164.979C267.998 166.244 267.644 167.571 267.009 168.787C266.369 169.843 266.496 171.111 266.084 172.231C263.661 176.32 261.007 180.256 259.039 184.666C258.109 186.754 256.633 189.118 255.001 190.904C253.11 192.974 253.74 194.383 254.801 196.311C257.514 201.274 259.339 206.584 260.118 212.176C260.46 214.627 260.35 217.304 256.614 217.136L256.647 217.131Z" stroke="white" stroke-miterlimit="10"/>
<path d="M48.204 255.383C46.8482 256.984 48.2918 257.751 49.1344 258.804C50.2225 260.157 52.0328 261.067 51.9825 263.163C48.9767 263.394 48.1526 260.524 46.2863 259.157C44.1993 255.444 42.4978 251.584 41.7388 247.369C38.7066 243.133 39.5438 238.78 41.3677 234.394C42.8433 233.091 43.4883 231.269 44.3853 229.587C45.0939 228.267 45.8337 226.931 47.5083 226.586C47.9204 226.595 48.2669 226.752 48.5456 227.046C48.7996 229.387 46.7166 230.806 46.2633 232.88C42.9102 240.049 42.9853 246.789 48.7232 252.829C49.1403 253.796 48.0237 254.467 48.2059 255.394L48.204 255.383Z" stroke="white" stroke-miterlimit="10"/>
<path d="M129.675 156.67C129.169 155.65 128.672 154.618 128.166 153.598C127.255 152.546 127.695 151.387 127.887 150.247C128.677 148.012 130.535 146.541 131.832 144.664C134.544 143.057 136.556 140.293 139.92 139.76C141.054 140.911 141.154 140.963 140.614 142.139C139.587 144.392 138.665 146.66 138.419 149.144C138.155 150.261 138.286 151.357 138.588 152.446C138.286 155.669 136.477 157.554 133.378 158.303C131.973 158.157 130.45 158.259 129.666 156.683L129.675 156.67Z" stroke="white" stroke-miterlimit="10"/>
<path d="M131.84 144.651C131.551 147.016 130.116 148.689 128.426 150.2C127.423 151.468 125.861 151.804 124.536 152.523C120.654 154.228 116.877 156.144 113.169 158.196C110.357 159.751 107.719 159.805 105.235 157.563C104.426 157.634 103.617 157.705 102.808 157.775C112.492 153.396 122.167 149.029 131.852 144.649L131.84 144.651Z" stroke="white" stroke-miterlimit="10"/>
<path d="M137.923 151.898C136.663 151.271 137.372 150.35 137.556 149.498C139.188 145.259 142.076 141.819 144.771 138.253C149.759 138.673 154.731 139.062 158.535 134.781C159.573 134.979 160.702 134.979 161.465 135.897C159.756 137.24 157.863 138.17 155.763 138.828C153.577 139.511 151.515 140.527 150.793 143.024C149.219 142.234 147.963 142.689 146.779 143.897C144.865 145.834 142.756 147.566 141.022 149.689C140.21 150.672 139.669 152.168 137.921 151.887L137.923 151.898Z" stroke="white" stroke-miterlimit="10"/>
<path d="M144.774 138.265C143.59 142.791 140.279 145.961 137.558 149.509C136.904 145.903 139.918 143.194 139.93 139.747C141.283 138.397 143.052 138.401 144.776 138.276L144.774 138.265Z" stroke="white" stroke-miterlimit="10"/>
<path d="M116.451 295.791C124.509 292.17 132.567 288.549 140.614 284.93C140.228 286.798 138.489 286.835 137.178 287.437C131.016 290.275 124.84 293.105 118.689 295.942C117.885 296.308 117.151 296.48 116.449 295.78L116.451 295.791Z" stroke="white" stroke-miterlimit="10"/>
<path d="M106.254 300.041C108.903 297.601 112.317 296.889 115.62 295.933C113.289 299.094 109.537 299.032 106.254 300.041Z" stroke="white" stroke-miterlimit="10"/>
<path d="M166.259 290.303C169.146 290.971 170.215 293.604 171.327 295.763C172.132 297.324 170.09 298.052 168.835 298.188C166.705 298.405 164.586 298.017 164.171 295.339C163.865 293.361 164.186 291.515 166.259 290.303V290.303Z" stroke="white" stroke-miterlimit="10"/>
<path d="M121.122 195.896C117.237 195.195 115.619 199.455 112.279 199.926C111.052 200.023 110.338 199.587 110.867 198.287C111.17 197.527 112.065 197.157 112.503 196.454C113.238 195.29 114.217 194.015 113.448 192.664C112.695 191.334 111.217 192.09 110.03 192.157C109.028 192.295 108.028 192.387 107.065 191.959C105.218 188.319 107.917 185.767 109.842 183.76C117.434 175.838 124.377 167.39 131.29 158.901C131.658 158.45 132.159 158.25 132.712 158.144C134.883 158.5 136.529 155.868 138.848 157.077C139.231 159.441 138.111 161.288 136.816 163.107C130.534 171.887 126.281 181.846 120.52 190.935C119.147 193.099 119.824 194.386 121.113 195.909L121.122 195.896Z" stroke="white" stroke-miterlimit="10"/>
<path d="M138.859 157.076C136.862 158.069 134.715 158.45 132.516 158.6C132.051 157.881 132.271 157.57 133.097 157.599C135.872 156.688 137.604 154.885 137.934 151.896C140.74 148.243 144.093 145.123 147.404 141.953C149.421 140.021 150.326 140.641 150.817 143.031C150.608 143.341 150.397 143.64 150.188 143.95C146.799 147.794 141.581 150.083 140.299 155.699L138.881 157.072L138.859 157.076Z" stroke="white" stroke-miterlimit="10"/>
<path d="M140.265 155.705C138.504 154.285 139.781 152.754 140.59 151.885C143.42 148.843 146.048 145.483 150.165 143.954C148.069 148.877 145.254 153.205 140.276 155.703L140.265 155.705Z" stroke="white" stroke-miterlimit="10"/>
<path d="M96.5321 238.713C82.0955 244.777 68.156 251.941 53.6972 258.008C54.2737 256.518 56.086 257.107 56.6334 255.713C60.4989 250.463 63.3939 244.809 63.1156 238.081C62.945 233.97 62.0637 230.038 58.2291 227.572C57.2878 227.471 56.3508 227.461 55.4071 227.612C53.8205 227.805 52.259 228.21 50.6485 228.065C49.7997 227.971 49.0496 227.655 48.4624 227.026C48.3417 226.922 48.2321 226.815 48.1114 226.71C47.9447 224.811 49.3619 224.031 50.6875 223.382C68.026 214.823 85.4709 206.486 102.979 198.251C103.348 198.074 103.786 198.101 104.193 198.077C106.457 198.441 105.864 199.569 104.937 200.812C104.119 201.763 103.121 202.527 102.196 203.382C96.6871 209.291 95.9512 220.471 100.661 225.707C102.353 227.583 104.235 228.583 106.82 228.355C108.204 228.243 110.521 227.388 110.685 229.276C110.859 231.345 108.623 231.81 106.706 231.74C106.569 231.741 106.332 231.622 106.334 231.633C106.19 231.988 106.593 232.147 106.636 232.459C106.272 234.723 104.434 235.313 102.674 235.958C100.562 236.743 98.4256 237.452 96.5321 238.713Z" stroke="white" stroke-miterlimit="10"/>
<path d="M58.3795 226.85C58.81 226.103 59.3579 225.906 59.9695 226.611C67.4661 235.383 64.0133 251.262 56.636 255.724C56.0531 255.584 55.4591 255.447 54.8762 255.308C53.0436 254.003 50.2014 256.248 48.7499 253.578C42.259 249.925 41.026 237.909 46.0548 232.459C46.1831 232.608 46.3003 232.759 46.4286 232.908C46.6717 233.46 46.7115 234.023 46.6424 234.617C46.064 238.617 44.8309 242.525 46.5116 246.662C47.337 248.676 47.4385 246.48 47.8407 246.696C48.92 246.339 49.6348 246.981 50.4379 247.538C53.9139 249.975 56.3714 249.142 58.0423 245.193C59.35 242.117 58.5597 238.648 59.9896 235.619C62.6779 236.195 61.5977 238.205 61.8365 239.727C62.2235 236.604 60.9432 233.801 59.7737 230.979C59.2105 229.627 57.9592 228.519 58.3665 226.841L58.3795 226.85Z" stroke="white" stroke-miterlimit="10"/>
<path d="M96.5319 238.713C97.395 236.169 100.099 236.503 101.852 235.357C103.402 234.35 105.571 234.228 106.299 232.095C111.336 230.807 113.674 226.823 115.815 222.622C116.37 221.535 116.837 220.143 118.436 220.484C120.14 220.841 120.374 222.204 120.164 223.7C120.324 225.098 119.311 226.105 118.962 227.329C113.53 235.141 104.905 236.658 96.5411 238.7L96.5319 238.713Z" stroke="white" stroke-miterlimit="10"/>
<path d="M48.749 253.578C50.7484 254.592 52.9968 254.068 55.0732 254.601C55.1102 254.617 55.1372 254.841 55.1009 254.961C55.0645 255.081 54.9579 255.191 54.8753 255.308C52.6522 255.713 50.4337 255.946 48.2057 255.394C47.4249 254.501 47.4623 253.856 48.7509 253.589L48.749 253.578Z" stroke="white" stroke-miterlimit="10"/>
<path d="M114.813 202.856C114.789 203.647 114.798 204.626 113.653 203.671C112.881 203.028 112.439 201.986 111.276 201.855C110.301 202.023 109.412 201.697 108.542 201.344C107.169 200.725 105.497 201.617 104.231 200.489C103.96 199.771 105.922 199.639 104.697 198.686C105.003 196.284 107.036 196.63 108.597 196.225C109.77 196.148 110.882 196.049 110.452 194.343C110.194 193.304 109.507 192.293 110.146 191.168C111.885 190.732 114.345 190.115 114.901 191.89C115.57 193.988 114.52 196.507 112.552 197.997C111.573 198.736 110.311 198.964 112.288 199.913C113.129 200.887 113.982 201.869 114.822 202.843L114.813 202.856Z" stroke="white" stroke-miterlimit="10"/>
<path d="M109.555 197.087C107.957 197.681 106.003 197.195 104.696 198.686C92.3419 204.586 79.9854 210.474 67.6327 216.385C62.5626 218.808 57.5092 221.262 52.4429 223.707C50.8426 224.484 49.1588 225.173 48.1021 226.723C45.1055 228.402 44.7089 231.801 43.0363 234.347C43.1853 228.047 45.8882 223.134 51.0819 219.572C69.1681 212.311 86.8285 204.165 103.756 194.479C105.231 193.632 106.763 192.992 108.446 193.559C110.323 194.194 111.367 195.224 109.543 197.089L109.555 197.087Z" stroke="white" stroke-miterlimit="10"/>
<path d="M48.4514 227.028C49.0861 226.805 49.6702 226.819 50.113 227.404C49.9341 230.013 48.343 231.507 46.0765 232.456L46.0543 232.459C45.4023 229.994 47.753 228.871 48.4514 227.028V227.028Z" stroke="white" stroke-miterlimit="10"/>
<path d="M133.086 157.601C132.892 157.931 132.698 158.261 132.505 158.602C126.207 167.35 119.19 175.503 111.594 183.139C109.182 185.562 107.856 188.402 106.95 191.558C106.694 193.586 104.824 193.988 103.482 194.675C96.0664 198.448 88.4618 201.854 80.9619 205.47C79.887 205.986 78.754 206.694 77.5094 205.824C77.3038 202.837 76.869 199.843 76.9389 196.865C77.017 193.338 80.8624 193.213 82.7616 191.256C85.7841 188.135 89.5607 185.752 93.0105 183.06C97.511 183.097 99.4282 179.585 101.792 176.68C102.054 176.213 102.365 175.304 102.574 175.325C109.902 176.084 112.685 169.446 117.425 166.099C121.626 163.13 124.864 158.877 129.686 156.668C130.824 156.986 131.961 157.292 133.099 157.61L133.086 157.601Z" stroke="white" stroke-miterlimit="10"/>
<path d="M77.498 205.826C87.2967 201.05 97.4091 196.905 106.939 191.559C108.001 191.434 109.072 191.295 110.134 191.169C110.703 192.555 111.425 193.902 111.81 195.342C112.377 197.446 111.266 197.751 109.543 197.089C110.092 193.047 107.223 193.678 105.476 194.731C91.0825 203.365 75.7844 210.124 60.5482 217.044C57.4689 218.44 54.3867 219.289 51.0707 219.574C59.2788 213.84 68.5117 210.085 77.4869 205.827L77.498 205.826Z" stroke="white" stroke-miterlimit="10"/>
<path d="M93.615 182.066C95.2291 180.374 96.8524 178.67 98.4665 176.978C99.0204 176.882 99.5633 176.789 100.119 176.705C100.675 176.689 101.222 176.686 101.779 176.671C99.9191 182.773 98.1257 184.086 92.9972 183.051C93.2025 182.719 93.4078 182.387 93.604 182.068L93.615 182.066Z" stroke="white" stroke-miterlimit="10"/>
<path d="M55.5115 230.674C55.6226 229.263 55.7226 227.854 55.8318 226.433C56.6882 226.571 57.5335 226.71 58.388 226.837C61.6244 230.866 63.4728 235.248 62.1235 240.67C60.6618 239.268 61.8235 236.935 60.0217 235.876C57.8994 234.678 56.7101 232.669 55.5115 230.674Z" stroke="white" stroke-miterlimit="10"/>
<path d="M81.5513 226.414C82.7212 225.323 81.9381 223.621 83.5612 222.977C83.6907 223.731 84.001 224.407 83.8727 224.988C83.4554 226.874 84.6292 230.185 82.3142 230.321C79.9548 230.464 79.3642 227.36 78.9993 225.039C80.7047 224.21 80.6166 226.153 81.5624 226.412L81.5513 226.414Z" stroke="white" stroke-miterlimit="10"/>
<path d="M73.1344 226.949C73.6948 228.483 73.8643 228.739 73.8619 228.991C73.8344 231.22 74.486 234.678 72.1716 234.951C70.1139 235.19 69.4624 231.732 68.5403 228.491C71.1458 231.306 72.6079 230.986 73.1344 226.949V226.949Z" stroke="white" stroke-miterlimit="10"/>
<path d="M104.231 200.489C105.922 200.574 107.639 199.081 109.326 200.537C107.25 202.194 104.899 203.18 102.24 203.375C102.189 203.075 102.137 202.776 102.075 202.479C102.794 201.819 103.511 201.148 104.242 200.487L104.231 200.489Z" stroke="white" stroke-miterlimit="10"/>
<path d="M49.2812 242.604C48.7494 244.156 48.2195 245.718 47.6878 247.27C47.1238 248.302 46.818 249.575 45.8235 247.374C43.756 242.778 44.5799 238.348 46.0226 233.868C48.5619 234.572 49.48 235.931 48.3495 238.578C47.7724 239.932 47.7639 241.542 49.2922 242.602L49.2812 242.604Z" stroke="white" stroke-miterlimit="10"/>
<path d="M98.7859 212.341C102.724 213.021 101.066 217.379 103.316 219.182C102.898 220.269 102.676 221.368 103.022 222.518C100.298 225.187 99.5326 225.045 98.6813 221.553C97.9375 218.487 97.4634 215.397 98.797 212.339L98.7859 212.341Z" stroke="white" stroke-miterlimit="10"/>
<path d="M54.914 245.708C53.445 245.39 51.5597 244.642 51.7646 243.512C52.2342 241.001 54.6263 239.655 56.6936 238.41C57.6646 237.821 58.0334 239.103 58.0059 239.872C57.8832 242.277 56.9917 244.324 54.914 245.708V245.708Z" stroke="white" stroke-miterlimit="10"/>
</g>
</svg>
