<svg width="300" height="461" viewBox="0 0 300 461" fill="none" xmlns="http://www.w3.org/2000/svg">
<mask id="mask0_1127_684" style="mask-type:alpha" maskUnits="userSpaceOnUse" x="0" y="0" width="300" height="469">
<rect x="0.0302734" width="299.814" height="469" fill="#D9D9D9"/>
</mask>
<g mask="url(#mask0_1127_684)">
<path d="M-15.8542 472.816L-30.5605 462.969C-32.6429 458.106 -29.1674 454.091 -28.4498 449.656C-25.5439 446.015 -21.621 450.687 -18.5412 448.397C-18.8311 447.289 -19.9701 446.941 -20.6239 446.14C-25.617 439.132 -21.9145 432.137 -19.7571 425.644C-16.7662 416.597 -13.6593 407.651 -12.2451 398.194C-11.5275 393.346 -9.45992 388.941 -6.9916 384.69C-5.172 381.582 -4.78669 377.885 -3.59986 374.493C-3.25703 373.876 -2.78766 373.343 -2.23392 372.889C-1.31103 372.293 -0.293258 372.034 0.777221 372.039C3.49291 372.592 6.35101 372.897 7.72704 375.871C8.13809 378.545 7.06738 380.94 5.93867 383.182C-2.04141 399.097 -5.0964 416.672 -11.3258 433.183C-13.1508 438.047 -12.4605 442.804 -9.53954 447.128C-7.77341 451.368 -3.20109 447.695 -0.812536 450.178C-0.269466 450.975 -0.137722 451.839 -0.390932 452.768C-1.03439 453.939 -2.1102 454.525 -3.33892 454.894C-8.78627 455.218 -10.5215 458.953 -11.6821 463.574C-12.5104 466.839 -11.936 470.879 -15.8437 472.8L-15.8542 472.816Z" stroke="white" stroke-width="0.8" stroke-miterlimit="10"/>
<path d="M-0.723243 452.409L-1.19242 450.954C1.3971 447.583 4.88783 449.543 8.04128 449.337C7.28731 448.24 5.92154 448.061 4.96715 447.265C-0.553329 440.637 0.654551 437.694 10.1995 434.547C11.7816 433.544 13.427 432.789 15.3675 433.237C17.2131 434.033 18.7264 435.224 19.8336 436.922C17.7815 444.971 19.1834 453.083 19.3619 461.179C16.1505 460.821 13.5929 461.265 13.2866 465.358C13.1546 467.236 12.548 469.071 11.4773 470.712C10.5913 471.904 10.0058 473.229 9.62075 474.663C9.08795 476.662 8.13857 478.567 8.00125 480.692C8.61311 479.089 8.37076 476.847 10.9811 476.736C13.9916 481.439 13.6168 485.806 9.61397 489.79L-5.2452 479.932C-5.98798 472.375 -0.012989 468.928 4.28519 464.502C8.28803 460.381 8.07733 458.023 2.98364 454.834C1.55463 454.339 -0.00623309 454.007 -0.744339 452.441L-0.723243 452.409Z" stroke="white" stroke-width="0.8" stroke-miterlimit="10"/>
<path d="M10.2012 470.433C10.734 468.228 11.2405 466.029 11.7733 463.824C13.5195 456.713 14.1628 456.502 19.3671 461.137C25.5465 469.963 22.5453 477.243 14.5978 483.923C18.5898 483.11 21.8329 482.117 24.5009 484.901C27.4062 487.911 28.0387 491.556 26.9942 495.522C26.5669 497.157 25.9814 498.756 25.4539 500.37C20.1809 496.833 14.8922 493.285 9.61922 489.748C10.5636 485.486 12.1302 481.25 10.5697 476.804C7.98598 474.854 9.22543 472.617 10.1748 470.438L10.2012 470.433Z" stroke="white" stroke-width="0.8" stroke-miterlimit="10"/>
<path d="M-15.8544 472.816C-14.7202 468.543 -13.5016 464.281 -12.4676 459.987C-11.2595 454.918 -8.7017 452.075 -3.09634 453.57C-1.69894 453.77 -0.438698 454.587 -0.591759 455.948C-1.489 463.807 -2.2386 471.788 -8.43532 477.76L-15.8544 472.816V472.816Z" stroke="white" stroke-width="0.8" stroke-miterlimit="10"/>
<path d="M3.2104 453.363C4.30173 455.736 3.66345 457.825 2.134 459.777C-2.35414 465.517 -3.91573 472.522 -6.28938 479.168C-7.00122 478.694 -7.72889 478.209 -8.44074 477.734C-6.29387 471.325 -4.13118 464.927 -2.06868 458.507C-1.50426 456.735 -0.813264 454.773 -3.10175 453.544C-2.30017 453.164 -1.51442 452.774 -0.712836 452.394C0.584363 452.71 1.90793 453.021 3.20513 453.336L3.2104 453.363Z" stroke="white" stroke-width="0.8" stroke-miterlimit="10"/>
<path d="M49.784 256.793C50.6437 255.675 51.4453 254.472 53.0063 254.255C57.2723 254.47 60.3945 251.157 64.3653 250.443C66.1793 250.601 67.9827 251.666 69.8126 250.394C74.2109 247.359 77.8551 243.16 83.2024 241.512C83.6929 241.359 83.4662 239.951 83.614 239.112C83.9463 237.894 84.5792 236.876 85.6181 236.105C90.8072 234.215 96.5232 236.745 101.618 234.106C116.584 222.755 133.491 215.898 151.879 212.954C160.106 211.648 168.079 214.768 176.136 215.978C176.542 218.968 176.5 219.1 173.193 219.022C170.768 218.96 168.173 217.779 166.496 220.707C163.095 222.143 161.634 224.712 162.039 228.388C161.211 230.213 160.014 231.221 157.942 230.251C156.745 228.859 156.228 227.235 156.208 225.415C154.415 219.878 153.898 219.762 145.529 222.824C142.355 223.543 139.423 225.2 136.111 225.37C127.146 225.315 120.792 230.634 114.447 236.005C112.665 237.514 110.782 238.934 108.91 240.337C106.4 242.184 103.942 244.158 100.588 244.048C98.9324 243.859 97.5456 242.82 95.8002 242.457C95.3518 244.81 96.1426 246.64 97.4396 248.327C97.7665 248.865 98.0143 249.418 98.1883 250.014C98.6205 252.04 98.0982 253.817 96.8536 255.41C95.8199 256.619 94.5595 257.516 93.1726 258.26C90.9577 258.772 88.9432 260.287 86.4648 259.686C89.0591 260.798 91.4746 257.86 94.0689 259.383C94.5593 259.71 94.9231 260.158 95.1656 260.685C95.2182 262.183 95.2866 263.555 97.4434 263.438C99.2891 263.342 101.145 263.505 102.748 264.665C105.337 267.67 108.253 270.322 111.195 272.969C113.009 273.881 113.826 275.637 114.707 277.298C116.737 281.073 119.806 282.502 124.082 282.152C130.421 281.622 136.606 282.453 142.744 284.35C148.998 286.278 151.418 290.36 151.122 296.562C148.285 297.46 146.376 295.525 144.272 294.26C142.2 293.016 139.964 292.737 137.634 293.012C134.206 293.219 130.783 293.247 127.372 292.779C120.295 291.948 113.213 290.816 107.059 296.109C105.735 297.238 103.821 296.922 102.202 297.397C98.6686 298.037 95.0986 298.149 91.5128 298.182C88.2434 297.808 84.9528 297.604 81.752 296.751C80.0014 296.087 78.1294 295.913 76.3101 295.524C73.5153 294.918 71.9386 295.536 72.012 298.853C72.0856 301.485 71.5053 304.001 67.8773 303.617C62.251 301.056 62.4941 295.755 61.9092 290.84C56.6308 289.402 51.9216 290.743 47.4707 293.651C44.6545 295.477 42.0546 297.904 38.3369 297.758C37.4721 297.684 36.6389 297.426 35.8321 297.094C33.6386 295.449 30.9227 297.433 28.6658 296.158C26.5988 294.666 24.5793 293.137 23.7991 290.537C23.7255 288.797 24.4903 287.409 25.5978 286.159C27.0903 284.639 28.9202 283.573 30.65 282.349C32.0897 281.32 35.0902 281.514 33.3767 278.018C32.7493 276.731 34.7849 275.116 36.6359 274.842C39.4572 274.413 41.4503 275.605 42.9688 277.988C46.7334 283.926 46.7703 283.904 51.9702 279.804C57.1437 275.71 57.0541 275.056 50.8003 271.962C48.7807 271.187 46.6661 270.555 45.406 268.572C45.1688 268.003 45.0739 267.391 45.1162 266.779C45.7652 263.029 49.8311 260.87 49.784 256.793V256.793Z" stroke="white" stroke-width="0.8" stroke-miterlimit="10"/>
<path d="M24.3199 290.337C26.6242 291.919 29.0076 293.416 30.3309 296.058C30.8211 298.579 29.5394 300.604 28.1366 302.366C24.8245 306.513 22.7991 311.266 20.9635 316.145C20.6311 317.638 20.4886 319.12 20.9683 320.629C21.2688 322.132 21.4374 323.661 21.3739 325.196C21.3158 326.209 21.0152 327.105 20.3665 327.907C16.406 330.251 14.2179 327.124 11.5814 325.184C9.38262 323.581 6.8832 322.327 5.2698 320.017C3.02888 317.724 0.466233 315.947 -2.30208 314.308C-8.00219 310.966 -7.87539 308.582 -2.09022 304.941C-0.834945 302.577 -1.11406 298.848 3.08346 299.132C7.54987 299.8 8.94782 294.515 12.829 294.039C16.6207 292.703 19.5056 288.408 24.3252 290.363L24.3199 290.337Z" stroke="white" stroke-width="0.8" stroke-miterlimit="10"/>
<path d="M7.27857 375.893L0.11773 372.926C1.15684 370.167 3.56141 370.741 5.67601 370.619C9.01922 371.224 12.3203 371.139 15.6426 370.199C21.6121 368.509 23.2576 366.382 23.3584 359.821C22.1883 354.241 24.8044 348.945 24.6468 343.423C24.9264 341.941 25.3379 340.501 26.5614 339.488C28.7659 336.454 29.6417 331.644 35.226 333.171C36.3861 333.487 37.6833 333.392 38.8118 333.961C39.9455 334.625 40.7047 335.543 40.8259 336.903C39.7444 341.508 39.6701 346.419 33.8692 348.61C30.8739 349.745 32.2974 352.339 34.2906 354.079C39.9694 359.029 40.5541 365.042 37.7639 371.731C37.4683 374.642 35.1427 375.766 33.028 377.054C31.9047 377.608 30.7287 377.899 29.4842 377.984C26.7948 378.18 24.4009 376.699 21.7484 376.599C18.2786 376.458 14.814 376.892 11.3495 376.914C9.9204 376.83 8.47024 376.847 7.26275 375.882L7.27857 375.893Z" stroke="white" stroke-width="0.8" stroke-miterlimit="10"/>
<path d="M-1.60695 373.285C-1.84427 373.538 -2.06578 373.802 -2.23982 374.097C-2.74081 374.335 -3.24179 374.572 -3.76387 374.773C-5.45665 375.29 -7.08081 375.122 -8.66273 374.411C-11.0883 372.771 -14.0256 373.305 -16.678 372.657C-18.4023 372.125 -20.1266 371.593 -21.7085 370.676C-24.0339 369.058 -25.932 366.97 -27.9251 364.956C-30.4613 362.214 -31.6317 359.034 -30.7928 355.273C-29.964 346.111 -21.8591 347.147 -16.1848 344.803C-11.8131 343.351 -9.97846 348.346 -6.28191 348.661C-5.13767 349.24 -4.17273 350.021 -3.61915 351.213C-3.76183 354.203 -3.36136 357.236 -4.4374 360.153C-6.89501 362.743 -5.29745 365.248 -4.22722 367.721C-3.41005 369.615 -1.46961 370.953 -1.60168 373.311L-1.60695 373.285Z" stroke="white" stroke-width="0.8" stroke-miterlimit="10"/>
<path d="M13.4087 295.636C9.41158 295.121 8.07142 302.616 3.0885 299.089C7.91396 295.106 13.2773 291.549 13.1251 284.133C13.0727 280.921 15.4617 278.879 18.2038 278.398C29.3992 276.443 35.9917 267.717 43.9972 261.121C45.9274 259.527 47.6309 257.691 49.9723 256.715C54.6281 262.309 46.9975 263.303 46.1534 266.832C45.141 266.295 45.3943 265.229 45.1412 264.375C43.7542 265.53 43.2636 267.123 43.0104 268.806C41.6865 271.718 41.5649 274.197 45.272 275.319C48.6151 276.336 49.9442 274.479 50.5562 271.572C50.7039 270.939 51.1574 270.464 51.7428 270.169C53.2878 271.244 55.703 270.637 56.8049 272.446C58.2707 274.84 60.9756 277.465 55.892 279.197C54.5684 279.64 53.4503 280.838 52.3217 281.777C45.6083 287.36 45.3024 287.339 42.0971 279.191C40.895 276.127 38.6909 275.733 36.012 276.393C35.1102 276.615 34.0291 277.654 34.6565 278.667C34.9359 279.104 36.5074 278.734 38.179 278.729C34.9725 282.511 30.9594 284.111 27.31 286.227C22.7483 289.473 17.2639 291.326 13.4034 295.61L13.4087 295.636Z" stroke="white" stroke-width="0.8" stroke-miterlimit="10"/>
<path d="M125.799 239.641C132.243 240.53 138.634 241.841 145.115 242.229C159.437 243.089 172.256 247.746 183.561 256.424C188.291 260.056 194.502 261.773 197.75 267.321C195.266 270.191 193.816 267.259 192.224 266.22C186.255 262.357 180.977 257.285 173.647 255.599C173.22 257.303 175.129 257.867 174.828 259.244C174.765 260.161 174.464 260.989 173.968 261.733C171.147 265.658 168.368 261.292 165.568 261.689C160.533 253.922 155.534 252.99 145.973 258.046C145.023 258.099 144.18 257.857 143.357 257.377C140.947 255.543 141.132 253.517 143.073 251.496C145.119 249.386 145.953 245.53 150.293 246.663C153.014 247.379 155.829 247.953 157.274 248.047C151.168 246.103 143.664 244.028 138.928 253.122C138.448 253.534 137.952 253.866 137.409 254.167C136.829 254.421 136.239 254.553 135.616 254.595C132.901 254.385 130.686 252.292 127.807 252.636C124.295 250.57 120.614 250.951 116.817 251.712C115.225 252.044 113.136 252.23 112.441 250.257C111.808 248.464 113.195 247.103 114.503 245.963C117.229 243.621 120.383 242.728 123.905 243.27C126.394 243.649 128.867 244.017 130.977 243.732C129.627 242.192 123.161 247.094 125.778 239.604L125.799 239.641Z" stroke="white" stroke-width="0.8" stroke-miterlimit="10"/>
<path d="M125.799 239.641C124.591 245.67 131.214 240.599 131.821 244.454C125.814 246.097 117.968 242.239 113.126 249.915C118.067 251.859 124.106 245.438 128.144 251.718C130.638 253.152 133.95 253.736 134.05 257.597C129.388 258.079 127.779 262.721 124.304 264.816C119.32 267.666 113.583 266.882 107.798 268.398C108.673 270.238 111.326 270.68 111.368 272.88C107.882 270.397 103.479 269.016 101.581 264.666C101.497 264.038 101.724 263.595 102.32 263.352C102.699 263.262 103.116 263.289 103.512 263.209C104.593 262.993 105.589 264.068 106.67 263.372C105.89 262.76 105.051 262.201 104.556 261.3C102.885 255.135 103.006 254.987 108.812 255.496C111.132 255.717 113.463 255.922 115.789 255.346C111.048 256.461 107.562 255.006 105.253 250.587C103.613 247.46 103.846 244.849 106.825 242.813C111.071 239.905 114.472 236.069 118.248 232.666C121.681 229.537 122.826 230.048 124.075 234.927C123.838 235.591 123.342 236.129 123.152 236.826C123.642 236.192 124.302 235.855 125.056 235.649C126.047 235.738 126.754 236.186 127.033 237.172C126.469 237.916 125.266 238.349 125.799 239.641V239.641Z" stroke="white" stroke-width="0.8" stroke-miterlimit="10"/>
<path d="M119.754 310.651C116.343 307.235 112.535 308.148 108.628 309.658C101.166 312.525 93.7773 315.624 85.6301 315.885C85.0236 316.006 84.491 315.88 84.0165 315.495C81.433 311.008 75.88 313.341 72.5686 310.494C72.0151 308.548 72.9118 306.243 74.4094 306.327C81.5653 306.73 84.9145 299.34 91.2848 298.42C91.8807 298.314 92.4871 298.33 93.0777 298.472C95.6246 299.484 97.9972 302.779 100.924 299.039C101.162 298.511 101.483 298.063 101.911 297.662C105.143 296.136 107.516 296.278 107.737 300.608C107.79 300.94 107.748 301.415 107.943 301.636C108.17 301.879 108.496 301.594 108.555 301.061C108.713 299.795 108.597 298.461 109.947 297.738C113.433 298.027 117.446 297.593 116.148 303.379C115.826 304.856 117.925 305.478 118.758 306.627C119.696 307.824 120.946 308.931 119.744 310.667L119.754 310.651Z" stroke="white" stroke-width="0.8" stroke-miterlimit="10"/>
<path d="M-2.08011 304.925C-6.63146 309.868 -6.57353 310.638 -0.493644 312.862C2.92333 314.111 5.00076 316.615 7.05708 319.289C6.67727 320.544 5.9811 321.589 5.06346 322.485C1.93619 324.538 0.269418 328.616 -3.97036 329.15C-7.19761 329.056 -8.61054 325.898 -11.3525 324.664C-7.90991 333.176 -9.57134 336.526 -17.629 337.578C-22.4695 333.666 -22.1629 325.528 -16.9152 318.443C-11.5521 316.257 -10.8027 310.334 -7.38521 306.577C-5.60806 306.07 -4.17883 304.372 -2.08011 304.925V304.925Z" stroke="white" stroke-width="0.8" stroke-miterlimit="10"/>
<path d="M179.699 280.318C180.231 283.736 178.454 285.683 175.474 286.828C171.024 285.073 166.874 282.833 163.23 280.245C163.947 282.048 168.134 282.553 166.146 286.119C163.541 285.16 161.194 283.779 159.027 281.992C152.52 276.604 145.47 272.408 136.574 273.108C134.845 273.235 134.47 272.186 133.711 271.268C135.346 265.729 139.227 270.464 141.822 269.451C142.723 269.503 142.085 268.095 142.149 268.96C142.17 269.34 142.038 269.503 141.801 269.482C138.5 269.088 135.162 268.783 133.416 265.266C133.733 262.049 136.391 261.969 138.579 261.736C143.041 261.28 147.412 262.228 151.778 263.013C152.833 263.213 154.389 263.724 154.373 264.536C154.319 270.237 159.002 269.519 162.282 270.493C166.875 271.863 170.402 274.899 174.236 277.477C175.96 278.626 177.289 280.472 179.699 280.318V280.318Z" stroke="white" stroke-width="0.8" stroke-miterlimit="10"/>
<path d="M179.698 280.318C178.501 282.149 177.193 283.289 175.205 281.232C169.195 275.032 162.245 270.926 153.27 270.75C150.559 270.703 150.612 269.527 154.135 264.858C146.953 264.734 140.43 261.187 133.617 264.897C133.896 266.569 133.896 268.283 131.966 268.916C130.241 269.481 128.765 269.023 128.412 266.913C128.755 263.759 126.767 265.2 125.401 265.432L124.293 264.832C126.277 260.759 127.205 255.321 133.897 257.312C133.728 255.646 134.456 254.554 136.054 254.041C136.27 253.683 136.502 253.335 136.74 253.013C140.847 253.876 142.861 258.053 146.843 259.312C149.041 260.023 151.135 261.03 153.518 261.087C156.988 261.914 161.028 261.406 163.158 265.271C164.054 266.12 161.185 266.448 162.957 267.766C167.249 270.924 171.256 274.44 176.371 276.295C178.291 276.98 179.525 278.214 179.704 280.345L179.698 280.318Z" stroke="white" stroke-width="0.8" stroke-miterlimit="10"/>
<path d="M32.0628 375.725C34.2461 374.78 36.5506 374.031 37.7795 371.741C33.1579 393.826 24.3494 414.789 19.8438 436.906C17.9085 436.759 15.8836 436.712 16.0895 433.901C15.3099 425.336 19.06 417.687 21.5023 409.875C25.0576 398.507 29.3459 387.377 32.0523 375.741L32.0628 375.725Z" stroke="white" stroke-width="0.8" stroke-miterlimit="10"/>
<path d="M173.958 259.418C172.149 258.396 168.705 258.866 169.977 255.073C171.2 251.455 173.447 253.295 175.561 253.996C182.87 256.467 188.638 261.385 194.655 265.898C195.641 266.647 196.215 267.875 197.75 267.321C198.293 270.86 197.132 273.286 193.394 274.063C186.201 270.115 179.199 265.951 173.958 259.418V259.418Z" stroke="white" stroke-width="0.8" stroke-miterlimit="10"/>
<path d="M166.231 220.143C164.934 215.644 168.172 217.025 170.429 216.655C172.407 216.327 174.879 219.987 176.33 215.925C180.411 215.423 184.287 216.634 187.947 217.999C191.295 219.248 193.515 221.642 189.212 224.808C185.52 226.85 181.856 223.745 178.154 224.843C174.889 225.456 171.546 225.4 168.25 225.717C166.621 225.865 164.707 226.304 163.694 224.669C162.06 221.98 165.835 221.936 166.221 220.159L166.231 220.143Z" stroke="white" stroke-width="0.8" stroke-miterlimit="10"/>
<path d="M145.879 303.88C143.321 306.038 140.31 306.066 137.22 305.835C134.335 306.358 132.427 304.56 130.37 303.052C128.836 301.55 127.776 299.815 127.94 297.547C130.824 293.869 135.07 293.019 139.257 292.015C147.541 294.085 149.639 297.861 145.879 303.88Z" stroke="white" stroke-width="0.8" stroke-miterlimit="10"/>
<path d="M158.004 225.631L158.13 230.173C154.212 229.641 150.8 231.161 147.541 233.035C144.219 234.935 140.997 235.348 137.643 233.318C138.292 226.825 143.344 224.181 148.344 222.164C151.946 220.702 155.816 221.613 158.004 225.631V225.631Z" stroke="white" stroke-width="0.8" stroke-miterlimit="10"/>
<path d="M173.958 259.418C181.214 263.271 188.09 267.625 193.394 274.063C190.562 275.33 188.369 276.085 186.181 272.341C184.014 268.634 178.666 269.116 175.397 266.48C171.996 266.339 172.36 264.044 172.724 261.75L173.958 259.418V259.418Z" stroke="white" stroke-width="0.8" stroke-miterlimit="10"/>
<path d="M158.005 225.632C148.867 221.21 146.805 222.761 137.644 233.318L136.357 233.123C135.709 232.966 135.176 232.633 134.759 232.127C132.941 228.446 134.633 226.215 137.972 224.874C140.461 223.881 142.966 222.968 145.36 221.775C147.744 218.816 151.382 218.841 154.478 218.755C159.398 218.606 157.462 222.984 158.01 225.658L158.005 225.632Z" stroke="white" stroke-width="0.8" stroke-miterlimit="10"/>
<path d="M-17.6446 337.568C-16.2311 335.584 -13.2992 335.915 -11.9437 333.71C-10.699 331.705 -9.96587 329.748 -11.959 328.009C-14.0523 326.179 -14.0679 324.112 -13.3505 321.596C-8.79971 322.137 -7.18124 326.462 -3.94364 328.528C-2.10325 328.406 -0.922093 329.102 -0.774637 331.074C-4.76145 333.148 -8.73246 335.233 -9.73488 340.234C-11.955 340.925 -14.1857 342.25 -16.4372 340.315L-17.6604 337.557L-17.6446 337.568Z" stroke="white" stroke-width="0.8" stroke-miterlimit="10"/>
<path d="M67.1792 307.062C68.9506 310.437 72.2937 312.825 73.1845 316.733C77.4553 322.186 77.3076 322.956 71.3959 326.375C70.3253 326.988 69.1335 327.405 68.2264 328.286C66.5968 329.668 64.6721 329.986 62.6207 329.875C61.8615 329.232 61.5979 328.394 61.6507 327.423C62.1098 324.712 64.177 323.187 66.0018 321.478C68.5226 319.135 68.5756 316.862 65.9444 314.605C65.3223 313.962 64.911 313.208 64.6316 312.359C64.368 311.52 64.3048 310.655 64.4051 309.785C64.574 308.915 64.959 308.166 65.5918 307.559C66.0559 307.205 66.5727 307.047 67.1633 307.052L67.1792 307.062Z" stroke="white" stroke-width="0.8" stroke-miterlimit="10"/>
<path d="M166.231 220.143L169.791 220.664C168.762 223.407 165.488 220.95 164.132 224.253C168.999 223.908 173.471 223.574 177.948 223.267C180.585 225.344 178.981 227.681 178.327 229.965C175.037 230.857 171.714 231.249 168.308 230.807C166.283 229.183 168.197 228.814 169.542 227.858C166.879 228.049 164.643 228.456 162.37 228.678L162.212 228.299C159.223 223.084 159.829 221.865 166.216 220.133L166.231 220.143Z" stroke="white" stroke-width="0.8" stroke-miterlimit="10"/>
<path d="M62.2624 328.014L62.6366 329.886C55.4699 332.515 47.697 333.277 40.8413 336.914L37.9096 334.8C37.6249 333.856 37.836 332.991 38.3475 332.189C40.8051 329.735 44.0219 328.885 47.244 328.061C49.5168 327.702 51.8476 328.044 54.0888 327.458C56.8362 327.483 59.742 325.282 62.2676 328.04L62.2624 328.014Z" stroke="white" stroke-width="0.8" stroke-miterlimit="10"/>
<path d="M166.151 286.146C164.427 282.117 160.43 279.956 158.21 276.122C164.279 279.253 171.008 281.155 175.463 286.844C172.236 288.19 169.093 288.313 166.151 286.146Z" stroke="white" stroke-width="0.8" stroke-miterlimit="10"/>
<path d="M172.724 261.75C173.357 263.474 173.741 265.331 175.397 266.48C175.708 270.641 180.876 269.743 182.167 273.049C177.49 274.206 174.036 270.373 169.754 270.147C169.48 270.147 169.216 270.132 168.942 270.132C166.896 268.06 167.646 264.948 166.201 262.659C166.201 262.385 166.201 262.111 166.201 261.836C167.519 260.201 168.843 256.603 170.351 261.608C171.168 264.324 171.933 262.182 172.74 261.76L172.724 261.75Z" stroke="white" stroke-width="0.8" stroke-miterlimit="10"/>
<path d="M145.879 303.88C148.231 296.785 143.538 294.435 138.265 292.474C137.358 292.67 136.931 292.317 137.005 291.383C143.228 289.039 146.787 294.085 151.311 296.483C151.638 300.518 150.003 303.108 145.889 303.864L145.879 303.88Z" stroke="white" stroke-width="0.8" stroke-miterlimit="10"/>
<path d="M178.343 229.976C175.422 227.914 178.96 225.45 177.964 223.277C182.082 221.177 185.431 224.62 189.222 224.792C186.728 228.912 182.683 229.737 178.343 229.976V229.976Z" stroke="white" stroke-width="0.8" stroke-miterlimit="10"/>
<path d="M176.381 276.279C172.295 277.372 161.416 270.694 161.185 266.86C161.164 266.617 162.577 266.279 163.331 266.004C163.611 266.031 163.916 266.052 164.206 266.062C166.553 266.826 167.433 269.31 169.427 270.501L169.796 270.153C171.931 272.262 175.306 273.025 176.397 276.29L176.381 276.279Z" stroke="white" stroke-width="0.8" stroke-miterlimit="10"/>
<path d="M129.171 266.322C128.855 267.62 129.487 268.453 130.684 268.474C133.026 268.526 132.151 265.725 133.622 264.923C136.443 267.58 141.089 267.157 143.767 270.473C140.287 273.022 136.738 267.274 133.716 271.294C130.768 270.953 128.469 269.672 127.267 266.814C127.668 265.732 128.322 265.711 129.155 266.312L129.171 266.322Z" stroke="white" stroke-width="0.8" stroke-miterlimit="10"/>
<path d="M162.386 228.689C165.993 225.196 169.932 226.244 174.067 227.445C172.664 229.962 169.115 227.848 168.313 230.833C165.713 231.821 164.379 229.332 162.375 228.705L162.386 228.689Z" stroke="white" stroke-width="0.8" stroke-miterlimit="10"/>
<path d="M68.2267 328.286C68.9492 327.51 69.5188 326.381 70.3995 326.054C75.5253 324.122 75.4624 320.788 73.1742 316.749C75.2254 318.162 77.2871 319.559 79.3382 320.972C77.0123 325.524 72.6511 326.96 68.2161 328.302L68.2267 328.286Z" stroke="white" stroke-width="0.8" stroke-miterlimit="10"/>
<path d="M129.171 266.322C128.533 266.491 127.911 266.671 127.283 266.824L125.417 265.443C125.765 264.921 125.986 264.177 126.456 263.918C127.985 263.132 127.806 258.807 130.717 261.296C133.095 263.315 130.41 264.84 129.171 266.322V266.322Z" stroke="white" stroke-width="0.8" stroke-miterlimit="10"/>
<path d="M135.645 231.963L136.351 233.097C134.769 233.963 133.171 234.818 131.589 235.683C131.5 233.589 128.621 231.671 131.242 229.417C133.499 228.91 134.617 230.387 135.66 231.974L135.645 231.963Z" stroke="white" stroke-width="0.8" stroke-miterlimit="10"/>
<path d="M6.46473 446.458C8.78487 447.57 13.0405 446.978 11.015 451.936C7.06546 450.767 2.97342 450.325 -1.19255 450.954C-4.14017 449.447 -8.51746 454.027 -10.5999 448.822C-12.6976 438.532 -9.52223 429.586 -4.29551 420.749C-0.946403 415.073 0.0509178 408.332 0.863659 401.765C1.64473 395.452 4.01828 389.834 8.45885 385.228C10.7741 382.817 13.6165 381.122 17.0124 382.746C20.6402 384.501 20.255 387.718 19.4636 391.031C17.7333 398.289 15.5231 405.341 12.1422 412.025C7.44806 421.331 5.62247 431.68 1.45562 441.154C0.142112 445.764 2.0087 447.351 6.47528 446.442L6.46473 446.458Z" stroke="white" stroke-width="0.8" stroke-miterlimit="10"/>
<path d="M0.205992 441.966C8.18056 428.492 11.0139 413.032 17.069 398.805C19.4953 393.108 20.6086 387.016 20.9889 380.824C20.8309 378.799 21.3215 376.863 21.8437 374.948C24.6702 374.478 26.869 376.492 29.4898 376.844C31.5462 379.175 30.6073 381.749 29.6684 384.049C24.2989 397.041 20.9068 410.666 16.5655 424.001C15.2468 428.036 13.0791 431.666 11.618 435.606C10.5 436.118 9.42423 436.773 8.2588 437.116C1.88319 439.038 1.42418 441.338 6.4544 446.473C4.02847 448.605 1.19669 448.775 -1.87761 448.417L0.179621 441.971L0.205992 441.966Z" stroke="white" stroke-width="0.8" stroke-miterlimit="10"/>
<path d="M11.6126 435.58C9.688 433.977 11.3703 432.584 11.8662 431.086C17.7688 413.009 23.6134 394.916 29.4896 376.844C30.3492 376.48 31.2035 376.089 32.0631 375.725C34.1828 377.275 33.0752 379.348 32.5688 380.999C27.1567 398.649 21.6021 416.272 16.1003 433.885C14.6079 434.445 13.105 435.02 11.6126 435.58V435.58Z" stroke="white" stroke-width="0.8" stroke-miterlimit="10"/>
<path d="M67.1795 307.062C67.0213 307.299 66.8314 307.516 66.573 307.664C56.0527 308.4 45.7274 309.907 35.6024 313.376C29.9175 315.324 25.4612 319.509 19.6446 320.935C18.9539 319.88 18.3423 318.81 18.8276 317.465C23.6113 309.293 28.3053 301.016 36.4004 295.485L38.6994 296.698C39.6486 297.467 40.4131 298.343 40.3339 299.661C40.2177 300.795 39.3949 302.441 41.615 302.161C46.6142 301.516 51.3709 299.794 56.2962 298.711C58.9593 298.109 57.7361 295.626 58.1687 293.948C59.3976 291.59 60.8216 289.453 63.7378 289.02C64.85 293.761 63.2622 299.4 68.3084 302.832C67.918 304.24 67.5277 305.648 67.1531 307.067L67.1795 307.062Z" stroke="white" stroke-width="0.8" stroke-miterlimit="10"/>
<path d="M51.7644 270.206C52.2488 277.226 50.4294 279.03 44.6342 277.27C39.746 275.795 38.9289 273.079 42.1039 268.796C43.0426 267.387 44.2872 267.096 45.8005 267.739C47.7885 268.561 49.7764 269.384 51.7644 270.206V270.206Z" stroke="white" stroke-width="0.8" stroke-miterlimit="10"/>
<path d="M96.6105 249.193C93.1777 248.139 94.6388 244.267 92.6773 242.137C91.9233 241.314 93.7692 238.956 95.9154 239.884C97.6238 240.611 99.1319 241.845 100.719 242.857C100.872 245.953 99.7166 248.2 96.6105 249.193Z" stroke="white" stroke-width="0.8" stroke-miterlimit="10"/>
<path d="M96.61 249.193L100.719 242.857C103.482 241.933 106.008 240.576 108.128 238.561C108.893 238.956 109.952 240.074 109.457 240.338C104.805 242.861 102.463 248.225 97.3165 250.052C97.1056 249.752 96.8683 249.456 96.5994 249.209L96.61 249.193Z" stroke="white" stroke-width="0.8" stroke-miterlimit="10"/>
<path d="M135.645 231.963C134.174 231.12 132.713 230.261 131.226 229.407C132.154 226.711 134.744 225.534 136.511 223.603C139.611 223.75 142.111 220.959 145.338 221.738C144.088 224.265 141.673 224.873 139.268 225.533C135.899 226.441 134.638 228.572 135.645 231.963Z" stroke="white" stroke-width="0.8" stroke-miterlimit="10"/>
<path d="M93.9781 259.758C89.8121 260.318 84.2642 264.872 82.6569 254.43C86.2265 258.294 89.2744 259 92.6811 257.454C94.3053 257.553 94.9907 258.17 93.9781 259.758Z" stroke="white" stroke-width="0.8" stroke-miterlimit="10"/>
<path d="M13.4085 295.636C16.3885 290.034 21.4775 287.574 27.3151 286.254C26.3236 287.604 25.3216 288.971 24.3301 290.321C20.0112 290.666 17.4216 294.654 13.4085 295.636V295.636Z" stroke="white" stroke-width="0.8" stroke-miterlimit="10"/>
<path d="M45.7899 267.755L42.0932 268.811C38.74 262.257 46.2754 263.942 47.146 258.968C48.7275 263.45 45.7849 264.643 46.1644 266.816L45.8479 267.223L45.8004 267.739L45.7899 267.755Z" stroke="white" stroke-width="0.8" stroke-miterlimit="10"/>
<path d="M36.4902 293.192C33.4687 292.275 31.2751 291.247 30.3578 288.784C30.1153 288.12 31.4127 286.722 32.557 286.959C35.5363 287.596 36.1161 289.948 36.5008 293.176L36.4902 293.192Z" stroke="white" stroke-width="0.8" stroke-miterlimit="10"/>
<path d="M93.9776 259.758C94.1517 258.64 93.5875 257.944 92.6806 257.454C93.7037 256.673 94.7268 255.892 95.7393 255.126C98.265 257.404 98.6814 259.35 94.8687 260.649C94.5892 260.348 94.2834 260.053 93.967 259.774L93.9776 259.758Z" stroke="white" stroke-width="0.8" stroke-miterlimit="10"/>
<path d="M65.1752 309.727L65.5916 311.81C58.1978 318.173 49.1644 320.313 39.9202 321.534C34.4042 322.269 29.6001 323.89 25.9347 328.259C25.0804 328.649 24.1734 328.639 23.2823 328.434C22.1011 328.081 21.0201 327.612 20.572 326.33L20.1134 324.516C21.6221 318.619 27.1961 317.488 31.531 315.44C41.0286 310.959 51.4066 309.716 61.7371 308.578C62.9974 308.435 64.2999 308.572 65.1804 309.753L65.1752 309.727Z" stroke="white" stroke-width="0.8" stroke-miterlimit="10"/>
<path d="M20.5715 326.33C21.5049 326.335 22.5543 325.823 23.3241 326.794C24.0675 328.455 25.1906 330.095 23.8984 331.999C22.1949 333.904 19.9853 335.06 17.6966 336.094C15.1126 336.749 12.7239 336.117 10.3668 335.095C9.45986 334.605 8.15215 333.962 8.18915 333.118C8.42172 327.627 5.00955 330.998 3.0268 330.888C-2.63628 326.497 4.0136 323.958 4.60983 320.492C5.4325 320.081 6.24463 319.685 7.08313 319.284C11.3384 322.12 14.1538 327.699 20.5979 326.325L20.5715 326.33Z" stroke="white" stroke-width="0.8" stroke-miterlimit="10"/>
<path d="M26.8092 339.973C24.5208 337.579 27.1526 333.184 23.356 331.408C23.3509 329.874 23.33 328.328 23.3143 326.809L25.5026 328.016C26.436 327.678 27.3166 327.831 28.2183 328.158C29.0515 328.484 29.8424 328.943 30.607 329.407C33.0167 331.721 37.2039 329.415 39.2654 332.663C38.8171 333.37 38.3583 334.093 37.91 334.8C35.0571 335.138 32.0883 334.28 29.2459 335.494C28.9608 338.321 32.6629 336.674 32.8472 339.037C31.1859 341.221 29.0239 340.763 26.8092 339.973V339.973Z" stroke="white" stroke-width="0.8" stroke-miterlimit="10"/>
<path d="M21.8438 374.948C26.078 377.542 23.6679 379.204 20.9889 380.824C18.2995 380.952 15.6523 381.085 12.9841 380.358C10.0786 379.541 9.27193 378.112 10.8278 375.469C14.498 375.31 18.163 375.124 21.8332 374.964L21.8438 374.948Z" stroke="white" stroke-width="0.8" stroke-miterlimit="10"/>
<path d="M-39.6183 441.869C-33.5415 422.468 -26.8741 403.278 -19.6056 384.283C-18.0232 380.126 -18.3919 375.4 -15.7391 371.591C-13.0497 371.875 -9.63237 369.49 -7.95587 373.624C-10.1557 382.65 -12.1658 391.733 -16.4169 400.099C-23.3203 406.79 -23.8485 416.083 -26.2276 424.554C-27.4831 429.043 -28.5171 433.611 -29.857 438.09C-30.7327 441.049 -31.9247 443.729 -35.4684 444.247L-39.6183 441.869V441.869Z" stroke="white" stroke-width="0.8" stroke-miterlimit="10"/>
<path d="M-17.7352 399.609C-13.1729 391.427 -13.7942 381.322 -7.96114 373.598C-6.44771 373.624 -4.96065 373.655 -3.44721 373.681C-11.6749 387.054 -14.6769 402.356 -19.013 417.089C-21.7508 426.373 -24.1511 435.904 -24.015 445.778C-26.3247 446.021 -28.608 446.122 -30.501 444.403C-30.8542 443.871 -31.334 443.254 -31.1758 442.674C-27.4251 428.854 -25.6888 414.491 -19.4702 401.356C-19.1063 400.57 -18.5315 399.947 -17.7404 399.583L-17.7352 399.609Z" stroke="white" stroke-width="0.8" stroke-miterlimit="10"/>
<path d="M137.494 252.053C138.179 251.572 139.303 251.224 139.503 250.58C142.489 241.096 149.249 245.487 154.854 246.434C157.406 246.856 160.433 246.359 163.207 249.738C159.589 249.339 156.499 249.725 154.137 248.608C147.762 245.593 146.258 251.791 142.756 254.166C142.682 254.208 143.463 255.505 143.837 256.212C140.494 257.046 139.908 256.656 137.462 252.031L137.494 252.053Z" stroke="white" stroke-width="0.8" stroke-miterlimit="10"/>
<path d="M137.494 252.053C139.645 253.418 140.235 257.125 143.869 256.233L145.962 257.239C147.57 259.043 149.827 259.29 152.01 259.648C153.967 259.969 154.241 261.066 153.439 262.68C145.903 262.846 141.026 258.407 136.734 252.986C136.956 252.654 137.177 252.322 137.478 252.042L137.494 252.053Z" stroke="white" stroke-width="0.8" stroke-miterlimit="10"/>
<path d="M136.08 254.036C135.353 255.128 134.635 256.204 133.923 257.307C132.273 255.156 128.107 255.648 128.15 251.745C131.857 248.89 133.628 252.608 136.07 254.052L136.08 254.036Z" stroke="white" stroke-width="0.8" stroke-miterlimit="10"/>
<path d="M102.114 263.695C101.597 260.905 103.427 260.936 105.305 260.999C106.839 262.775 109.908 261.735 111.4 264.261C107.962 266.541 105.019 265.677 102.098 263.684L102.114 263.695Z" stroke="white" stroke-width="0.8" stroke-miterlimit="10"/>
<path d="M122.884 234.932C123.558 235.29 124.26 235.644 124.935 236.002C123.505 237.838 123.099 240.676 118.728 241.168L122.884 234.932Z" stroke="white" stroke-width="0.8" stroke-miterlimit="10"/>
<path d="M84.544 315.047C80.5891 314.468 76.2069 315.044 73.5654 310.952C78.0636 310.065 82.7042 308.86 84.544 315.047Z" stroke="white" stroke-width="0.8" stroke-miterlimit="10"/>
<path d="M29.7629 330.673L27.601 329.461C29.3416 325.204 33.2651 323.224 37.0671 323.313C45.3304 323.494 52.0805 320.153 58.9046 316.29C61.0245 315.097 63.1657 313.462 65.8972 313.751C70.8856 315.11 71.9136 318.332 68.4012 321.888C66.3708 323.94 63.6602 325.334 62.2678 328.04L54.0677 328.86C48.8737 326.336 43.7478 329.022 38.5958 329.177C35.5742 329.152 33.0322 332.143 29.7682 330.699L29.7629 330.673Z" stroke="white" stroke-width="0.8" stroke-miterlimit="10"/>
<path d="M163.268 265.962L166.222 261.736C171.347 263.164 167.619 267.833 169.411 270.49C166.126 270.655 164.697 268.309 163.268 265.962Z" stroke="white" stroke-width="0.8" stroke-miterlimit="10"/>
<path d="M82.759 287.944C89.0605 287.358 95.3737 285.938 101.696 287.692C103.308 288.749 104.098 289.943 102.82 291.876C101.858 293.342 100.628 293.769 99.0207 293.343C93.9975 291.97 88.9507 293.219 83.9092 293.137C82.0001 293.111 78.9828 294.428 78.4017 291.784C77.8459 289.249 81.1025 289.078 82.7586 287.971L82.759 287.944Z" stroke="white" stroke-width="0.8" stroke-miterlimit="10"/>
<path d="M331.809 115.925C331.268 116.262 330.43 116.471 330.234 116.958C321.767 137.057 303.661 147.745 287.638 160.491C281.09 165.702 274.085 169.968 266.08 172.484C263.804 172.057 262.155 170.89 261.358 168.67C262.262 164.755 265.054 162.197 267.889 159.643C269.242 158.412 271.489 157.215 269.734 155.109C267.895 152.893 265.831 154.242 264.349 155.872C259.985 160.709 255.212 165.134 250.368 169.486C245.147 168.854 245.387 165.018 248.093 162.965C255.788 157.136 259.437 146.878 269.69 143.84C272.037 143.156 275.03 141.93 275.324 138.542C272.762 135.222 271.166 138.941 269.137 139.397C265.633 140.724 262.159 141.2 259.53 137.866C257.652 135.501 255.18 137.523 253.145 136.673C252.581 136.283 252.244 135.741 252.123 135.074C252.181 132.843 253.274 131.162 254.932 129.77C260.918 124.843 266.964 120.015 274.481 117.508C279.544 115.933 283.957 113.49 287.401 109.222C289.352 106.814 291.925 104.425 295.276 107.616C298.241 112.004 293.653 116.07 294.972 122.295C303.438 112.215 315.232 107.851 322.652 98.0213C324.164 96.9318 325.78 96.4145 327.617 97.0771C332.326 102.614 332.769 109.104 331.809 115.925V115.925Z" stroke="white" stroke-width="0.8" stroke-miterlimit="10"/>
<path d="M261.705 168.615C263.644 169.38 265.538 170.184 266.088 172.502C269.081 178.923 266.702 186.347 269.79 192.75C266.174 193.794 265.06 191.086 263.921 188.675C262.838 186.405 262.522 183.851 262.235 181.369C261.58 175.739 258.764 173.072 252.944 174.129C252.05 174.402 251.151 174.717 250.264 175.007C249.051 175.405 247.818 175.546 246.576 175.2C245.55 174.727 245.165 173.755 244.628 172.863C241.612 167.985 239.78 167.75 235.443 171.778C234.217 172.918 233.17 174.253 231.515 174.826C226.704 174.973 227.834 181.028 224.093 182.223C221.617 180.566 219.118 178.959 216.375 177.714C213.664 172.573 218.601 171.66 221.028 169.37C221.573 168.99 222.146 168.681 222.734 168.408C230.671 163.036 237.956 157.206 241.025 147.444C242.85 141.67 247.657 138.519 253.097 136.344C256.279 135.289 259.923 130.492 261.832 138.099C262.249 139.774 266.481 138.527 268.958 138.323C271.646 138.035 274.273 136.402 277.061 137.813C278.303 138.262 278.79 139.132 277.89 140.163C276.79 141.417 275.604 143.174 274.176 143.495C263.283 146.051 259.081 156.773 250.743 162.426C248.757 163.765 244.099 166.775 250.781 168.77C254.422 167.84 258.045 166.813 261.715 168.59L261.705 168.615Z" stroke="white" stroke-width="0.8" stroke-miterlimit="10"/>
<path d="M349.576 21.5808C350.289 23.5883 351.02 25.5889 351.733 27.5964C350.436 29.9505 347.977 30.1473 345.775 30.7333C341.116 31.9856 337.226 34.3031 334.404 38.2833C329.113 43.2616 323.376 47.6807 317.144 51.4169C313.82 53.4078 310.944 55.958 308.482 58.9368C302.637 65.9751 295.365 70.9611 286.915 74.4712C278.653 77.8866 278.116 79.0604 279.942 87.9064C280.883 92.4001 279.422 95.841 275.99 98.5907C274.34 99.8986 272.271 100.718 271.067 102.585C270.571 103.088 270.001 103.457 269.361 103.752C268.374 104.102 267.378 104.169 266.401 103.717C264.801 101.693 265.9 99.663 266.691 97.8368C269.564 91.3008 270.778 84.7065 268.09 77.8171C267.621 76.6329 267.887 75.3416 268.467 74.1714C273.577 69.4078 279.919 66.5688 285.78 62.9797C292.882 58.2861 300.562 54.59 307.73 50.0131C315.684 44.941 323.131 39.3129 328.784 31.635C330.701 29.0358 333.085 27.0489 335.968 25.6002C340.441 24.033 344.377 20.6955 349.569 21.5631L349.576 21.5808Z" stroke="white" stroke-width="0.8" stroke-miterlimit="10"/>
<path d="M268.466 74.1714C274.596 84.4823 270.719 94.1147 266.274 103.706C266.1 103.939 265.926 104.171 265.759 104.421C260.683 105.655 259.24 109.293 259.421 113.986C259.056 117.095 257.856 119.901 256.194 122.522C255.204 123.794 254.176 125.019 252.925 126.046C248.898 130.237 244.864 134.411 238.258 131.057C236.961 126.234 242.451 123.876 242.495 119.544C243.688 116.823 243.38 113.877 243.843 111.016C249.287 102.501 253.349 93.3877 255.715 83.5562C260.256 80.8172 263.535 76.3902 268.466 74.1714V74.1714Z" stroke="white" stroke-width="0.8" stroke-miterlimit="10"/>
<path d="M199.601 178.285L199.255 171.265C204.721 171.739 208.053 175.04 210.142 179.692C212.636 185.268 214.696 191.036 217.003 196.706C218.121 199.167 218.252 201.773 218.236 204.417C219.311 211.986 223.377 218.636 224.66 226.164C225.293 229.88 226.562 233.548 227.004 237.299C227.247 239.411 228.188 242.044 225.174 243.32C224.223 241.692 223.623 239.661 222.281 238.495C211.997 229.523 209.445 216.568 204.602 204.807C205.132 199.997 202.742 195.771 201.836 191.263C200.965 186.946 199.659 182.719 199.637 178.271L199.601 178.285Z" stroke="white" stroke-width="0.8" stroke-miterlimit="10"/>
<path d="M202.044 160.796C201.932 158.448 201.821 156.1 201.716 153.77C204.265 148.119 200.945 142.114 202.841 136.415C203.588 134.892 204.54 133.472 205.449 132.049C211.593 122.459 215.874 121.234 225.862 126.152C226.103 124.953 225.148 124.247 224.706 123.338C222.158 118.091 223.283 115.56 228.984 115.285C233.244 115.091 237.932 113.5 241.687 117.145C241.714 118.606 240.67 119.327 239.65 120.058C235.448 123.017 234.773 126.528 237.624 130.593C235.863 136.116 231.23 138.932 226.794 141.936C224.509 142.105 222.212 141.42 219.882 142.097C213.681 143.899 211.596 148.242 213.035 156.627C209.299 162.38 206.905 163.308 202.058 160.832L202.044 160.796Z" stroke="white" stroke-width="0.8" stroke-miterlimit="10"/>
<path d="M230.829 173.973C232.562 173.287 233.186 171.608 234.183 170.252C236.1 167.653 238.532 165.995 241.844 167.075C245.329 168.23 246.867 170.77 246.126 174.478C247.624 177.279 247.13 180.317 247.204 183.293C246.721 185.897 247.424 188.706 245.798 191.109C243.755 194.781 245.929 198.152 246.693 201.53C249.461 213.683 251.557 226 257.669 237.197C260.908 243.153 258.83 247.513 251.942 251.713C248.766 250.15 248.508 247.226 249.668 244.68C253.537 236.216 250.603 229.118 245.856 222.247C245.449 221.733 245.112 221.192 244.803 220.619C242.55 213.639 241.82 206.322 240.002 199.252C239.382 196.86 238.543 194.432 236.993 192.429C234.368 191.689 234.397 197.239 231.125 194.916C226.611 188.014 230.084 180.975 230.829 173.973Z" stroke="white" stroke-width="0.8" stroke-miterlimit="10"/>
<path d="M255.704 83.5809C255.975 83.903 256.543 84.2509 256.492 84.5367C254.941 94.5155 251.903 103.836 244.354 111.12C243.91 111.705 243.352 111.844 242.675 111.58C240.438 110.013 238.981 107.625 236.627 106.124C231.574 102.87 230.525 103.061 227.433 108.375C224.303 113.745 217.325 116.324 212.248 113.939C211.092 113.395 210.074 112.633 210.005 111.168C224.719 101.108 239.306 90.8322 255.704 83.5809V83.5809Z" stroke="white" stroke-width="0.8" stroke-miterlimit="10"/>
<path d="M202.044 160.796C206.725 161.253 210.227 159.559 212.351 155.262C215.259 149.019 219.771 144.349 226.093 141.457C229.74 137.804 233.376 134.176 237.023 130.524C237.238 129.928 237.627 129.774 238.208 130.054C244.663 132.405 248.474 128.238 252.377 124.3C254.368 127.519 252.406 129.952 249.923 130.915C239.207 135.057 234.788 145.231 228.131 153.163C225.169 156.688 222.394 159.443 217.77 160.784C210.063 163.018 208.043 167.11 209.926 174.604C211.655 180.054 214.621 185.013 216.202 190.501C216.917 192.978 218.609 195.702 215.539 197.92C214.454 195.18 213.133 192.514 212.284 189.701C209.984 182.086 206.448 175.43 199.28 171.276C198.111 167.241 200.358 164.081 202.068 160.807L202.044 160.796Z" stroke="white" stroke-width="0.8" stroke-miterlimit="10"/>
<path d="M209.999 111.15C218.354 115.099 223.259 113.279 226.181 105.211C227.383 101.893 230.575 100.138 233.165 101.668C237.161 104.011 242.255 105.817 243.259 111.452C241.688 113.116 239.709 112.51 237.837 112.433C231.591 112.208 226.097 113.73 221.905 118.743C220.543 120.366 218.786 121.716 216.827 122.554C211.16 124.982 206.887 128.965 203.574 134.08C200.838 136.779 198.136 139.771 194.013 136.231C190.912 130.262 191.208 128.529 196.839 125.236C199.015 123.965 200.141 122.21 201.18 120.184C204.153 117.207 205.167 112.327 210.03 111.178L209.999 111.15Z" stroke="white" stroke-width="0.8" stroke-miterlimit="10"/>
<path d="M161.345 158.758C147.928 163.929 135.096 170.115 123.591 178.925C121.002 180.912 117.457 181.62 114.337 182.938C110.785 176.963 115.43 173.61 118.78 170.137C121.97 166.829 126.642 165.142 129.192 161.044C130.889 159.595 133.009 158.388 135.047 159.196C142.894 162.324 147.431 157.563 152.061 152.621C156.982 147.38 161.38 148.051 164.995 154.491C165.334 157.26 162.657 157.421 161.328 158.765L161.345 158.758Z" stroke="white" stroke-width="0.8" stroke-miterlimit="10"/>
<path d="M201.166 120.148C201.795 122.925 200.966 125.482 198.329 126.363C192.622 128.276 192.761 131.676 195.073 136.015C194.582 137.048 193.729 137.529 192.637 137.716C182.474 134.421 173.768 140.691 164.34 142.196C161.665 142.622 159.278 144.446 156.386 144.222C154.54 141.988 151.516 141.325 149.613 139.155C154.529 134.264 161.113 132.965 167.36 131.124C175.718 128.673 184.285 126.854 192.643 124.403C195.63 123.527 198.3 121.59 201.123 120.145L201.166 120.148Z" stroke="white" stroke-width="0.8" stroke-miterlimit="10"/>
<path d="M149.638 139.166C151.125 141.112 159.377 134.47 155.241 143.551C151.762 149.693 145.284 151.932 139.469 154.398C132.724 157.253 126.746 160.909 121.283 165.608C117.156 168.204 113.637 172.542 107.818 170.348C117.975 158.494 129.306 148.159 144.198 142.424C146.133 141.679 147.826 140.272 149.62 139.173L149.638 139.166Z" stroke="white" stroke-width="0.8" stroke-miterlimit="10"/>
<path d="M161.345 158.758L164.148 155.195C164.581 152.672 162.647 151.148 161.609 149.248C160.77 147.699 159.175 146.307 160.962 144.413C171.501 139.462 182.795 139.262 194.108 139.055C196.095 140.559 196.932 142.517 196.418 144.99C189.318 150.358 180.963 152.972 172.647 155.632L161.37 158.769L161.345 158.758Z" stroke="white" stroke-width="0.8" stroke-miterlimit="10"/>
<path d="M252.162 172.415C261.907 171.295 261.878 171.43 264.065 181.135C265.01 185.381 264.203 190.731 269.804 192.786C272.228 195.342 274.606 197.938 276.036 201.236C272.437 205.218 268.79 201.898 265.14 201.36C264.163 201.011 263.268 200.507 262.479 199.858C258.327 196.554 255.899 192.179 255.038 187.061C254.201 182.158 252.07 177.502 252.169 172.432L252.162 172.415Z" stroke="white" stroke-width="0.8" stroke-miterlimit="10"/>
<path d="M264.088 199.221L265.709 200.112C267.469 200.887 268.806 202.3 270.427 203.294C273.11 205.421 275.677 207.615 275.017 211.577C272.633 215.425 268.792 215.126 265.038 215.1C258.09 209.386 249.007 205.459 248.297 194.577C248.213 193.383 246.645 192.266 245.781 191.116C244.794 188.521 244.902 185.902 245.509 183.249C250.228 182.873 249.764 187.228 251.416 189.641C251.633 189.984 251.847 190.369 252.001 190.758C254.272 196.388 258.293 199.205 264.063 199.21L264.088 199.221Z" stroke="white" stroke-width="0.8" stroke-miterlimit="10"/>
<path d="M335.964 25.6424C331.642 28.3151 330.487 33.4551 327.165 36.897C315.521 48.972 301.635 57.5588 285.787 62.9973C291.819 55.9667 299.891 51.5022 307.579 46.7399C315.447 41.8652 321.451 34.9686 328.753 29.5413C330.962 27.8892 333.197 26.2478 335.982 25.6354L335.964 25.6424Z" stroke="white" stroke-width="0.8" stroke-miterlimit="10"/>
<path d="M195.909 145.356C195.125 143.376 194.348 141.414 193.581 139.428C192.598 138.856 192.354 138.033 192.711 136.972C193.506 136.656 194.285 136.348 195.073 136.015C198.58 138 200.005 134.573 202.214 133.228C203.719 133.982 204.089 135.225 203.656 136.767C204.056 140.514 204.48 144.272 204.845 148.033C205.097 150.632 205.313 153.245 201.692 153.759C200.267 151.297 197.806 151.127 195.37 150.865C194.038 148.898 195.012 147.122 195.902 145.338L195.909 145.356Z" stroke="white" stroke-width="0.8" stroke-miterlimit="10"/>
<path d="M246.729 221.042C252.182 228.043 256.726 235.178 251.371 244.435C249.985 246.824 250.753 249.383 251.914 251.745C251.014 252.367 250.087 252.918 249.002 252.141C244.793 246.938 245.255 240.253 243.408 234.299C243.665 229.678 245.527 225.444 246.729 221.042Z" stroke="white" stroke-width="0.8" stroke-miterlimit="10"/>
<path d="M129.768 161.982C128.813 165.304 126.194 166.955 123.458 168.775C118.463 172.123 113.893 175.978 114.348 182.913C111.046 183.873 107.817 184.396 105.271 181.274C104.03 176.694 106.523 173.744 110.17 172.054C114.299 170.133 117.734 167.443 121.11 164.552C123.478 163.042 125.755 161.301 128.802 161.505C129.13 161.662 129.44 161.825 129.751 161.989L129.768 161.982Z" stroke="white" stroke-width="0.8" stroke-miterlimit="10"/>
<path d="M244.568 232.94C246.958 239.129 248.372 245.541 249.002 252.141C245.761 251.912 244.413 249.542 243.084 247.063C242.035 245.086 241.631 242.466 238.68 242.142C236.224 239.454 237.526 236.751 238.666 234.05C240.31 232.52 240.135 231.096 238.948 229.236C237.807 227.439 236.519 225.168 239.361 223.408C245.408 224.265 244.02 229.128 244.55 232.947L244.568 232.94Z" stroke="white" stroke-width="0.8" stroke-miterlimit="10"/>
<path d="M195.908 145.356C197.324 147.33 196.308 149.103 195.376 150.883C187.83 152.645 180.547 155.692 172.623 155.621C180.226 151.833 186.872 145.888 195.908 145.356Z" stroke="white" stroke-width="0.8" stroke-miterlimit="10"/>
<path d="M199.601 178.285C202.593 186.874 207.155 195.188 204.574 204.839C202.834 200.601 201.182 196.327 199.325 192.155C197.241 187.46 197.451 182.878 199.601 178.285V178.285Z" stroke="white" stroke-width="0.8" stroke-miterlimit="10"/>
<path d="M239.645 234.767C239.329 237.223 239.013 239.679 238.697 242.135C237.211 244.891 235.943 247.99 231.764 246.271C230.398 243.909 231.054 241.379 231.116 238.901C233.225 234.569 234.089 230.138 232.651 225.371C232.173 223.802 231.72 222.039 233.3 220.656C238.83 223.823 240.005 228.96 239.628 234.774L239.645 234.767Z" stroke="white" stroke-width="0.8" stroke-miterlimit="10"/>
<path d="M121.21 165.269C118.309 168.585 115.637 172.118 111.069 173.497C107.343 174.626 106.652 178.253 105.271 181.274C101.034 176.102 101.288 175.04 107.817 170.348C112.634 169.34 116.638 166.691 120.66 164.035C121.065 164.181 121.301 164.415 121.325 164.733C121.348 165.051 121.298 165.234 121.21 165.269Z" stroke="white" stroke-width="0.8" stroke-miterlimit="10"/>
<path d="M268.842 203.942C267.802 202.657 266.761 201.372 265.709 200.112C269.192 200.021 272.39 202.517 276.011 201.226C279.2 201.066 282.286 201.317 284.942 203.373C286.008 207.305 287.336 211.278 283.937 214.833C283.58 214.913 283.219 214.933 282.863 214.91C281.395 214.408 280.269 213.423 279.786 211.998C278.015 206.75 273.684 205.01 268.832 203.967L268.842 203.942Z" stroke="white" stroke-width="0.8" stroke-miterlimit="10"/>
<path d="M268.842 203.942C277.711 202.679 278.014 202.927 282.856 214.893C281.546 215.616 280.21 216.063 278.725 215.465C277.64 213.81 275.197 213.53 274.533 211.441C273.74 208.095 271.08 206.184 268.825 203.949L268.842 203.942Z" stroke="white" stroke-width="0.8" stroke-miterlimit="10"/>
<path d="M283.93 214.815C285.49 211.11 282.492 207.001 284.935 203.355C288.802 204.441 292.101 206.263 291.19 210.937C290.435 214.712 288.02 216.671 283.93 214.815V214.815Z" stroke="white" stroke-width="0.8" stroke-miterlimit="10"/>
<path d="M274.551 211.434C276.321 212.39 280.125 211.251 278.743 215.458C274.11 217.293 269.534 217.879 265.038 215.1C267.727 212.644 271.708 213.501 274.551 211.434V211.434Z" stroke="white" stroke-width="0.8" stroke-miterlimit="10"/>
<path d="M231.983 239.335C232.66 241.663 232.927 243.991 231.782 246.264C229.23 247.724 227.04 247.979 225.9 244.586C231.377 242.867 228.845 238.022 229.877 234.587C230.184 234.69 230.481 234.818 230.787 234.921C232.238 236.105 232.211 237.69 232.008 239.345L231.983 239.335Z" stroke="white" stroke-width="0.8" stroke-miterlimit="10"/>
<path d="M363.377 57.0492C360.634 56.7862 357.887 56.5654 355.155 56.2777C341.037 54.774 330.674 63.1109 320.504 70.5942C314.074 75.3288 315.413 82.0161 321.282 86.9705C324.391 89.6037 327.676 92.5763 327.21 97.4432C325.618 98.0735 324.045 98.6968 322.453 99.3271C321.093 99.3545 320.051 98.5815 318.905 98.0129C312.471 94.8359 308.239 96.0826 303.387 102.012C301.017 104.913 300.042 109.839 294.603 108.967C292.179 105.531 290.509 108.237 289.228 109.91C285.595 114.681 280.971 117.78 275.227 119.34C273.283 114.896 275.772 112.192 279.442 111.025C285.788 109.023 289.247 104.586 291.644 98.9132C293.685 94.0973 296.617 90.1351 301.281 87.4495C304.731 85.4695 306.696 82.115 308.21 78.5507C312.395 68.7145 318.755 60.8588 328.064 55.2297C332.983 52.259 336.373 47.4404 340.132 43.089C345.363 37.0302 351.096 36.6816 357.298 41.6477C359.328 46.7733 361.358 51.8989 363.37 57.0315L363.377 57.0492Z" stroke="white" stroke-width="0.8" stroke-miterlimit="10"/>
<path d="M357.304 41.6654C347.311 38.4875 345.914 39.0408 339.405 47.0372C336.059 51.1428 332.257 54.8162 327.631 57.6502C319.993 62.3315 314.305 68.8372 310.916 77.172C308.565 83.0107 305.58 87.9753 299.382 90.9208C295.509 92.7617 294.132 97.3961 292.476 101.324C290.068 107.021 286.76 111.582 279.895 112.481C276.199 112.964 276.091 116.564 275.227 119.34C267.537 121.67 261.883 127.385 255.208 131.398C254.032 130.494 254.107 129.238 254.278 127.964C255.295 124.903 257.144 122.391 259.448 120.15C264.199 116.858 268.947 113.607 270.674 107.587C271.557 104.497 274.054 103.569 277.085 103.268C284.37 102.551 289.347 98.4327 291.97 91.8323C294.717 84.8758 300.53 80.1816 304.982 74.6356C311.247 66.7973 316.474 57.6317 326.031 52.6813C329.509 50.8744 331.084 46.9996 333.486 44.0243C336.434 39.3808 340.721 36.3126 345.544 33.8711C348.339 32.4574 351.145 31.7957 354.053 33.5068L357.354 41.6868L357.304 41.6654Z" stroke="white" stroke-width="0.8" stroke-miterlimit="10"/>
<path d="M294.603 108.967C298.857 107.466 300.07 103.244 302.433 100.12C308.334 92.3442 316.172 91.9389 322.453 99.3271C322.525 102.918 320.701 105.337 317.543 106.711C310.55 109.767 305.146 114.872 300.118 120.359C298.108 122.566 295.659 124.906 293.191 123.634C290.202 122.078 292.103 118.769 292.914 116.22C293.668 113.836 295.533 111.727 294.586 108.974L294.603 108.967Z" stroke="white" stroke-width="0.8" stroke-miterlimit="10"/>
<path d="M261.704 168.615C258.058 169.016 254.451 171.324 250.77 168.795C250.73 164.926 254.153 163.754 256.365 161.59C258.931 159.081 261.247 156.303 263.665 153.628C265.214 151.91 267.015 151.033 269.364 151.8C271.34 152.449 272.766 153.725 272.931 155.847C273.103 158.192 271.708 159.214 269.662 160.556C266.575 162.576 264.317 165.863 261.697 168.598L261.704 168.615Z" stroke="white" stroke-width="0.8" stroke-miterlimit="10"/>
<path d="M253.068 136.376C250.784 141.248 243.718 141.899 242.701 147.802C240.984 157.724 232.915 162.556 226.265 168.543C225.506 169.211 224.375 169.455 223.424 169.893C221.834 167.067 223.05 164.766 224.806 162.536C232.179 156.979 234.274 147.807 239.798 140.937C243.214 136.701 246.946 133.934 252.656 135.231C252.803 135.602 252.921 136.005 253.068 136.376Z" stroke="white" stroke-width="0.8" stroke-miterlimit="10"/>
<path d="M277.043 137.82C274.377 138.733 271.795 140.839 268.94 138.33C274.141 133.694 275.677 133.597 277.043 137.82Z" stroke="white" stroke-width="0.8" stroke-miterlimit="10"/>
<path d="M239.646 234.766C237.763 230.012 237.61 224.409 232.907 221.057C231.305 220.629 230.405 219.492 229.761 218.071C225.686 207.785 225.659 196.611 222.872 186.06C222.485 184.618 223.041 183.13 224.334 182.107C226.258 179.219 223.351 172.498 230.826 174.015C232.231 176.996 232.175 180.004 231.344 183.175C230.259 187.306 230.145 191.46 232.36 195.347C233.16 195.664 233.964 196.143 234.184 196.956C236.514 205.991 239.752 214.891 238.56 224.482C239.532 226.265 240.404 228.107 241.511 229.816C243.165 232.391 242.633 233.992 239.653 234.784L239.646 234.766Z" stroke="white" stroke-width="0.8" stroke-miterlimit="10"/>
<path d="M264.088 199.221C257.269 202.18 252.604 199.441 250.094 191.002C249.03 185.167 249.676 179.309 249.75 173.452C250.55 173.094 251.356 172.755 252.156 172.397C254.824 175.777 255.968 179.904 256.412 183.92C257.093 190.132 259.742 195.012 264.081 199.203L264.088 199.221Z" stroke="white" stroke-width="0.8" stroke-miterlimit="10"/>
<path d="M224.344 182.083C226.643 193.829 228.936 205.557 231.253 217.296C225.759 216.957 224.827 211.969 222.268 208.607C220.329 198.701 218.765 188.709 216.819 178.786C217.007 178.486 217.196 178.187 217.402 177.88C221.774 175.903 223.197 178.775 224.355 182.058L224.344 182.083Z" stroke="white" stroke-width="0.8" stroke-miterlimit="10"/>
<path d="M222.387 166.398C222.104 167.696 221.813 168.977 222.586 170.204C221.885 173.447 214.576 172.293 217.384 177.887L217.169 178.014C217.027 178.172 216.931 178.394 216.768 178.5C214.085 180.196 212.437 178.824 211.403 176.473C210.023 173.299 213.538 166.263 217.493 164.37C219.658 163.328 222.108 162.542 222.405 166.391L222.387 166.398Z" stroke="white" stroke-width="0.8" stroke-miterlimit="10"/>
<path d="M249.75 173.452C253.868 179.202 250.577 185.147 250.093 191.002C248.244 188.606 248.805 184.806 245.508 183.249C245.66 180.326 244.657 177.329 246.108 174.485C247.317 174.129 248.534 173.79 249.743 173.434L249.75 173.452Z" stroke="white" stroke-width="0.8" stroke-miterlimit="10"/>
<path d="M333.637 37.2783C334.866 44.2547 328.092 46.058 325.086 50.2953C325.006 50.9199 325.01 51.7567 324.515 52.0551C316.208 57.0626 311.818 66.019 304.321 71.8305C301.739 73.8344 299.855 76.2572 298.351 79.1225C294.382 86.7671 288.441 92.8413 282.019 98.3702C278.724 101.209 274.851 103.826 269.919 102.324C276.082 96.4481 281.205 90.7384 276.303 81.0458C274.883 78.2346 279.849 75.0204 283.212 73.8521C293.979 70.0989 301.873 62.8625 309.823 54.9907C316.773 48.1078 325.634 43.1057 333.637 37.2783V37.2783Z" stroke="white" stroke-width="0.8" stroke-miterlimit="10"/>
<path d="M269.92 102.324C283.179 97.9925 291.206 88.1476 297.443 76.4152C298.044 75.298 298.459 73.7636 299.428 73.216C309.61 67.3639 313.734 54.7914 325.094 50.3128C328.607 49.5758 330.965 46.6991 334.163 45.3714C331.553 50.3514 327.769 53.813 322.972 57.0419C315.435 62.133 310.895 70.4536 305.085 77.3755C303.362 79.4281 302.215 82.111 300.153 83.9295C296.925 86.7822 294.932 90.066 293.12 94.1166C290.443 100.166 285.234 104.887 277.916 105.107C274.398 105.212 272.662 105.634 271.896 109.536C270.63 116.049 265.012 118.805 259.637 121.506C258.036 117.928 260.937 115.594 262.292 112.971C264.138 109.419 266.791 106.303 268.922 102.903C269.261 102.728 269.601 102.552 269.927 102.341L269.92 102.324Z" stroke="white" stroke-width="0.8" stroke-miterlimit="10"/>
<path d="M268.932 102.878C268.492 110.393 261.544 114.699 259.63 121.489C258.255 123.853 256.898 126.211 255.515 128.557C254.713 128.855 253.892 129.159 253.09 129.457C253.855 126.843 254.63 124.205 255.396 121.591C256.259 119.021 257.123 116.45 257.987 113.879C258.715 108.847 261.119 105.155 266.284 103.682L266.267 103.689C267.143 103.423 268.038 103.151 268.908 102.868L268.932 102.878Z" stroke="white" stroke-width="0.8" stroke-miterlimit="10"/>
<path d="M203.68 136.778C203.211 135.594 202.707 134.423 202.238 133.239C203.904 129.389 207.028 126.946 210.353 124.648C215.04 121.401 219.787 118.355 224.046 114.44C229.52 109.409 236.424 109.64 243.258 111.452C243.626 111.347 244.011 111.235 244.372 111.113C246.064 114.042 245.972 116.859 243.9 119.581C242.501 119.665 241.503 119.262 241.499 117.649C237.163 116.156 232.689 117.151 228.282 117.077C223.737 117.016 223.683 119.102 226.007 122.128C226.903 123.307 227.892 124.408 228.852 125.541C229.703 126.553 230.469 127.661 229.373 128.872C228.448 129.893 227.101 130.262 225.906 129.468C222.235 127.016 219.605 122.701 213.725 125.725C209.221 128.04 208.297 132.577 205.221 135.657C204.781 136.096 204.19 136.412 203.673 136.76L203.68 136.778Z" stroke="white" stroke-width="0.8" stroke-miterlimit="10"/>
<path d="M241.481 117.656C242.287 118.298 243.076 118.946 243.883 119.588C244.444 124.416 240.294 126.693 238.18 130.086L236.995 130.556C234.818 129.189 231.573 129.002 231.639 125.193C231.696 121.306 234.5 120.38 237.332 119.319C238.719 118.791 240.109 118.22 241.488 117.674L241.481 117.656Z" stroke="white" stroke-width="0.8" stroke-miterlimit="10"/>
<path d="M266.291 103.7C263.288 106.913 259.705 109.641 257.994 113.897C258.152 105.205 258.851 104.336 266.291 103.7Z" stroke="white" stroke-width="0.8" stroke-miterlimit="10"/>
<path d="M226.082 141.482C221.499 146.078 216.917 150.674 212.341 155.287C207.565 151.597 209.648 147.868 212.725 144.687C216.355 140.939 220.338 137.051 226.065 141.489L226.082 141.482Z" stroke="white" stroke-width="0.8" stroke-miterlimit="10"/>
<path d="M238.56 224.482C235.546 214.962 234.54 205.035 232.36 195.347C234.837 194.06 231.815 188.652 236.919 189.35C239.505 198.1 242.745 206.692 243.757 215.86C244.004 218.032 244.891 219.808 246.709 221.091C249.673 225.683 245.917 229.113 244.54 232.971C242.332 230.288 243.689 225.089 238.524 224.496L238.56 224.482Z" stroke="white" stroke-width="0.8" stroke-miterlimit="10"/>
<path d="M242.125 221.695C239.906 221.102 238 219.649 237.845 217.502C237.353 210.009 234.704 203.165 232.2 196.223C231.532 194.382 232.229 192.061 232.318 189.961C236.063 193.426 236.957 198.163 237.997 202.802C239.422 209.087 240.752 215.389 242.125 221.695V221.695Z" stroke="white" stroke-width="0.8" stroke-miterlimit="10"/>
<path d="M160.29 145.763C164.482 147.722 164.621 151.327 164.148 155.195C159.964 149.123 156.705 149.003 152.962 154.738C148.942 160.91 142.34 163.3 135.727 160.808C133.388 159.914 131.702 161.338 129.768 161.982L129.305 162.001C128.009 158.057 131.033 156.962 133.641 156.42C140.94 154.858 146.848 150.821 152.905 146.848C154.997 145.467 157.397 143.004 160.283 145.745L160.29 145.763Z" stroke="white" stroke-width="0.8" stroke-miterlimit="10"/>
<path d="M160.29 145.763C155.046 145.591 152.169 150.002 148.234 152.255C143.931 154.716 139.822 157.1 134.756 157.532C132.04 157.749 129.856 159.003 129.312 162.019C126.606 163.091 123.915 164.198 121.216 165.287C121.048 164.863 120.845 164.452 120.684 164.046C127.395 155.785 138.123 154.154 146.464 148.56C149.257 146.677 152.321 145.219 155.265 143.562C163.627 138.9 173.554 138.915 182.109 134.586C185.725 132.766 189.536 134.691 192.742 137C193.021 137.809 193.326 138.629 193.612 139.456C190.131 141.203 186.265 141.773 182.546 141.733C174.827 141.662 167.673 144.209 160.297 145.781L160.29 145.763Z" stroke="white" stroke-width="0.8" stroke-miterlimit="10"/>
<path d="M230.221 234.471C230.451 226.426 229.776 218.678 223.415 212.691C221.821 211.196 222.462 209.716 223.661 208.3C226.175 211.292 228.714 214.294 231.229 217.285C231.786 218.537 232.343 219.788 232.9 221.04C235.473 227.279 237.69 233.496 231.965 239.342C231.382 237.712 230.805 236.101 230.203 234.478L230.221 234.471Z" stroke="white" stroke-width="0.8" stroke-miterlimit="10"/>
</g>
</svg>
