<svg width="662" height="396" viewBox="0 0 662 396" fill="none" xmlns="http://www.w3.org/2000/svg">
<path fill-rule="evenodd" clip-rule="evenodd" d="M512.93 275.85H569.67C600.21 275.85 625.19 300.83 625.19 331.37C625.19 361.91 600.21 386.89 569.67 386.89H89.91C40.46 386.89 0 346.44 0 296.99C0 247.54 40.46 207.08 89.91 207.08C110.82 207.08 127.92 189.97 127.92 169.07C127.92 148.16 110.81 131.06 89.91 131.06H44.16C22.42 131.06 4.64 113.28 4.64 91.54C4.64 69.8 22.43 52.02 44.16 52.02H102.01C110.47 52.02 117.4 45.1 117.4 36.63C117.4 28.17 110.48 21.24 102.01 21.24H91.81C85.97 21.24 81.19 16.46 81.19 10.62C81.19 4.78 85.97 0 91.81 0H158.73C172.82 0 550.4 0 586 0L292.54 16.65C300.16 16.65 306.4 22.89 306.4 30.51C306.4 38.13 300.16 44.37 292.54 44.37H279.23C268.19 44.37 259.15 53.41 259.15 64.45C259.15 75.49 268.18 84.53 279.23 84.53H319.28C373.36 84.53 381 98.66 390.47 126.77C399.94 154.88 449.13 157.14 449.13 157.14H516.39C533.03 157.14 546.65 170.76 546.65 187.4C546.65 204.04 533.03 217.66 516.39 217.66H512.93C496.93 217.66 483.83 230.76 483.83 246.76C483.83 262.77 496.93 275.86 512.93 275.86V275.85ZM62.01 21.24C67.87 21.24 72.63 16.49 72.63 10.62C72.63 4.75 67.87 0 62.01 0C56.15 0 51.39 4.75 51.39 10.62C51.39 16.49 56.14 21.24 62.01 21.24Z" fill="#B3E2E0"/>
<path d="M46.63 387.58H613.27C615.43 387.58 617.18 389.33 617.18 391.49C617.18 393.65 615.43 395.4 613.27 395.4H46.63C44.47 395.4 42.72 393.65 42.72 391.49C42.72 389.33 44.47 387.58 46.63 387.58Z" fill="#00000F"/>
<path d="M33.22 387.58H25.24C23.0806 387.58 21.33 389.331 21.33 391.49C21.33 393.649 23.0806 395.4 25.24 395.4H33.22C35.3794 395.4 37.13 393.649 37.13 391.49C37.13 389.331 35.3794 387.58 33.22 387.58Z" fill="#00000F"/>
<path d="M633.95 387.58H657.58C659.74 387.58 661.49 389.33 661.49 391.49C661.49 393.65 659.74 395.4 657.58 395.4H633.95C631.79 395.4 630.04 393.65 630.04 391.49C630.04 389.33 631.79 387.58 633.95 387.58Z" fill="#00000F"/>
<path fill-rule="evenodd" clip-rule="evenodd" d="M446.07 195.91C445.86 192.76 443.14 190.38 439.99 190.59C436.84 190.8 434.46 193.52 434.67 196.67C435.5 208.77 436.82 222.22 438.76 237.14H334.98C337.03 222.3 338.67 208.93 339.96 196.89C340.29 193.75 338.02 190.94 334.88 190.6C331.74 190.27 328.93 192.54 328.59 195.68C326.04 219.45 322.14 248.44 316.33 283.65C311.38 313.63 305.06 348.08 297.02 387.6H308.67C316.55 348.76 322.74 314.93 327.6 285.48C329.77 272.34 331.67 260.06 333.34 248.59H440.32C441.98 260.09 444 272.41 446.41 285.59C451.82 315.07 459.25 348.87 469.26 387.59H481.05C470.73 347.95 463.12 313.48 457.63 283.53C454.92 268.78 452.73 255.12 450.98 242.48C450.96 242.2 450.92 241.92 450.87 241.65C448.52 224.59 446.98 209.4 446.05 195.89L446.07 195.91Z" fill="#3B405F"/>
<path fill-rule="evenodd" clip-rule="evenodd" d="M209.68 251.66C209.68 249.99 208.32 248.63 206.65 248.63C204.98 248.63 203.62 249.99 203.62 251.66V387.6H209.67V347.38H256.07V387.6H262.12V251.66C262.12 249.99 260.76 248.63 259.09 248.63C257.42 248.63 256.06 249.99 256.06 251.66V330.25H209.66V251.66H209.68ZM256.08 341.33H209.68V334.04H256.08V341.33Z" fill="#00000F"/>
<path fill-rule="evenodd" clip-rule="evenodd" d="M157.22 251.66C157.22 249.99 155.86 248.63 154.19 248.63C152.52 248.63 151.16 249.99 151.16 251.66V387.6H157.21V347.38H203.61V387.6H209.66V251.66C209.66 249.99 208.3 248.63 206.63 248.63C204.96 248.63 203.6 249.99 203.6 251.66V330.25H157.2V251.66H157.22ZM203.62 341.33H157.22V334.04H203.62V341.33Z" fill="#674834"/>
<path fill-rule="evenodd" clip-rule="evenodd" d="M267.79 251.66H149.33C147.24 251.66 145.53 253.37 145.53 255.46C145.53 257.55 147.24 259.26 149.33 259.26H267.79C269.88 259.26 271.59 257.55 271.59 255.46C271.59 253.37 269.88 251.66 267.79 251.66Z" fill="#00000F"/>
<path fill-rule="evenodd" clip-rule="evenodd" d="M272.1 247.85H144.29C142.2 247.85 140.49 249.56 140.49 251.65C140.49 253.74 142.2 255.46 144.29 255.46H272.1C274.19 255.46 275.9 253.75 275.9 251.65C275.9 249.56 274.19 247.85 272.1 247.85Z" fill="#B56B41"/>
<path fill-rule="evenodd" clip-rule="evenodd" d="M194.64 247.85H144.28C142.19 247.85 140.48 249.56 140.48 251.65C140.48 253.74 142.19 255.46 144.28 255.46H194.64C196.73 255.46 198.44 253.75 198.44 251.65C198.44 249.56 196.73 247.85 194.64 247.85Z" fill="#D58750"/>
<path fill-rule="evenodd" clip-rule="evenodd" d="M268.62 149.14C279.6 151.85 301.76 156.27 308.79 165.31C313.39 171.21 314.03 178.36 306.42 178.36H267.77L268.62 149.14Z" fill="#4C8784"/>
<path fill-rule="evenodd" clip-rule="evenodd" d="M190.68 197.72L175.83 210.71C175.83 210.71 167.26 187.06 175.73 166.39C184.19 145.71 216.36 144.15 229.62 142.89C242.88 141.64 259.81 178.35 259.81 178.35L190.69 197.71L190.68 197.72Z" fill="#4C8784"/>
<path fill-rule="evenodd" clip-rule="evenodd" d="M245.13 214.31C245.13 214.31 273.35 220.72 276.91 221.56C280.47 222.4 290.07 231.99 291.77 241.23C293.47 250.47 309.09 367.74 309.09 367.74C309.09 367.74 305.06 374.74 304.53 374.85C304.01 374.95 296.35 371.35 296.35 371.35C296.35 371.35 269.16 271.94 266.02 263.15C262.88 254.36 263.7 247.86 254.09 247.86H225.21L217.73 222.42L220.74 219.49C217.47 219.65 214.92 219.67 214.49 219.41C213.13 218.57 191.68 210.73 191.68 210.73C191.68 210.73 207.06 206.12 208.42 205.6C209.78 205.08 231.91 203.25 231.91 203.25C231.91 203.25 231.96 209.32 233.06 210.63C234.16 211.94 236.51 212.48 236.51 212.48L245.12 214.33L245.13 214.31Z" fill="#00000F"/>
<path fill-rule="evenodd" clip-rule="evenodd" d="M177.55 184.56C177.32 192.56 177.06 200.93 175.78 205.31C176.26 208.11 175.83 210.71 175.83 210.71L175.62 211.29C175.79 211.93 175.95 212.33 175.95 212.33C179.49 215.04 183.24 215.14 187.56 216.77L187.54 216.19L187.36 215.43L199.95 221.52C204.21 221.08 231.31 219.33 238.08 212.8C237.48 206.42 264.55 188.54 271.98 186.82L177.54 184.56H177.55Z" fill="#4C8784"/>
<path fill-rule="evenodd" clip-rule="evenodd" d="M305.88 369.68C305.88 369.68 307.08 366.98 310.01 367.79C312.94 368.6 330.31 378.16 333.02 379.34C335.74 380.52 338.59 385.02 336.45 387.6H295.16C292.72 386.14 290.37 381.07 292.89 372.26C295.41 363.45 294.79 372.71 305.89 369.68H305.88Z" fill="#4C8784"/>
<path fill-rule="evenodd" clip-rule="evenodd" d="M305.88 369.68C305.88 369.68 307.08 366.98 310.01 367.79C311.83 368.29 319.25 372.19 325.25 375.34C323.49 376.66 319.76 377.81 318.9 377.63C317.83 377.41 305.87 369.67 305.87 369.67L305.88 369.68Z" fill="#3B405F"/>
<path d="M292.48 382.91H337.12C337.79 382.91 338.33 383.45 338.33 384.12V386.37C338.33 387.04 337.79 387.58 337.12 387.58H292.48C291.81 387.58 291.27 387.04 291.27 386.37V384.12C291.27 383.45 291.81 382.91 292.48 382.91Z" fill="#FFFAF9"/>
<path fill-rule="evenodd" clip-rule="evenodd" d="M184.37 247.8C168.15 247.8 167.5 219.47 175.83 210.71C175.83 210.71 180.02 214.05 186.69 213.98C197.72 213.86 223.52 207.69 231.41 218.22C239.3 228.75 242.18 246.41 237.61 272.1C233.04 297.79 221.76 371.66 221.76 371.66L208.74 370.54C208.74 370.54 210.67 266.34 210.87 260.8C211.08 255.25 208.15 247.86 202.18 247.86C196.21 247.86 184.35 247.81 184.35 247.81L184.37 247.8Z" fill="#131936"/>
<path fill-rule="evenodd" clip-rule="evenodd" d="M219.09 370.47C219.09 370.47 214.17 364.35 208.16 369.22C208.16 369.22 204.88 370.55 203.65 373.64C202.42 376.74 200.1 378.14 199.69 381.53C199.28 384.92 200.24 387.58 204.54 387.58H211.51C214.59 387.58 219.16 388.09 220.73 383.97C222.3 379.84 220.73 376.08 221.28 373.94C221.83 371.8 219.09 370.47 219.09 370.47Z" fill="#4C8784"/>
<path fill-rule="evenodd" clip-rule="evenodd" d="M219.09 370.47C219.09 370.47 214.17 364.35 208.16 369.22C208.16 369.22 207.53 369.48 206.72 370.02C206.37 372.7 206.08 375.56 206.34 376.29C206.86 377.75 214.63 377.44 215.73 376.92C216.55 376.53 218.41 372.57 219.3 370.58C219.17 370.51 219.1 370.47 219.1 370.47H219.09Z" fill="#131936"/>
<path d="M220.53 382.91H200.15C199.482 382.91 198.94 383.452 198.94 384.12V386.37C198.94 387.038 199.482 387.58 200.15 387.58H220.53C221.198 387.58 221.74 387.038 221.74 386.37V384.12C221.74 383.452 221.198 382.91 220.53 382.91Z" fill="#FFFAF9"/>
<path fill-rule="evenodd" clip-rule="evenodd" d="M254.16 216.36C253.74 216.82 253.32 217.31 252.91 217.85C251.15 219.82 249.39 222.42 248.32 225.64C248.25 225.85 248.36 226.07 248.57 226.14C248.78 226.21 249 226.1 249.07 225.89C249.2 225.49 249.35 225.1 249.5 224.71C249.54 224.76 249.6 224.8 249.67 224.82C249.88 224.89 250.1 224.78 250.17 224.57C250.98 222.12 252.21 220.05 253.52 218.35C254.1 217.7 254.68 217.12 255.23 216.61L254.16 216.37V216.36ZM256.48 216.89L257.84 217.2C257.18 217.83 256.48 218.55 255.79 219.38C254.48 221.08 253.25 223.15 252.44 225.59C252.38 225.76 252.22 225.87 252.04 225.86C251.99 225.99 251.95 226.12 251.9 226.25C251.83 226.46 251.61 226.57 251.4 226.5C251.31 226.47 251.24 226.42 251.2 226.35L251.18 226.42C251.11 226.63 250.89 226.74 250.68 226.67C250.47 226.6 250.36 226.38 250.43 226.17C251.79 222.06 254.29 218.96 256.47 216.89H256.48ZM258.19 217.28L259.61 217.6C257.71 219.23 255.32 221.77 253.69 225.23C253.52 225.64 253.36 226.06 253.22 226.49C253.19 226.57 253.14 226.65 253.07 226.69C252.98 226.94 252.89 227.19 252.8 227.44C252.73 227.65 252.51 227.76 252.3 227.69C252.09 227.62 251.98 227.4 252.05 227.19C252.31 226.39 252.62 225.63 252.96 224.91C254.3 221.64 256.33 219.1 258.18 217.27L258.19 217.28ZM259.99 217.69L261.04 217.93C260.01 218.83 258.84 220 257.74 221.42C256.56 223.03 255.47 224.95 254.73 227.18C254.69 227.31 254.58 227.4 254.46 227.44C254.44 227.5 254.41 227.57 254.39 227.64C254.32 227.85 254.1 227.96 253.89 227.89C253.68 227.82 253.57 227.6 253.64 227.39C254.48 224.86 255.75 222.72 257.1 220.96C258.04 219.68 259.04 218.59 259.98 217.69H259.99ZM262.67 218.3C260.28 220.31 257.05 223.76 255.43 228.66C255.36 228.87 255.47 229.09 255.68 229.16C255.89 229.23 256.11 229.12 256.18 228.91C257.76 224.16 260.9 220.82 263.2 218.88C262.26 219.74 261.24 220.8 260.28 222.06C258.85 223.86 257.51 226.08 256.63 228.73C256.56 228.94 256.67 229.16 256.88 229.23C256.9 229.23 256.93 229.24 256.95 229.25V229.27C256.92 229.36 256.88 229.46 256.85 229.55C256.78 229.77 256.89 229.99 257.1 230.06C257.31 230.13 257.53 230.02 257.6 229.81C257.64 229.69 257.68 229.57 257.72 229.45V229.42C257.77 229.31 257.81 229.2 257.85 229.09V229.06C257.95 228.82 258.04 228.59 258.14 228.36C258.19 228.24 258.24 228.12 258.29 228.01C258.34 227.89 258.39 227.78 258.44 227.68V227.65C258.5 227.54 258.55 227.44 258.6 227.33C258.65 227.21 258.7 227.11 258.76 227L258.78 226.97C258.83 226.88 258.88 226.78 258.93 226.69L258.97 226.62C259.01 226.54 259.06 226.45 259.11 226.37L259.15 226.31C259.2 226.23 259.24 226.14 259.29 226.06L259.34 225.98C259.38 225.91 259.43 225.83 259.47 225.76L259.52 225.67C259.56 225.6 259.6 225.53 259.65 225.46L259.72 225.34L259.83 225.16L259.9 225.05L260.02 224.87L260.1 224.76L260.21 224.59L260.39 224.33H260.4C259.54 225.68 258.78 227.21 258.21 228.93C258.14 229.14 258.25 229.36 258.46 229.43C258.38 229.66 258.3 229.88 258.22 230.12C258.15 230.32 258.26 230.55 258.47 230.62C258.68 230.69 258.9 230.58 258.97 230.37C258.99 230.31 259.01 230.24 259.04 230.18C259.16 230.15 259.27 230.05 259.31 229.92C259.41 229.61 259.53 229.3 259.64 228.99C259.59 229.19 259.7 229.39 259.9 229.46C260.11 229.53 260.33 229.42 260.4 229.21C261.89 224.71 264.79 221.47 267.06 219.49L267.23 219.36L266.06 219.09C265.92 219.2 265.78 219.32 265.64 219.44C265.78 219.32 265.92 219.2 266.05 219.09L262.67 218.32V218.3ZM267.3 219.35C264.96 221.4 261.96 224.75 260.41 229.41C260.34 229.62 260.45 229.84 260.66 229.91C260.87 229.98 261.09 229.87 261.16 229.66C261.19 229.57 261.22 229.48 261.25 229.39C261.29 229.49 261.38 229.58 261.49 229.62C261.7 229.69 261.92 229.58 261.99 229.37C263.48 224.87 266.38 221.64 268.64 219.66L267.3 219.36V219.35ZM268.98 219.73L272.32 220.49C269.99 222.33 266.41 225.83 264.7 231.01C264.63 231.22 264.41 231.33 264.2 231.26C264.11 231.23 264.04 231.17 263.99 231.1C263.89 231.2 263.74 231.24 263.59 231.19C263.38 231.12 263.27 230.9 263.34 230.69C264.53 227.11 266.57 224.3 268.52 222.27C266.52 224.26 264.34 227.11 263.11 230.83C263.04 231.04 262.82 231.15 262.61 231.08C262.4 231.01 262.29 230.79 262.36 230.58L262.4 230.48C262.31 230.53 262.19 230.55 262.09 230.51C261.88 230.44 261.77 230.22 261.84 230.01C263.44 225.18 266.61 221.75 268.98 219.73ZM272.54 220.54L273.53 220.77C271.23 222.51 267.34 226.11 265.52 231.59C265.45 231.8 265.23 231.91 265.02 231.84C264.81 231.77 264.7 231.55 264.77 231.34C266.52 226.07 270.13 222.47 272.54 220.54Z" fill="#6E6E6E"/>
<path fill-rule="evenodd" clip-rule="evenodd" d="M233.01 299.73C231.97 299.47 230.78 299.25 229.48 299.14C226.86 298.71 223.62 298.66 219.98 299.64C219.75 299.71 219.56 299.95 219.57 300.18C219.57 300.41 219.77 300.55 220 300.49C220.45 300.37 220.9 300.26 221.34 300.17C221.31 300.24 221.29 300.32 221.29 300.39C221.29 300.62 221.49 300.76 221.72 300.7C224.48 299.95 227.01 299.82 229.2 300.01C230.61 300.24 231.84 300.59 232.82 300.95L233.02 299.73H233.01ZM232.62 302.14L232.4 303.49C231.41 303.19 230.24 302.93 228.94 302.76C226.76 302.58 224.23 302.71 221.47 303.46C221.27 303.51 221.11 303.42 221.06 303.26C220.91 303.3 220.76 303.33 220.61 303.37C220.38 303.43 220.19 303.3 220.18 303.06C220.18 302.96 220.21 302.86 220.26 302.77L220.18 302.79C219.95 302.85 219.76 302.72 219.75 302.48C219.75 302.25 219.93 302 220.16 301.94C225.32 300.54 229.7 301.23 232.6 302.13L232.62 302.14ZM232.35 303.82C229.8 303.15 226.34 302.74 222.34 303.53C221.49 303.66 220.61 303.84 219.71 304.08C219.48 304.14 219.29 304.38 219.3 304.62C219.3 304.85 219.49 304.99 219.73 304.93C220.02 304.85 220.3 304.78 220.58 304.72C220.65 304.76 220.74 304.76 220.84 304.74C221.33 304.61 221.81 304.5 222.28 304.4C226.37 303.79 229.8 304.47 232.12 305.24L232.35 303.82ZM232.06 305.62L231.89 306.65C230.68 306.29 229.22 305.97 227.56 305.83C225.52 305.72 223.19 305.89 220.67 306.57C220.52 306.61 220.39 306.57 220.31 306.47C220.23 306.49 220.16 306.51 220.09 306.53C219.86 306.59 219.67 306.45 219.66 306.22C219.66 305.99 219.84 305.74 220.07 305.68C222.93 304.91 225.54 304.77 227.8 304.96C229.39 305.05 230.82 305.3 232.05 305.62H232.06ZM231.64 308.24L231.49 309.17C228.69 308.29 224.45 307.62 219.44 308.97C219.21 309.03 219.02 308.89 219.01 308.66C219.01 308.43 219.19 308.19 219.42 308.12C224.45 306.76 228.73 307.38 231.63 308.24H231.64ZM231.49 309.2C230.41 308.92 229.18 308.69 227.82 308.58C225.49 308.36 222.77 308.47 219.79 309.28C219.56 309.34 219.37 309.58 219.38 309.82C219.38 309.85 219.38 309.87 219.39 309.9H219.37C219.27 309.93 219.16 309.96 219.06 309.99H219.05C218.82 310.06 218.63 310.3 218.64 310.53C218.64 310.76 218.84 310.9 219.07 310.84C219.21 310.8 219.34 310.77 219.48 310.73H219.51C219.64 310.69 219.76 310.66 219.89 310.63H219.93C220.2 310.56 220.47 310.5 220.73 310.45H220.74C220.87 310.42 221 310.4 221.13 310.38H221.14C221.27 310.36 221.39 310.34 221.52 310.32H221.55C221.68 310.3 221.8 310.28 221.93 310.26H221.94C222.06 310.24 222.19 310.23 222.31 310.21H222.35C222.46 310.19 222.57 310.18 222.68 310.17H222.77C222.87 310.15 222.97 310.14 223.07 310.14H223.15C223.25 310.13 223.35 310.12 223.45 310.11H223.55C223.64 310.1 223.73 310.1 223.82 310.09H223.93C224.01 310.09 224.1 310.08 224.18 310.08H225.61C223.93 310.12 222.1 310.36 220.17 310.88C219.94 310.94 219.75 311.19 219.76 311.42C219.5 311.48 219.24 311.55 218.98 311.62C218.75 311.68 218.56 311.92 218.57 312.16C218.57 312.39 218.77 312.53 219 312.47C219.07 312.45 219.14 312.43 219.22 312.42C219.3 312.51 219.43 312.56 219.58 312.52C219.94 312.43 220.29 312.34 220.63 312.26C220.41 312.34 220.25 312.57 220.25 312.79C220.25 313.03 220.45 313.16 220.68 313.1C224.71 312.01 228.25 312.23 230.94 312.82L231.51 309.22L231.49 309.2ZM230.9 312.91L230.68 314.27C228.08 313.78 224.76 313.66 221.03 314.67C220.8 314.73 220.61 314.59 220.6 314.36C220.6 314.23 220.65 314.09 220.75 313.99C220.65 314.02 220.54 314.04 220.44 314.07C220.21 314.13 220.02 313.99 220.01 313.76C220.01 313.53 220.19 313.29 220.42 313.22C224.52 312.11 228.13 312.31 230.9 312.9V312.91ZM230.64 314.57C227.9 314.01 224.35 313.84 220.32 314.92C220.09 314.98 219.9 315.22 219.91 315.46C219.91 315.58 219.97 315.68 220.05 315.74L219.93 315.77C219.7 315.84 219.51 316.08 219.52 316.31C219.52 316.54 219.72 316.68 219.95 316.62C224.06 315.51 227.65 315.76 230.36 316.37L230.64 314.57ZM230.35 316.38L230.12 317.84C227.49 317.32 224.13 317.18 220.32 318.21C220.09 318.27 219.9 318.13 219.89 317.9C219.89 317.8 219.92 317.69 219.98 317.6C219.85 317.57 219.75 317.45 219.75 317.28C219.75 317.04 219.93 316.81 220.16 316.74C224.12 315.67 227.62 315.82 230.35 316.36V316.38ZM230.08 318.08C227.37 317.56 223.91 317.43 220.01 318.48C219.78 318.54 219.59 318.78 219.6 319.02C219.6 319.25 219.8 319.39 220.03 319.33C223.89 318.29 227.3 318.45 229.94 318.98L230.08 318.08Z" fill="#6E6E6E"/>
<path fill-rule="evenodd" clip-rule="evenodd" d="M292.91 248.73C291.45 248.5 289.57 248.36 287.42 248.57C284.77 248.61 281.57 249.15 278.17 250.76C277.95 250.86 277.81 251.14 277.86 251.37C277.91 251.6 278.12 251.7 278.34 251.6C278.76 251.4 279.19 251.21 279.6 251.05C279.58 251.13 279.58 251.2 279.6 251.28C279.65 251.51 279.86 251.61 280.08 251.51C282.66 250.28 285.13 249.7 287.31 249.49C289.95 249.45 292.02 249.91 293.14 250.24L292.93 248.75L292.91 248.73ZM293.29 251.35L293.49 252.73C292.14 252.41 290.07 252.08 287.55 252.22C285.37 252.43 282.91 253.01 280.33 254.24C280.15 254.32 279.97 254.27 279.89 254.11C279.75 254.17 279.61 254.24 279.47 254.3C279.25 254.4 279.04 254.3 278.99 254.07C278.97 253.97 278.99 253.87 279.02 253.77L278.95 253.8C278.73 253.9 278.52 253.8 278.47 253.57C278.42 253.34 278.56 253.07 278.78 252.97C285 250.01 290.56 250.68 293.28 251.33L293.29 251.35ZM293.52 252.98C290.85 252.46 286.31 252.13 281.19 254.16C280.38 254.44 279.55 254.77 278.71 255.17C278.49 255.27 278.35 255.54 278.4 255.77C278.45 256 278.66 256.1 278.88 256C279.15 255.87 279.41 255.75 279.68 255.64C279.76 255.66 279.85 255.66 279.94 255.61C280.4 255.39 280.85 255.2 281.3 255.02C287.06 253.07 291.9 254.1 293.77 254.65L293.53 252.97L293.52 252.98ZM293.78 254.83C292.11 254.5 289.68 254.23 286.83 254.59C284.57 254.81 282.03 255.41 279.35 256.68C279.13 256.78 278.99 257.05 279.04 257.28C279.09 257.51 279.3 257.61 279.52 257.51C279.59 257.48 279.66 257.44 279.73 257.41C279.82 257.49 279.96 257.51 280.1 257.44C282.45 256.32 284.71 255.74 286.74 255.49C289.92 255.18 292.5 255.65 293.95 256.03L293.78 254.82V254.83ZM294.18 257.69L294.46 259.66C294.14 259.57 293.75 259.48 293.31 259.39H293.37L293.43 259.42H293.49L293.55 259.45H293.61L293.72 259.49H293.73L293.83 259.52H293.88L293.9 259.54H293.93L293.98 259.56H294.03L294.05 259.58H294.07L294.12 259.6H294.17L294.2 259.62H294.22L294.27 259.64H294.32L294.4 259.68H294.45L294.64 261.06C294.08 260.92 293.38 260.78 292.56 260.67C293.38 260.79 294.08 260.93 294.64 261.08L294.99 263.59C292.15 263.06 287.27 262.8 281.88 265.36C281.66 265.46 281.45 265.36 281.4 265.13C281.37 265 281.4 264.86 281.48 264.74C281.38 264.78 281.29 264.83 281.19 264.87C280.97 264.97 280.76 264.87 280.71 264.64C280.66 264.41 280.8 264.14 281.02 264.04C286.29 261.53 291.08 261.63 294.08 262.12C293.84 262.05 293.56 261.98 293.24 261.91C290.33 261.53 285.97 261.59 281.22 263.85C281 263.95 280.79 263.85 280.74 263.62C280.7 263.4 280.82 263.15 281.02 263.03C280.69 263.17 280.36 263.31 280.03 263.47C279.89 263.54 279.76 263.52 279.66 263.44C279.59 263.47 279.52 263.5 279.46 263.53C279.24 263.63 279.03 263.53 278.98 263.3C278.93 263.07 279.07 262.8 279.29 262.7C279.53 262.58 279.78 262.48 280.02 262.37C279.97 262.14 280.11 261.87 280.33 261.76C282.14 260.9 283.9 260.35 285.54 260.01H285.52L285.35 260.04L285.19 260.07L284.84 260.12L284.62 260.16L284.48 260.19L284.26 260.23L284.12 260.26L283.87 260.31L283.76 260.34C283.67 260.36 283.59 260.38 283.5 260.4L283.41 260.42C283.31 260.44 283.22 260.47 283.12 260.49L283.04 260.51C282.94 260.54 282.85 260.56 282.75 260.59L282.67 260.61C282.56 260.64 282.46 260.67 282.35 260.7H282.31C282.19 260.75 282.07 260.78 281.95 260.82H281.93C281.81 260.86 281.69 260.9 281.57 260.94H281.54C281.42 260.99 281.3 261.03 281.18 261.08C281.05 261.13 280.93 261.17 280.8 261.22H280.79C280.54 261.32 280.29 261.43 280.03 261.53L279.99 261.55C279.87 261.6 279.75 261.65 279.63 261.71H279.6C279.47 261.78 279.34 261.84 279.22 261.9C279 262 278.79 261.9 278.74 261.67C278.69 261.44 278.83 261.17 279.05 261.07H279.06C279.16 261.02 279.26 260.97 279.35 260.93H279.37C279.37 260.93 279.35 260.87 279.35 260.85C279.3 260.62 279.44 260.35 279.66 260.25C282.45 258.92 285.11 258.33 287.44 258.13C289.05 257.97 290.51 258.01 291.76 258.13C288.86 257.68 284.29 257.62 279.27 260.01C279.05 260.12 278.84 260.01 278.79 259.78C278.74 259.55 278.88 259.28 279.1 259.17C285.76 256.01 291.66 257 294.14 257.67L294.18 257.69ZM295.05 263.94C292.14 263.36 286.97 263 281.23 265.73C281.01 265.83 280.87 266.1 280.92 266.33C280.94 266.45 281.02 266.54 281.11 266.58L281 266.63C280.78 266.73 280.64 267 280.69 267.23C280.74 267.46 280.95 267.56 281.17 267.46C285.09 265.6 288.74 265.23 291.53 265.37C288.72 265.31 285.19 265.76 281.41 267.56C281.19 267.66 281.05 267.93 281.1 268.16C281.13 268.32 281.24 268.42 281.38 268.43C281.34 268.53 281.32 268.64 281.34 268.74C281.39 268.97 281.6 269.07 281.82 268.97C287.6 266.22 292.79 266.72 295.52 267.32L295.05 263.94ZM295.55 267.53L295.69 268.52C293.04 267.9 287.71 267.28 281.74 270.11C281.52 270.21 281.31 270.11 281.26 269.88C281.21 269.65 281.35 269.38 281.57 269.28C287.41 266.5 292.67 266.93 295.55 267.53Z" fill="#6F6F6F"/>
<path fill-rule="evenodd" clip-rule="evenodd" d="M208.09 195.91C207.88 192.76 205.16 190.38 202.01 190.59C198.86 190.8 196.48 193.52 196.69 196.67C197.52 208.77 198.84 222.22 200.78 237.14H97C99.05 222.3 100.69 208.93 101.98 196.89C102.31 193.75 100.04 190.94 96.9 190.6C93.76 190.27 90.95 192.54 90.61 195.68C88.06 219.45 84.16 248.44 78.35 283.65C73.4 313.63 67.08 348.08 59.04 387.6H70.69C78.56 348.76 84.76 314.93 89.62 285.48C91.79 272.34 93.69 260.06 95.36 248.59H202.34C204 260.09 206.02 272.41 208.43 285.59C213.84 315.07 221.27 348.87 231.28 387.59H243.07C232.75 347.95 225.14 313.48 219.65 283.53C216.94 268.78 214.75 255.12 213 242.48C212.98 242.2 212.94 241.92 212.89 241.65C210.54 224.59 209 209.4 208.07 195.89L208.09 195.91Z" fill="#3B405F"/>
<path d="M192.83 182.6H453.1C456.14 182.6 458.61 185.07 458.61 188.11V200.51C458.61 203.55 456.14 206.02 453.1 206.02H192.83C189.79 206.02 187.32 203.55 187.32 200.51V188.11C187.32 185.07 189.79 182.6 192.83 182.6Z" fill="#B56B41"/>
<path fill-rule="evenodd" clip-rule="evenodd" d="M135.35 182.6C132.31 182.6 129.82 185.08 129.82 188.11V195.46H458.62V188.11C458.62 185.08 456.13 182.6 453.09 182.6H135.35Z" fill="#00000F"/>
<path fill-rule="evenodd" clip-rule="evenodd" d="M458.59 178.36H187.34C184.06 178.36 181.37 181.05 181.37 184.33C181.37 187.61 184.06 190.3 187.34 190.3H458.59C461.88 190.3 464.56 187.61 464.56 184.33C464.56 181.05 461.87 178.36 458.59 178.36Z" fill="#B56B41"/>
<path d="M90.32 182.6H209.69C212.73 182.6 215.2 185.07 215.2 188.11V200.51C215.2 203.55 212.73 206.02 209.69 206.02H90.32C87.28 206.02 84.81 203.55 84.81 200.51V188.11C84.81 185.07 87.28 182.6 90.32 182.6Z" fill="#D58750"/>
<path fill-rule="evenodd" clip-rule="evenodd" d="M207.05 182.6H92.95C88.47 182.6 84.8 185.08 84.8 188.11V195.46H215.2V188.11C215.2 185.08 211.53 182.6 207.05 182.6Z" fill="#3B405F"/>
<path fill-rule="evenodd" clip-rule="evenodd" d="M215.2 178.36H81.54C78.26 178.36 75.57 181.05 75.57 184.33C75.57 187.61 78.26 190.3 81.54 190.3H215.2C218.48 190.3 221.17 187.61 221.17 184.33C221.17 181.05 218.48 178.36 215.2 178.36Z" fill="#D58750"/>
<path fill-rule="evenodd" clip-rule="evenodd" d="M279.27 178.36C279.27 178.36 273.49 171.79 274.9 164.03C276.31 156.27 276.45 141.32 268.27 137.09C260.09 132.86 250.08 133.44 245.7 139.49C245.7 139.49 243.37 136.18 240.76 136.32C238.15 136.46 240.34 140.62 240.97 141.12C214.19 132.8 238.08 172.88 219.1 178.38H279.27V178.36Z" fill="#050A25"/>
<path fill-rule="evenodd" clip-rule="evenodd" d="M279.27 178.36C279.27 178.36 273.49 171.79 274.9 164.03C275.09 162.98 275.26 161.81 275.38 160.54C266.52 163.71 245.75 169.69 236.28 160.16C231.31 155.15 228.92 149.72 227.83 145.03C225.36 153.26 230.35 169.31 223.38 175.97C225.6 176.59 228.11 177.33 230.93 178.36H279.27Z" fill="#00000F"/>
<path fill-rule="evenodd" clip-rule="evenodd" d="M307.85 178.36C313.25 174.2 310.1 160.09 297.01 163.93C287.71 166.66 271.94 172.18 269.99 172.59C267.33 173.15 261.38 172.59 259.87 172.59C258.36 172.59 254.51 174.11 254.51 178.36H307.86H307.85Z" fill="#F5AC83"/>
<path fill-rule="evenodd" clip-rule="evenodd" d="M181.24 178.36C181.24 178.36 177.31 176.45 177.73 171.58C178.15 166.71 183.99 161.89 188.39 161.4C192.79 160.91 240.61 171.62 245.09 172.22C249.57 172.82 259.61 172.22 262.16 172.22C264.71 172.22 271.2 173.84 271.2 178.36H181.24Z" fill="#F5AC83"/>
<path fill-rule="evenodd" clip-rule="evenodd" d="M314.36 140.03C314.36 140.03 313.64 137.45 311.47 137.34C309.3 137.23 308.48 139.92 309.11 140.24C309.75 140.57 314.36 140.03 314.36 140.03Z" fill="#F2D8CD"/>
<path fill-rule="evenodd" clip-rule="evenodd" d="M312.48 144.62L313.07 144.5L315.08 144.08C312.68 150.68 305.96 149.73 308.6 144.65L311.91 143.97V144.31C311.91 144.54 312.11 144.69 312.36 144.64L312.46 144.62H312.48Z" fill="#F2D8CD"/>
<path fill-rule="evenodd" clip-rule="evenodd" d="M415.85 81.64H321.66C319.07 81.64 316.52 83.76 315.98 86.34L302.7 150.12C302.16 152.71 303.84 154.82 306.42 154.82H400.61C403.2 154.82 405.75 152.7 406.29 150.12L419.56 86.34C420.1 83.75 418.42 81.64 415.84 81.64H415.85Z" fill="white"/>
<path fill-rule="evenodd" clip-rule="evenodd" d="M415.85 81.64H324.74C322.15 81.64 319.6 83.76 319.06 86.34L305.79 150.12C305.25 152.71 306.93 154.82 309.51 154.82H400.62C403.21 154.82 405.76 152.7 406.3 150.12L419.57 86.34C420.11 83.75 418.43 81.64 415.85 81.64Z" fill="#DCDCEE"/>
<path fill-rule="evenodd" clip-rule="evenodd" d="M363.91 154.82C364.31 153.93 364.56 153.3 364.56 153.12C364.56 152.2 359.26 136.32 351.57 133.83L347.08 133.73L340.82 154.82H363.91Z" fill="#B5B6D3"/>
<path fill-rule="evenodd" clip-rule="evenodd" d="M407.14 126.07H315.66C314.66 126.07 313.67 126.89 313.46 127.89C313.25 128.89 313.9 129.71 314.9 129.71H406.38C407.38 129.71 408.37 128.89 408.58 127.89C408.79 126.89 408.14 126.07 407.14 126.07Z" fill="#D0D0E6"/>
<path fill-rule="evenodd" clip-rule="evenodd" d="M404.96 131.62H315.54C313.97 131.62 312.42 132.9 312.1 134.47L309 149.36C308.67 150.93 309.69 152.21 311.26 152.21H400.68C402.25 152.21 403.8 150.93 404.12 149.36L407.22 134.47C407.55 132.9 406.53 131.62 404.96 131.62Z" fill="#D0D0E6"/>
<path fill-rule="evenodd" clip-rule="evenodd" d="M341.61 152.21H364.35C363.28 148.62 358.36 136.03 351.58 133.84L347.09 133.74L341.61 152.21Z" fill="#B5B6D3"/>
<path fill-rule="evenodd" clip-rule="evenodd" d="M404.24 96.47H388.72C387.76 96.47 386.81 97.25 386.61 98.21L381.93 120.7C381.73 121.66 382.35 122.44 383.31 122.44H398.83C399.79 122.44 400.74 121.65 400.94 120.7L405.62 98.21C405.82 97.25 405.2 96.47 404.24 96.47Z" fill="#B5B6D3"/>
<path fill-rule="evenodd" clip-rule="evenodd" d="M406.3 96.47H390.78C389.82 96.47 388.87 97.25 388.67 98.21L383.99 120.7C383.79 121.66 384.41 122.44 385.37 122.44H400.89C401.85 122.44 402.8 121.65 403 120.7L407.68 98.21C407.88 97.25 407.26 96.47 406.3 96.47Z" fill="#D0D0E6"/>
<path fill-rule="evenodd" clip-rule="evenodd" d="M402.35 109.46C401.84 109.46 401.33 109.88 401.23 110.39L399.6 118.2C399.49 118.71 399.83 119.13 400.34 119.13C400.85 119.13 401.36 118.71 401.46 118.2L403.09 110.39C403.2 109.88 402.86 109.46 402.36 109.46H402.35Z" fill="#B5B6D3"/>
<path fill-rule="evenodd" clip-rule="evenodd" d="M397.96 109.46C397.45 109.46 396.94 109.88 396.84 110.39L395.22 118.2C395.11 118.71 395.44 119.13 395.95 119.13C396.46 119.13 396.97 118.71 397.07 118.2L398.69 110.39C398.8 109.88 398.47 109.46 397.96 109.46Z" fill="#B5B6D3"/>
<path fill-rule="evenodd" clip-rule="evenodd" d="M393.58 109.46C393.07 109.46 392.56 109.88 392.46 110.39L390.84 118.2C390.73 118.71 391.07 119.13 391.58 119.13C392.09 119.13 392.6 118.71 392.7 118.2L394.32 110.39C394.43 109.88 394.09 109.46 393.58 109.46Z" fill="#B5B6D3"/>
<path fill-rule="evenodd" clip-rule="evenodd" d="M389.2 109.46C388.69 109.46 388.18 109.88 388.08 110.39L386.46 118.2C386.35 118.71 386.68 119.13 387.19 119.13C387.7 119.13 388.21 118.71 388.31 118.2L389.93 110.39C390.04 109.88 389.7 109.46 389.2 109.46Z" fill="#B5B6D3"/>
<path fill-rule="evenodd" clip-rule="evenodd" d="M415.22 87.26H323.74C322.74 87.26 321.75 88.08 321.54 89.08C321.33 90.08 321.98 90.9 322.98 90.9H414.46C415.46 90.9 416.45 90.08 416.66 89.08C416.87 88.08 416.22 87.26 415.22 87.26Z" fill="#D0D0E6"/>
<path fill-rule="evenodd" clip-rule="evenodd" d="M404.1 133.28H315.7C315.31 133.28 314.92 133.6 314.84 133.99C314.76 134.38 315.01 134.7 315.4 134.7H403.8C404.19 134.7 404.58 134.38 404.66 133.99C404.74 133.6 404.49 133.28 404.09 133.28H404.1ZM400.93 148.53H312.53C312.14 148.53 311.75 148.85 311.67 149.24C311.59 149.63 311.84 149.95 312.23 149.95H400.63C401.02 149.95 401.41 149.63 401.49 149.24C401.57 148.85 401.32 148.53 400.93 148.53ZM401.57 145.48H313.17C312.78 145.48 312.39 145.8 312.31 146.19C312.23 146.58 312.48 146.9 312.87 146.9H401.27C401.66 146.9 402.05 146.58 402.13 146.19C402.21 145.8 401.96 145.48 401.56 145.48H401.57ZM402.2 142.43H313.8C313.41 142.43 313.02 142.75 312.94 143.14C312.86 143.53 313.11 143.85 313.5 143.85H401.9C402.29 143.85 402.68 143.53 402.76 143.14C402.84 142.75 402.59 142.43 402.2 142.43ZM402.83 139.38H314.43C314.04 139.38 313.65 139.7 313.57 140.09C313.49 140.48 313.74 140.8 314.13 140.8H402.53C402.92 140.8 403.31 140.48 403.39 140.09C403.47 139.7 403.22 139.38 402.82 139.38H402.83ZM403.47 136.33H315.07C314.68 136.33 314.29 136.65 314.21 137.04C314.13 137.43 314.38 137.75 314.77 137.75H403.17C403.56 137.75 403.95 137.43 404.03 137.04C404.11 136.65 403.86 136.33 403.47 136.33Z" fill="#B5B6D3"/>
<path fill-rule="evenodd" clip-rule="evenodd" d="M346.8 134.7H353.42C352.82 134.33 352.21 134.04 351.58 133.83L347.09 133.73L346.8 134.7ZM346.32 136.32L345.9 137.75H356.84C356.41 137.24 355.96 136.76 355.49 136.32H346.32ZM345.41 139.37L344.99 140.8H359.07C358.76 140.31 358.43 139.84 358.1 139.37H345.41ZM344.51 142.42L344.09 143.85H360.84C360.59 143.38 360.33 142.9 360.06 142.42H344.51ZM343.61 145.47L343.19 146.9H362.33C362.12 146.44 361.9 145.96 361.67 145.47H343.61ZM342.7 148.52L342.28 149.95H363.57C363.4 149.51 363.22 149.03 363.01 148.52H342.7Z" fill="#9295BC"/>
<path fill-rule="evenodd" clip-rule="evenodd" d="M326.79 107.87H325.18C324.6 107.87 324.02 108.35 323.9 108.93L322.93 113.58C322.81 114.16 323.19 114.64 323.77 114.64H325.38C325.96 114.64 326.54 114.16 326.66 113.58L327.63 108.93C327.75 108.35 327.37 107.87 326.79 107.87Z" fill="#B5B6D3"/>
<path fill-rule="evenodd" clip-rule="evenodd" d="M329.57 97.87H326.56C325.47 97.87 324.4 98.76 324.17 99.85L322.36 108.56C322.13 109.65 322.84 110.54 323.93 110.54H326.94C328.03 110.54 329.11 109.65 329.33 108.56L331.14 99.85C331.37 98.76 330.66 97.87 329.57 97.87Z" fill="#D0D0E6"/>
<path fill-rule="evenodd" clip-rule="evenodd" d="M380.35 94.78H340.27C339.44 94.78 338.62 95.46 338.45 96.28L333.44 120.36C333.27 121.19 333.8 121.86 334.63 121.86H374.71C375.54 121.86 376.36 121.18 376.53 120.36L381.54 96.28C381.71 95.45 381.18 94.78 380.35 94.78Z" fill="#D0D0E6"/>
<path fill-rule="evenodd" clip-rule="evenodd" d="M377.49 98.27H355.95C355.51 98.27 355.08 98.63 354.99 99.06C354.9 99.5 355.18 99.85 355.62 99.85H377.16C377.6 99.85 378.03 99.49 378.12 99.06C378.21 98.62 377.93 98.27 377.49 98.27Z" fill="white"/>
<path fill-rule="evenodd" clip-rule="evenodd" d="M376.66 102.23H342.68C342.24 102.23 341.81 102.59 341.72 103.02C341.63 103.46 341.91 103.81 342.35 103.81H376.33C376.77 103.81 377.2 103.45 377.29 103.02C377.38 102.58 377.1 102.23 376.66 102.23Z" fill="#B5B6D3"/>
<path fill-rule="evenodd" clip-rule="evenodd" d="M375.83 106.27H341.85C341.41 106.27 340.98 106.63 340.89 107.06C340.8 107.49 341.08 107.85 341.52 107.85H375.5C375.94 107.85 376.37 107.49 376.46 107.06C376.55 106.62 376.27 106.27 375.83 106.27Z" fill="#B5B6D3"/>
<path fill-rule="evenodd" clip-rule="evenodd" d="M374.98 110.31H341C340.56 110.31 340.13 110.67 340.04 111.1C339.95 111.54 340.23 111.89 340.67 111.89H374.65C375.08 111.89 375.52 111.53 375.61 111.1C375.7 110.66 375.42 110.31 374.98 110.31Z" fill="#B5B6D3"/>
<path fill-rule="evenodd" clip-rule="evenodd" d="M340.16 114.35C339.73 114.35 339.29 114.71 339.21 115.14C339.12 115.58 339.4 115.93 339.83 115.93H373.81C374.25 115.93 374.68 115.57 374.77 115.14C374.86 114.7 374.58 114.35 374.15 114.35H340.16Z" fill="#B5B6D3"/>
<path fill-rule="evenodd" clip-rule="evenodd" d="M373.3 118.38H339.32C338.88 118.38 338.45 118.74 338.36 119.17C338.27 119.61 338.55 119.96 338.99 119.96H372.97C373.41 119.96 373.84 119.6 373.93 119.17C374.02 118.73 373.74 118.38 373.3 118.38Z" fill="#B5B6D3"/>
<path fill-rule="evenodd" clip-rule="evenodd" d="M343.51 98.27H351.97C352.41 98.27 352.69 98.63 352.6 99.06C352.51 99.5 352.08 99.85 351.64 99.85H343.18C342.74 99.85 342.46 99.49 342.55 99.06C342.64 98.62 343.07 98.27 343.51 98.27Z" fill="#B5B6D3"/>
<path fill-rule="evenodd" clip-rule="evenodd" d="M350.46 134.32C349.72 134.32 348.54 134.51 348.54 133.77C348.54 133.03 349.14 132.42 349.89 132.42H376.62C377.42 132.41 381.81 132.57 382.16 137.76C382.28 139.49 383 144.89 383.83 150.73C384.63 156.41 385.57 162.81 386.1 166.37C386.25 167.36 386.34 168.37 386.34 169.36C386.34 171.39 385.98 173.36 385.02 174.96C384 176.66 382.37 177.88 379.9 178.25C379.41 178.32 378.89 178.36 378.35 178.36H349.76C349.01 178.36 348.41 177.76 348.41 177.01C348.41 176.26 349.65 176.57 350.39 176.57L355.21 175.66C355.63 175.66 356.02 175.63 356.37 175.58C357.94 175.35 358.96 174.6 359.57 173.57C360.24 172.44 360.5 170.94 360.5 169.35C360.5 168.48 360.42 167.6 360.3 166.75C359.8 163.36 358.58 157.15 357.73 151.09C356.9 145.19 356.16 139.71 356.04 137.93C355.85 135.18 353.66 135.1 353.28 135.1C353.23 135.1 353.19 135.1 353.14 135.1L350.47 134.31L350.46 134.32Z" fill="#B5B6D3"/>
<path fill-rule="evenodd" clip-rule="evenodd" d="M348.44 135.11C347.7 135.11 347.09 134.51 347.09 133.76C347.09 133.01 347.69 132.41 348.44 132.41H351.18C351.98 132.4 356.36 132.56 356.72 137.75C356.84 139.48 357.57 144.88 358.39 150.72C359.19 156.4 360.13 162.8 360.66 166.36C360.81 167.35 360.89 168.36 360.89 169.35C360.89 171.38 360.53 173.35 359.57 174.95C358.55 176.65 356.92 177.87 354.45 178.24C353.96 178.31 353.44 178.35 352.9 178.35H345.59C344.85 178.35 344.24 177.75 344.24 177C344.24 176.25 344.84 175.65 345.59 175.65H352.9C353.32 175.65 353.71 175.62 354.06 175.57C355.63 175.34 356.65 174.59 357.26 173.56C357.93 172.43 358.19 170.93 358.19 169.34C358.19 168.47 358.11 167.59 357.99 166.74C357.49 163.35 356.58 157.14 355.72 151.08C354.89 145.18 354.15 139.7 354.03 137.92C353.84 135.17 351.65 135.09 351.27 135.09C351.22 135.09 351.18 135.09 351.13 135.09H348.44V135.11Z" fill="white"/>
<path fill-rule="evenodd" clip-rule="evenodd" d="M259.6 68.66C261.55 77.69 269.63 84.52 279.23 84.52H307.27V108.52C307.27 112.56 303.97 115.86 299.93 115.86H250.91L238.4 128.37C238.16 128.61 237.82 128.68 237.51 128.55C237.2 128.42 237 128.13 237 127.79V76C237 71.96 240.3 68.66 244.34 68.66H259.61H259.6Z" fill="#C0CDEA"/>
<path fill-rule="evenodd" clip-rule="evenodd" d="M298.1 66.52H242.51C238.47 66.52 235.17 69.82 235.17 73.86V125.65C235.17 125.99 235.36 126.28 235.68 126.41C235.99 126.54 236.33 126.47 236.57 126.23L249.08 113.72H298.1C302.14 113.72 305.44 110.42 305.44 106.38V73.86C305.44 69.82 302.14 66.52 298.1 66.52Z" fill="#4C8784"/>
<path d="M260.006 95.041H258.287V98H255.338V95.041H249.244V92.9414L255.504 83.7227H258.287V92.6973H260.006V95.041ZM255.338 92.6973V90.2754C255.338 89.8718 255.354 89.2858 255.387 88.5176C255.419 87.7494 255.445 87.3034 255.465 87.1797H255.387C255.146 87.7135 254.856 88.2344 254.518 88.7422L251.9 92.6973H255.338Z" fill="white"/>
<path d="M271.031 90.8613C271.031 93.3548 270.621 95.2005 269.801 96.3984C268.987 97.5964 267.73 98.1953 266.031 98.1953C264.384 98.1953 263.141 97.5768 262.301 96.3399C261.467 95.1029 261.051 93.2767 261.051 90.8613C261.051 88.3418 261.458 86.4863 262.271 85.2949C263.085 84.097 264.339 83.4981 266.031 83.4981C267.678 83.4981 268.922 84.1231 269.762 85.3731C270.608 86.6231 271.031 88.4525 271.031 90.8613ZM264.049 90.8613C264.049 92.6126 264.199 93.8691 264.498 94.6309C264.804 95.3861 265.315 95.7637 266.031 95.7637C266.734 95.7637 267.242 95.3796 267.555 94.6113C267.867 93.8431 268.023 92.5931 268.023 90.8613C268.023 89.11 267.864 87.8535 267.545 87.0918C267.232 86.3236 266.728 85.9395 266.031 85.9395C265.322 85.9395 264.814 86.3236 264.508 87.0918C264.202 87.8535 264.049 89.11 264.049 90.8613Z" fill="white"/>
<path d="M282.857 95.041H281.139V98H278.189V95.041H272.096V92.9414L278.355 83.7227H281.139V92.6973H282.857V95.041ZM278.189 92.6973V90.2754C278.189 89.8718 278.206 89.2858 278.238 88.5176C278.271 87.7494 278.297 87.3034 278.316 87.1797H278.238C277.997 87.7135 277.708 88.2344 277.369 88.7422L274.752 92.6973H278.189Z" fill="white"/>
<path d="M292.438 93.2637H290.055L289.557 83.7227H292.936L292.438 93.2637ZM289.518 96.6035C289.518 96.0566 289.664 95.6432 289.957 95.3633C290.25 95.0833 290.676 94.9434 291.236 94.9434C291.777 94.9434 292.193 95.0866 292.486 95.3731C292.786 95.6595 292.936 96.0697 292.936 96.6035C292.936 97.1178 292.786 97.5247 292.486 97.8242C292.187 98.1172 291.77 98.2637 291.236 98.2637C290.689 98.2637 290.266 98.1205 289.967 97.834C289.667 97.541 289.518 97.1309 289.518 96.6035Z" fill="white"/>
<path d="M458.33 271.44H352.57C350.433 271.44 348.7 273.173 348.7 275.31V383.72C348.7 385.857 350.433 387.59 352.57 387.59H458.33C460.467 387.59 462.2 385.857 462.2 383.72V275.31C462.2 273.173 460.467 271.44 458.33 271.44Z" fill="white"/>
<path d="M480.21 271.44C482.34 271.44 484.08 273.17 484.08 275.31V383.72C484.08 385.85 482.35 387.59 480.21 387.59H441.93C439.8 387.59 438.06 385.86 438.06 383.72V275.31C438.06 273.18 439.79 271.44 441.93 271.44H480.21Z" fill="#B5B6D3"/>
<path d="M447.35 280.86H474.8C475.97 280.86 476.91 281.81 476.91 282.97V284.87C476.91 286.04 475.96 286.98 474.8 286.98H447.34C446.18 286.98 445.23 286.04 445.23 284.87V282.96C445.23 281.79 446.18 280.85 447.34 280.85L447.35 280.86Z" fill="#151D3D"/>
<path fill-rule="evenodd" clip-rule="evenodd" d="M474.18 282.98C474.18 281.82 473.23 280.87 472.07 280.87H474.8C475.96 280.87 476.91 281.82 476.91 282.98V284.88C476.91 286.04 475.96 286.99 474.8 286.99H472.07C472.2 286.99 474.18 286.04 474.18 284.88V282.98Z" fill="#33385C"/>
<path d="M474.8 290.29C475.97 290.29 476.91 291.24 476.91 292.4V294.31C476.91 295.47 475.96 296.42 474.8 296.42H447.34C446.18 296.42 445.23 295.48 445.23 294.31V292.4C445.23 291.23 446.18 290.29 447.34 290.29H474.8Z" fill="#151D3D"/>
<path fill-rule="evenodd" clip-rule="evenodd" d="M474.18 292.4C474.18 291.24 473.23 290.29 472.07 290.29H474.8C475.96 290.29 476.91 291.24 476.91 292.4V294.31C476.91 295.47 475.96 296.42 474.8 296.42H472.07C472.2 296.42 474.18 295.47 474.18 294.31V292.4Z" fill="#33385C"/>
<path d="M447.34 299.72H474.8C475.97 299.72 476.91 300.67 476.91 301.83V303.74C476.91 304.91 475.96 305.85 474.8 305.85H447.34C446.18 305.85 445.23 304.91 445.23 303.74V301.83C445.23 300.67 446.18 299.72 447.34 299.72Z" fill="#151D3D"/>
<path fill-rule="evenodd" clip-rule="evenodd" d="M474.18 301.83C474.18 300.67 473.23 299.72 472.07 299.72H474.8C475.96 299.72 476.91 300.67 476.91 301.83V303.74C476.91 304.9 475.96 305.85 474.8 305.85H472.07C472.2 305.85 474.18 304.9 474.18 303.74V301.83Z" fill="#33385C"/>
<path d="M474.8 309.15C475.97 309.15 476.91 310.1 476.91 311.26V313.17C476.91 314.33 475.96 315.28 474.8 315.28H447.34C446.18 315.28 445.23 314.34 445.23 313.17V311.26C445.23 310.09 446.18 309.15 447.34 309.15H474.8Z" fill="#151D3D"/>
<path fill-rule="evenodd" clip-rule="evenodd" d="M474.18 311.26C474.18 310.1 473.23 309.15 472.07 309.15H474.8C475.96 309.15 476.91 310.1 476.91 311.26V313.17C476.91 314.33 475.96 315.28 474.8 315.28H472.07C472.2 315.28 474.18 314.33 474.18 313.17V311.26Z" fill="#33385C"/>
<path d="M469.06 337.4C473.81 337.4 477.66 341.25 477.66 346V362.17C477.66 366.92 473.81 370.77 469.06 370.77H453.07C448.32 370.77 444.47 366.92 444.47 362.17V346C444.47 341.25 448.32 337.4 453.07 337.4H469.06Z" fill="#151D3D"/>
<path fill-rule="evenodd" clip-rule="evenodd" d="M474.46 346C474.46 341.27 470.59 337.4 465.86 337.4H469.07C473.8 337.4 477.67 341.27 477.67 346V362.17C477.67 366.9 473.8 370.77 469.07 370.77H465.86C470.59 370.77 474.46 366.9 474.46 362.17V346Z" fill="#33385C"/>
<path fill-rule="evenodd" clip-rule="evenodd" d="M462.04 337.4H460.11V347.08C456.98 347.51 454.5 349.99 454.07 353.12H444.39V355.05H454.07C454.5 358.18 456.98 360.66 460.11 361.09V370.77H462.04V361.09C465.17 360.66 467.66 358.18 468.08 355.05H477.76V353.12H468.08C467.65 349.99 465.17 347.51 462.04 347.08V337.4ZM461.08 359.25C458.23 359.25 455.92 356.94 455.92 354.09C455.92 351.24 458.23 348.93 461.08 348.93C463.93 348.93 466.24 351.24 466.24 354.09C466.24 356.94 463.93 359.25 461.08 359.25Z" fill="#484E78"/>
<path d="M456.89 328.38H446.59C445.425 328.38 444.48 329.325 444.48 330.49V332.4C444.48 333.565 445.425 334.51 446.59 334.51H456.89C458.055 334.51 459 333.565 459 332.4V330.49C459 329.325 458.055 328.38 456.89 328.38Z" fill="#151D3D"/>
<path fill-rule="evenodd" clip-rule="evenodd" d="M456.27 330.49C456.27 329.33 455.32 328.38 454.16 328.38H456.89C458.05 328.38 459 329.33 459 330.49V332.4C459 333.56 458.05 334.51 456.89 334.51H454.16C454.29 334.51 456.27 333.56 456.27 332.4V330.49Z" fill="#33385C"/>
<path d="M446.59 319.23H456.89C458.06 319.23 459 320.18 459 321.34V323.25C459 324.41 458.05 325.36 456.89 325.36H446.59C445.42 325.36 444.48 324.41 444.48 323.25V321.34C444.48 320.17 445.43 319.23 446.59 319.23Z" fill="#151D3D"/>
<path fill-rule="evenodd" clip-rule="evenodd" d="M456.27 321.34C456.27 320.18 455.32 319.23 454.16 319.23H456.89C458.05 319.23 459 320.18 459 321.34V323.25C459 324.41 458.05 325.36 456.89 325.36H454.16C454.29 325.36 456.27 324.41 456.27 323.25V321.34Z" fill="#33385C"/>
<path d="M372.2 283.24H397.87C405.49 283.24 411.68 289.43 411.68 297.05V323.02C411.68 330.64 405.49 336.83 397.87 336.83H372.2C364.58 336.83 358.39 330.64 358.39 323.02V297.05C358.39 289.43 364.58 283.24 372.2 283.24Z" fill="#B5B6D3"/>
<path d="M373.06 285.04H397C404.11 285.04 409.88 290.81 409.88 297.92V322.15C409.88 329.26 404.11 335.03 397 335.03H373.05C365.94 335.03 360.17 329.26 360.17 322.15V297.92C360.17 290.81 365.94 285.04 373.05 285.04H373.06Z" fill="#DCDCEE"/>
<path fill-rule="evenodd" clip-rule="evenodd" d="M364.29 331.57C366.59 333.72 369.68 335.03 373.06 335.03H397C404.08 335.03 409.88 329.24 409.88 322.15V303H398.8V289.42H372.4V318.2H364.29V331.57Z" fill="#CDCDE2"/>
<path fill-rule="evenodd" clip-rule="evenodd" d="M422.49 346.43H420.91C421.14 346.91 421.63 347.24 422.2 347.24C422.77 347.24 423.22 346.93 423.47 346.48C423.15 346.44 422.82 346.42 422.49 346.42V346.43ZM419.75 346.43H417.16C417.39 346.91 417.88 347.24 418.45 347.24C419.02 347.24 419.51 346.91 419.74 346.43H419.75ZM416 346.43H413.41C413.64 346.91 414.14 347.24 414.7 347.24C415.26 347.24 415.76 346.91 415.99 346.43H416ZM412.25 346.43H409.66C409.89 346.91 410.38 347.24 410.95 347.24C411.52 347.24 412.01 346.91 412.25 346.43ZM408.5 346.43H406.92C406.59 346.43 406.26 346.45 405.94 346.49C406.18 346.94 406.66 347.25 407.2 347.25C407.74 347.25 408.26 346.92 408.49 346.44L408.5 346.43ZM404.51 346.79C404.11 346.91 403.72 347.06 403.35 347.24C403.39 347.24 403.43 347.24 403.46 347.24C403.87 347.24 404.25 347.07 404.51 346.78V346.79ZM400.99 348.91C400.39 349.52 399.88 350.21 399.48 350.98C399.55 350.99 399.63 351 399.7 351C400.49 351 401.14 350.36 401.14 349.56C401.14 349.33 401.08 349.11 400.99 348.91ZM399.02 352.05C398.78 352.73 398.63 353.44 398.57 354.18C398.83 354.52 399.24 354.74 399.71 354.74C400.5 354.74 401.15 354.1 401.15 353.3C401.15 352.5 400.51 351.87 399.71 351.87C399.46 351.87 399.23 351.93 399.02 352.05ZM398.55 357.9C398.81 358.26 399.23 358.49 399.71 358.49C400.5 358.49 401.15 357.85 401.15 357.05C401.15 356.25 400.51 355.61 399.71 355.61C399.23 355.61 398.81 355.84 398.55 356.2V357.9ZM398.55 359.96V361.65C398.81 362.01 399.23 362.24 399.71 362.24C400.5 362.24 401.15 361.6 401.15 360.81C401.15 360.02 400.51 359.37 399.71 359.37C399.23 359.37 398.81 359.6 398.55 359.96ZM398.55 363.71V365.4C398.81 365.76 399.23 365.99 399.71 365.99C400.5 365.99 401.15 365.35 401.15 364.56C401.15 363.77 400.51 363.12 399.71 363.12C399.23 363.12 398.81 363.35 398.55 363.71ZM398.55 369.15C398.81 369.51 399.23 369.74 399.71 369.74C400.5 369.74 401.15 369.1 401.15 368.3C401.15 367.5 400.51 366.86 399.71 366.86C399.23 366.86 398.81 367.09 398.55 367.45V369.15ZM398.57 371.18C398.62 371.92 398.78 372.64 399.02 373.32C399.23 373.43 399.46 373.5 399.71 373.5C400.5 373.5 401.15 372.86 401.15 372.06C401.15 371.26 400.51 370.63 399.71 370.63C399.25 370.63 398.84 370.85 398.57 371.19V371.18ZM399.48 374.39C399.88 375.15 400.39 375.85 400.99 376.45C401.09 376.26 401.14 376.04 401.14 375.8C401.14 375.01 400.5 374.36 399.7 374.36C399.62 374.36 399.55 374.36 399.48 374.38V374.39ZM403.34 378.13C403.71 378.31 404.1 378.46 404.5 378.58C404.24 378.3 403.86 378.13 403.45 378.13C403.41 378.13 403.37 378.13 403.34 378.13ZM405.94 378.88C406.26 378.92 406.59 378.94 406.92 378.94H408.5C408.27 378.46 407.78 378.13 407.21 378.13C406.64 378.13 406.19 378.43 405.95 378.88H405.94ZM409.66 378.94H412.25C412.02 378.46 411.52 378.13 410.95 378.13C410.38 378.13 409.89 378.46 409.66 378.94ZM413.41 378.94H416C415.77 378.46 415.28 378.13 414.71 378.13C414.14 378.13 413.65 378.46 413.42 378.94H413.41ZM417.16 378.94H419.75C419.52 378.46 419.03 378.13 418.46 378.13C417.89 378.13 417.4 378.46 417.17 378.94H417.16ZM420.91 378.94H422.49C422.82 378.94 423.15 378.92 423.47 378.88C423.23 378.43 422.75 378.13 422.2 378.13C421.65 378.13 421.14 378.46 420.91 378.94ZM424.91 378.58C425.31 378.46 425.7 378.31 426.07 378.13C426.03 378.13 426 378.13 425.96 378.13C425.54 378.13 425.17 378.3 424.91 378.58ZM428.42 376.46C429.02 375.85 429.53 375.16 429.93 374.4C429.85 374.39 429.78 374.38 429.7 374.38C428.91 374.38 428.26 375.02 428.26 375.82C428.26 376.05 428.32 376.28 428.41 376.47L428.42 376.46ZM430.39 373.32C430.63 372.64 430.78 371.93 430.84 371.18C430.58 370.84 430.17 370.62 429.7 370.62C428.91 370.62 428.26 371.26 428.26 372.05C428.26 372.84 428.9 373.49 429.7 373.49C429.95 373.49 430.19 373.43 430.39 373.31V373.32ZM430.86 367.47C430.6 367.11 430.18 366.88 429.7 366.88C428.91 366.88 428.26 367.52 428.26 368.32C428.26 369.12 428.9 369.76 429.7 369.76C430.18 369.76 430.6 369.53 430.86 369.17V367.47ZM430.86 365.41V363.72C430.6 363.36 430.18 363.13 429.7 363.13C428.91 363.13 428.26 363.77 428.26 364.57C428.26 365.37 428.9 366 429.7 366C430.18 366 430.6 365.77 430.86 365.41ZM430.86 361.66V359.97C430.6 359.61 430.18 359.38 429.7 359.38C428.91 359.38 428.26 360.02 428.26 360.82C428.26 361.62 428.9 362.25 429.7 362.25C430.18 362.25 430.6 362.02 430.86 361.66ZM430.86 356.22C430.6 355.86 430.18 355.63 429.7 355.63C428.91 355.63 428.26 356.27 428.26 357.07C428.26 357.87 428.9 358.51 429.7 358.51C430.18 358.51 430.6 358.28 430.86 357.92V356.22ZM430.84 354.19C430.79 353.45 430.63 352.73 430.39 352.06C430.19 351.95 429.95 351.88 429.7 351.88C428.91 351.88 428.26 352.52 428.26 353.31C428.26 354.1 428.9 354.75 429.7 354.75C430.16 354.75 430.57 354.53 430.84 354.19ZM429.93 350.98C429.53 350.22 429.02 349.52 428.42 348.91C428.32 349.11 428.27 349.33 428.27 349.56C428.27 350.35 428.91 351 429.71 351C429.79 351 429.86 351 429.94 350.98H429.93ZM426.07 347.25C425.7 347.07 425.31 346.92 424.91 346.8C425.17 347.08 425.54 347.26 425.96 347.26C426 347.26 426.04 347.26 426.07 347.26V347.25ZM403.46 377.25C402.67 377.25 402.02 376.61 402.02 375.81C402.02 375.01 402.66 374.37 403.46 374.37C404.26 374.37 404.89 375.01 404.89 375.81C404.89 376.61 404.25 377.25 403.46 377.25ZM407.21 377.25C406.42 377.25 405.77 376.61 405.77 375.81C405.77 375.01 406.41 374.37 407.21 374.37C408.01 374.37 408.64 375.01 408.64 375.81C408.64 376.61 408 377.25 407.21 377.25ZM410.96 377.25C410.17 377.25 409.52 376.61 409.52 375.81C409.52 375.01 410.16 374.37 410.96 374.37C411.76 374.37 412.4 375.01 412.4 375.81C412.4 376.61 411.76 377.25 410.96 377.25ZM414.71 377.25C413.92 377.25 413.28 376.61 413.28 375.81C413.28 375.01 413.92 374.37 414.71 374.37C415.5 374.37 416.15 375.01 416.15 375.81C416.15 376.61 415.51 377.25 414.71 377.25ZM418.46 377.25C417.67 377.25 417.02 376.61 417.02 375.81C417.02 375.01 417.66 374.37 418.46 374.37C419.26 374.37 419.9 375.01 419.9 375.81C419.9 376.61 419.26 377.25 418.46 377.25ZM422.21 377.25C421.42 377.25 420.78 376.61 420.78 375.81C420.78 375.01 421.42 374.37 422.21 374.37C423 374.37 423.65 375.01 423.65 375.81C423.65 376.61 423.01 377.25 422.21 377.25ZM425.96 377.25C425.17 377.25 424.52 376.61 424.52 375.81C424.52 375.01 425.16 374.37 425.96 374.37C426.76 374.37 427.39 375.01 427.39 375.81C427.39 376.61 426.75 377.25 425.96 377.25ZM403.47 370.63C402.68 370.63 402.03 371.27 402.03 372.06C402.03 372.85 402.67 373.5 403.47 373.5C404.27 373.5 404.9 372.86 404.9 372.06C404.9 371.26 404.26 370.63 403.47 370.63ZM407.22 370.63C406.43 370.63 405.78 371.27 405.78 372.06C405.78 372.85 406.42 373.5 407.22 373.5C408.02 373.5 408.65 372.86 408.65 372.06C408.65 371.26 408.01 370.63 407.22 370.63ZM410.97 370.63C410.18 370.63 409.53 371.27 409.53 372.06C409.53 372.85 410.17 373.5 410.97 373.5C411.77 373.5 412.41 372.86 412.41 372.06C412.41 371.26 411.77 370.63 410.97 370.63ZM414.72 370.63C413.93 370.63 413.29 371.27 413.29 372.06C413.29 372.85 413.93 373.5 414.72 373.5C415.51 373.5 416.16 372.86 416.16 372.06C416.16 371.26 415.52 370.63 414.72 370.63ZM418.47 370.63C417.68 370.63 417.03 371.27 417.03 372.06C417.03 372.85 417.67 373.5 418.47 373.5C419.27 373.5 419.91 372.86 419.91 372.06C419.91 371.26 419.27 370.63 418.47 370.63ZM422.22 370.63C421.43 370.63 420.79 371.27 420.79 372.06C420.79 372.85 421.43 373.5 422.22 373.5C423.01 373.5 423.66 372.86 423.66 372.06C423.66 371.26 423.02 370.63 422.22 370.63ZM425.97 370.63C425.18 370.63 424.53 371.27 424.53 372.06C424.53 372.85 425.17 373.5 425.97 373.5C426.77 373.5 427.4 372.86 427.4 372.06C427.4 371.26 426.76 370.63 425.97 370.63ZM403.48 369.75C402.69 369.75 402.04 369.11 402.04 368.31C402.04 367.51 402.68 366.87 403.48 366.87C404.28 366.87 404.91 367.51 404.91 368.31C404.91 369.11 404.27 369.75 403.48 369.75ZM407.23 369.75C406.44 369.75 405.79 369.11 405.79 368.31C405.79 367.51 406.43 366.87 407.23 366.87C408.03 366.87 408.66 367.51 408.66 368.31C408.66 369.11 408.02 369.75 407.23 369.75ZM410.98 369.75C410.19 369.75 409.54 369.11 409.54 368.31C409.54 367.51 410.18 366.87 410.98 366.87C411.78 366.87 412.42 367.51 412.42 368.31C412.42 369.11 411.78 369.75 410.98 369.75ZM414.73 369.75C413.94 369.75 413.3 369.11 413.3 368.31C413.3 367.51 413.94 366.87 414.73 366.87C415.52 366.87 416.17 367.51 416.17 368.31C416.17 369.11 415.53 369.75 414.73 369.75ZM418.48 369.75C417.69 369.75 417.04 369.11 417.04 368.31C417.04 367.51 417.68 366.87 418.48 366.87C419.28 366.87 419.92 367.51 419.92 368.31C419.92 369.11 419.28 369.75 418.48 369.75ZM422.23 369.75C421.44 369.75 420.8 369.11 420.8 368.31C420.8 367.51 421.44 366.87 422.23 366.87C423.02 366.87 423.67 367.51 423.67 368.31C423.67 369.11 423.03 369.75 422.23 369.75ZM425.98 369.75C425.19 369.75 424.54 369.11 424.54 368.31C424.54 367.51 425.18 366.87 425.98 366.87C426.78 366.87 427.41 367.51 427.41 368.31C427.41 369.11 426.77 369.75 425.98 369.75ZM403.49 363.13C402.7 363.13 402.05 363.77 402.05 364.57C402.05 365.37 402.69 366 403.49 366C404.29 366 404.92 365.36 404.92 364.57C404.92 363.78 404.28 363.13 403.49 363.13ZM407.24 363.13C406.45 363.13 405.8 363.77 405.8 364.57C405.8 365.37 406.44 366 407.24 366C408.04 366 408.67 365.36 408.67 364.57C408.67 363.78 408.03 363.13 407.24 363.13ZM410.99 363.13C410.2 363.13 409.55 363.77 409.55 364.57C409.55 365.37 410.19 366 410.99 366C411.79 366 412.43 365.36 412.43 364.57C412.43 363.78 411.79 363.13 410.99 363.13ZM414.74 363.13C413.95 363.13 413.31 363.77 413.31 364.57C413.31 365.37 413.95 366 414.74 366C415.53 366 416.18 365.36 416.18 364.57C416.18 363.78 415.54 363.13 414.74 363.13ZM418.49 363.13C417.7 363.13 417.05 363.77 417.05 364.57C417.05 365.37 417.69 366 418.49 366C419.29 366 419.93 365.36 419.93 364.57C419.93 363.78 419.29 363.13 418.49 363.13ZM422.24 363.13C421.45 363.13 420.81 363.77 420.81 364.57C420.81 365.37 421.45 366 422.24 366C423.03 366 423.68 365.36 423.68 364.57C423.68 363.78 423.04 363.13 422.24 363.13ZM425.99 363.13C425.2 363.13 424.55 363.77 424.55 364.57C424.55 365.37 425.19 366 425.99 366C426.79 366 427.42 365.36 427.42 364.57C427.42 363.78 426.78 363.13 425.99 363.13ZM403.5 362.25C402.71 362.25 402.06 361.61 402.06 360.82C402.06 360.03 402.7 359.38 403.5 359.38C404.3 359.38 404.93 360.02 404.93 360.82C404.93 361.62 404.29 362.25 403.5 362.25ZM407.25 362.25C406.46 362.25 405.81 361.61 405.81 360.82C405.81 360.03 406.45 359.38 407.25 359.38C408.05 359.38 408.68 360.02 408.68 360.82C408.68 361.62 408.04 362.25 407.25 362.25ZM411 362.25C410.21 362.25 409.56 361.61 409.56 360.82C409.56 360.03 410.2 359.38 411 359.38C411.8 359.38 412.44 360.02 412.44 360.82C412.44 361.62 411.8 362.25 411 362.25ZM414.75 362.25C413.96 362.25 413.32 361.61 413.32 360.82C413.32 360.03 413.96 359.38 414.75 359.38C415.54 359.38 416.19 360.02 416.19 360.82C416.19 361.62 415.55 362.25 414.75 362.25ZM418.5 362.25C417.71 362.25 417.06 361.61 417.06 360.82C417.06 360.03 417.7 359.38 418.5 359.38C419.3 359.38 419.94 360.02 419.94 360.82C419.94 361.62 419.3 362.25 418.5 362.25ZM422.25 362.25C421.46 362.25 420.82 361.61 420.82 360.82C420.82 360.03 421.46 359.38 422.25 359.38C423.04 359.38 423.69 360.02 423.69 360.82C423.69 361.62 423.05 362.25 422.25 362.25ZM426 362.25C425.21 362.25 424.56 361.61 424.56 360.82C424.56 360.03 425.2 359.38 426 359.38C426.8 359.38 427.43 360.02 427.43 360.82C427.43 361.62 426.79 362.25 426 362.25ZM403.51 355.63C402.72 355.63 402.07 356.27 402.07 357.07C402.07 357.87 402.71 358.51 403.51 358.51C404.31 358.51 404.94 357.87 404.94 357.07C404.94 356.27 404.3 355.63 403.51 355.63ZM407.26 355.63C406.47 355.63 405.82 356.27 405.82 357.07C405.82 357.87 406.46 358.51 407.26 358.51C408.06 358.51 408.69 357.87 408.69 357.07C408.69 356.27 408.05 355.63 407.26 355.63ZM411.01 355.63C410.22 355.63 409.57 356.27 409.57 357.07C409.57 357.87 410.21 358.51 411.01 358.51C411.81 358.51 412.45 357.87 412.45 357.07C412.45 356.27 411.81 355.63 411.01 355.63ZM414.76 355.63C413.97 355.63 413.33 356.27 413.33 357.07C413.33 357.87 413.97 358.51 414.76 358.51C415.55 358.51 416.2 357.87 416.2 357.07C416.2 356.27 415.56 355.63 414.76 355.63ZM418.51 355.63C417.72 355.63 417.07 356.27 417.07 357.07C417.07 357.87 417.71 358.51 418.51 358.51C419.31 358.51 419.95 357.87 419.95 357.07C419.95 356.27 419.31 355.63 418.51 355.63ZM422.26 355.63C421.47 355.63 420.83 356.27 420.83 357.07C420.83 357.87 421.47 358.51 422.26 358.51C423.05 358.51 423.7 357.87 423.7 357.07C423.7 356.27 423.06 355.63 422.26 355.63ZM426.01 355.63C425.22 355.63 424.57 356.27 424.57 357.07C424.57 357.87 425.21 358.51 426.01 358.51C426.81 358.51 427.44 357.87 427.44 357.07C427.44 356.27 426.8 355.63 426.01 355.63ZM403.52 354.75C402.73 354.75 402.08 354.11 402.08 353.31C402.08 352.51 402.72 351.88 403.52 351.88C404.32 351.88 404.95 352.52 404.95 353.31C404.95 354.1 404.31 354.75 403.52 354.75ZM407.27 354.75C406.48 354.75 405.83 354.11 405.83 353.31C405.83 352.51 406.47 351.88 407.27 351.88C408.07 351.88 408.7 352.52 408.7 353.31C408.7 354.1 408.06 354.75 407.27 354.75ZM411.02 354.75C410.23 354.75 409.58 354.11 409.58 353.31C409.58 352.51 410.22 351.88 411.02 351.88C411.82 351.88 412.46 352.52 412.46 353.31C412.46 354.1 411.82 354.75 411.02 354.75ZM414.77 354.75C413.98 354.75 413.34 354.11 413.34 353.31C413.34 352.51 413.98 351.88 414.77 351.88C415.56 351.88 416.21 352.52 416.21 353.31C416.21 354.1 415.57 354.75 414.77 354.75ZM418.52 354.75C417.73 354.75 417.08 354.11 417.08 353.31C417.08 352.51 417.72 351.88 418.52 351.88C419.32 351.88 419.96 352.52 419.96 353.31C419.96 354.1 419.32 354.75 418.52 354.75ZM422.27 354.75C421.48 354.75 420.84 354.11 420.84 353.31C420.84 352.51 421.48 351.88 422.27 351.88C423.06 351.88 423.71 352.52 423.71 353.31C423.71 354.1 423.07 354.75 422.27 354.75ZM426.02 354.75C425.23 354.75 424.58 354.11 424.58 353.31C424.58 352.51 425.22 351.88 426.02 351.88C426.82 351.88 427.45 352.52 427.45 353.31C427.45 354.1 426.81 354.75 426.02 354.75ZM403.53 348.13C402.74 348.13 402.09 348.77 402.09 349.57C402.09 350.37 402.73 351.01 403.53 351.01C404.33 351.01 404.96 350.37 404.96 349.57C404.96 348.77 404.32 348.13 403.53 348.13ZM407.28 348.13C406.49 348.13 405.84 348.77 405.84 349.57C405.84 350.37 406.48 351.01 407.28 351.01C408.08 351.01 408.71 350.37 408.71 349.57C408.71 348.77 408.07 348.13 407.28 348.13ZM411.03 348.13C410.24 348.13 409.59 348.77 409.59 349.57C409.59 350.37 410.23 351.01 411.03 351.01C411.83 351.01 412.47 350.37 412.47 349.57C412.47 348.77 411.83 348.13 411.03 348.13ZM414.78 348.13C413.99 348.13 413.35 348.77 413.35 349.57C413.35 350.37 413.99 351.01 414.78 351.01C415.57 351.01 416.22 350.37 416.22 349.57C416.22 348.77 415.58 348.13 414.78 348.13ZM418.53 348.13C417.74 348.13 417.09 348.77 417.09 349.57C417.09 350.37 417.73 351.01 418.53 351.01C419.33 351.01 419.97 350.37 419.97 349.57C419.97 348.77 419.33 348.13 418.53 348.13ZM422.28 348.13C421.49 348.13 420.85 348.77 420.85 349.57C420.85 350.37 421.49 351.01 422.28 351.01C423.07 351.01 423.72 350.37 423.72 349.57C423.72 348.77 423.08 348.13 422.28 348.13ZM426.03 348.13C425.24 348.13 424.59 348.77 424.59 349.57C424.59 350.37 425.23 351.01 426.03 351.01C426.83 351.01 427.46 350.37 427.46 349.57C427.46 348.77 426.82 348.13 426.03 348.13Z" fill="#B5B6D3"/>
<path fill-rule="evenodd" clip-rule="evenodd" d="M390.06 376.86H355.55C354.98 376.86 354.52 377.33 354.52 377.9C354.52 378.47 354.99 378.94 355.55 378.94H390.06C390.63 378.94 391.1 378.47 391.1 377.9C391.1 377.33 390.63 376.86 390.06 376.86Z" fill="#B5B6D3"/>
<path fill-rule="evenodd" clip-rule="evenodd" d="M390.06 372.51H355.55C354.98 372.51 354.52 372.97 354.52 373.54C354.52 374.11 354.99 374.58 355.55 374.58H390.06C390.63 374.58 391.1 374.12 391.1 373.54C391.1 372.97 390.63 372.51 390.06 372.51Z" fill="#B5B6D3"/>
<path fill-rule="evenodd" clip-rule="evenodd" d="M390.06 368.17H355.55C354.98 368.17 354.52 368.64 354.52 369.2C354.52 369.77 354.99 370.23 355.55 370.23H390.06C390.63 370.23 391.1 369.77 391.1 369.2C391.1 368.63 390.63 368.17 390.06 368.17Z" fill="#B5B6D3"/>
<path fill-rule="evenodd" clip-rule="evenodd" d="M390.06 363.82H361.4C360.83 363.82 360.37 364.29 360.37 364.86C360.37 365.43 360.83 365.9 361.4 365.9H390.06C390.63 365.9 391.1 365.43 391.1 364.86C391.1 364.29 390.63 363.82 390.06 363.82Z" fill="#B5B6D3"/>
<path fill-rule="evenodd" clip-rule="evenodd" d="M390.06 359.47H355.55C354.98 359.47 354.52 359.94 354.52 360.5C354.52 361.07 354.99 361.54 355.55 361.54H390.06C390.63 361.54 391.1 361.07 391.1 360.5C391.1 359.93 390.63 359.47 390.06 359.47Z" fill="#B5B6D3"/>
<path fill-rule="evenodd" clip-rule="evenodd" d="M390.06 355.13H355.55C354.98 355.13 354.52 355.59 354.52 356.16C354.52 356.73 354.99 357.2 355.55 357.2H390.06C390.63 357.2 391.1 356.73 391.1 356.16C391.1 355.59 390.63 355.13 390.06 355.13Z" fill="#B5B6D3"/>
<path fill-rule="evenodd" clip-rule="evenodd" d="M383.65 350.78H355.55C354.98 350.78 354.52 351.25 354.52 351.81C354.52 352.38 354.99 352.85 355.55 352.85H383.65C384.22 352.85 384.69 352.38 384.69 351.81C384.69 351.24 384.22 350.78 383.65 350.78Z" fill="#B5B6D3"/>
<path fill-rule="evenodd" clip-rule="evenodd" d="M390.06 346.43H355.55C354.98 346.43 354.52 346.89 354.52 347.46C354.52 348.03 354.99 348.5 355.55 348.5H390.06C390.63 348.5 391.1 348.03 391.1 347.46C391.1 346.89 390.63 346.43 390.06 346.43Z" fill="#B5B6D3"/>
<path fill-rule="evenodd" clip-rule="evenodd" d="M357.06 363.82H355.55C354.98 363.82 354.52 364.29 354.52 364.86C354.52 365.43 354.99 365.9 355.55 365.9H357.06C357.63 365.9 358.09 365.43 358.09 364.86C358.09 364.29 357.63 363.82 357.06 363.82Z" fill="#B5B6D3"/>
<path fill-rule="evenodd" clip-rule="evenodd" d="M390.06 350.78H387.6C387.03 350.78 386.57 351.25 386.57 351.81C386.57 352.38 387.03 352.85 387.6 352.85H390.06C390.63 352.85 391.1 352.38 391.1 351.81C391.1 351.24 390.63 350.78 390.06 350.78Z" fill="#B5B6D3"/>
<path fill-rule="evenodd" clip-rule="evenodd" d="M377.59 285.04H373.06C369.24 285.04 365.8 286.72 363.43 289.39L405.68 331.64C408.26 329.28 409.88 325.89 409.88 322.15V317.33L377.59 285.04ZM402.01 334.01C400.47 334.67 398.77 335.03 396.99 335.03H395.62L360.16 299.57V297.92C360.16 296.22 360.49 294.59 361.1 293.1L402.01 334.01Z" fill="#EDEDF6"/>
</svg>
