<svg width="304" height="423" viewBox="0 0 304 423" fill="none" xmlns="http://www.w3.org/2000/svg">
<mask id="mask0_1035_3038" style="mask-type:alpha" maskUnits="userSpaceOnUse" x="0" y="0" width="304" height="423">
<rect width="303.631" height="423" fill="#D9D9D9"/>
</mask>
<g mask="url(#mask0_1035_3038)">
<path d="M28.5123 177.067C29.448 176.661 30.3837 176.258 31.3119 175.855C41.6246 176.203 51.9397 176.551 62.2574 176.896C60.7913 183.886 59.1852 190.847 57.8867 197.867C55.69 209.736 53.6836 221.642 51.597 233.531C49.2452 236.694 46.1354 239.547 44.7018 243.083C41.7546 250.35 39.7031 257.982 37.2838 265.464C31.4194 280.927 25.5526 296.387 19.6857 311.849C14.7345 326.088 9.78581 340.327 4.83962 354.563C1.7323 354.563 -1.38253 354.563 -5.59067 354.563V326.143C-6.54888 307.22 0.0560492 290.464 7.17136 273.234C12.5554 260.197 13.2309 245.197 15.8653 231.046C17.3765 222.928 18.6224 214.76 19.9834 206.618C28.8425 200.882 26.4958 191.866 26.7084 183.598L26.7159 183.59C27.3139 181.416 27.9118 179.239 28.5123 177.064V177.067Z" stroke="white" stroke-miterlimit="10"/>
<path d="M138.757 165.926C140.01 164.347 141.539 162.915 142.472 161.166C149.119 148.726 160.54 146.977 172.942 147.333C176.14 151.301 178.611 156.609 182.745 158.861C187.04 161.201 192.942 160.59 198.141 161.269C198.028 157.96 197.906 154.652 197.811 151.344C197.778 150.168 197.816 148.992 197.821 147.816C212.056 146.464 221.629 155.36 231.293 163.538C237.13 168.478 242.129 174.409 247.505 179.894C250.695 187.246 256.987 182.401 261.783 183.202C262.539 183.327 263.938 179.611 265.038 177.669C265.041 177.216 265.186 176.814 265.469 176.461C267.86 174.707 270.4 173.115 272.599 171.143C274.35 169.569 275.684 167.53 277.823 164.947C277.1 173.05 276.547 179.268 275.992 185.487C271.901 190.234 267.81 194.984 263.72 199.731C242.972 199.848 235.221 183.157 224.27 169.557C223.565 172.587 223.738 175.325 224.248 178.002C225.391 184.028 226.702 190.021 227.946 196.027C226.069 196.74 224.123 197.311 222.327 198.192C215.739 201.422 209.872 206.362 201.396 201.925C198.934 200.637 194.148 203.8 190.428 204.923C184.518 207.313 178.606 209.705 172.697 212.095C169.765 212.108 166.833 212.123 163.9 212.135C163.26 212.12 162.617 212.105 161.977 212.09C159.605 212.083 157.233 212.073 154.861 212.065C156.65 207.921 158.439 203.775 160.225 199.631C166.42 200.839 172.462 205.817 179.082 201.035C176.848 192.419 174.776 184.438 172.707 176.456C175.952 176.533 179.922 175.432 182.309 176.904C190.555 181.994 197.696 174.486 205.481 175.567C206.215 175.67 207.368 172.73 209.282 169.674C204.371 169.674 200.438 168.468 198.291 169.914C193.097 173.418 189.109 172.78 183.69 170.255C181.011 169.006 176.397 171.916 172.659 172.942C170.405 173.758 166.157 174.712 166.202 175.367C166.79 183.92 160.43 184.116 154.896 185.397C154.333 185.437 153.77 185.477 153.207 185.517C153.207 186.053 153.192 186.586 153.16 187.121C151.364 189.646 148.466 191.986 148.009 194.733C147.158 199.818 147.736 205.141 147.718 210.366C135.807 212.2 127.924 207.053 123.295 196.26C123.205 195.597 123.115 194.934 123.022 194.268C123.63 193.129 124.238 191.993 124.846 190.855C125.935 188.44 127.023 186.025 128.111 183.61C130.023 180.077 131.934 176.546 133.846 173.012C135.484 170.65 137.123 168.288 138.762 165.926H138.757ZM156.638 169.469C154.481 166.546 152.97 164.497 151.456 162.447C149.677 165.135 147.028 167.657 146.48 170.575C146.192 172.109 149.582 174.336 151.311 176.248C152.875 174.256 154.438 172.267 156.638 169.466V169.469Z" stroke="white" stroke-miterlimit="10"/>
<path d="M51.5972 233.531C53.6838 221.642 55.6878 209.736 57.8869 197.867C59.1879 190.847 60.7916 183.883 62.2577 176.896C67.5616 176.08 72.8681 175.265 78.172 174.451C78.795 174.539 79.4155 174.622 80.0359 174.707C81.3094 186.976 83.4185 199.228 83.6486 211.517C83.9539 227.67 82.7805 243.848 82.2426 260.017C81.5821 261.969 81.1418 264.028 80.2261 265.852C72.3252 281.598 68.2146 297.996 71.1718 315.713C73.2359 328.09 75.2098 340.479 77.2213 352.864C77.0987 353.497 76.9787 354.133 76.8536 354.766C73.2058 354.766 69.5581 354.766 65.9129 354.768C59.6858 335.672 54.7396 316.947 56.2657 295.941C57.7593 275.359 53.3911 254.351 51.5947 233.529L51.5972 233.531Z" stroke="white" stroke-miterlimit="10"/>
<path d="M77.2267 352.864C75.2127 340.479 73.2413 328.087 71.1772 315.713C68.22 297.993 72.3306 281.595 80.2315 265.852C81.1472 264.028 81.5875 261.968 82.2455 260.016C86.6688 255.45 90.8994 250.672 95.5629 246.363C104.765 237.86 116.078 233.791 128.205 231.647C131.092 230.365 133.979 229.084 136.866 227.803L138.925 228.121C139.371 228.816 139.816 229.515 140.259 230.21C140.406 231.209 140.554 232.21 140.702 233.208C141.33 233.876 141.96 234.547 142.588 235.215C143.153 235.265 143.714 235.345 144.269 235.458C144.84 235.403 145.41 235.348 145.978 235.293C152.435 238.864 158.895 242.437 165.352 246.008C167.336 248.463 169.853 250.665 171.147 253.443C172.363 256.053 172.283 259.266 172.771 262.214C170.309 261.263 167.699 260.577 165.41 259.311C157.759 255.079 150.224 250.64 142.643 246.278C139.603 244.969 136.563 243.663 133.524 242.354C131.742 242.337 129.959 242.317 128.177 242.299C121.485 244.749 114.79 247.202 108.097 249.651C107.069 250.825 106.041 251.996 105.01 253.17L105.135 253.052C99.5984 258.95 94.0593 264.849 88.5227 270.744C74.85 296.131 76.3486 321.098 90.8444 345.564C91.8226 347.218 94.297 347.984 96.0758 349.163C98.4876 350.694 101.705 351.68 103.176 353.85C109.891 363.767 119.954 366.469 130.854 368.389C144.192 370.736 160.219 362.208 165.67 349.138C168.65 344.994 171.632 340.847 174.614 336.701C175.843 333.045 177.071 329.389 178.302 325.733C179.143 313.623 180.028 301.519 180.704 289.4C180.744 288.682 179.08 287.866 178.21 287.098L175.645 277.401C175.212 273.314 174.777 269.228 174.344 265.144C180.939 264.178 183.724 268.905 184.637 273.717C187.144 286.945 188.755 300.343 190.721 313.673C188.477 323.08 186.236 332.484 183.991 341.891C177.249 351.207 170.506 360.526 163.761 369.843C138.96 387.039 104.242 382.492 85.7331 354.701C83.644 351.562 81.6075 348.387 79.2783 344.818C78.4877 347.921 77.8572 350.394 77.2267 352.866V352.864Z" stroke="white" stroke-miterlimit="10"/>
<path d="M40.8742 74.6898C30.559 73.859 19.6059 77.0021 10.8418 67.5704C8.62018 65.1806 2.49311 66.3192 -1.85263 66.0365C-9.66096 65.526 -16.8763 64.7627 -20.5366 55.8791C-24.9874 45.0762 -20.1438 34.5235 -8.61518 35.1516C6.62869 35.9824 14.8824 28.35 21.5999 16.5286C26.6837 7.58245 34.3869 2.84036 44.9998 3.58358C46.4634 3.68618 48.0571 3.79379 49.4056 3.34335C58.65 0.242853 65.8153 2.8754 71.1468 10.9082C68.042 13.5582 60.5689 11.4887 62.1776 19.2262L62.3778 19.9069C58.2697 22.2391 54.1642 24.5689 50.0561 26.9011C38.54 28.5427 33.9691 33.1296 36.9613 42.4837C38.1947 46.3374 44.0391 48.7147 47.7869 51.7627C48.8527 54.9808 49.916 58.1989 50.9543 61.3344C47.6018 65.7762 44.2367 70.233 40.8717 74.6898H40.8742Z" stroke="white" stroke-miterlimit="10"/>
<path d="M36.2854 133.397C32.0298 123.895 26.8259 114.691 23.7511 104.822C19.563 91.3787 26.0753 82.2949 40.9915 78.2485C44.5116 80.6784 48.4996 82.6503 51.4443 85.6482C55.8625 90.145 58.9974 96.5963 67.7864 93.5558C65.6423 88.1356 63.9636 83.899 62.2873 79.6599C67.156 82.5477 73.5107 84.3394 76.6005 88.536C84.614 99.4215 91.1889 111.368 98.3392 122.892C94.0235 125.787 89.7078 128.682 85.3921 131.578C85.1869 127.684 84.9843 123.79 84.8066 120.427C79.0799 120.795 74.3789 122.093 70.1907 121.137C63.2381 119.553 56.6156 116.521 49.8531 114.101C49.6079 113.971 49.3652 113.84 49.12 113.71L49.8331 114.121C50.491 117.884 51.149 121.648 51.8045 125.414C48.8223 128.827 45.8426 132.241 42.8604 135.654C40.6662 134.901 38.4746 134.15 36.2804 133.397H36.2854ZM82.9002 115.424C83.6833 115.029 84.4689 114.636 85.252 114.241C83.8409 111.423 82.4299 108.608 81.0188 105.79L79.0498 106.794C80.3333 109.669 81.6168 112.547 82.9002 115.422V115.424Z" stroke="white" stroke-miterlimit="10"/>
<path d="M304.043 254.749C304.428 259.516 304.813 264.281 305.201 269.048C297.813 270.457 301.228 275.517 301.878 279.415C302.334 282.143 303.495 284.751 304.751 288.704C295.514 285.284 288.258 282.598 281.005 279.913C280.525 279.933 280.055 280.001 279.589 280.121C279.579 279.445 279.569 278.772 279.559 278.097C280.322 275.191 281.085 272.283 281.851 269.378L279.409 261.673C277.067 260.587 274.726 259.501 272.384 258.415C270.913 253.413 270.6 245.112 267.725 244.099C261.879 242.039 260.503 237.963 258.193 233.789C261.231 233.609 264.268 233.431 267.305 233.251C268.696 233.256 270.087 233.261 271.478 233.266C277.71 234.534 283.943 235.806 290.175 237.074C294.798 242.965 299.419 248.856 304.043 254.749V254.749ZM294.783 259.251L294.916 261.618C296.615 261.348 298.316 261.075 300.015 260.805C299.942 260.287 299.872 259.769 299.799 259.251H294.783V259.251Z" stroke="white" stroke-miterlimit="10"/>
<path d="M190.423 204.926C194.143 203.802 198.932 200.639 201.391 201.928C209.87 206.365 215.737 201.425 222.321 198.194C224.115 197.313 226.064 196.743 227.938 196.03C228.526 196.668 229.117 197.306 229.705 197.947C232.056 202.521 234.411 207.095 236.765 211.67C235.899 212.946 235.031 214.222 234.165 215.498C234.446 216.84 234.728 218.179 235.008 219.52C235.159 221.92 235.306 224.32 235.454 226.722C235.959 227.74 236.462 228.756 236.965 229.775C236.932 230.921 236.9 232.067 236.87 233.216C236.234 233.381 235.599 233.546 234.963 233.711C224.886 234.837 214.811 235.963 204.733 237.092C200.578 237.194 196.422 237.297 192.267 237.397C189.91 234.212 187.553 231.026 185.196 227.84C186.26 225.696 187.323 223.551 187.778 222.628H197.798C203.042 224.074 208.284 225.521 213.527 226.967C208.989 215.338 205.176 204.032 190.675 205.131L190.423 204.931V204.926Z" stroke="white" stroke-miterlimit="10"/>
<path d="M172.755 78.2557C186.07 74.3119 206.553 84.9272 210.563 97.8547C214.238 109.696 201.544 131.352 190.728 131.685C190.691 130.073 190.656 128.459 190.618 126.848C192.107 118.242 193.595 109.636 195.131 100.76C189.752 100.255 186.56 99.9542 183.368 99.6539C180.433 97.3592 177.739 93.6156 174.511 93.0801C168.201 92.0291 168.554 88.7659 169.943 84.4743C170.638 82.3222 171.802 80.3227 172.755 78.2532V78.2557Z" stroke="white" stroke-miterlimit="10"/>
<path d="M281.005 279.911C288.258 282.596 295.511 285.281 304.751 288.702C303.495 284.75 302.331 282.14 301.879 279.413C301.228 275.514 297.815 270.454 305.201 269.045C305.849 278.972 306.582 288.894 307.122 298.829C307.615 307.898 307.9 316.979 308.276 326.055C303.557 326.643 304.633 336.498 297.313 332.92C297.03 332.239 296.747 331.558 296.467 330.878C296.162 331.526 295.859 332.174 295.554 332.822C294.933 333.002 294.315 333.185 293.695 333.365C292.509 332.139 291.323 330.913 290.135 329.686C289.9 327.752 289.664 325.818 289.427 323.883C289.081 321.336 288.869 318.761 288.368 316.246C285.957 304.127 283.467 292.022 281.003 279.911H281.005Z" stroke="white" stroke-miterlimit="10"/>
<path d="M204.671 377.806L203.888 377.913C203.888 377.913 203.1 377.858 203.097 377.858C200.678 372.43 198.259 367.005 195.839 361.577C195.211 358.127 194.586 354.676 193.958 351.225C195.069 348.9 196.18 346.578 197.29 344.253C202.347 343.7 205.246 335.059 211.861 340.367C211.781 342.752 211.699 345.139 211.619 347.524C210.128 347.962 208.636 348.397 207.143 348.835C207.233 349.368 207.323 349.904 207.413 350.437C208.729 350.612 210.048 350.784 211.363 350.96C211.669 351.4 211.929 351.883 212.299 352.258C212.467 352.426 212.857 352.371 213.145 352.416C213.327 348.059 213.51 343.705 213.693 339.348C213.693 337.336 213.688 335.322 213.685 333.31C215.319 330.295 216.955 327.279 218.589 324.264C219.277 323.556 219.967 322.85 220.655 322.142V335.089C222.614 338.863 224.826 343.122 227.043 347.379C229.057 352.088 231.066 356.803 233.075 361.515C233.127 362.25 233.182 362.986 233.235 363.722C229.072 368.401 224.906 373.081 220.743 377.76C215.397 377.788 210.05 377.818 204.704 377.846C206.487 376.632 208.274 375.421 210.058 374.207L210.09 374.18C218.889 374.24 221.203 367.185 223.935 360.994C224.348 360.061 221.929 357.556 220.428 356.22C219.555 355.441 217.901 355.542 216.142 355.144V364.983C211.689 361.385 208.636 358.917 205.974 356.765C204.181 359.816 202.302 363.016 200.768 365.621C202.097 369.775 203.383 373.789 204.666 377.803L204.671 377.806Z" stroke="white" stroke-miterlimit="10"/>
<path d="M85.3951 131.577C89.7108 128.682 94.0265 125.787 98.3422 122.891C99.393 122.917 100.444 122.939 101.495 122.964C113.916 137.283 126.341 151.604 138.762 165.926C137.121 168.29 135.482 170.653 133.844 173.015C132.653 172.92 131.464 172.827 130.276 172.732C127.847 171.551 125.417 170.37 122.988 169.189H122.978C121.747 168.023 120.514 166.859 119.283 165.698C118.77 165.603 118.257 165.588 117.737 165.653C107.594 156.724 97.4541 147.796 87.3115 138.867C86.7311 138.311 86.1506 137.756 85.5677 137.2L85.4851 132.238L85.3926 131.58L85.3951 131.577Z" stroke="white" stroke-miterlimit="10"/>
<path d="M62.2906 79.6598C63.9668 83.8989 65.6456 88.1355 67.7897 93.5557C59.0031 96.5987 55.8683 90.1449 51.4475 85.6481C48.5028 82.6502 44.5148 80.6808 40.9947 78.2484C42.721 77.4251 44.4447 76.5993 46.8565 75.4482C44.4497 75.1429 42.6584 74.9177 40.8721 74.69C44.2396 70.2332 47.6046 65.7739 50.9571 61.3346C49.9188 58.1966 48.853 54.9809 47.7897 51.7628C47.9298 51.1673 48.0674 50.5717 48.2075 49.9736C53.559 47.7465 52.6233 44.3106 49.511 41.1075C45.2854 36.7533 47.6196 35.0542 51.9628 33.9356C59.2483 32.0613 63.1062 27.7071 62.3756 19.9095L62.1755 19.2289C71.545 22.6647 69.646 30.3722 69.1206 37.5591C68.1975 38.1547 66.4411 38.8078 66.4762 39.3408C66.9815 46.8456 64.247 52.4085 57.512 56.037C57.3068 56.1471 58.7004 59.2326 59.3484 60.9317C59.2408 63.5592 59.1357 66.1868 59.0281 68.8118C58.9506 70.2532 58.873 71.6921 58.7929 73.1335C59.9563 75.3106 61.1222 77.4852 62.2855 79.6623L62.2906 79.6598Z" stroke="white" stroke-miterlimit="10"/>
<path d="M78.172 174.449C72.8681 175.265 67.5641 176.081 62.2577 176.896C51.94 176.551 41.6223 176.203 31.3096 175.855C31.4722 169.537 31.6273 163.223 31.7849 156.907C33.1459 155.1 34.5045 153.294 35.8655 151.487C41.6573 151.492 47.4516 151.494 53.2434 151.499C53.4561 152.047 53.5487 152.618 53.5211 153.206C60.101 159.93 66.3532 167.189 76.8686 167.457C77.3014 169.79 77.7367 172.122 78.1695 174.452L78.172 174.449Z" stroke="white" stroke-miterlimit="10"/>
<path d="M190.621 126.85C190.656 128.462 190.694 130.073 190.731 131.688C191.317 135.791 191.902 139.895 192.485 144.002C194.236 150.864 189.163 151.392 184.161 153.063C182.613 149.327 180.576 146.039 179.928 142.495C178.755 136.087 175.357 133.309 169.018 133.8L169.038 133.812C170.261 121.933 171.484 110.057 172.708 98.1776L173.073 97.8173L173.581 97.8823C175.21 97.9023 176.838 97.9224 178.467 97.9399C179.005 97.8248 179.455 97.9724 179.821 98.3828C179.996 104.158 177.722 111.268 187.664 111.49C188.645 111.513 190.041 115.126 190.366 117.211C190.859 120.359 190.579 123.627 190.626 126.845L190.621 126.85ZM178.912 130.196C180.801 131.652 182.012 133.317 183.153 133.272C184.364 133.221 185.507 131.547 186.681 130.584C185.5 129.335 184.502 127.591 183.056 127.051C182.333 126.78 180.789 128.705 178.912 130.199V130.196Z" stroke="white" stroke-miterlimit="10"/>
<path d="M220.746 377.766C224.909 373.086 229.075 368.407 233.238 363.725C239.75 357.729 246.263 351.735 252.775 345.74C258.182 345.852 263.588 345.962 268.995 346.075C261.451 363.617 247.691 373.824 229.753 378.729C227.041 379.47 223.761 378.138 220.746 377.766Z" stroke="white" stroke-miterlimit="10"/>
<path d="M316.998 345.887C316.995 353.124 318.381 360.714 316.66 367.516C314.183 377.307 304.048 381.812 294.884 379.044C286.485 376.507 280.003 364.996 281.764 355.234C282.337 352.063 283.726 349.04 284.741 345.95C287.776 346.017 290.813 346.082 293.848 346.15C292.615 351.738 290.008 357.486 290.636 362.854C291.044 366.344 295.757 371.094 299.302 371.89C302.044 372.505 308.379 368.279 308.867 365.469C309.94 359.288 308.321 352.641 307.804 346.182C310.868 346.085 313.933 345.987 316.998 345.887V345.887Z" stroke="white" stroke-miterlimit="10"/>
<path d="M62.2905 79.6599C61.1271 77.4828 59.9612 75.3082 58.7979 73.1311C66.8464 74.2272 74.8924 75.3232 80.444 76.079C86.2809 86.3138 90.4565 94.4317 95.3977 102.054C99.5983 108.538 103.781 114.719 101.495 122.962C100.444 122.937 99.3931 122.912 98.3423 122.889C91.192 111.366 84.6171 99.4215 76.6036 88.5335C73.5138 84.3344 67.1591 82.5452 62.2905 79.6574V79.6599Z" stroke="white" stroke-miterlimit="10"/>
<path d="M69.1228 37.559C69.6507 30.3696 71.5471 22.6621 62.1776 19.2288C60.5689 11.4913 68.042 13.5583 71.1468 10.9108C82.5103 30.1143 76.8486 57.168 59.0303 68.8117C59.1379 66.1867 59.2454 63.5592 59.3505 60.9316C69.0953 55.8567 70.6614 47.3585 69.1228 37.5615V37.559Z" stroke="white" stroke-miterlimit="10"/>
<path d="M293.848 346.15C290.813 346.082 287.776 346.017 284.741 345.95C279.492 345.992 274.243 346.032 268.997 346.075C263.59 345.962 258.183 345.852 252.777 345.74C251.153 345.564 249.527 345.387 247.903 345.209C246.61 343.587 245.319 341.963 244.025 340.342C253.497 340.334 262.972 340.329 272.444 340.322C279.612 340.392 286.777 340.459 293.945 340.529L294.643 340.83L295.339 340.522C297.253 340.467 299.164 340.412 301.078 340.357C306.842 340.387 312.607 340.419 318.373 340.449C320.858 340.452 323.342 340.457 325.826 340.459C327 340.99 328.176 341.52 331.651 343.092C325.238 344.316 321.118 345.099 317 345.885C313.935 345.982 310.87 346.08 307.805 346.18L293.85 346.147L293.848 346.15Z" stroke="white" stroke-miterlimit="10"/>
<path d="M229.71 197.947C229.122 197.309 228.531 196.671 227.944 196.03C226.703 190.024 225.392 184.031 224.248 178.005C223.74 175.33 223.565 172.59 224.271 169.559C235.224 183.16 242.972 199.851 263.72 199.733C257.853 206.257 250.693 203.167 244.018 202.058C239.154 201.25 234.473 199.356 229.71 197.947V197.947Z" stroke="white" stroke-miterlimit="10"/>
<path d="M169.015 133.8C175.354 133.307 178.752 136.087 179.925 142.495C180.573 146.039 182.61 149.327 184.158 153.063C189.16 151.392 194.236 150.864 192.482 144.002C194.261 145.273 196.037 146.547 197.819 147.821C197.816 148.997 197.779 150.173 197.811 151.347C197.906 154.655 198.029 157.963 198.141 161.271C192.942 160.593 187.041 161.206 182.745 158.864C178.612 156.612 176.14 151.304 172.943 147.335C173.29 145.118 174.429 142.631 173.783 140.756C172.903 138.194 170.668 136.097 169.015 133.802V133.8Z" stroke="white" stroke-miterlimit="10"/>
<path d="M275.742 155.155C276.288 142.678 283.823 135.023 295.337 135.711C297.183 135.822 300.073 137.448 300.398 138.859C300.753 140.388 299.092 142.988 297.581 144.235C292.877 148.106 287.826 151.557 282.913 155.168C280.523 155.163 278.134 155.16 275.742 155.158V155.155Z" stroke="white" stroke-miterlimit="10"/>
<path d="M195.838 361.577C198.257 367.005 200.676 372.43 203.096 377.858C192.017 376.011 182.885 370.924 176.248 361.692C178.647 358.737 181.047 355.779 183.446 352.824C187.577 355.742 191.707 358.662 195.838 361.58V361.577Z" stroke="white" stroke-miterlimit="10"/>
<path d="M235.012 219.52C234.731 218.179 234.449 216.84 234.171 215.501C237.936 216.057 241.689 216.985 245.464 217.098C257.473 217.453 269.49 217.505 281.506 217.676C275.937 218.566 270.37 219.457 262.727 220.678C265.787 225.083 268.634 229.174 271.479 233.268C270.088 233.263 268.697 233.258 267.306 233.253C264.704 232.062 262.152 230 259.49 229.842C252.009 229.399 244.484 229.74 236.975 229.772C236.47 228.754 235.967 227.738 235.457 226.722C243.593 226.724 251.731 226.724 259.873 226.724L261.129 223.406C259.175 222.095 257.286 219.798 255.252 219.657C248.537 219.19 241.767 219.505 235.019 219.517L235.012 219.52Z" stroke="white" stroke-miterlimit="10"/>
<path d="M275.741 155.155C278.131 155.158 280.522 155.163 282.912 155.165C280.605 165.273 278.298 175.38 275.992 185.487C276.547 179.269 277.1 173.048 277.823 164.947C275.684 167.53 274.35 169.569 272.599 171.143C270.402 173.115 267.861 174.707 265.469 176.461C268.894 169.359 272.316 162.255 275.741 155.153V155.155Z" stroke="white" stroke-miterlimit="10"/>
<path d="M281.506 217.673C269.492 217.503 257.473 217.453 245.464 217.095C241.689 216.983 237.936 216.054 234.171 215.499C235.037 214.22 235.902 212.944 236.768 211.667C251.671 212.018 266.575 212.366 281.481 212.716C281.459 214.385 281.439 216.054 281.416 217.723L281.506 217.673V217.673Z" stroke="white" stroke-miterlimit="10"/>
<path d="M19.6885 311.849C25.5554 296.387 31.4222 280.927 37.2866 265.464C35.9706 272.081 34.9974 278.79 33.2461 285.286C31.4748 291.855 29.3357 298.399 26.5461 304.587C25.2526 307.455 22.0327 309.454 19.6885 311.847V311.849Z" stroke="white" stroke-miterlimit="10"/>
<path d="M35.8679 151.487C34.5069 153.293 33.1484 155.1 31.7874 156.907C30.1136 158.448 28.4399 159.99 24.6846 163.446C25.7178 152.645 26.5435 143.989 27.4166 134.865C30.0961 135.679 32.7055 136.472 35.3125 137.265C35.4976 142.007 35.6828 146.747 35.8679 151.489V151.487Z" stroke="white" stroke-miterlimit="10"/>
<path d="M295.337 340.522L294.641 340.83C294.641 340.83 293.943 340.529 293.941 340.529C293.856 338.142 293.773 335.752 293.69 333.365C294.311 333.185 294.929 333.002 295.549 332.822L296.422 332.977L297.308 332.92C304.629 336.496 303.553 326.643 308.271 326.055C309.362 326.646 310.453 327.237 311.544 327.827C313.82 332.036 316.097 336.243 318.371 340.452C312.602 340.422 306.838 340.389 301.071 340.359C299.117 339.003 297.075 334.539 295.334 340.524L295.337 340.522Z" stroke="white" stroke-miterlimit="10"/>
<path d="M1.55758 363.845C3.80926 368.467 6.06094 373.089 8.62785 378.359C2.44324 382.17 -2.53547 376.369 -7.75687 373.096C-8.16467 372.841 -5.42513 367.558 -4.14918 364.61C-2.24776 364.355 -0.343839 364.102 1.55758 363.847V363.845Z" stroke="white" stroke-miterlimit="10"/>
<path d="M35.8679 151.487C35.6828 146.745 35.4976 142.005 35.3125 137.263C35.6352 135.974 35.9605 134.685 36.2832 133.397C38.4774 134.147 40.6715 134.901 42.8631 135.651C46.3232 140.934 49.7833 146.214 53.2434 151.497C47.4516 151.492 41.6572 151.489 35.8654 151.484L35.8679 151.487Z" stroke="white" stroke-miterlimit="10"/>
<path d="M76.7928 362.641C80.0227 367.578 83.2526 372.518 87.4133 378.879C81.8266 378.449 76.1373 378.982 71.3913 377.115C69.7551 376.472 70.4706 369.845 70.1104 365.954C72.337 364.851 74.5637 363.747 76.7903 362.643L76.7928 362.641Z" stroke="white" stroke-miterlimit="10"/>
<path d="M179.817 98.3853C179.452 97.9749 179.002 97.8272 178.464 97.9423C176.835 97.9223 175.206 97.9023 173.58 97.8848L173.072 97.8197L172.707 98.1801C172.197 98.1225 171.689 98.13 171.183 98.2051L165.567 98.08C165.422 93.5456 164.348 88.7635 165.472 84.5694C166.16 81.9994 170.215 80.3328 172.76 78.2583C171.806 80.3278 170.643 82.3272 169.948 84.4793C168.559 88.771 168.206 92.0341 174.516 93.0851C177.743 93.6232 180.438 97.3668 183.373 99.659C182.189 99.2361 181.006 98.8107 179.822 98.3878L179.817 98.3853Z" stroke="white" stroke-miterlimit="10"/>
<path d="M1.55715 363.845C-0.346772 364.1 -2.24819 364.353 -4.14961 364.608C-5.13785 359.618 -6.86664 354.638 -6.9492 349.631C-7.07929 341.811 -6.09606 333.971 -5.58568 326.143C-5.58568 335.202 -5.58568 344.258 -5.58568 354.563C-1.37754 354.563 1.73728 354.563 4.8446 354.563C3.74628 357.656 2.65297 360.749 1.55715 363.842V363.845Z" stroke="white" stroke-miterlimit="10"/>
<path d="M171.179 98.2026C171.687 98.13 172.195 98.12 172.703 98.1775C171.48 110.054 170.256 121.933 169.033 133.812C167.819 129.06 166.608 124.308 165.397 119.556C167.326 112.436 169.25 105.319 171.177 98.2026H171.179Z" stroke="white" stroke-miterlimit="10"/>
<path d="M183.445 352.821C181.046 355.779 178.647 358.734 176.248 361.69C172.084 364.405 167.924 367.122 163.761 369.838C170.503 360.519 177.246 351.202 183.993 341.888C185.019 341.991 186.042 342.088 187.063 342.188C187.136 342.907 187.208 343.625 187.283 344.343C186.005 347.168 184.724 349.996 183.445 352.821Z" stroke="white" stroke-miterlimit="10"/>
<path d="M8.83806 232.683C2.64594 230.676 -0.939231 216.85 2.94116 213.317C3.67171 212.651 5.49057 212.113 6.03347 212.528C7.23187 213.447 8.63791 214.971 8.71547 216.317C9.0182 221.657 8.84057 227.027 8.84057 232.683H8.83806Z" stroke="white" stroke-miterlimit="10"/>
<path d="M171.179 98.2025C169.252 105.319 167.326 112.436 165.399 119.556C163.518 116.908 159.825 114.01 160.146 111.663C160.786 106.976 163.631 102.589 165.565 98.0774L171.181 98.2025H171.179Z" stroke="white" stroke-miterlimit="10"/>
<path d="M76.7932 362.641C74.5665 363.744 72.3398 364.848 70.1132 365.951C68.7146 362.223 67.3161 358.494 65.915 354.768C69.5628 354.768 73.208 354.768 76.8557 354.768C76.8357 357.393 76.8132 360.018 76.7907 362.643L76.7932 362.641Z" stroke="white" stroke-miterlimit="10"/>
<path d="M304.043 254.749C299.419 248.858 294.798 242.968 290.175 237.075C300.21 238.714 303.39 245.738 304.043 254.749Z" stroke="white" stroke-miterlimit="10"/>
<path d="M26.7114 183.6C26.4987 191.868 28.8454 200.884 19.9863 206.62C22.228 198.945 24.4697 191.273 26.7114 183.6Z" stroke="white" stroke-miterlimit="10"/>
<path d="M265.037 177.672C263.936 179.614 262.538 183.33 261.782 183.205C256.986 182.404 250.694 187.249 247.504 179.897C253.886 183.412 259.555 181.273 265.037 177.672Z" stroke="white" stroke-miterlimit="10"/>
<path d="M281.416 217.726C281.439 216.057 281.459 214.388 281.481 212.719C284.003 214.42 285.089 216.104 281.416 217.726Z" stroke="white" stroke-miterlimit="10"/>
<path d="M28.5122 177.066C27.9142 179.241 27.3163 181.418 26.7158 183.593C27.3138 181.418 27.9117 179.241 28.5122 177.066Z" stroke="white" stroke-miterlimit="10"/>
<path d="M128.202 231.644C116.077 233.789 104.762 237.858 95.5597 246.361C90.8962 250.67 86.668 255.45 82.2422 260.014C82.7826 243.846 83.956 227.665 83.6508 211.515C83.4181 199.225 81.3115 186.973 80.0381 174.707C80.6611 172.927 81.284 171.148 81.9045 169.366C88.4143 174.036 94.9267 178.705 101.437 183.372C97.6687 184.806 93.8984 186.24 90.1306 187.677C90.2257 188.635 90.3233 189.594 90.4183 190.552C92.7751 191.605 95.0843 193.425 97.4986 193.577C105.985 194.118 114.509 194.085 123.018 194.271C123.108 194.934 123.198 195.597 123.288 196.26C122.602 202.779 121.917 209.3 121.231 215.819C130.391 218.081 127.724 225.553 128.199 231.644H128.202Z" stroke="white" stroke-miterlimit="10"/>
<path d="M121.234 215.819C121.92 209.3 122.605 202.779 123.291 196.26C127.919 207.053 135.803 212.2 147.717 210.366C150.098 210.932 152.478 211.5 154.857 212.065C157.229 212.073 159.601 212.083 161.972 212.09C162.275 212.856 162.578 213.622 162.88 214.388C163.221 213.637 163.558 212.889 163.899 212.138C166.831 212.125 169.763 212.11 172.695 212.098C178.627 212.551 184.562 213.004 190.494 213.457L190.541 214.045C183.906 215.103 177.269 216.162 170.634 217.223C154.166 216.755 137.702 216.289 121.234 215.821V215.819Z" stroke="white" stroke-miterlimit="10"/>
<path d="M172.705 176.458C174.774 184.439 176.845 192.419 179.079 201.037C172.46 205.819 166.418 200.842 160.223 199.633C157.869 195.464 155.514 191.293 153.16 187.124C153.193 186.591 153.208 186.055 153.208 185.52C153.768 185.47 154.334 185.432 154.896 185.402C160.431 184.121 166.79 183.926 166.202 175.372C166.157 174.714 170.406 173.763 172.66 172.945C172.675 174.116 172.69 175.287 172.705 176.458V176.458Z" stroke="white" stroke-miterlimit="10"/>
<path d="M101.439 183.375C94.9294 178.706 88.4171 174.036 81.9072 169.367C83.0781 165.911 84.2515 162.452 85.4248 158.997C90.7088 163.126 95.9902 167.252 101.274 171.381C103.066 178.648 109.26 178.738 114.917 179.957C119.37 180.918 123.716 182.377 128.109 183.613C127.021 186.028 125.933 188.443 124.842 190.855C117.904 185.657 110.026 183.408 101.442 183.373L101.439 183.375Z" stroke="white" stroke-miterlimit="10"/>
<path d="M128.107 183.613C123.714 182.374 119.368 180.918 114.915 179.957C109.26 178.736 103.066 178.648 101.274 171.379C105.137 164.787 111.62 165.746 117.737 165.651C118.255 165.586 118.767 165.601 119.28 165.698C120.511 166.862 121.745 168.023 122.976 169.186C122.976 169.186 122.986 169.189 122.983 169.191C125.412 170.373 127.842 171.554 130.271 172.732C131.459 172.827 132.648 172.92 133.839 173.015C131.93 176.549 130.018 180.082 128.107 183.615V183.613Z" stroke="white" stroke-miterlimit="10"/>
<path d="M101.44 183.375C110.024 183.41 117.902 185.657 124.84 190.857C124.234 191.996 123.626 193.134 123.018 194.271C114.512 194.085 105.988 194.118 97.5018 193.577C95.0875 193.425 92.7783 191.606 90.4215 190.552C90.3264 189.594 90.2289 188.635 90.1338 187.677C93.9016 186.243 97.6719 184.809 101.44 183.373V183.375Z" stroke="white" stroke-miterlimit="10"/>
<path d="M172.705 176.458C172.69 175.287 172.675 174.116 172.66 172.945C176.398 171.916 181.011 169.008 183.691 170.257C189.11 172.782 193.095 173.42 198.292 169.917C200.438 168.47 204.369 169.677 209.282 169.677C207.366 172.732 206.213 175.672 205.482 175.57C197.696 174.489 190.556 181.996 182.31 176.906C179.926 175.435 175.953 176.536 172.708 176.458H172.705Z" stroke="white" stroke-miterlimit="10"/>
<path d="M153.161 187.124C155.515 191.293 157.869 195.464 160.223 199.633C158.435 203.777 156.648 207.924 154.859 212.068C152.478 211.5 150.098 210.934 147.717 210.369C147.734 205.146 147.156 199.821 148.007 194.736C148.467 191.988 151.362 189.649 153.158 187.124H153.161Z" stroke="white" stroke-miterlimit="10"/>
<path d="M156.641 169.469C154.441 172.269 152.878 174.261 151.314 176.251C149.585 174.336 146.195 172.112 146.483 170.578C147.031 167.66 149.683 165.138 151.459 162.45C152.97 164.499 154.484 166.549 156.641 169.472V169.469Z" stroke="white" stroke-miterlimit="10"/>
<path d="M190.494 213.457C184.562 213.004 178.627 212.551 172.695 212.098C178.605 209.708 184.517 207.318 190.426 204.926C190.426 204.926 190.679 205.126 190.676 205.126C190.614 207.901 190.554 210.679 190.494 213.457Z" stroke="white" stroke-miterlimit="10"/>
<path d="M163.898 212.138C163.558 212.889 163.22 213.637 162.88 214.388C162.577 213.622 162.274 212.856 161.972 212.09C162.612 212.105 163.255 212.12 163.896 212.135L163.898 212.138Z" stroke="white" stroke-miterlimit="10"/>
<path d="M154.895 185.402C154.332 185.43 153.766 185.47 153.206 185.52C153.769 185.482 154.332 185.442 154.895 185.402Z" stroke="white" stroke-miterlimit="10"/>
<path d="M85.422 158.996C84.2486 162.452 83.0777 165.911 81.9044 169.366C81.2814 171.146 80.6609 172.927 80.038 174.707C79.4175 174.621 78.7945 174.539 78.1741 174.451C77.7388 172.117 77.3034 169.784 76.8706 167.455C69.0873 162.705 61.3065 157.955 53.5232 153.203C53.5507 152.615 53.4581 152.047 53.2455 151.497C49.7854 146.214 46.3253 140.931 42.8652 135.651C45.8475 132.238 48.8297 128.825 51.8094 125.406C54.3613 126.668 57.4211 127.408 59.37 129.298C64.2937 134.067 68.717 139.352 73.338 144.432C74.3487 145.631 75.3595 146.83 76.3702 148.028C79.3875 151.684 82.4072 155.338 85.4245 158.994L85.422 158.996Z" stroke="white" stroke-miterlimit="10"/>
<path d="M133.526 242.352C136.566 243.661 139.605 244.967 142.645 246.276C142.645 247.965 142.648 249.657 142.65 251.346C124.166 247.913 109.443 255.237 100.559 270.469C89.0927 290.131 86.8986 311.942 96.1655 333.41C106.801 358.049 133.784 371.274 156.47 348.755C158.057 347.181 160.428 346.398 162.435 345.247C163.516 346.543 164.594 347.837 165.675 349.133C160.223 362.203 144.196 370.734 130.859 368.384C119.958 366.465 109.896 363.765 103.181 353.845C101.712 351.675 98.4922 350.689 96.0804 349.158C95.8002 347.747 95.8753 346.125 95.1847 344.959C80.9141 320.838 80.7865 296.219 92.3777 271.132C96.6308 265.104 100.884 259.076 105.14 253.045L105.015 253.163C106.043 251.989 107.071 250.818 108.102 249.644C114.794 247.194 121.489 244.742 128.182 242.292C129.963 242.31 131.747 242.33 133.528 242.347L133.526 242.352Z" stroke="white" stroke-miterlimit="10"/>
<path d="M190.721 313.669C188.755 300.338 187.144 286.94 184.637 273.712C183.724 268.9 180.939 264.173 174.344 265.139C173.819 264.163 173.296 263.187 172.771 262.211C172.28 259.264 172.36 256.05 171.147 253.44C169.856 250.665 167.337 248.461 165.353 246.006C166.976 246.006 168.6 246.001 170.226 245.998C175.78 253.1 181.332 260.202 186.884 267.304C188.702 270.897 190.521 274.491 192.34 278.084C192.951 279.871 193.559 281.66 194.169 283.447C194.459 293.522 194.747 303.594 195.037 313.669C193.599 313.669 192.16 313.669 190.721 313.669Z" stroke="white" stroke-miterlimit="10"/>
<path d="M172.769 262.214C173.295 263.19 173.818 264.165 174.343 265.141C174.776 269.228 175.211 273.314 175.644 277.401C174.693 277.716 173.743 278.031 172.795 278.347C169.847 276.5 166.53 275.051 164.025 272.726C157.871 267.008 152.094 260.887 146.165 254.929C145.524 254.341 144.884 253.753 144.243 253.162C143.713 252.557 143.18 251.954 142.65 251.348C142.65 249.659 142.647 247.967 142.645 246.278C150.225 250.637 157.761 255.079 165.412 259.311C167.701 260.577 170.31 261.263 172.772 262.214H172.769Z" stroke="white" stroke-miterlimit="10"/>
<path d="M92.375 271.135C80.7839 296.219 80.9115 320.84 95.1821 344.961C95.8726 346.13 95.7976 347.751 96.0778 349.16C94.299 347.981 91.8246 347.216 90.8464 345.562C76.3506 321.093 74.852 296.129 88.5272 270.742C89.8106 270.874 91.0941 271.005 92.375 271.135V271.135Z" stroke="white" stroke-miterlimit="10"/>
<path d="M170.224 246.001L165.353 246.008C158.893 242.437 152.435 238.864 145.978 235.293C145.38 235.06 144.81 235.115 144.269 235.458C143.714 235.345 143.153 235.263 142.588 235.215C141.96 234.547 141.33 233.876 140.702 233.208C140.554 232.21 140.406 231.209 140.259 230.21C146.954 230.02 153.649 229.83 160.344 229.64C162.655 229.717 164.97 229.792 167.284 229.87C168.888 234.109 170.491 238.348 172.095 242.587C171.472 243.726 170.847 244.864 170.224 246.006V246.001Z" stroke="white" stroke-miterlimit="10"/>
<path d="M138.922 228.118C138.236 228.013 137.548 227.905 136.863 227.8C135.057 226.251 133.248 224.702 131.441 223.153C131.779 222.002 132.117 220.849 132.455 219.698C142.955 219.698 153.453 219.698 163.953 219.698C164.544 221.827 165.134 223.954 165.724 226.084C163.898 226.184 162.072 226.281 160.245 226.381C153.138 226.96 146.03 227.54 138.922 228.118V228.118Z" stroke="white" stroke-miterlimit="10"/>
<path d="M178.304 325.73C177.076 329.386 175.848 333.042 174.617 336.698C173.323 333.253 172.03 329.807 170.736 326.358C171.374 317.342 172.012 308.326 172.648 299.31C173.834 300.291 175.925 301.156 176.063 302.268C177.036 310.06 177.604 317.903 178.302 325.73H178.304Z" stroke="white" stroke-miterlimit="10"/>
<path d="M178.304 325.73C177.606 317.903 177.036 310.06 176.065 302.267C175.928 301.156 173.836 300.288 172.65 299.31C172.082 297.66 171.514 296.009 170.946 294.357C173.368 291.935 175.79 289.515 178.212 287.093C179.082 287.864 180.746 288.677 180.706 289.395C180.031 301.512 179.145 313.618 178.304 325.728V325.73Z" stroke="white" stroke-miterlimit="10"/>
<path d="M163.951 219.7H132.452C132.115 220.851 131.777 222.005 131.439 223.156C133.245 224.705 135.054 226.254 136.861 227.803C133.973 229.084 131.086 230.365 128.199 231.647C127.721 225.558 130.388 218.084 121.231 215.821C137.699 216.289 154.164 216.755 170.631 217.223C171.351 217.918 172.072 218.617 172.792 219.312C169.845 219.442 166.898 219.57 163.948 219.7H163.951Z" stroke="white" stroke-miterlimit="10"/>
<path d="M170.733 326.358C172.027 329.804 173.32 333.25 174.616 336.696C171.636 340.84 168.654 344.986 165.674 349.133C164.596 347.837 163.515 346.543 162.435 345.249C165.202 338.953 167.969 332.657 170.736 326.358H170.733Z" stroke="white" stroke-miterlimit="10"/>
<path d="M190.721 313.668C192.159 313.668 193.598 313.668 195.036 313.668C193.423 321.974 191.806 330.277 190.193 338.582C189.152 339.784 188.109 340.987 187.068 342.188C186.045 342.088 185.024 341.991 183.998 341.888C186.237 332.479 188.481 323.075 190.723 313.668H190.721Z" stroke="white" stroke-miterlimit="10"/>
<path d="M178.209 287.095C175.787 289.518 173.365 291.938 170.943 294.357C171.561 289.017 172.177 283.682 172.795 278.344C173.745 278.029 174.696 277.714 175.644 277.399C176.5 280.629 177.353 283.862 178.209 287.095Z" stroke="white" stroke-miterlimit="10"/>
<path d="M92.3752 271.135C91.0943 271.005 89.8108 270.874 88.5273 270.742C94.0615 264.844 99.6006 258.945 105.137 253.047C100.884 259.076 96.6309 265.104 92.3752 271.135Z" stroke="white" stroke-miterlimit="10"/>
<path d="M138.922 228.118C146.03 227.54 153.138 226.96 160.246 226.382C160.278 227.465 160.311 228.551 160.343 229.637C153.648 229.827 146.953 230.018 140.256 230.208C139.811 229.512 139.365 228.814 138.92 228.118H138.922Z" stroke="white" stroke-miterlimit="10"/>
<path d="M133.525 242.352C131.744 242.334 129.96 242.317 128.179 242.297C129.96 242.314 131.744 242.332 133.525 242.352Z" stroke="white" stroke-miterlimit="10"/>
<path d="M108.099 249.649C107.071 250.823 106.042 251.994 105.012 253.167C106.04 251.994 107.068 250.823 108.099 249.649Z" stroke="white" stroke-miterlimit="10"/>
<path d="M144.267 235.458C144.81 235.115 145.377 235.057 145.975 235.293C145.405 235.348 144.835 235.403 144.267 235.458Z" stroke="white" stroke-miterlimit="10"/>
<path d="M140.701 233.208C141.329 233.876 141.96 234.547 142.588 235.215C141.96 234.547 141.329 233.876 140.701 233.208Z" stroke="white" stroke-miterlimit="10"/>
<path d="M62.3799 19.9071C63.1104 27.7046 59.25 32.0589 51.9671 33.9332C47.6239 35.0492 45.2871 36.7509 49.5153 41.1051C52.6276 44.3082 53.5633 47.7465 48.2118 49.9712C42.2607 41.9467 42.7444 34.5121 49.6629 27.6671C49.858 27.4744 49.9306 27.1591 50.0607 26.9014C54.1688 24.5691 58.2743 22.2394 62.3824 19.9071H62.3799Z" stroke="white" stroke-miterlimit="10"/>
<path d="M50.0582 26.9012C49.9281 27.1589 49.8556 27.4742 49.6604 27.6669C42.7419 34.5135 42.2582 41.9482 48.2093 49.971C48.0692 50.5666 47.9316 51.1621 47.7915 51.7602C44.0437 48.7123 38.1969 46.335 36.966 42.4812C33.9737 33.1272 38.5446 28.5403 50.0607 26.8987L50.0582 26.9012Z" stroke="white" stroke-miterlimit="10"/>
<path d="M73.3385 144.435C68.715 139.355 64.2917 134.07 59.3681 129.3C57.4191 127.411 54.3593 126.67 51.8074 125.409C51.1519 121.648 50.4939 117.884 49.8359 114.12L49.8559 114.1C56.6185 116.523 63.2409 119.553 70.1936 121.137C74.3817 122.091 79.0828 120.792 84.8095 120.427C84.9847 123.79 85.1898 127.684 85.395 131.577L85.4875 132.236C83.0983 131.87 81.0467 126.18 78.2822 131.778C77.6292 132.946 76.9737 134.112 76.3207 135.281C75.6627 137.063 75.0047 138.842 74.3467 140.624C74.0115 141.892 73.6762 143.164 73.341 144.432L73.3385 144.435Z" stroke="white" stroke-miterlimit="10"/>
<path d="M82.9002 115.424C81.6167 112.549 80.3333 109.671 79.0498 106.796L81.0188 105.793C82.4298 108.61 83.8409 111.426 85.2519 114.243C84.4688 114.639 83.6833 115.032 82.9002 115.427V115.424Z" stroke="white" stroke-miterlimit="10"/>
<path d="M49.838 114.118L49.125 113.708C49.3702 113.838 49.6129 113.968 49.858 114.098L49.838 114.118Z" stroke="white" stroke-miterlimit="10"/>
<path d="M192.272 237.395C196.428 237.292 200.584 237.19 204.739 237.087C208.149 238.128 211.607 240.157 214.954 239.992C221.076 239.69 227.136 238.09 233.308 236.884C233.263 236.922 233.133 237.105 233 237.287L235.542 239.492C235.79 239.144 236.04 238.794 236.288 238.446C235.322 237.878 234.359 237.307 233.306 236.884C233.801 235.923 234.384 234.817 234.967 233.709C235.602 233.544 236.238 233.378 236.873 233.213C238.027 233.418 239.177 233.626 240.331 233.831C242.657 233.899 244.987 233.969 247.313 234.037C250.939 233.954 254.566 233.871 258.192 233.789C260.501 237.96 261.879 242.039 267.724 244.099C270.598 245.11 270.911 253.413 272.382 258.415C271.199 261.285 268.762 264.286 269.05 267.001C270.373 279.546 264.839 288.992 256.753 297.563C256.067 296.665 255.384 295.764 254.699 294.863C253.568 291.247 252.437 287.631 251.301 284.015C250.671 282.558 250.043 281.1 249.418 279.643C248.832 274.919 248.244 270.194 247.659 265.467C246.826 264.308 246.053 262.204 245.154 262.149C239.883 261.828 234.459 262.679 229.325 261.778C224.534 260.94 220.036 258.413 215.41 256.628C214.814 256.628 214.221 256.628 213.626 256.626C212.437 256.616 211.252 256.603 210.063 256.593L208.322 254.862C202.573 253.806 196.823 252.747 190.981 251.674C192.275 251.143 194.021 250.427 196.506 249.409C194.934 246.799 193.636 244.642 192.337 242.485C192.315 240.786 192.295 239.089 192.272 237.39V237.395ZM215.42 247.72H246.198L246.183 243.516C236.773 243.516 227.361 243.403 217.964 243.698C217.076 243.726 216.265 246.318 215.42 247.717C214.481 248.298 213.541 248.878 212.603 249.459C212.965 249.819 213.326 250.182 213.688 250.543C214.266 249.602 214.844 248.661 215.422 247.72H215.42Z" stroke="white" stroke-miterlimit="10"/>
<path d="M256.753 297.563C264.841 288.992 270.373 279.543 269.049 267.001C268.764 264.286 271.201 261.285 272.382 258.415C274.724 259.501 277.065 260.587 279.407 261.676C277.823 263.748 275.271 265.662 274.906 267.929C274.476 270.599 275.942 273.575 276.585 276.417C277.576 276.978 278.566 277.536 279.56 278.097C279.57 278.772 279.58 279.445 279.587 280.121C279.322 280.954 278.749 281.823 278.834 282.618C279.972 293.101 280.723 303.666 282.68 314.001C283.36 317.592 287.09 320.608 289.427 323.886C289.662 325.82 289.897 327.755 290.135 329.689C285.737 336.068 279.102 335.169 272.707 335.054C272.397 334.306 272.089 333.558 271.786 332.814C269.587 328.35 267.381 323.878 265.176 319.409C263.34 315.668 261.506 311.927 259.67 308.186L256.117 300.538C256.33 299.547 256.54 298.556 256.753 297.563V297.563Z" stroke="white" stroke-miterlimit="10"/>
<path d="M289.427 323.883C287.09 320.605 283.36 317.592 282.68 313.999C280.723 303.664 279.975 293.098 278.834 282.616C278.747 281.82 279.32 280.952 279.587 280.118C280.053 279.998 280.525 279.928 281.003 279.911C283.465 292.02 285.955 304.124 288.369 316.246C288.869 318.763 289.082 321.336 289.427 323.883V323.883Z" stroke="white" stroke-miterlimit="10"/>
<path d="M258.193 233.789C254.568 233.871 250.941 233.954 247.315 234.036C244.989 233.969 242.659 233.899 240.333 233.831C239.179 233.626 238.028 233.418 236.875 233.213C236.908 232.067 236.938 230.918 236.97 229.772C244.481 229.74 252.006 229.399 259.487 229.842C262.151 230 264.701 232.059 267.303 233.253C264.265 233.431 261.228 233.611 258.191 233.791L258.193 233.789Z" stroke="white" stroke-miterlimit="10"/>
<path d="M276.585 276.415C275.942 273.572 274.476 270.597 274.906 267.927C275.271 265.659 277.823 263.745 279.407 261.673C280.22 264.241 281.033 266.808 281.844 269.376C280.087 271.723 278.336 274.068 276.582 276.415H276.585Z" stroke="white" stroke-miterlimit="10"/>
<path d="M294.783 259.251H299.799C299.872 259.769 299.942 260.287 300.015 260.805C298.316 261.075 296.615 261.348 294.916 261.618L294.783 259.251V259.251Z" stroke="white" stroke-miterlimit="10"/>
<path d="M276.585 276.415C278.336 274.068 280.09 271.721 281.846 269.376C281.086 272.281 280.323 275.189 279.56 278.094C278.569 277.534 277.578 276.976 276.585 276.415V276.415Z" stroke="white" stroke-miterlimit="10"/>
<path d="M190.493 213.457C190.553 210.679 190.613 207.904 190.676 205.126C205.179 204.03 208.992 215.336 213.53 226.962C208.286 225.516 203.045 224.069 197.801 222.623C197.794 221.464 197.789 220.306 197.786 219.147C195.372 217.445 192.958 215.744 190.543 214.042L190.496 213.454L190.493 213.457Z" stroke="white" stroke-miterlimit="10"/>
<path d="M197.784 219.147C197.789 220.306 197.794 221.464 197.799 222.623C194.857 222.623 191.912 222.623 187.781 222.623C187.324 223.544 186.26 225.691 185.2 227.836C178.707 227.253 172.215 226.669 165.722 226.084C165.132 223.954 164.544 221.825 163.951 219.698C166.896 219.57 169.846 219.44 172.793 219.31C181.121 219.255 189.453 219.2 197.784 219.147V219.147Z" stroke="white" stroke-miterlimit="10"/>
<path d="M235.011 219.52C241.759 219.507 248.529 219.192 255.244 219.66C257.28 219.803 259.167 222.1 261.121 223.409L259.865 226.727C251.724 226.727 243.585 226.727 235.449 226.724C235.307 224.322 235.156 221.92 235.009 219.52H235.011Z" stroke="white" stroke-miterlimit="10"/>
<path d="M165.722 226.086C172.215 226.669 178.707 227.252 185.199 227.838C187.556 231.024 189.913 234.209 192.27 237.395C192.292 239.094 192.312 240.793 192.335 242.49C190.531 242.297 188.729 242.104 186.926 241.912L179.75 229.505C176.831 229.425 173.908 229.344 170.989 229.264C169.753 229.467 168.517 229.667 167.281 229.87C164.967 229.795 162.655 229.717 160.341 229.64C160.308 228.554 160.276 227.468 160.243 226.384C162.07 226.286 163.896 226.186 165.722 226.089V226.086Z" stroke="white" stroke-miterlimit="10"/>
<path d="M233.22 237.029C227.136 238.088 221.076 239.689 214.954 239.992C211.604 240.157 208.147 238.128 204.739 237.087C214.817 235.961 224.892 234.835 234.969 233.706C234.386 234.815 233.803 235.921 233.22 237.029Z" stroke="white" stroke-miterlimit="10"/>
<path d="M179.818 98.3853C181.001 98.8082 182.185 99.2336 183.368 99.6565C186.56 99.9568 189.755 100.257 195.132 100.763C193.596 109.639 192.107 118.244 190.618 126.85C190.571 123.632 190.851 120.364 190.358 117.216C190.033 115.131 188.64 111.515 187.656 111.495C177.714 111.27 179.991 104.161 179.813 98.3878L179.818 98.3853Z" stroke="white" stroke-miterlimit="10"/>
<path d="M272.707 335.052C279.102 335.167 285.737 336.065 290.135 329.686C291.321 330.913 292.507 332.139 293.696 333.365C293.778 335.752 293.861 338.142 293.946 340.529C286.78 340.459 279.613 340.389 272.447 340.322C272.535 338.565 272.622 336.808 272.71 335.052H272.707Z" stroke="white" stroke-miterlimit="10"/>
<path d="M297.313 332.92L296.427 332.977C296.427 332.977 295.551 332.822 295.554 332.822C295.859 332.174 296.162 331.526 296.467 330.875C296.75 331.556 297.032 332.237 297.313 332.917V332.92Z" stroke="white" stroke-miterlimit="10"/>
<path d="M227.041 347.386C224.829 343.127 222.618 338.868 220.659 335.094C220.659 330.665 220.659 326.406 220.659 322.149C218.329 318.646 215.998 315.14 213.666 311.634C216.103 311.054 218.542 310.473 220.979 309.892C220.899 308.111 220.821 306.327 220.741 304.545C220.746 303.531 220.754 302.518 220.759 301.504C221.387 301.434 222.012 301.364 222.64 301.294L222.39 301.074C224.211 302.2 226.03 303.329 227.852 304.455C234.849 304.382 241.847 304.307 248.847 304.235C249.635 306.542 251.439 309.052 251.031 311.121C249.578 318.456 247.371 325.638 245.447 332.88C244.059 332.239 242.673 331.596 240.824 330.743C241.307 334.832 241.632 337.594 241.957 340.357C236.986 342.699 232.015 345.041 227.044 347.384L227.041 347.386Z" stroke="white" stroke-miterlimit="10"/>
<path d="M213.666 311.631C215.998 315.137 218.329 318.643 220.659 322.149C219.968 322.855 219.28 323.56 218.592 324.268C216.958 327.284 215.322 330.299 213.686 333.312C213.686 335.324 213.691 337.339 213.693 339.351C213.083 339.691 212.473 340.029 211.86 340.369C205.242 335.061 202.343 343.705 197.289 344.253C194.922 342.361 192.555 340.472 190.188 338.582C191.805 330.277 193.418 321.974 195.035 313.668C194.744 303.594 194.457 293.521 194.166 283.447C200.031 283.522 205.898 283.599 211.765 283.674C211.757 287.128 211.75 290.578 211.742 294.032C204.041 300.288 204.529 304.762 213.666 311.629V311.631Z" stroke="white" stroke-miterlimit="10"/>
<path d="M210.06 374.212C208.277 375.426 206.49 376.637 204.706 377.851L204.671 377.806C203.388 373.792 202.102 369.778 200.773 365.626C202.305 363.019 204.186 359.821 205.98 356.77C208.642 358.922 211.694 361.39 216.147 364.988V355.149C217.904 355.547 219.557 355.446 220.433 356.225C221.934 357.561 224.354 360.066 223.941 360.999C221.209 367.19 218.894 374.247 210.095 374.185C210.268 370.346 210.361 366.567 204.761 367.043C204.506 366.923 204.254 366.8 203.998 366.677C204.234 366.817 204.469 366.958 204.706 367.098C206.493 369.468 208.277 371.84 210.063 374.21L210.06 374.212Z" stroke="white" stroke-miterlimit="10"/>
<path d="M247.904 345.209C249.527 345.386 251.154 345.562 252.777 345.739C246.265 351.733 239.753 357.728 233.24 363.724C233.188 362.991 233.133 362.255 233.08 361.522C233.681 352.135 241.361 349.19 247.906 345.211L247.904 345.209Z" stroke="white" stroke-miterlimit="10"/>
<path d="M247.904 345.209C241.362 349.188 233.681 352.133 233.078 361.52C231.069 356.805 229.06 352.093 227.046 347.384C232.012 345.044 236.983 342.702 241.955 340.357C242.645 340.352 243.336 340.347 244.024 340.342C245.317 341.963 246.608 343.587 247.901 345.209H247.904Z" stroke="white" stroke-miterlimit="10"/>
<path d="M183.445 352.821C184.724 349.996 186.005 347.168 187.283 344.343C189.507 346.638 191.731 348.933 193.956 351.227C194.584 354.678 195.209 358.129 195.837 361.58C191.706 358.659 187.576 355.742 183.445 352.824V352.821Z" stroke="white" stroke-miterlimit="10"/>
<path d="M193.955 351.227C191.731 348.933 189.507 346.638 187.283 344.343C187.21 343.625 187.135 342.907 187.062 342.189C188.106 340.987 189.147 339.784 190.19 338.583C192.557 340.472 194.923 342.361 197.29 344.253C196.177 346.578 195.066 348.903 193.955 351.227Z" stroke="white" stroke-miterlimit="10"/>
<path d="M213.686 333.31C215.322 330.295 216.958 327.279 218.592 324.266C216.955 327.282 215.319 330.297 213.686 333.31V333.31Z" stroke="white" stroke-miterlimit="10"/>
<path d="M211.86 340.369C212.47 340.029 213.081 339.691 213.693 339.351C213.511 343.708 213.328 348.062 213.146 352.418C212.858 352.373 212.465 352.428 212.3 352.261C211.93 351.888 211.669 351.402 211.364 350.962C211.449 349.816 211.534 348.672 211.619 347.526C211.7 345.141 211.782 342.754 211.862 340.369H211.86Z" stroke="white" stroke-miterlimit="10"/>
<path d="M211.618 347.526C211.533 348.672 211.448 349.816 211.363 350.962C210.047 350.787 208.729 350.614 207.413 350.439C207.323 349.906 207.233 349.37 207.143 348.837C208.634 348.399 210.125 347.964 211.618 347.526Z" stroke="white" stroke-miterlimit="10"/>
<path d="M85.4219 158.996C82.4046 155.34 79.3849 151.687 76.3701 148.031C80.0454 145.008 87.1632 146.101 87.3108 138.867C97.4508 147.796 107.591 156.727 117.736 165.653C111.621 165.745 105.139 164.787 101.276 171.378C95.9898 167.252 90.7083 163.125 85.4244 158.996H85.4219Z" stroke="white" stroke-miterlimit="10"/>
<path d="M87.3118 138.864C87.1642 146.101 80.0464 145.008 76.3711 148.028C75.3579 146.83 74.3471 145.631 73.3389 144.432C73.6741 143.164 74.0094 141.892 74.3446 140.624C75.0026 138.842 75.6606 137.063 76.3186 135.281C76.9716 134.112 77.6271 132.946 78.2801 131.778C79.1657 135.661 80.1164 139.458 85.568 137.195L87.3118 138.862V138.864Z" stroke="white" stroke-miterlimit="10"/>
<path d="M85.5702 137.198C80.1211 139.46 79.1679 135.664 78.2822 131.78C81.0493 126.182 83.0983 131.873 85.4876 132.238C85.5151 133.892 85.5426 135.546 85.5702 137.2V137.198Z" stroke="white" stroke-miterlimit="10"/>
<path d="M130.273 172.73C127.844 171.549 125.415 170.37 122.985 169.189C125.415 170.367 127.844 171.549 130.273 172.73Z" stroke="white" stroke-miterlimit="10"/>
<path d="M122.977 169.186C121.747 168.023 120.513 166.862 119.282 165.698C120.513 166.859 121.747 168.023 122.977 169.186Z" stroke="white" stroke-miterlimit="10"/>
<path d="M69.1232 37.5589C70.6619 47.3584 69.0957 55.8566 59.3509 60.929C58.7029 59.2299 57.3094 56.1469 57.5146 56.0343C64.2496 52.4058 66.9866 46.8404 66.4787 39.3381C66.4437 38.8076 68.2 38.1545 69.1232 37.5564V37.5589Z" stroke="white" stroke-miterlimit="10"/>
<path d="M53.5234 153.203C61.3042 157.953 69.0876 162.705 76.8709 167.455C66.358 167.187 60.1033 159.927 53.5234 153.203Z" stroke="white" stroke-miterlimit="10"/>
<path d="M178.912 130.196C180.789 128.705 182.335 126.778 183.055 127.048C184.501 127.591 185.497 129.335 186.68 130.581C185.507 131.545 184.364 133.219 183.153 133.269C182.012 133.314 180.801 131.652 178.912 130.193V130.196Z" stroke="white" stroke-miterlimit="10"/>
<path d="M173.578 97.8849C175.207 97.9049 176.833 97.9249 178.462 97.9424C176.836 97.9224 175.207 97.9024 173.578 97.8849Z" stroke="white" stroke-miterlimit="10"/>
<path d="M293.848 346.15L307.803 346.182C308.323 352.639 309.94 359.288 308.866 365.469C308.379 368.281 302.044 372.505 299.302 371.89C295.757 371.094 291.043 366.347 290.635 362.854C290.007 357.483 292.612 351.735 293.848 346.15V346.15Z" stroke="white" stroke-miterlimit="10"/>
<path d="M244.024 340.342C243.333 340.347 242.645 340.352 241.955 340.357C241.629 337.594 241.304 334.832 240.821 330.743C242.668 331.596 244.056 332.237 245.445 332.88L253.005 332.952C255.81 332.902 258.615 332.852 261.417 332.8C264.872 332.802 268.324 332.805 271.779 332.807C272.087 333.555 272.397 334.303 272.705 335.052C272.618 336.808 272.53 338.565 272.442 340.322C262.97 340.329 253.496 340.334 244.024 340.342V340.342Z" stroke="white" stroke-miterlimit="10"/>
<path d="M295.337 340.522C297.078 334.536 299.12 339 301.074 340.357C299.162 340.412 297.251 340.467 295.337 340.522Z" stroke="white" stroke-miterlimit="10"/>
<path d="M197.784 219.147C189.453 219.202 181.124 219.257 172.793 219.31C172.072 218.614 171.354 217.916 170.634 217.22C177.269 216.162 183.904 215.101 190.541 214.042C192.955 215.744 195.37 217.446 197.784 219.145V219.147Z" stroke="white" stroke-miterlimit="10"/>
<path d="M172.795 278.344C172.177 283.682 171.562 289.02 170.944 294.357C171.512 296.009 172.08 297.661 172.647 299.31C172.009 308.326 171.372 317.342 170.736 326.358C167.969 332.657 165.199 338.953 162.435 345.249C160.431 346.398 158.059 347.181 156.473 348.755C133.786 371.274 106.801 358.049 96.1679 333.41C86.901 311.942 89.0951 290.128 100.561 270.469C109.445 255.237 124.169 247.912 142.653 251.346C143.183 251.951 143.716 252.554 144.246 253.16C144.887 253.748 145.527 254.336 146.168 254.927C152.097 260.885 157.876 267.006 164.029 272.724C166.533 275.049 169.85 276.498 172.798 278.344H172.795ZM158.672 278.339C158.017 277.639 157.361 276.938 156.706 276.24C153.541 266.796 146.393 262.249 137.131 260.304C135.632 259.791 134.134 259.278 132.635 258.765C131.076 259.256 129.515 259.744 127.957 260.234C121.457 263.775 113.176 265.83 108.775 271.12C92.7729 290.353 92.5702 311.809 103.451 333.805C109.3 345.627 119.015 352.674 131.89 352.506C144.524 352.341 153.351 344.566 158.579 333.02C169.423 317.6 169.46 294.11 158.667 278.342L158.672 278.339Z" stroke="white" stroke-miterlimit="10"/>
<path d="M186.925 241.909C188.729 242.102 190.53 242.295 192.334 242.487C193.633 244.644 194.931 246.799 196.502 249.411C194.018 250.43 192.272 251.146 190.978 251.676C196.82 252.75 202.569 253.808 208.319 254.864C208.899 255.44 209.479 256.018 210.06 256.596C211.248 256.606 212.434 256.618 213.623 256.628H215.406C220.032 258.415 224.531 260.943 229.322 261.781C234.458 262.679 239.88 261.828 245.151 262.151C246.049 262.206 246.825 264.311 247.655 265.469C233.365 266.686 218.591 262.554 204.803 269.338C199.582 261.996 193.057 266.185 186.88 267.306C181.328 260.204 175.777 253.102 170.223 246.001C170.843 244.862 171.469 243.723 172.094 242.58C177.04 242.355 181.981 242.132 186.925 241.909Z" stroke="white" stroke-miterlimit="10"/>
<path d="M186.881 267.306C193.058 266.183 199.583 261.996 204.804 269.336C205.787 272.416 206.773 275.499 207.759 278.58C202.62 278.415 197.479 278.249 192.34 278.084C190.521 274.491 188.702 270.897 186.883 267.304L186.881 267.306Z" stroke="white" stroke-miterlimit="10"/>
<path d="M192.337 278.084C197.476 278.249 202.617 278.415 207.758 278.58C209.109 279.005 210.46 279.431 211.809 279.856C211.794 281.13 211.779 282.403 211.761 283.675C205.895 283.6 200.03 283.522 194.166 283.447C193.555 281.66 192.947 279.871 192.337 278.084V278.084Z" stroke="white" stroke-miterlimit="10"/>
<path d="M146.166 254.927C145.525 254.339 144.885 253.75 144.244 253.16C144.885 253.748 145.525 254.336 146.166 254.927Z" stroke="white" stroke-miterlimit="10"/>
<path d="M186.926 241.909C181.982 242.132 177.041 242.354 172.095 242.58C170.489 238.343 168.885 234.104 167.281 229.867C168.517 229.665 169.753 229.464 170.989 229.264C173.909 229.344 176.831 229.424 179.751 229.505L186.926 241.912V241.909Z" stroke="white" stroke-miterlimit="10"/>
<path d="M76.3206 135.281C75.6627 137.063 75.0047 138.842 74.3467 140.624C75.0047 138.842 75.6627 137.063 76.3206 135.281Z" stroke="white" stroke-miterlimit="10"/>
<path d="M211.809 279.856C210.458 279.43 209.109 279.002 207.758 278.579C206.773 275.499 205.787 272.418 204.804 269.335C218.591 262.554 233.365 266.683 247.656 265.467C248.244 270.191 248.829 274.916 249.414 279.64C238.656 279.673 227.901 279.706 217.143 279.738C215.364 279.778 213.585 279.816 211.806 279.853L211.809 279.856Z" stroke="white" stroke-miterlimit="10"/>
<path d="M251.306 284.015C252.437 287.631 253.568 291.247 254.699 294.863C249.865 296.842 245.169 299.41 240.15 300.613C236.232 301.554 231.909 300.804 227.769 300.804L222.39 301.071L222.64 301.292C222.732 297.718 222.822 294.145 222.915 290.574C223.093 289.695 223.268 288.817 223.445 287.939C226.6 284.225 230.368 282.644 235.422 283.297C240.658 283.972 246.005 283.81 251.304 284.015H251.306ZM229.285 292.696C228.869 291.938 228.622 291.482 228.372 291.027C227.774 291.4 227.101 291.7 226.633 292.195C226.518 292.318 227.123 293.484 227.311 293.462C227.969 293.381 228.589 292.991 229.285 292.693V292.696Z" stroke="white" stroke-miterlimit="10"/>
<path d="M222.915 290.573C222.822 294.147 222.732 297.72 222.64 301.291C222.012 301.361 221.386 301.431 220.758 301.502C220.378 300.953 220 300.408 219.625 299.857C219.973 297.961 220.318 296.066 220.661 294.169C219.49 289.36 218.316 284.55 217.146 279.738C227.901 279.705 238.659 279.673 249.417 279.64C250.045 281.097 250.673 282.556 251.301 284.012C246.005 283.809 240.661 283.972 235.422 283.294C230.368 282.641 226.598 284.22 223.463 287.938C223.293 288.819 223.102 289.695 222.915 290.571V290.573Z" stroke="white" stroke-miterlimit="10"/>
<path d="M227.768 300.804C231.911 300.804 236.234 301.554 240.15 300.613C245.169 299.41 249.865 296.842 254.698 294.863C255.384 295.761 256.067 296.662 256.752 297.56C256.54 298.551 256.329 299.542 256.114 300.538C253.69 301.772 251.266 303.003 248.844 304.232C241.846 304.304 234.848 304.38 227.848 304.452C227.821 303.236 227.793 302.02 227.766 300.804H227.768Z" stroke="white" stroke-miterlimit="10"/>
<path d="M215.415 247.717C216.26 246.316 217.068 243.726 217.959 243.698C227.359 243.403 236.771 243.516 246.178 243.516L246.193 247.72H215.412L215.415 247.717Z" stroke="white" stroke-miterlimit="10"/>
<path d="M240.333 233.831C242.66 233.899 244.989 233.966 247.316 234.036C244.989 233.969 242.66 233.901 240.333 233.831Z" stroke="white" stroke-miterlimit="10"/>
<path d="M215.417 247.72C214.839 248.661 214.261 249.602 213.683 250.543C213.321 250.182 212.96 249.819 212.598 249.459C213.536 248.879 214.477 248.298 215.415 247.717L215.417 247.72Z" stroke="white" stroke-miterlimit="10"/>
<path d="M233.395 236.737C234.36 237.305 235.324 237.875 236.289 238.443C236.042 238.791 235.792 239.142 235.544 239.489L233.002 237.285C233.132 237.102 233.265 236.919 233.395 236.734V236.737Z" stroke="white" stroke-miterlimit="10"/>
<path d="M215.407 256.631C214.811 256.631 214.218 256.631 213.623 256.628C214.218 256.628 214.811 256.628 215.407 256.631Z" stroke="white" stroke-miterlimit="10"/>
<path d="M210.061 256.593C209.48 256.015 208.9 255.44 208.319 254.862C208.9 255.44 209.48 256.015 210.061 256.593Z" stroke="white" stroke-miterlimit="10"/>
<path d="M248.844 304.234C251.269 303.003 253.69 301.772 256.115 300.541C257.301 303.086 258.484 305.636 259.67 308.186C257.448 316.441 255.227 324.697 253.005 332.952L245.444 332.88C247.366 325.64 249.575 318.456 251.029 311.121C251.439 309.052 249.635 306.542 248.844 304.234V304.234Z" stroke="white" stroke-miterlimit="10"/>
<path d="M253.005 332.95C255.227 324.694 257.448 316.439 259.67 308.183C261.504 311.922 263.34 315.663 265.174 319.402C263.921 323.866 262.67 328.33 261.419 332.797C258.614 332.847 255.809 332.897 253.007 332.95H253.005Z" stroke="white" stroke-miterlimit="10"/>
<path d="M261.418 332.799C262.669 328.332 263.92 323.868 265.173 319.404C267.38 323.876 269.587 328.347 271.786 332.812C268.326 332.804 264.871 332.802 261.418 332.799Z" stroke="white" stroke-miterlimit="10"/>
<path d="M179.753 229.505C176.833 229.424 173.911 229.344 170.991 229.264C173.911 229.344 176.833 229.424 179.753 229.505Z" stroke="white" stroke-miterlimit="10"/>
<path d="M219.622 299.86C220.003 300.408 220.38 300.954 220.761 301.502C220.756 302.515 220.748 303.529 220.743 304.542C220.823 306.324 220.901 308.108 220.981 309.89C218.544 310.47 216.105 311.051 213.668 311.631C204.531 304.762 204.043 300.288 211.744 294.032C214.208 296.199 211.676 305.045 219.6 299.918L219.625 299.858L219.622 299.86Z" stroke="white" stroke-miterlimit="10"/>
<path d="M227.769 300.804C227.796 302.02 227.824 303.236 227.851 304.452C226.03 303.326 224.211 302.197 222.39 301.071C224.183 300.981 225.975 300.891 227.769 300.804Z" stroke="white" stroke-miterlimit="10"/>
<path d="M220.979 309.892C220.899 308.11 220.821 306.326 220.741 304.544C220.821 306.326 220.899 308.11 220.979 309.892Z" stroke="white" stroke-miterlimit="10"/>
<path d="M219.598 299.92C211.675 305.045 214.209 296.202 211.742 294.035C211.75 290.581 211.757 287.13 211.765 283.677C211.78 282.403 211.795 281.13 211.81 279.858C213.589 279.821 215.367 279.781 217.146 279.743C218.317 284.553 219.49 289.363 220.661 294.172C220.306 296.089 219.951 298.006 219.596 299.92H219.598Z" stroke="white" stroke-miterlimit="10"/>
<path d="M210.061 374.212C208.274 371.842 206.49 369.47 204.704 367.1L204.759 367.045C210.356 366.57 210.263 370.348 210.091 374.187L210.061 374.212V374.212Z" stroke="white" stroke-miterlimit="10"/>
<path d="M204.704 367.1C204.469 366.96 204.234 366.82 203.996 366.68C204.251 366.803 204.504 366.923 204.759 367.045L204.704 367.1V367.1Z" stroke="white" stroke-miterlimit="10"/>
<path d="M158.584 333.015C153.355 344.563 144.526 352.338 131.892 352.503C119.017 352.674 109.3 345.627 103.453 333.803C92.5723 311.807 92.7749 290.351 108.777 271.117C113.178 265.827 121.459 263.773 127.959 260.232C127.921 261.383 127.884 262.534 127.849 263.685C127.188 264.008 126.528 264.331 125.867 264.656C126.543 264.969 127.216 265.282 127.891 265.594C128.006 274.453 128.121 283.309 128.236 292.168C126.47 294.723 123.203 297.333 123.293 299.822C123.423 303.433 125.977 306.954 127.498 310.515C131.902 308.523 136.305 306.529 140.708 304.537C144.816 304.497 148.922 304.457 153.03 304.417C154.884 313.951 156.735 323.483 158.589 333.017L158.584 333.015Z" stroke="white" stroke-miterlimit="10"/>
<path d="M132.638 258.763C134.136 259.276 135.635 259.789 137.134 260.302C137.149 263.36 136.273 266.78 137.336 269.413C141.076 278.654 148.837 277.916 156.708 276.24C157.364 276.94 158.019 277.641 158.672 278.339C157.111 285.093 155.55 291.85 153.869 299.124C151.394 299.299 148.845 299.482 146.293 299.662C142.152 297.813 138.012 295.966 133.874 294.119C133.461 282.335 133.051 270.549 132.638 258.765V258.763Z" stroke="white" stroke-miterlimit="10"/>
<path d="M146.295 299.663C148.844 299.48 151.394 299.3 153.868 299.122C155.549 291.848 157.111 285.091 158.672 278.337C169.465 294.107 169.427 317.597 158.584 333.015C156.733 323.481 154.879 313.946 153.027 304.412C150.648 303.822 148.269 303.234 145.89 302.643L146.295 299.66V299.663Z" stroke="white" stroke-miterlimit="10"/>
<path d="M156.708 276.237C148.837 277.916 141.076 278.652 137.336 269.411C136.27 266.778 137.146 263.36 137.133 260.299C146.398 262.244 153.543 266.791 156.708 276.235V276.237Z" stroke="white" stroke-miterlimit="10"/>
<path d="M132.638 258.763C133.051 270.547 133.461 282.333 133.874 294.117C131.995 293.466 130.113 292.816 128.234 292.165C128.119 283.307 128.004 274.451 127.889 265.592L127.847 263.683C127.884 262.532 127.922 261.38 127.957 260.229C129.515 259.739 131.077 259.251 132.635 258.76L132.638 258.763Z" stroke="white" stroke-miterlimit="10"/>
<path d="M229.285 292.696C228.589 292.994 227.969 293.384 227.311 293.464C227.123 293.487 226.518 292.318 226.633 292.198C227.1 291.702 227.773 291.402 228.371 291.029C228.622 291.485 228.869 291.94 229.285 292.698V292.696Z" stroke="white" stroke-miterlimit="10"/>
<path d="M222.915 290.574C223.103 289.698 223.293 288.822 223.463 287.941C223.268 288.817 223.093 289.695 222.915 290.574Z" stroke="white" stroke-miterlimit="10"/>
<path d="M219.598 299.92C219.953 298.003 220.308 296.086 220.663 294.172C220.318 296.066 219.975 297.963 219.628 299.86C219.625 299.86 219.6 299.923 219.6 299.923L219.598 299.92Z" stroke="white" stroke-miterlimit="10"/>
<path d="M128.235 292.165C130.113 292.816 131.995 293.466 133.874 294.117C138.012 295.964 142.152 297.811 146.293 299.66C146.16 300.656 146.025 301.652 145.89 302.645C144.161 303.276 142.435 303.904 140.706 304.535C136.303 306.527 131.9 308.521 127.497 310.513C125.975 306.952 123.421 303.431 123.291 299.82C123.201 297.33 126.468 294.72 128.235 292.165V292.165Z" stroke="white" stroke-miterlimit="10"/>
<path d="M140.706 304.532C142.435 303.902 144.161 303.274 145.89 302.643C148.269 303.234 150.648 303.822 153.028 304.412L140.706 304.532Z" stroke="white" stroke-miterlimit="10"/>
<path d="M127.847 263.685L127.889 265.594C127.214 265.281 126.541 264.969 125.865 264.656C126.526 264.333 127.186 264.01 127.847 263.685V263.685Z" stroke="white" stroke-miterlimit="10"/>
</g>
</svg>
