<svg width="96" height="79" viewBox="0 0 96 79" fill="none" xmlns="http://www.w3.org/2000/svg">
<path fill-rule="evenodd" clip-rule="evenodd" d="M38.3749 23.5588C31.9403 23.5782 26.723 18.3609 26.723 11.907C26.723 5.45309 31.9403 0.23584 38.3942 0.23584H86.0836C91.3395 0.23584 95.6292 4.52557 95.6292 9.78146L95.6292 57.4709C95.6292 63.9248 90.412 69.142 83.9581 69.142C77.5235 69.1614 72.3062 63.9441 72.3062 57.4902V45.1621C72.3062 43.2684 70.0261 42.3409 68.6928 43.6742L33.367 79H0.98584C1.48851 77.9936 2.5058 76.8573 4.03771 75.3254L52.1909 27.1723C53.5242 25.839 52.5967 23.5588 50.703 23.5588L38.3749 23.5588Z" fill="#39AEA8" fill-opacity="0.35"/>
</svg>
