<svg width="975" height="710" viewBox="0 0 975 710" fill="none" xmlns="http://www.w3.org/2000/svg">
<path fill-rule="evenodd" clip-rule="evenodd" d="M537 227.5C537 101.855 634.874 0 755.607 0C876.341 0 974.215 101.855 974.215 227.5C974.215 351.933 878.22 453.033 759.095 454.972C758.777 454.99 758.456 455 758.134 455L553 455C544.164 455 537 447.837 537 439V227.938C537 227.918 537 227.898 537 227.878C537 227.752 537 227.626 537 227.5Z" fill="#39AEA8" fill-opacity="0.52"/>
<path d="M845.322 553.5C845.322 467.067 775.255 397 688.822 397C602.39 397 536.822 445 542.322 551C542.322 637.433 602.39 710 688.822 710C775.255 710 845.322 639.933 845.322 553.5Z" fill="#39AEA8" fill-opacity="0.52"/>
<path fill-rule="evenodd" clip-rule="evenodd" d="M437.215 227.5C437.215 101.855 339.341 0 218.607 0C97.8739 0 0 101.855 0 227.5C0 351.933 95.9947 453.033 215.12 454.972C215.438 454.99 215.758 455 216.081 455L421.215 455C430.051 455 437.215 447.837 437.215 439L437.215 227.938C437.215 227.918 437.215 227.898 437.215 227.878C437.215 227.752 437.215 227.626 437.215 227.5Z" fill="#39AEA8" fill-opacity="0.52"/>
<path d="M139 553.5C139 467.067 209.068 397 295.5 397C381.933 397 447.5 445 442 551C442 637.433 381.933 710 295.5 710C209.068 710 139 639.933 139 553.5Z" fill="#39AEA8" fill-opacity="0.52"/>
<path d="M483.134 56.873C483.152 56.0701 483.171 55.2789 483.189 54.4993C483.23 52.7369 484.924 55.1105 484.963 56.873C487.223 160.904 485.105 453.714 484.969 472.094C484.966 472.6 484.554 473 484.048 473C483.542 473 483.13 472.602 483.126 472.096C482.977 453.821 480.664 163.358 483.134 56.873Z" fill="#5A87DE"/>
</svg>
