<svg width="667" height="511" viewBox="0 0 667 511" fill="none" xmlns="http://www.w3.org/2000/svg">
<g clip-path="url(#clip0_320_2014)">
<path d="M290.875 420.832C290.967 419.66 291.036 418.519 291.013 417.386C291.013 417.508 291.013 417.638 291.021 417.769C291.013 417.202 291.044 416.643 291.029 416.084C291.029 416.168 291.029 416.244 291.029 416.321C291.098 411.641 291.573 406.977 291.596 402.305C291.612 403.079 291.742 399.648 291.65 398.966C291.688 396.998 291.604 394.677 291.688 392.586V392.716C291.903 376.104 287.954 358.167 285.615 342.827C285.738 341.371 284.541 339.947 284.066 338.92C283.752 338.063 283.568 337.228 283.146 336.393C297.815 355.111 299.548 407.552 290.868 420.817L290.875 420.832Z" fill="#39AEA8"/>
<path d="M291.627 398.751C291.635 398.813 291.65 398.874 291.658 398.935C291.658 398.935 291.642 398.797 291.627 398.751Z" fill="#39AEA8"/>
<path d="M259.182 287.568C259.213 287.606 259.244 287.652 259.274 287.69C259.205 287.598 258.906 287.223 259.044 287.422C259.021 287.392 258.929 287.277 258.983 287.338C258.968 287.315 259.006 287.361 259.021 287.376H259.014C259.136 287.499 258.929 287.277 258.891 287.208C259.159 287.537 258.086 286.273 258.508 286.756C258.369 286.603 257.833 286.051 258.193 286.427C253.5 278.729 258.776 250.016 267.894 247.971C260.141 258.816 259.236 278.814 259.182 287.56V287.568Z" fill="#39AEA8"/>
<path d="M250.647 283.003C250.18 283.011 248.385 282.498 248.769 282.544C246.959 281.678 245.264 280.506 243.37 279.84L243.416 279.855C243.002 279.694 242.365 279.442 241.898 279.35C241.691 279.304 241.484 279.273 241.284 279.243C208.947 265.786 192.123 201.742 213.157 177.709C193.656 216.708 221.538 267.433 250.647 283.003Z" fill="#39AEA8"/>
<path d="M243.24 279.802C243.286 279.817 243.37 279.863 243.439 279.893L243.24 279.802Z" fill="#39AEA8"/>
<path d="M209.192 175.005C200.382 173.627 208.456 171.038 207.153 168.817C202.092 154.112 214.208 143.045 219.637 129.55C226.262 68.9911 245.065 175.028 209.192 175.013V175.005ZM219.545 137.431C212.965 147.686 204.415 158.125 209.975 170.877C231.776 169.544 230.257 106.696 219.545 137.431Z" fill="#39AEA8"/>
<path d="M194.093 215.559C169.079 214.854 159.218 177.517 157.792 160.898C168.228 177.785 198.733 185.054 196.992 209.44C196.264 216.532 198.817 207.464 201.171 208.061C201.593 211.048 196.9 215.015 194.093 215.551V215.559ZM167.408 185.735C169.447 197.974 178.864 212.863 192.399 213.43C200.911 197.859 158.267 162.828 167.408 185.735Z" fill="#39AEA8"/>
<path d="M213.54 242.105C202.13 230.364 225.902 218.707 232.91 210.573C237.381 208.406 240.31 193.417 245.226 198.725C239.835 216.501 238.577 242.87 213.54 242.105ZM228.831 218.37C223.287 221.495 207.628 232.814 215.204 237.486C233.133 241.331 247.503 196.948 228.831 218.37Z" fill="#39AEA8"/>
<path d="M183.12 292.109C171.641 292.676 164.325 282.658 154.072 280.2C152.899 279.71 151.573 278.829 151.596 277.496C171.303 275.597 195.642 258.632 219.023 269.822C238.892 259.023 199.446 298.52 183.128 292.109H183.12ZM196.202 268.597C177.261 269.401 150.514 284.336 183.22 288.111C203.625 288.992 232.704 266.284 196.202 268.597Z" fill="#39AEA8"/>
<path d="M266.766 247.765C251.039 234.423 269.596 210.55 279.197 199.95C284.741 215.544 281.075 240.519 266.766 247.765ZM269.527 217.16C265.662 222.322 257.58 245.03 268.047 241.392C281.114 234.3 281.513 194.068 269.527 217.16Z" fill="#39AEA8"/>
<path d="M331.265 310.583C325.613 297.854 335.613 273.989 320.928 262.424C288.698 235.472 278.537 190.92 299.94 157.589C264.55 246.432 353.273 244.915 331.265 310.583Z" fill="#39AEA8"/>
<path d="M321.955 263.442C322.024 263.511 322.078 263.595 322.146 263.664C322.085 263.587 322.024 263.511 321.955 263.442Z" fill="#39AEA8"/>
<path d="M322.201 263.481C342.959 253.21 333.926 224.865 333.527 202.822C340.474 217.619 346.341 265.012 322.201 263.481Z" fill="#39AEA8"/>
<path d="M321.963 263.442C322.062 263.542 322.139 263.656 322.23 263.763C322.146 263.656 322.055 263.549 321.963 263.442Z" fill="#39AEA8"/>
<path d="M306.258 246.095C302.347 243.537 308.497 242.128 308.413 240.573C293.751 225.99 309.832 206.184 318.29 193.386C324.854 207.571 325.069 239.746 306.258 246.102V246.095ZM309.939 211.561C305.047 220.124 302.018 231.612 310.514 238.987C320.805 229.912 322.101 186.7 309.939 211.561Z" fill="#39AEA8"/>
<path d="M302.386 153.89C282.847 140.931 306.818 112.93 313.896 99.2513C319.985 110.655 319.156 130.89 309.747 141.559C307.83 144.125 296.596 151.837 298.996 144.194C314.463 137.944 314.617 120.39 312.96 106.236C308.72 117.525 286.911 140.035 303.528 151.99C303.973 152.787 303.306 153.905 302.386 153.89Z" fill="#39AEA8"/>
<path d="M361.049 172.148C361.133 172.041 361.224 171.926 361.309 171.819C361.217 171.926 361.133 172.041 361.049 172.148Z" fill="#39AEA8"/>
<path d="M361.44 171.674L361.317 171.82L361.44 171.674Z" fill="#39AEA8"/>
<path d="M361.578 171.513L361.47 171.636L361.578 171.513Z" fill="#39AEA8"/>
<path d="M361.724 171.352C361.685 171.398 361.647 171.437 361.608 171.483C361.647 171.437 361.685 171.398 361.724 171.352Z" fill="#39AEA8"/>
<path d="M361.877 171.183C361.831 171.23 361.785 171.283 361.739 171.33C361.785 171.283 361.831 171.23 361.877 171.183Z" fill="#39AEA8"/>
<path d="M362.007 171.038C361.961 171.084 361.915 171.13 361.877 171.176C361.915 171.13 361.961 171.084 362.007 171.038Z" fill="#39AEA8"/>
<path d="M426.115 105.815C426.092 105.853 426.061 105.9 426.038 105.946C426.061 105.9 426.084 105.861 426.115 105.815Z" fill="#39AEA8"/>
<path d="M423.737 105.731C423.914 105.348 424.182 104.927 424.519 104.551C424.19 104.919 423.906 105.371 423.737 105.731Z" fill="#39AEA8"/>
<path d="M425.539 103.709C425.187 103.908 424.842 104.199 424.542 104.528C424.842 104.199 425.187 103.908 425.539 103.709Z" fill="#39AEA8"/>
<path d="M394.053 289.705C374.66 288.112 431.045 286.963 441.704 274.142C467.784 261.367 483.136 236.897 502.115 217.313C490.912 252.75 437.08 293.128 394.053 289.705Z" fill="#39AEA8"/>
<path d="M475.982 246.141C472.676 227.966 492.844 214.188 506.663 205.802C512.276 218.385 493.603 237.241 482.224 242.089C479.846 240.711 481.733 238.382 483.504 237.479C531.661 192.781 479.379 216.463 475.982 246.141Z" fill="#39AEA8"/>
<path d="M361.087 172.049C361.087 172.049 361.064 172.118 361.049 172.157C361.064 172.118 361.079 172.087 361.087 172.049Z" fill="#39AEA8"/>
<path d="M361.217 171.344C361.217 171.405 361.21 171.474 361.202 171.535C361.202 171.474 361.217 171.405 361.217 171.344Z" fill="#39AEA8"/>
<path d="M362.114 170.892C361.823 171 361.524 171.092 361.217 171.153C361.532 171.092 361.831 171 362.114 170.892Z" fill="#39AEA8"/>
<path d="M405.18 169.399C412.097 174.01 417.074 185.827 418.078 192.322C417.074 185.827 412.097 174.002 405.18 169.399Z" fill="#39AEA8"/>
<path d="M426 127.85C431.62 123.637 433.568 118.904 433.798 113.857C433.568 118.912 431.62 123.637 426 127.85Z" fill="#39AEA8"/>
<path d="M425.248 124.985L425.194 124.786C425.462 125.812 425.723 126.831 425.999 127.857C425.746 126.9 425.493 125.95 425.248 124.985Z" fill="#39AEA8"/>
<path d="M423.998 117.365C424.205 119.854 424.558 122.328 425.187 124.748C424.558 122.328 424.205 119.861 423.998 117.365Z" fill="#39AEA8"/>
<path d="M423.983 117.181C423.983 117.227 423.983 117.281 423.99 117.327C423.99 117.273 423.99 117.227 423.983 117.181Z" fill="#39AEA8"/>
<path d="M426.928 96.8005C426.928 96.8005 426.889 96.8544 426.866 96.8851C426.889 96.8544 426.904 96.8236 426.928 96.8005Z" fill="#39AEA8"/>
<path d="M427.111 96.5554C427.111 96.5554 427.073 96.6092 427.058 96.6323C427.073 96.6092 427.096 96.5862 427.111 96.5554Z" fill="#39AEA8"/>
<path d="M427.219 96.4099C427.219 96.4099 427.165 96.4791 427.134 96.5176C427.157 96.4791 427.188 96.4484 427.219 96.4099Z" fill="#39AEA8"/>
<path d="M427.311 96.295L427.234 96.3873L427.311 96.295Z" fill="#39AEA8"/>
<path d="M427.403 96.1802C427.403 96.1802 427.357 96.2417 427.334 96.2725C427.357 96.2417 427.38 96.2109 427.403 96.1802Z" fill="#39AEA8"/>
<path d="M427.601 95.9274C427.54 96.0038 427.479 96.0802 427.418 96.1567C427.479 96.0802 427.54 96.0038 427.601 95.9274Z" fill="#39AEA8"/>
<path d="M427.702 95.8048L427.617 95.9125L427.702 95.8048Z" fill="#39AEA8"/>
<path d="M427.916 95.5521C427.847 95.6286 427.786 95.7126 427.717 95.7891C427.786 95.7126 427.847 95.6286 427.916 95.5521Z" fill="#39AEA8"/>
<path d="M428.024 95.4296C427.986 95.468 427.955 95.5065 427.924 95.5449C427.963 95.5065 427.993 95.468 428.024 95.4296Z" fill="#39AEA8"/>
<path d="M428.238 95.1844C428.169 95.2685 428.092 95.345 428.024 95.4291C428.092 95.345 428.169 95.2685 428.238 95.1844Z" fill="#39AEA8"/>
<path d="M428.346 95.0619C428.346 95.0619 428.277 95.1388 428.239 95.1772C428.277 95.1388 428.308 95.1003 428.346 95.0619Z" fill="#39AEA8"/>
<path d="M428.575 94.8245C428.499 94.9009 428.422 94.985 428.354 95.0614C428.422 94.9773 428.499 94.9009 428.575 94.8245Z" fill="#39AEA8"/>
<path d="M428.691 94.7019C428.691 94.7019 428.614 94.7788 428.576 94.8173C428.614 94.7788 428.653 94.7404 428.691 94.7019Z" fill="#39AEA8"/>
<path d="M429.044 94.342C428.921 94.4569 428.806 94.5795 428.691 94.702C428.806 94.5795 428.921 94.4646 429.044 94.342Z" fill="#39AEA8"/>
<path d="M429.288 94.0969C429.204 94.1734 429.128 94.2574 429.051 94.3339C429.128 94.2574 429.212 94.1734 429.288 94.0969Z" fill="#39AEA8"/>
<path d="M429.412 93.9821C429.412 93.9821 429.335 94.0513 429.297 94.0897C429.335 94.0513 429.374 94.0205 429.412 93.9821Z" fill="#39AEA8"/>
<path d="M429.664 93.7369L429.419 93.9739C429.504 93.8975 429.58 93.8134 429.664 93.7369Z" fill="#39AEA8"/>
<path d="M429.796 93.6221C429.757 93.6528 429.719 93.6913 429.673 93.7297C429.711 93.6913 429.75 93.6528 429.796 93.6221Z" fill="#39AEA8"/>
<path d="M430.055 93.3846C429.971 93.4611 429.887 93.5375 429.803 93.614C429.887 93.5375 429.971 93.4611 430.055 93.3846Z" fill="#39AEA8"/>
<path d="M430.179 93.2698C430.179 93.2698 430.11 93.3313 430.079 93.3621C430.11 93.3313 430.148 93.3005 430.179 93.2698Z" fill="#39AEA8"/>
<path d="M430.34 93.1318C430.302 93.1703 430.256 93.2087 430.217 93.2395C430.256 93.201 430.302 93.1626 430.34 93.1318Z" fill="#39AEA8"/>
<path d="M426.03 282.275C407.641 269.202 420.095 239.761 435.109 229.345C436.727 245.153 448.583 275.903 426.03 282.275ZM419.865 266.667C433.553 298.206 439.074 248.714 432.172 236.72C425.57 245.314 417.879 255.155 419.865 266.667Z" fill="#39AEA8"/>
<path d="M458.789 301.086C450.799 304.295 431.559 283.746 439.25 282.972C443.859 296.919 461.772 303.644 473.321 294.583C481.418 299.301 463.168 301.989 458.789 301.078V301.086Z" fill="#39AEA8"/>
<path d="M480.981 301.185C477.308 279.12 450.799 284.619 446.934 276.317C457.746 277.336 491.134 288.663 480.981 301.185Z" fill="#39AEA8"/>
<path d="M295.438 384.146C294.518 366.01 294.579 345.423 281.068 331.552C301.097 354.606 294.18 388.481 294.549 416.643C294.901 405.805 295.2 394.976 295.438 384.138V384.146Z" fill="#39AEA8"/>
<path d="M278.622 329.048C277.556 327.999 276.459 326.965 275.363 325.946C276.459 326.965 277.548 327.991 278.622 329.048Z" fill="#39AEA8"/>
<path d="M261.835 296.146C261.866 296.276 261.889 296.413 261.92 296.543C261.889 296.413 261.866 296.276 261.835 296.146Z" fill="#39AEA8"/>
<path d="M260.478 289.367C260.08 287.062 259.788 284.742 259.727 282.383C259.788 284.734 260.08 287.062 260.478 289.367Z" fill="#39AEA8"/>
<path d="M259.711 282.122C259.711 282.206 259.719 282.298 259.727 282.39C259.727 282.306 259.719 282.214 259.711 282.122Z" fill="#39AEA8"/>
<path d="M259.704 282C259.704 282.038 259.704 282.084 259.711 282.13C259.711 282.092 259.711 282.046 259.704 282Z" fill="#39AEA8"/>
<path d="M259.696 281.854C259.696 281.9 259.696 281.954 259.704 281.993C259.704 281.947 259.704 281.9 259.696 281.854Z" fill="#39AEA8"/>
<path d="M259.688 281.732C259.688 281.77 259.688 281.816 259.696 281.855C259.696 281.816 259.696 281.77 259.688 281.732Z" fill="#39AEA8"/>
<path d="M259.681 281.555C259.681 281.609 259.681 281.67 259.688 281.731C259.688 281.67 259.688 281.609 259.681 281.555Z" fill="#39AEA8"/>
<path d="M259.673 281.471C259.673 281.471 259.673 281.533 259.681 281.556C259.681 281.525 259.681 281.502 259.673 281.471Z" fill="#39AEA8"/>
<path d="M259.52 272.847C259.596 271.208 259.765 269.569 260.049 267.953C259.259 272.403 259.397 276.953 259.673 281.471C259.497 278.599 259.382 275.719 259.52 272.847Z" fill="#39AEA8"/>
<path d="M260.087 267.747C260.079 267.808 260.064 267.861 260.056 267.922C260.064 267.861 260.079 267.808 260.087 267.747Z" fill="#39AEA8"/>
<path d="M260.133 267.509C260.118 267.578 260.11 267.647 260.095 267.708C260.11 267.639 260.118 267.57 260.133 267.509Z" fill="#39AEA8"/>
<path d="M260.164 267.325L260.141 267.448L260.164 267.325Z" fill="#39AEA8"/>
<path d="M260.187 267.226C260.187 267.226 260.172 267.295 260.164 267.326C260.164 267.295 260.179 267.257 260.187 267.226Z" fill="#39AEA8"/>
<path d="M260.21 267.126C260.21 267.126 260.194 267.195 260.187 267.234C260.187 267.195 260.202 267.165 260.21 267.126Z" fill="#39AEA8"/>
<path d="M260.248 266.919C260.233 266.988 260.217 267.057 260.202 267.126C260.217 267.057 260.233 266.988 260.248 266.919Z" fill="#39AEA8"/>
<path d="M256.782 284.627C256.682 283.202 256.621 281.785 256.59 280.361C256.621 281.777 256.69 283.217 256.782 284.627Z" fill="#39AEA8"/>
<path d="M256.759 271.476C258.162 262.316 260.609 253.08 265.723 245.252C259.765 254.772 256.629 266.199 256.56 277.412C256.567 275.428 256.636 273.445 256.759 271.476Z" fill="#39AEA8"/>
<path d="M260.309 266.659C260.294 266.735 260.271 266.819 260.256 266.896C260.271 266.819 260.294 266.735 260.309 266.659Z" fill="#39AEA8"/>
<path d="M260.363 266.398C260.348 266.475 260.332 266.544 260.317 266.62C260.332 266.551 260.348 266.475 260.363 266.398Z" fill="#39AEA8"/>
<path d="M260.424 266.146C260.409 266.215 260.394 266.283 260.378 266.352C260.394 266.283 260.409 266.215 260.424 266.146Z" fill="#39AEA8"/>
<path d="M260.486 265.885C260.471 265.954 260.455 266.015 260.44 266.084C260.455 266.015 260.471 265.954 260.486 265.885Z" fill="#39AEA8"/>
<path d="M260.555 265.625C260.539 265.686 260.524 265.755 260.501 265.824C260.517 265.755 260.532 265.686 260.555 265.625Z" fill="#39AEA8"/>
<path d="M260.624 265.357C260.601 265.426 260.585 265.502 260.562 265.571C260.578 265.502 260.601 265.426 260.624 265.357Z" fill="#39AEA8"/>
<path d="M260.708 265.051C260.685 265.135 260.662 265.219 260.639 265.31C260.662 265.226 260.685 265.142 260.708 265.051Z" fill="#39AEA8"/>
<path d="M268.023 246.072C268 246.248 267.947 246.416 267.863 246.577C267.955 246.416 268.008 246.24 268.023 246.072Z" fill="#39AEA8"/>
<path d="M255.969 283.539C256.069 283.6 256.153 283.669 256.229 283.745C256.145 283.677 256.061 283.608 255.969 283.539Z" fill="#39AEA8"/>
<path d="M216.577 244.264C216.615 244.356 216.661 244.44 216.699 244.524C216.661 244.44 216.615 244.356 216.577 244.264Z" fill="#39AEA8"/>
<path d="M216.454 243.996C216.493 244.073 216.531 244.149 216.561 244.226C216.523 244.149 216.485 244.073 216.454 243.996Z" fill="#39AEA8"/>
<path d="M216.332 243.736C216.362 243.805 216.393 243.866 216.423 243.935C216.393 243.866 216.362 243.805 216.332 243.736Z" fill="#39AEA8"/>
<path d="M216.209 243.483C216.232 243.537 216.255 243.591 216.286 243.645C216.263 243.591 216.24 243.537 216.209 243.483Z" fill="#39AEA8"/>
<path d="M216.094 243.238C216.094 243.238 216.132 243.315 216.148 243.353C216.132 243.315 216.117 243.276 216.094 243.238Z" fill="#39AEA8"/>
<path d="M211.071 230.233C211.14 230.448 211.209 230.662 211.286 230.877C211.209 230.662 211.14 230.448 211.071 230.233Z" fill="#39AEA8"/>
<path d="M211.071 230.233C209.261 222.253 205.834 214.747 206.639 206.353C205.834 214.747 209.261 222.253 211.071 230.233Z" fill="#39AEA8"/>
<path d="M204.246 216.685C204.262 216.777 204.277 216.876 204.292 216.968C204.277 216.868 204.262 216.777 204.246 216.685Z" fill="#39AEA8"/>
<path d="M204.2 216.355L204.238 216.623L204.2 216.355Z" fill="#39AEA8"/>
<path d="M204.146 216.019C204.162 216.11 204.177 216.202 204.185 216.286C204.177 216.194 204.162 216.103 204.146 216.019Z" fill="#39AEA8"/>
<path d="M204.116 215.735C204.124 215.812 204.139 215.896 204.147 215.972C204.139 215.896 204.124 215.812 204.116 215.735Z" fill="#39AEA8"/>
<path d="M204.07 215.406L204.1 215.658L204.07 215.406Z" fill="#39AEA8"/>
<path d="M204.031 215.076C204.039 215.153 204.054 215.229 204.062 215.306C204.054 215.229 204.039 215.153 204.031 215.076Z" fill="#39AEA8"/>
<path d="M204.001 214.793C204.001 214.854 204.016 214.915 204.024 214.977C204.024 214.915 204.009 214.854 204.001 214.793Z" fill="#39AEA8"/>
<path d="M203.963 214.464C203.97 214.54 203.978 214.617 203.986 214.685C203.978 214.609 203.97 214.533 203.963 214.464Z" fill="#39AEA8"/>
<path d="M203.932 214.127C203.932 214.196 203.947 214.264 203.955 214.333C203.947 214.264 203.94 214.196 203.932 214.127Z" fill="#39AEA8"/>
<path d="M203.901 213.843C203.901 213.897 203.909 213.943 203.917 213.989C203.917 213.943 203.909 213.89 203.901 213.843Z" fill="#39AEA8"/>
<path d="M203.878 213.506C203.878 213.552 203.886 213.599 203.886 213.645C203.886 213.599 203.886 213.552 203.878 213.506Z" fill="#39AEA8"/>
<path d="M203.847 213.192C203.847 213.246 203.855 213.308 203.863 213.362C203.863 213.308 203.855 213.246 203.847 213.192Z" fill="#39AEA8"/>
<path d="M203.832 212.886C203.832 212.924 203.832 212.971 203.84 213.009C203.84 212.971 203.84 212.932 203.832 212.886Z" fill="#39AEA8"/>
<path d="M203.786 212.189C203.786 212.258 203.786 212.327 203.794 212.395C203.794 212.327 203.786 212.258 203.786 212.189Z" fill="#39AEA8"/>
<path d="M205.696 192.452C207.214 186.44 209.215 180.535 211.255 174.691C207.206 185.927 203.617 197.553 203.709 209.646C203.679 203.879 204.553 198.066 205.688 192.452H205.696Z" fill="#39AEA8"/>
<path d="M206.646 205.38C206.646 205.564 206.639 205.74 206.639 205.924C206.639 205.74 206.646 205.564 206.646 205.38Z" fill="#39AEA8"/>
<path d="M206.922 200.877C206.922 200.877 206.922 200.946 206.915 200.985C206.915 200.946 206.915 200.915 206.922 200.877Z" fill="#39AEA8"/>
<path d="M206.953 200.509C206.953 200.555 206.953 200.602 206.938 200.648C206.938 200.602 206.945 200.555 206.953 200.509Z" fill="#39AEA8"/>
<path d="M206.991 200.119C206.991 200.187 206.976 200.256 206.969 200.325C206.969 200.256 206.984 200.187 206.991 200.119Z" fill="#39AEA8"/>
<path d="M207.037 199.713C207.03 199.812 207.014 199.911 207.007 200.011C207.014 199.911 207.03 199.812 207.037 199.713Z" fill="#39AEA8"/>
<path d="M207.068 199.452C207.068 199.514 207.053 199.575 207.045 199.628C207.045 199.567 207.06 199.506 207.068 199.452Z" fill="#39AEA8"/>
<path d="M207.114 199.054C207.106 199.161 207.091 199.276 207.076 199.383C207.084 199.276 207.099 199.161 207.114 199.054Z" fill="#39AEA8"/>
<path d="M207.168 198.602C207.152 198.732 207.137 198.854 207.122 198.977C207.137 198.854 207.152 198.724 207.168 198.602Z" fill="#39AEA8"/>
<path d="M207.199 198.403C207.191 198.472 207.183 198.533 207.168 198.602C207.176 198.533 207.183 198.472 207.199 198.403Z" fill="#39AEA8"/>
<path d="M207.245 198.043C207.229 198.142 207.214 198.249 207.206 198.349C207.214 198.242 207.229 198.142 207.245 198.043Z" fill="#39AEA8"/>
<path d="M207.283 197.729C207.275 197.79 207.268 197.851 207.26 197.913C207.268 197.851 207.275 197.79 207.283 197.729Z" fill="#39AEA8"/>
<path d="M207.329 197.4C207.329 197.446 207.321 197.492 207.314 197.531C207.321 197.484 207.329 197.438 207.329 197.4Z" fill="#39AEA8"/>
<path d="M207.383 197.047C207.383 197.047 207.367 197.117 207.367 197.155C207.367 197.117 207.375 197.086 207.383 197.047Z" fill="#39AEA8"/>
<path d="M213.272 175.419C213.287 174.929 212.98 174.461 212.497 174.308C213.072 174.5 213.41 175.143 213.218 175.725C213.249 175.626 213.272 175.526 213.272 175.419Z" fill="#39AEA8"/>
<path d="M211.524 174.446C211.485 174.469 211.447 174.5 211.416 174.531C211.447 174.5 211.485 174.477 211.524 174.446Z" fill="#39AEA8"/>
<path d="M207.245 172.386C207.896 172.554 208.548 172.669 209.215 172.708C208.548 172.669 207.896 172.547 207.245 172.386Z" fill="#39AEA8"/>
<path d="M212.282 172.807C212.213 172.815 212.144 172.815 212.068 172.815C212.144 172.815 212.213 172.815 212.282 172.807Z" fill="#39AEA8"/>
<path d="M211.301 172.524C211.424 172.616 211.554 172.692 211.7 172.746C211.554 172.7 211.424 172.623 211.301 172.524Z" fill="#39AEA8"/>
<path d="M211.302 172.524C211.248 172.539 211.194 172.547 211.14 172.562C211.194 172.555 211.248 172.539 211.302 172.524Z" fill="#39AEA8"/>
<path d="M205.803 171.704C205.956 171.865 206.14 172.003 206.347 172.102C206.14 172.003 205.956 171.865 205.803 171.704Z" fill="#39AEA8"/>
<path d="M205.312 170.862C205.381 171.076 205.473 171.283 205.604 171.459C205.473 171.275 205.381 171.076 205.312 170.862Z" fill="#39AEA8"/>
<path d="M205.243 169.935C205.205 170.203 205.22 170.479 205.281 170.739C205.22 170.479 205.205 170.203 205.243 169.935Z" fill="#39AEA8"/>
<path d="M205.282 169.744C205.274 169.782 205.259 169.821 205.259 169.867C205.259 169.828 205.274 169.782 205.282 169.744Z" fill="#39AEA8"/>
<path d="M205.32 169.621C205.32 169.621 205.335 169.583 205.343 169.568C205.32 169.629 205.304 169.682 205.289 169.743C205.297 169.705 205.312 169.659 205.327 169.621H205.32Z" fill="#39AEA8"/>
<path d="M213.065 172.034C213.057 172.087 213.05 172.126 213.034 172.172C213.05 172.126 213.057 172.08 213.065 172.034Z" fill="#39AEA8"/>
<path d="M207.881 168.296C206.876 168.028 205.795 168.48 205.381 169.445C205.795 168.488 206.869 168.02 207.881 168.296Z" fill="#39AEA8"/>
<path d="M206.631 164.168C206.631 164.168 206.646 164.222 206.654 164.253C206.646 164.222 206.639 164.199 206.631 164.168Z" fill="#39AEA8"/>
<path d="M206.593 163.984C206.593 163.984 206.608 164.046 206.608 164.069C206.608 164.038 206.593 164.007 206.593 163.984Z" fill="#39AEA8"/>
<path d="M206.462 163.333L206.539 163.746L206.462 163.333Z" fill="#39AEA8"/>
<path d="M206.439 163.18C206.439 163.226 206.455 163.272 206.463 163.318C206.455 163.272 206.447 163.226 206.439 163.18Z" fill="#39AEA8"/>
<path d="M206.409 163.011L206.432 163.15L206.409 163.011Z" fill="#39AEA8"/>
<path d="M206.386 162.843C206.386 162.889 206.401 162.943 206.409 162.989C206.401 162.943 206.393 162.889 206.386 162.843Z" fill="#39AEA8"/>
<path d="M206.102 159.902C206.133 160.859 206.225 161.84 206.378 162.835C206.217 161.84 206.133 160.859 206.102 159.902Z" fill="#39AEA8"/>
<path d="M229.774 152.81C229.751 152.871 229.736 152.94 229.713 153.001C229.736 152.94 229.759 152.871 229.774 152.81Z" fill="#39AEA8"/>
<path d="M229.843 152.588C229.828 152.642 229.805 152.703 229.79 152.757C229.805 152.703 229.828 152.642 229.843 152.588Z" fill="#39AEA8"/>
<path d="M229.92 152.366C229.905 152.419 229.889 152.473 229.866 152.527C229.882 152.473 229.897 152.419 229.92 152.366Z" fill="#39AEA8"/>
<path d="M229.974 152.167C229.958 152.205 229.951 152.251 229.935 152.29C229.951 152.251 229.958 152.205 229.974 152.167Z" fill="#39AEA8"/>
<path d="M230.004 152.052C230.004 152.052 229.981 152.129 229.974 152.167C229.981 152.129 229.997 152.09 230.004 152.052Z" fill="#39AEA8"/>
<path d="M230.035 151.952L230.004 152.052L230.035 151.952Z" fill="#39AEA8"/>
<path d="M230.073 151.829C230.066 151.868 230.05 151.914 230.042 151.953C230.058 151.914 230.066 151.868 230.073 151.829Z" fill="#39AEA8"/>
<path d="M230.104 151.722C230.104 151.722 230.081 151.799 230.073 151.83C230.081 151.792 230.096 151.753 230.104 151.722Z" fill="#39AEA8"/>
<path d="M230.127 151.623L230.104 151.723L230.127 151.623Z" fill="#39AEA8"/>
<path d="M230.15 151.523L230.127 151.623C230.127 151.623 230.142 151.562 230.15 151.523Z" fill="#39AEA8"/>
<path d="M230.188 151.385C230.173 151.431 230.165 151.485 230.15 151.531C230.165 151.485 230.173 151.431 230.188 151.385Z" fill="#39AEA8"/>
<path d="M230.25 151.14C230.234 151.194 230.219 151.255 230.211 151.309C230.227 151.255 230.242 151.194 230.25 151.14Z" fill="#39AEA8"/>
<path d="M230.311 150.872C230.295 150.941 230.28 151.01 230.265 151.071C230.28 151.002 230.295 150.933 230.311 150.872Z" fill="#39AEA8"/>
<path d="M230.342 150.719C230.334 150.757 230.326 150.804 230.311 150.842C230.319 150.804 230.326 150.757 230.342 150.719Z" fill="#39AEA8"/>
<path d="M230.395 150.466C230.38 150.55 230.364 150.627 230.342 150.711C230.357 150.627 230.38 150.55 230.395 150.466Z" fill="#39AEA8"/>
<path d="M230.449 150.221C230.434 150.298 230.418 150.366 230.403 150.443C230.418 150.366 230.434 150.298 230.449 150.221Z" fill="#39AEA8"/>
<path d="M230.993 144.73C230.955 146.56 230.802 148.398 230.449 150.191C230.802 148.398 230.947 146.568 230.993 144.73Z" fill="#39AEA8"/>
<path d="M228.54 119.701C227.734 115.81 227.711 111.299 225.84 107.791C228.992 117.426 230.135 128.202 230.863 138.396C230.84 132.077 229.575 125.904 228.54 119.701Z" fill="#39AEA8"/>
<path d="M219.959 126.67C219.959 126.67 219.936 126.724 219.928 126.755C219.936 126.732 219.951 126.701 219.959 126.67Z" fill="#39AEA8"/>
<path d="M220.02 126.502C220.02 126.502 219.997 126.571 219.982 126.602C219.997 126.563 220.005 126.532 220.02 126.502Z" fill="#39AEA8"/>
<path d="M220.097 126.295C221.776 122.144 222.88 117.755 222.773 113.252C222.896 117.809 221.738 122.251 220.035 126.448C220.058 126.394 220.074 126.348 220.097 126.295Z" fill="#39AEA8"/>
<path d="M194.79 213.284C194.683 213.292 194.576 213.3 194.469 213.292C194.576 213.292 194.683 213.292 194.79 213.284Z" fill="#39AEA8"/>
<path d="M182.284 210.32C185.014 211.684 188.066 212.595 191.141 212.756C188.066 212.603 185.014 211.684 182.284 210.32Z" fill="#39AEA8"/>
<path d="M200.151 205.955C199.155 207.402 198.349 209.103 196.846 210.098C198.357 209.103 199.162 207.402 200.151 205.955Z" fill="#39AEA8"/>
<path d="M196.885 209.769L196.869 209.9C196.869 209.853 196.877 209.807 196.885 209.769Z" fill="#39AEA8"/>
<path d="M196.908 209.562C196.908 209.601 196.908 209.647 196.892 209.685C196.892 209.647 196.892 209.601 196.908 209.562Z" fill="#39AEA8"/>
<path d="M196.931 209.363C196.931 209.363 196.931 209.424 196.923 209.455C196.923 209.424 196.923 209.394 196.931 209.363Z" fill="#39AEA8"/>
<path d="M197.115 206.889C197.115 206.973 197.115 207.065 197.107 207.149C197.107 207.065 197.115 206.973 197.115 206.889Z" fill="#39AEA8"/>
<path d="M201.601 206.422C201.601 206.345 201.601 206.276 201.578 206.208C201.608 206.253 201.601 206.529 201.601 206.422Z" fill="#39AEA8"/>
<path d="M201.516 206.039C201.539 206.085 201.563 206.131 201.578 206.185C201.563 206.131 201.539 206.085 201.516 206.039Z" fill="#39AEA8"/>
<path d="M180.689 179.317C173.051 173.29 163.635 169.353 160.33 159.649C164.969 172.018 178.81 176.254 188.081 184.809C185.858 182.664 183.189 181.094 180.689 179.317Z" fill="#39AEA8"/>
<path d="M158.551 158.654C159.118 158.768 159.724 159.082 160.33 159.649C159.724 159.09 159.118 158.776 158.551 158.654Z" fill="#39AEA8"/>
<path d="M158.152 158.608C158.282 158.608 158.413 158.631 158.551 158.661C158.413 158.631 158.282 158.615 158.152 158.608Z" fill="#39AEA8"/>
<path d="M155.982 161.87C156.058 162.177 156.173 162.498 156.334 162.828C156.173 162.498 156.058 162.184 155.982 161.87Z" fill="#39AEA8"/>
<path d="M183.227 289.812L183.48 289.827L183.227 289.812Z" fill="#39AEA8"/>
<path d="M182.76 289.789C182.913 289.789 183.059 289.804 183.212 289.812C183.059 289.804 182.913 289.796 182.76 289.789Z" fill="#39AEA8"/>
<path d="M151.733 275.543C151.894 276.508 152.753 277.198 153.673 277.665C152.753 277.198 151.894 276.508 151.733 275.543Z" fill="#39AEA8"/>
<path d="M212.068 279.794C211.823 279.993 211.577 280.185 211.332 280.384C211.577 280.192 211.823 279.993 212.068 279.794Z" fill="#39AEA8"/>
<path d="M212.497 279.434C212.382 279.526 212.267 279.626 212.145 279.717C212.26 279.618 212.382 279.526 212.497 279.434Z" fill="#39AEA8"/>
<path d="M160.061 275.313C167.484 274.525 173.013 268.704 180.007 266.644C173.013 268.704 167.484 274.525 160.061 275.313Z" fill="#39AEA8"/>
<path d="M153.781 273.184C152.799 273.207 151.872 273.881 151.726 274.892C152.968 271.231 157.722 274.479 160.061 275.313C158.075 274.433 155.974 273.338 153.781 273.184Z" fill="#39AEA8"/>
<path d="M198.104 263.726C198.579 263.749 199.047 263.779 199.523 263.825C199.047 263.779 198.572 263.749 198.104 263.726Z" fill="#39AEA8"/>
<path d="M268.699 245.038C268.568 245.337 268.315 245.582 268.009 245.689C268.315 245.574 268.568 245.329 268.699 245.038Z" fill="#39AEA8"/>
<path d="M261.92 239.363C262.779 241.339 264.136 243.192 266.122 244.862C264.136 243.208 262.779 241.339 261.92 239.363Z" fill="#39AEA8"/>
<path d="M261.452 238.114C261.59 238.535 261.744 238.949 261.92 239.363C261.744 238.949 261.583 238.535 261.452 238.114Z" fill="#39AEA8"/>
<path d="M268.66 243.973C268.683 244.02 268.707 244.066 268.73 244.112C268.714 244.066 268.691 244.02 268.66 243.973Z" fill="#39AEA8"/>
<path d="M268.599 243.874C268.599 243.874 268.638 243.935 268.661 243.966C268.638 243.935 268.622 243.905 268.599 243.874Z" fill="#39AEA8"/>
<path d="M261.329 237.724C261.368 237.854 261.406 237.984 261.444 238.106C261.406 237.976 261.36 237.846 261.329 237.724Z" fill="#39AEA8"/>
<path d="M261.299 237.616L261.322 237.701L261.299 237.616Z" fill="#39AEA8"/>
<path d="M261.222 237.333L261.261 237.479L261.222 237.333Z" fill="#39AEA8"/>
<path d="M278.331 197.698C278.292 197.714 278.246 197.729 278.208 197.752C278.246 197.729 278.292 197.714 278.331 197.698Z" fill="#39AEA8"/>
<path d="M329.194 305.979C329.194 307.389 330.168 308.155 331.211 308.269C330.161 308.155 329.194 307.389 329.194 305.979Z" fill="#39AEA8"/>
<path d="M328.596 274.525C331.61 284.65 329.777 295.594 329.194 305.918C329.777 295.571 331.602 284.634 328.596 274.525Z" fill="#39AEA8"/>
<path d="M333.834 305.206C333.956 302.61 334.225 300.013 334.439 297.417C334.209 300.174 333.926 302.931 333.811 305.696C333.811 305.535 333.826 305.367 333.834 305.206Z" fill="#39AEA8"/>
<path d="M334.462 297.149L334.439 297.401L334.462 297.149Z" fill="#39AEA8"/>
<path d="M334.493 296.881L334.478 297.072L334.493 296.881Z" fill="#39AEA8"/>
<path d="M334.509 296.59C334.509 296.636 334.509 296.682 334.493 296.728C334.493 296.682 334.493 296.636 334.509 296.59Z" fill="#39AEA8"/>
<path d="M334.554 296C334.547 296.099 334.539 296.199 334.539 296.298C334.539 296.199 334.547 296.099 334.554 296Z" fill="#39AEA8"/>
<path d="M334.608 294.997C334.608 295.096 334.6 295.188 334.593 295.287C334.593 295.188 334.6 295.096 334.608 294.997Z" fill="#39AEA8"/>
<path d="M334.631 294.599C334.631 294.729 334.616 294.866 334.608 294.996C334.608 294.866 334.623 294.729 334.631 294.599Z" fill="#39AEA8"/>
<path d="M334.639 294.384C334.639 294.453 334.639 294.529 334.631 294.598C334.631 294.529 334.631 294.453 334.639 294.384Z" fill="#39AEA8"/>
<path d="M334.692 293.32C334.746 292.209 334.792 291.091 334.815 289.973C334.785 291.413 334.715 292.852 334.646 294.292C334.662 293.971 334.677 293.641 334.692 293.32Z" fill="#39AEA8"/>
<path d="M334.409 280.054C334.807 283.187 334.892 286.365 334.83 289.536C334.892 286.365 334.807 283.187 334.409 280.054Z" fill="#39AEA8"/>
<path d="M334.378 279.809C334.386 279.886 334.401 279.955 334.409 280.031C334.401 279.955 334.393 279.886 334.378 279.809Z" fill="#39AEA8"/>
<path d="M334.34 279.564C334.347 279.641 334.363 279.709 334.37 279.786C334.363 279.709 334.347 279.641 334.34 279.564Z" fill="#39AEA8"/>
<path d="M334.301 279.296C334.317 279.38 334.324 279.457 334.332 279.541C334.324 279.457 334.309 279.38 334.301 279.296Z" fill="#39AEA8"/>
<path d="M334.263 279.005L334.301 279.288L334.263 279.005Z" fill="#39AEA8"/>
<path d="M334.209 278.699C334.225 278.79 334.24 278.882 334.255 278.974C334.24 278.882 334.225 278.79 334.209 278.699Z" fill="#39AEA8"/>
<path d="M334.163 278.392C334.179 278.484 334.194 278.576 334.209 278.675C334.194 278.583 334.179 278.492 334.163 278.392Z" fill="#39AEA8"/>
<path d="M334.117 278.117C334.132 278.208 334.148 278.3 334.163 278.384C334.148 278.293 334.132 278.201 334.117 278.117Z" fill="#39AEA8"/>
<path d="M334.064 277.818C334.079 277.902 334.094 277.986 334.11 278.078C334.094 277.994 334.079 277.91 334.064 277.818Z" fill="#39AEA8"/>
<path d="M334.002 277.504C334.017 277.588 334.033 277.672 334.048 277.756C334.033 277.672 334.017 277.588 334.002 277.504Z" fill="#39AEA8"/>
<path d="M333.949 277.221C333.964 277.297 333.979 277.381 333.995 277.458C333.979 277.381 333.964 277.297 333.949 277.221Z" fill="#39AEA8"/>
<path d="M333.895 276.929C333.91 277.014 333.926 277.098 333.949 277.174C333.933 277.09 333.918 277.006 333.895 276.929Z" fill="#39AEA8"/>
<path d="M333.833 276.623C333.849 276.707 333.864 276.784 333.887 276.868C333.872 276.784 333.856 276.707 333.833 276.623Z" fill="#39AEA8"/>
<path d="M333.765 276.309L333.818 276.554L333.765 276.309Z" fill="#39AEA8"/>
<path d="M333.703 276.033C333.718 276.11 333.741 276.186 333.757 276.263C333.741 276.186 333.718 276.11 333.703 276.033Z" fill="#39AEA8"/>
<path d="M333.634 275.735C333.657 275.819 333.673 275.903 333.688 275.979C333.673 275.895 333.65 275.811 333.634 275.735Z" fill="#39AEA8"/>
<path d="M333.558 275.428C333.581 275.505 333.596 275.589 333.619 275.673C333.596 275.589 333.581 275.513 333.558 275.428Z" fill="#39AEA8"/>
<path d="M333.481 275.114C333.504 275.198 333.527 275.282 333.542 275.367C333.519 275.282 333.504 275.198 333.481 275.114Z" fill="#39AEA8"/>
<path d="M333.412 274.846C333.435 274.93 333.458 275.007 333.473 275.091C333.45 275.007 333.435 274.93 333.412 274.846Z" fill="#39AEA8"/>
<path d="M333.335 274.548C333.358 274.632 333.381 274.716 333.404 274.8C333.381 274.716 333.358 274.632 333.335 274.548Z" fill="#39AEA8"/>
<path d="M328.542 274.302C328.558 274.371 328.581 274.448 328.596 274.517C328.581 274.448 328.558 274.371 328.542 274.302Z" fill="#39AEA8"/>
<path d="M333.243 274.234C333.266 274.318 333.289 274.402 333.312 274.486C333.289 274.402 333.266 274.318 333.243 274.234Z" fill="#39AEA8"/>
<path d="M328.481 274.08C328.496 274.134 328.512 274.18 328.527 274.242C328.512 274.188 328.496 274.134 328.481 274.08Z" fill="#39AEA8"/>
<path d="M328.42 273.851C328.435 273.904 328.45 273.958 328.466 274.012C328.45 273.958 328.435 273.904 328.42 273.851Z" fill="#39AEA8"/>
<path d="M333.158 273.927C333.143 273.866 333.128 273.805 333.105 273.743C333.143 273.889 333.189 274.042 333.227 274.194C333.204 274.11 333.181 274.019 333.151 273.927H333.158Z" fill="#39AEA8"/>
<path d="M328.343 273.575C328.358 273.644 328.381 273.713 328.397 273.781C328.374 273.713 328.358 273.644 328.343 273.575Z" fill="#39AEA8"/>
<path d="M328.282 273.353C328.305 273.429 328.32 273.498 328.343 273.567C328.32 273.498 328.305 273.422 328.282 273.353Z" fill="#39AEA8"/>
<path d="M333.051 273.529L333.097 273.705L333.051 273.529Z" fill="#39AEA8"/>
<path d="M328.22 273.138C328.236 273.185 328.251 273.231 328.259 273.277C328.243 273.231 328.236 273.185 328.22 273.138Z" fill="#39AEA8"/>
<path d="M333.013 273.376C333.013 273.376 333.029 273.445 333.044 273.483C333.036 273.445 333.029 273.414 333.013 273.376Z" fill="#39AEA8"/>
<path d="M332.952 273.154C332.967 273.2 332.975 273.246 332.99 273.292C332.975 273.246 332.967 273.2 332.952 273.154Z" fill="#39AEA8"/>
<path d="M328.159 272.932C328.159 272.932 328.182 273.009 328.19 273.047C328.174 273.009 328.167 272.97 328.159 272.932Z" fill="#39AEA8"/>
<path d="M328.098 272.709C328.113 272.748 328.121 272.786 328.136 272.825C328.121 272.786 328.113 272.748 328.098 272.709Z" fill="#39AEA8"/>
<path d="M328.013 272.418C328.013 272.418 328.029 272.488 328.044 272.518C328.036 272.488 328.021 272.449 328.013 272.418Z" fill="#39AEA8"/>
<path d="M319.969 259.421C318.911 258.181 317.937 256.871 316.994 255.546C317.937 256.871 318.942 258.188 319.969 259.421Z" fill="#39AEA8"/>
<path d="M325.207 258.495C325.253 258.541 325.299 258.587 325.345 258.633C325.299 258.587 325.253 258.541 325.207 258.495Z" fill="#39AEA8"/>
<path d="M325.015 258.303C325.061 258.349 325.107 258.395 325.153 258.442C325.107 258.395 325.061 258.349 325.015 258.303Z" fill="#39AEA8"/>
<path d="M324.831 258.119C324.877 258.166 324.923 258.212 324.962 258.258C324.916 258.212 324.877 258.166 324.831 258.119Z" fill="#39AEA8"/>
<path d="M324.655 257.92C324.701 257.966 324.747 258.012 324.785 258.059C324.739 258.012 324.701 257.966 324.655 257.92Z" fill="#39AEA8"/>
<path d="M324.47 257.729C324.517 257.775 324.563 257.821 324.601 257.867C324.555 257.821 324.509 257.775 324.47 257.729Z" fill="#39AEA8"/>
<path d="M324.294 257.537C324.34 257.583 324.379 257.63 324.425 257.683C324.379 257.63 324.34 257.583 324.294 257.537Z" fill="#39AEA8"/>
<path d="M324.118 257.338L324.241 257.477L324.118 257.338Z" fill="#39AEA8"/>
<path d="M323.949 257.147L324.072 257.285L323.949 257.147Z" fill="#39AEA8"/>
<path d="M323.773 256.948C323.811 256.994 323.85 257.04 323.896 257.086C323.857 257.04 323.819 256.994 323.773 256.948Z" fill="#39AEA8"/>
<path d="M323.604 256.748C323.642 256.794 323.681 256.841 323.719 256.887C323.681 256.841 323.642 256.802 323.604 256.748Z" fill="#39AEA8"/>
<path d="M323.435 256.549L323.543 256.68L323.435 256.549Z" fill="#39AEA8"/>
<path d="M323.274 256.35C323.305 256.396 323.344 256.435 323.382 256.481C323.344 256.442 323.313 256.396 323.274 256.35Z" fill="#39AEA8"/>
<path d="M323.105 256.151C323.136 256.19 323.167 256.236 323.205 256.274C323.175 256.236 323.136 256.19 323.105 256.151Z" fill="#39AEA8"/>
<path d="M322.945 255.952C322.945 255.952 323.006 256.029 323.037 256.067C323.006 256.029 322.975 255.99 322.945 255.952Z" fill="#39AEA8"/>
<path d="M322.783 255.745C322.783 255.745 322.845 255.822 322.876 255.86C322.845 255.822 322.814 255.784 322.783 255.745Z" fill="#39AEA8"/>
<path d="M316.856 255.362C316.902 255.423 316.94 255.484 316.986 255.538C316.94 255.477 316.902 255.416 316.856 255.362Z" fill="#39AEA8"/>
<path d="M322.623 255.546C322.623 255.546 322.676 255.615 322.707 255.654C322.676 255.615 322.653 255.577 322.623 255.546Z" fill="#39AEA8"/>
<path d="M322.461 255.347C322.461 255.347 322.515 255.408 322.538 255.439C322.515 255.408 322.492 255.377 322.461 255.347Z" fill="#39AEA8"/>
<path d="M322.308 255.148C322.308 255.148 322.347 255.202 322.37 255.232C322.347 255.202 322.323 255.178 322.308 255.148Z" fill="#39AEA8"/>
<path d="M313.321 244.065C313.321 244.065 313.367 244.111 313.398 244.134C313.375 244.111 313.352 244.088 313.321 244.065Z" fill="#39AEA8"/>
<path d="M313.16 243.927L313.26 244.02L313.16 243.927Z" fill="#39AEA8"/>
<path d="M310.959 242.097C311.703 242.694 312.439 243.292 313.152 243.92C312.439 243.292 311.703 242.694 310.959 242.097Z" fill="#39AEA8"/>
<path d="M305.346 236.95C306.074 237.846 306.879 238.658 307.731 239.424C306.887 238.673 306.067 237.846 305.346 236.95Z" fill="#39AEA8"/>
<path d="M292.517 191.265C292.501 191.441 292.494 191.61 292.478 191.786C292.494 191.61 292.501 191.441 292.517 191.265Z" fill="#39AEA8"/>
<path d="M291.673 177.709C294.487 170.41 294.978 160.553 298.95 154.495C293.912 165.646 290.546 180.366 289.051 193.21C289.373 187.964 290.247 182.764 291.681 177.709H291.673Z" fill="#39AEA8"/>
<path d="M292.539 190.989C292.539 191.073 292.524 191.15 292.524 191.234C292.524 191.15 292.532 191.073 292.539 190.989Z" fill="#39AEA8"/>
<path d="M322.086 263.412C322.561 263.396 323.029 263.35 323.497 263.274C323.029 263.35 322.561 263.396 322.086 263.412Z" fill="#39AEA8"/>
<path d="M327.937 261.612C328.772 261.122 329.562 260.547 330.314 259.912C329.57 260.54 328.772 261.129 327.937 261.612Z" fill="#39AEA8"/>
<path d="M319.348 259.291C319.387 259.299 319.433 259.306 319.471 259.322C319.433 259.314 319.387 259.306 319.348 259.291Z" fill="#39AEA8"/>
<path d="M319.172 259.253C319.21 259.261 319.256 259.268 319.295 259.284C319.256 259.276 319.21 259.268 319.172 259.253Z" fill="#39AEA8"/>
<path d="M319.011 259.215C319.011 259.215 319.065 259.23 319.088 259.238C319.065 259.238 319.034 259.222 319.011 259.215Z" fill="#39AEA8"/>
<path d="M318.213 259.038C318.252 259.038 318.298 259.038 318.344 259.054C318.298 259.054 318.252 259.046 318.213 259.038Z" fill="#39AEA8"/>
<path d="M328.527 256.595C327.615 257.422 326.602 258.15 325.452 258.747C326.595 258.15 327.615 257.422 328.527 256.595Z" fill="#39AEA8"/>
<path d="M328.81 256.335C328.718 256.419 328.626 256.511 328.535 256.595C328.626 256.511 328.718 256.426 328.81 256.335Z" fill="#39AEA8"/>
<path d="M328.942 256.197C328.896 256.243 328.857 256.289 328.803 256.335C328.849 256.289 328.896 256.243 328.942 256.197Z" fill="#39AEA8"/>
<path d="M329.08 256.067L328.949 256.197L329.08 256.067Z" fill="#39AEA8"/>
<path d="M329.218 255.929C329.179 255.967 329.141 256.006 329.102 256.044C329.141 256.006 329.179 255.967 329.218 255.929Z" fill="#39AEA8"/>
<path d="M329.348 255.791C329.309 255.829 329.271 255.868 329.24 255.906C329.279 255.868 329.309 255.829 329.348 255.791Z" fill="#39AEA8"/>
<path d="M329.478 255.653C329.478 255.653 329.409 255.73 329.371 255.768C329.409 255.73 329.44 255.692 329.478 255.653Z" fill="#39AEA8"/>
<path d="M329.601 255.515C329.601 255.515 329.532 255.585 329.501 255.623C329.539 255.585 329.57 255.546 329.601 255.515Z" fill="#39AEA8"/>
<path d="M334.171 255.462C334.117 255.553 334.064 255.645 334.01 255.737C334.064 255.645 334.117 255.553 334.171 255.462Z" fill="#39AEA8"/>
<path d="M329.731 255.37C329.731 255.37 329.67 255.439 329.639 255.47C329.67 255.439 329.7 255.401 329.731 255.37Z" fill="#39AEA8"/>
<path d="M329.854 255.224C329.854 255.224 329.8 255.294 329.769 255.324C329.8 255.286 329.823 255.255 329.854 255.224Z" fill="#39AEA8"/>
<path d="M334.331 255.194C334.286 255.27 334.24 255.354 334.194 255.431C334.24 255.354 334.286 255.27 334.331 255.194Z" fill="#39AEA8"/>
<path d="M329.977 255.079C329.977 255.079 329.923 255.148 329.892 255.179C329.923 255.148 329.946 255.11 329.977 255.079Z" fill="#39AEA8"/>
<path d="M330.099 254.941C330.099 254.941 330.046 255.002 330.022 255.033C330.046 255.002 330.076 254.972 330.099 254.941Z" fill="#39AEA8"/>
<path d="M334.493 254.91C334.447 254.987 334.401 255.071 334.355 255.147C334.401 255.071 334.447 254.987 334.493 254.91Z" fill="#39AEA8"/>
<path d="M330.214 254.795C330.214 254.795 330.168 254.849 330.145 254.88C330.168 254.857 330.191 254.826 330.214 254.795Z" fill="#39AEA8"/>
<path d="M330.337 254.642C330.337 254.642 330.298 254.696 330.275 254.727C330.298 254.696 330.314 254.673 330.337 254.642Z" fill="#39AEA8"/>
<path d="M334.654 254.627C334.608 254.711 334.562 254.795 334.516 254.872C334.562 254.787 334.608 254.703 334.654 254.627Z" fill="#39AEA8"/>
<path d="M330.452 254.497C330.452 254.497 330.414 254.55 330.391 254.573C330.414 254.55 330.429 254.52 330.452 254.497Z" fill="#39AEA8"/>
<path d="M334.815 254.328C334.769 254.42 334.715 254.512 334.669 254.603C334.715 254.512 334.769 254.42 334.815 254.328Z" fill="#39AEA8"/>
<path d="M339.194 240.266C338.496 245.283 337.093 250.108 334.815 254.32C337.085 250.108 338.496 245.283 339.194 240.266Z" fill="#39AEA8"/>
<path d="M339.24 239.945C339.224 240.029 339.217 240.121 339.201 240.205C339.217 240.113 339.224 240.029 339.24 239.945Z" fill="#39AEA8"/>
<path d="M339.278 239.631C339.27 239.707 339.263 239.776 339.247 239.853C339.255 239.776 339.263 239.707 339.278 239.631Z" fill="#39AEA8"/>
<path d="M339.324 239.309C339.316 239.378 339.309 239.439 339.301 239.508C339.309 239.439 339.316 239.378 339.324 239.309Z" fill="#39AEA8"/>
<path d="M339.355 239.003C339.355 239.057 339.339 239.118 339.332 239.172C339.332 239.118 339.347 239.057 339.355 239.003Z" fill="#39AEA8"/>
<path d="M339.385 238.719C339.385 238.758 339.385 238.796 339.378 238.835C339.378 238.796 339.385 238.758 339.385 238.719Z" fill="#39AEA8"/>
<path d="M336.495 233.534C336.479 233.917 336.464 234.3 336.441 234.683C336.464 234.3 336.479 233.917 336.495 233.534Z" fill="#39AEA8"/>
<path d="M336.564 231.122C336.556 231.926 336.533 232.73 336.502 233.534C336.533 232.73 336.548 231.926 336.564 231.122Z" fill="#39AEA8"/>
<path d="M339.278 224.359C339.531 226.473 339.684 228.648 339.731 230.846C339.684 228.656 339.531 226.481 339.278 224.359Z" fill="#39AEA8"/>
<path d="M339.24 224.091C339.247 224.16 339.255 224.229 339.263 224.305C339.255 224.236 339.247 224.167 339.24 224.091Z" fill="#39AEA8"/>
<path d="M339.209 223.823C339.217 223.892 339.224 223.953 339.232 224.022C339.224 223.953 339.217 223.892 339.209 223.823Z" fill="#39AEA8"/>
<path d="M339.178 223.555C339.178 223.616 339.194 223.685 339.201 223.738C339.194 223.677 339.186 223.616 339.178 223.555Z" fill="#39AEA8"/>
<path d="M339.14 223.279C339.148 223.34 339.155 223.401 339.163 223.455C339.163 223.401 339.148 223.34 339.14 223.279Z" fill="#39AEA8"/>
<path d="M339.102 223.003C339.102 223.057 339.117 223.111 339.125 223.173C339.125 223.119 339.109 223.057 339.102 223.003Z" fill="#39AEA8"/>
<path d="M339.063 222.728L339.087 222.874L339.063 222.728Z" fill="#39AEA8"/>
<path d="M339.002 222.352C339.002 222.352 339.01 222.414 339.017 222.452C339.017 222.422 339.01 222.391 339.002 222.352Z" fill="#39AEA8"/>
<path d="M338.956 222.046C338.956 222.084 338.964 222.131 338.971 222.169C338.971 222.123 338.956 222.084 338.956 222.046Z" fill="#39AEA8"/>
<path d="M338.91 221.763L338.933 221.893L338.91 221.763Z" fill="#39AEA8"/>
<path d="M338.864 221.487L338.887 221.618L338.864 221.487Z" fill="#39AEA8"/>
<path d="M338.826 221.211C338.826 221.211 338.833 221.288 338.841 221.327C338.841 221.288 338.826 221.25 338.826 221.211Z" fill="#39AEA8"/>
<path d="M338.772 220.936C338.772 220.936 338.787 221.005 338.787 221.043C338.787 221.005 338.772 220.974 338.772 220.936Z" fill="#39AEA8"/>
<path d="M338.726 220.66C338.726 220.66 338.741 220.721 338.741 220.744C338.741 220.714 338.726 220.683 338.726 220.66Z" fill="#39AEA8"/>
<path d="M338.45 219.189C338.45 219.189 338.465 219.251 338.465 219.274C338.465 219.243 338.45 219.212 338.45 219.189Z" fill="#39AEA8"/>
<path d="M338.389 218.914C338.389 218.914 338.404 218.975 338.412 218.998C338.412 218.967 338.396 218.937 338.389 218.914Z" fill="#39AEA8"/>
<path d="M338.327 218.638C338.327 218.638 338.343 218.699 338.35 218.73C338.35 218.699 338.335 218.669 338.327 218.638Z" fill="#39AEA8"/>
<path d="M338.273 218.37C338.273 218.37 338.289 218.431 338.289 218.454C338.289 218.424 338.273 218.393 338.273 218.37Z" fill="#39AEA8"/>
<path d="M335.475 205.357C335.459 205.311 335.452 205.273 335.436 205.219C336.51 209.462 337.507 213.514 338.151 217.826C337.514 213.56 336.525 209.562 335.475 205.357Z" fill="#39AEA8"/>
<path d="M333.772 200.532C335.62 200.67 335.076 203.78 335.436 205.219C335.076 203.78 335.613 200.67 333.772 200.532Z" fill="#39AEA8"/>
<path d="M333.443 200.548C332.829 200.662 332.338 201.214 332.323 201.842C332.338 201.214 332.821 200.662 333.443 200.548Z" fill="#39AEA8"/>
<path d="M308.827 238.559C308.62 238.742 308.405 238.919 308.183 239.095C308.405 238.919 308.62 238.742 308.827 238.559Z" fill="#39AEA8"/>
<path d="M308.72 238.459C308.72 238.459 308.789 238.521 308.827 238.551C308.789 238.521 308.758 238.49 308.72 238.459Z" fill="#39AEA8"/>
<path d="M302.662 222.865C302.662 222.919 302.662 222.965 302.654 223.019C302.654 222.965 302.662 222.912 302.662 222.865Z" fill="#39AEA8"/>
<path d="M302.677 222.643C302.677 222.697 302.67 222.759 302.662 222.813C302.662 222.759 302.67 222.697 302.677 222.643Z" fill="#39AEA8"/>
<path d="M306.35 210.32C304.418 214.265 303.022 218.477 302.677 222.605C303.022 218.477 304.418 214.265 306.35 210.32Z" fill="#39AEA8"/>
<path d="M306.45 210.121C310.499 203.986 313.995 196.488 318.397 191.089C313.965 196.557 310.391 204.094 306.35 210.32C306.381 210.251 306.419 210.182 306.45 210.121Z" fill="#39AEA8"/>
<path d="M320.414 193.647C320.36 192.552 319.915 191.188 318.704 191.089C322.53 194.129 319.724 201.643 321.579 206.154C320.744 202.041 320.675 197.829 320.414 193.647Z" fill="#39AEA8"/>
<path d="M302.286 151.577C302.347 151.584 302.408 151.592 302.47 151.592C302.408 151.592 302.347 151.584 302.286 151.577Z" fill="#39AEA8"/>
<path d="M302.171 151.546C302.209 151.554 302.248 151.569 302.286 151.577C302.248 151.577 302.209 151.562 302.171 151.546Z" fill="#39AEA8"/>
<path d="M303.689 150.711C303.521 151.178 303.099 151.554 302.585 151.584C303.091 151.546 303.513 151.171 303.689 150.711Z" fill="#39AEA8"/>
<path d="M303.705 149.854C303.75 149.976 303.773 150.098 303.773 150.228C303.773 150.106 303.75 149.976 303.705 149.854Z" fill="#39AEA8"/>
<path d="M298.406 144.446C299.364 146.537 301.427 147.877 303.198 149.225C301.435 147.885 299.372 146.545 298.406 144.446Z" fill="#39AEA8"/>
<path d="M298.774 144.454C299.127 144.998 299.709 145.327 300.331 145.381C299.709 145.327 299.127 144.998 298.774 144.454Z" fill="#39AEA8"/>
<path d="M301.412 145.159C301.374 145.182 301.335 145.197 301.289 145.212C301.328 145.197 301.366 145.174 301.412 145.159Z" fill="#39AEA8"/>
<path d="M298.697 144.308C298.697 144.308 298.736 144.37 298.751 144.408C298.728 144.378 298.713 144.347 298.697 144.308Z" fill="#39AEA8"/>
<path d="M298.475 143.321C298.459 143.658 298.536 143.995 298.697 144.309C298.536 144.002 298.467 143.658 298.475 143.321Z" fill="#39AEA8"/>
<path d="M298.314 144.155C298.321 144.194 298.337 144.232 298.352 144.271C298.337 144.232 298.329 144.194 298.314 144.155Z" fill="#39AEA8"/>
<path d="M298.252 143.956C298.268 144.002 298.276 144.041 298.291 144.087C298.276 144.041 298.268 144.002 298.252 143.956Z" fill="#39AEA8"/>
<path d="M298.199 143.772C298.214 143.818 298.23 143.865 298.237 143.903C298.222 143.857 298.206 143.811 298.199 143.772Z" fill="#39AEA8"/>
<path d="M298.145 143.589C298.16 143.635 298.176 143.688 298.183 143.735C298.168 143.688 298.153 143.642 298.145 143.589Z" fill="#39AEA8"/>
<path d="M298.091 143.397C298.107 143.451 298.122 143.497 298.13 143.551C298.114 143.497 298.107 143.451 298.091 143.397Z" fill="#39AEA8"/>
<path d="M298.045 143.213C298.061 143.267 298.076 143.321 298.084 143.375C298.068 143.321 298.061 143.267 298.045 143.213Z" fill="#39AEA8"/>
<path d="M298.007 143.029C298.022 143.091 298.03 143.144 298.045 143.205C298.03 143.144 298.015 143.091 298.007 143.029Z" fill="#39AEA8"/>
<path d="M297.608 139.744C297.639 140.854 297.754 141.95 297.999 143.029C297.754 141.957 297.639 140.854 297.608 139.744Z" fill="#39AEA8"/>
<path d="M299.104 141.904C299.104 141.904 299.042 141.965 299.019 141.996C299.05 141.965 299.073 141.934 299.104 141.904Z" fill="#39AEA8"/>
<path d="M299.257 141.773C299.257 141.773 299.188 141.827 299.157 141.858C299.188 141.827 299.226 141.804 299.257 141.773Z" fill="#39AEA8"/>
<path d="M299.418 141.659C299.418 141.659 299.349 141.705 299.311 141.728C299.342 141.705 299.38 141.682 299.418 141.659Z" fill="#39AEA8"/>
<path d="M299.541 141.59C308.98 137.599 313.812 128.041 313.712 118.1C313.812 128.072 308.942 137.63 299.487 141.62C299.502 141.613 299.525 141.597 299.541 141.59Z" fill="#39AEA8"/>
<path d="M313.719 115.932C313.727 116.576 313.735 117.227 313.719 117.87C313.727 117.227 313.727 116.576 313.719 115.932Z" fill="#39AEA8"/>
<path d="M313.712 115.381C313.712 115.557 313.72 115.733 313.72 115.909C313.72 115.733 313.72 115.557 313.712 115.381Z" fill="#39AEA8"/>
<path d="M309.702 139.422C309.663 139.468 309.625 139.514 309.579 139.553C309.617 139.507 309.663 139.461 309.702 139.422Z" fill="#39AEA8"/>
<path d="M309.832 139.292C309.832 139.292 309.77 139.361 309.732 139.4C309.763 139.369 309.801 139.33 309.832 139.292Z" fill="#39AEA8"/>
<path d="M309.955 139.154C309.955 139.154 309.886 139.231 309.855 139.269C309.893 139.231 309.924 139.193 309.955 139.154Z" fill="#39AEA8"/>
<path d="M310.345 138.725C310.223 138.863 310.1 138.993 309.977 139.131C310.1 138.993 310.223 138.863 310.345 138.725Z" fill="#39AEA8"/>
<path d="M316.649 125.858C315.721 130.431 313.835 134.766 310.345 138.718C313.835 134.766 315.713 130.431 316.649 125.858Z" fill="#39AEA8"/>
<path d="M297.769 136.443C297.769 136.443 297.769 136.497 297.762 136.527C297.762 136.497 297.769 136.466 297.769 136.443Z" fill="#39AEA8"/>
<path d="M297.8 136.236C297.8 136.275 297.792 136.313 297.785 136.359C297.785 136.321 297.792 136.282 297.8 136.236Z" fill="#39AEA8"/>
<path d="M297.823 136.037C297.823 136.083 297.815 136.137 297.808 136.183C297.815 136.129 297.823 136.083 297.823 136.037Z" fill="#39AEA8"/>
<path d="M298.015 134.727C297.946 135.156 297.884 135.577 297.831 136.006C297.884 135.577 297.946 135.148 298.015 134.727Z" fill="#39AEA8"/>
<path d="M295.323 134.735C295.308 134.85 295.292 134.964 295.277 135.086C295.292 134.964 295.308 134.85 295.323 134.735Z" fill="#39AEA8"/>
<path d="M295.346 134.597C295.346 134.643 295.331 134.682 295.331 134.728C295.331 134.682 295.346 134.643 295.346 134.597Z" fill="#39AEA8"/>
<path d="M298.045 134.551C298.038 134.605 298.022 134.666 298.015 134.727C298.022 134.666 298.038 134.612 298.045 134.551Z" fill="#39AEA8"/>
<path d="M295.369 134.452C295.362 134.498 295.354 134.544 295.346 134.582C295.354 134.536 295.362 134.49 295.369 134.452Z" fill="#39AEA8"/>
<path d="M300.676 120.443C298.191 124.778 296.151 129.512 295.369 134.452C296.144 129.512 298.183 124.778 300.676 120.443Z" fill="#39AEA8"/>
<path d="M298.068 134.375L298.045 134.529L298.068 134.375Z" fill="#39AEA8"/>
<path d="M298.107 134.199L298.084 134.329L298.107 134.199Z" fill="#39AEA8"/>
<path d="M298.138 134.023L298.115 134.146L298.138 134.023Z" fill="#39AEA8"/>
<path d="M298.168 133.854C298.168 133.893 298.153 133.931 298.145 133.977C298.153 133.939 298.16 133.9 298.168 133.854Z" fill="#39AEA8"/>
<path d="M298.199 133.678C298.199 133.678 298.183 133.747 298.176 133.786C298.183 133.747 298.191 133.716 298.199 133.678Z" fill="#39AEA8"/>
<path d="M298.229 133.51C298.229 133.51 298.214 133.571 298.214 133.602C298.214 133.571 298.229 133.533 298.229 133.51Z" fill="#39AEA8"/>
<path d="M298.268 133.341C298.268 133.341 298.252 133.402 298.252 133.433C298.252 133.402 298.268 133.372 298.268 133.341Z" fill="#39AEA8"/>
<path d="M298.337 132.996C298.337 132.996 298.322 133.05 298.322 133.081C298.322 133.05 298.337 133.027 298.337 132.996Z" fill="#39AEA8"/>
<path d="M298.391 132.736C298.375 132.79 298.367 132.851 298.352 132.905C298.367 132.851 298.375 132.79 298.391 132.736Z" fill="#39AEA8"/>
<path d="M316.687 125.69C316.68 125.744 316.664 125.79 316.656 125.836C316.664 125.79 316.68 125.744 316.687 125.69Z" fill="#39AEA8"/>
<path d="M316.771 125.207C316.741 125.368 316.71 125.528 316.679 125.689C316.71 125.528 316.741 125.368 316.771 125.207Z" fill="#39AEA8"/>
<path d="M316.802 125.046L316.779 125.193L316.802 125.046Z" fill="#39AEA8"/>
<path d="M316.833 124.909C316.825 124.947 316.818 124.985 316.81 125.032C316.818 124.993 316.825 124.955 316.833 124.909Z" fill="#39AEA8"/>
<path d="M316.864 124.732C316.856 124.779 316.848 124.825 316.841 124.863C316.848 124.825 316.856 124.779 316.864 124.732Z" fill="#39AEA8"/>
<path d="M316.887 124.572L316.864 124.718L316.887 124.572Z" fill="#39AEA8"/>
<path d="M308.467 106.589C310.016 103.602 310.782 100.216 312.516 97.3979C309.088 105.233 305.461 113.091 300.745 120.321C303.321 115.749 306.327 111.406 308.467 106.589Z" fill="#39AEA8"/>
<path d="M317.308 112.57C317.439 114.914 317.492 117.234 317.393 119.517C317.492 117.234 317.439 114.921 317.308 112.57Z" fill="#39AEA8"/>
<path d="M317.301 112.348C317.301 112.424 317.308 112.501 317.316 112.577C317.316 112.501 317.308 112.424 317.301 112.348Z" fill="#39AEA8"/>
<path d="M313.65 113.75C313.65 113.796 313.65 113.842 313.658 113.888C313.658 113.842 313.658 113.796 313.65 113.75Z" fill="#39AEA8"/>
<path d="M317.285 112.118C317.285 112.187 317.293 112.256 317.293 112.325C317.293 112.256 317.293 112.187 317.285 112.118Z" fill="#39AEA8"/>
<path d="M317.278 111.95C317.278 112.004 317.278 112.065 317.285 112.119C317.285 112.065 317.285 112.004 317.278 111.95Z" fill="#39AEA8"/>
<path d="M313.336 108.45C313.336 108.549 313.344 108.656 313.351 108.755C313.351 108.648 313.344 108.549 313.336 108.45Z" fill="#39AEA8"/>
<path d="M313.114 104.927C313.175 106.06 313.244 107.194 313.321 108.319C313.244 107.186 313.167 106.06 313.114 104.927Z" fill="#39AEA8"/>
<path d="M314.011 96.9536C316.741 97.1374 316.557 104 316.818 106.068C316.557 104.007 316.741 97.1451 314.011 96.9536Z" fill="#39AEA8"/>
<path d="M313.106 104.697C313.106 104.766 313.106 104.834 313.114 104.903C313.114 104.834 313.106 104.766 313.106 104.697Z" fill="#39AEA8"/>
<path d="M313.091 104.459C313.091 104.521 313.091 104.582 313.098 104.643C313.098 104.582 313.098 104.521 313.091 104.459Z" fill="#39AEA8"/>
<path d="M379.537 278.875C379.537 278.967 379.537 279.059 379.537 279.151C379.537 279.005 379.521 278.461 379.537 278.829C379.521 278.055 379.445 277.649 379.468 277.718C379.445 277.519 379.429 277.312 379.422 277.121C379.422 277.205 379.422 277.29 379.422 277.366C379.422 277.167 379.406 276.968 379.399 276.769C379.399 276.93 379.399 277.09 379.406 277.251C379.406 276.937 379.391 276.623 379.376 276.309C379.376 276.37 379.376 276.424 379.376 276.485C379.376 276.294 379.353 276.102 379.36 275.911C394.283 238.781 344.953 203.619 361.953 168.886C378.862 159.626 377.934 136.964 380.426 119.838C388.463 102.369 380.112 140.977 380.219 146.867C380.649 165.638 353.533 172.271 363.771 192.889C370.603 218.669 400.18 258.426 379.506 278.883L379.537 278.875Z" fill="#39AEA8"/>
<path d="M379.376 275.949C379.376 276.094 379.345 276.24 379.33 276.393C379.345 276.247 379.368 276.094 379.376 275.949Z" fill="#39AEA8"/>
<path d="M384.169 273.069C384.169 273 384.146 272.931 384.138 272.847C384.153 272.962 384.26 273.321 384.169 273.069Z" fill="#39AEA8"/>
<path d="M382.827 264.109C380.135 263.519 381.255 260.57 381.768 258.74C396.875 223.708 428.085 196.312 423.76 154.127C425.524 137.385 415.801 115.289 426.214 101.181C428.814 100.362 430.577 110.464 427.265 106.987C417.672 108.044 429.933 153.208 425.969 168.763C426.521 206.177 396.722 233.841 382.827 264.109Z" fill="#39AEA8"/>
<path d="M422.502 132.269C422.587 134.635 422.686 137.002 422.886 139.361C422.679 137.002 422.579 134.635 422.502 132.269Z" fill="#39AEA8"/>
<path d="M421.797 116.951C421.82 118.261 421.866 119.563 421.935 120.865C421.858 119.563 421.812 118.253 421.797 116.951Z" fill="#39AEA8"/>
<path d="M391.607 287.223C392.404 287.307 393.202 287.361 394.007 287.399C393.202 287.361 392.404 287.3 391.607 287.223Z" fill="#39AEA8"/>
<path d="M398.278 287.507C397.504 287.499 396.737 287.491 395.962 287.468C396.737 287.484 397.504 287.499 398.278 287.507Z" fill="#39AEA8"/>
<path d="M389.061 286.855C389.797 286.993 390.526 287.101 391.262 287.185C390.526 287.101 389.79 286.993 389.061 286.855Z" fill="#39AEA8"/>
<path d="M399.827 287.529C399.314 287.522 398.792 287.514 398.278 287.506C398.792 287.506 399.314 287.522 399.827 287.529Z" fill="#39AEA8"/>
<path d="M404.16 287.736C404.398 287.751 404.643 287.767 404.881 287.782C404.643 287.774 404.398 287.759 404.16 287.736Z" fill="#39AEA8"/>
<path d="M402.097 287.598L402.349 287.614L402.097 287.598Z" fill="#39AEA8"/>
<path d="M415.279 286.817C415.103 286.855 414.926 286.894 414.75 286.924C414.926 286.894 415.11 286.855 415.279 286.817Z" fill="#39AEA8"/>
<path d="M391.553 284.971C392.535 285.078 393.509 285.17 394.49 285.216C393.509 285.17 392.535 285.071 391.553 284.971Z" fill="#39AEA8"/>
<path d="M397.174 285.232C401.514 285.002 405.878 285.569 410.187 284.941C405.349 285.576 400.448 285.002 395.579 285.255C396.108 285.262 396.637 285.255 397.174 285.232Z" fill="#39AEA8"/>
<path d="M441.581 271.997C439.22 273.407 436.612 274.326 434.066 275.375C436.612 274.326 439.22 273.407 441.581 271.997Z" fill="#39AEA8"/>
<path d="M441.681 271.936C441.681 271.936 441.62 271.974 441.589 271.99C441.62 271.974 441.651 271.959 441.681 271.936Z" fill="#39AEA8"/>
<path d="M441.781 271.875C441.781 271.875 441.727 271.905 441.704 271.921C441.735 271.905 441.758 271.89 441.781 271.875Z" fill="#39AEA8"/>
<path d="M454.196 264.001C458.851 260.172 463.605 256.473 468.152 252.521C460.009 259.674 451.489 266.253 442.103 271.676C446.052 268.98 450.339 266.82 454.196 264.001Z" fill="#39AEA8"/>
<path d="M488.205 230.134C491.441 225.056 495.781 220.828 499.753 216.348C495.283 221.403 490.298 226.144 487.039 232.118C487.415 231.451 487.798 230.785 488.197 230.134H488.205Z" fill="#39AEA8"/>
<path d="M499.853 216.233C499.853 216.233 499.784 216.302 499.753 216.341C499.784 216.302 499.823 216.271 499.853 216.233Z" fill="#39AEA8"/>
<path d="M500.084 216.019C500.038 216.065 499.991 216.111 499.945 216.157C499.991 216.111 500.038 216.065 500.084 216.019Z" fill="#39AEA8"/>
<path d="M502.23 215.023C501.479 215.015 500.75 215.406 500.137 215.973C500.75 215.413 501.479 215.008 502.23 215.023Z" fill="#39AEA8"/>
<path d="M475.261 242.733C475.261 243.353 475.636 243.728 476.089 243.843C475.636 243.721 475.261 243.345 475.261 242.733Z" fill="#39AEA8"/>
<path d="M481.556 239.125C481.809 239.439 482.063 239.661 482.331 239.799C482.07 239.661 481.809 239.447 481.556 239.125Z" fill="#39AEA8"/>
<path d="M481.342 237.249C481.288 237.386 481.25 237.539 481.227 237.684C481.25 237.539 481.288 237.386 481.342 237.249Z" fill="#39AEA8"/>
<path d="M482.047 236.337C482.569 235.954 483.09 235.572 483.604 235.181C483.075 235.579 482.538 235.977 482.001 236.36L482.04 236.33L482.047 236.337Z" fill="#39AEA8"/>
<path d="M476.465 235.043C476.465 235.043 476.449 235.097 476.442 235.128C476.442 235.097 476.457 235.074 476.465 235.043Z" fill="#39AEA8"/>
<path d="M476.541 234.775L476.511 234.883L476.541 234.775Z" fill="#39AEA8"/>
<path d="M483.819 235.02C483.819 235.02 483.742 235.082 483.704 235.105C483.742 235.074 483.781 235.043 483.819 235.02Z" fill="#39AEA8"/>
<path d="M476.618 234.515C476.611 234.553 476.595 234.599 476.58 234.645C476.588 234.607 476.603 234.561 476.618 234.515Z" fill="#39AEA8"/>
<path d="M476.695 234.254C476.679 234.308 476.664 234.354 476.649 234.408C476.664 234.354 476.679 234.308 476.695 234.254Z" fill="#39AEA8"/>
<path d="M476.779 234.001C476.764 234.055 476.741 234.117 476.725 234.171C476.741 234.117 476.764 234.063 476.779 234.001Z" fill="#39AEA8"/>
<path d="M476.856 233.741C476.833 233.802 476.817 233.864 476.794 233.925C476.81 233.864 476.833 233.802 476.856 233.741Z" fill="#39AEA8"/>
<path d="M476.94 233.488C476.917 233.557 476.894 233.626 476.871 233.695C476.894 233.626 476.917 233.557 476.94 233.488Z" fill="#39AEA8"/>
<path d="M477.024 233.243C477.001 233.312 476.979 233.381 476.956 233.45C476.979 233.381 477.001 233.312 477.024 233.243Z" fill="#39AEA8"/>
<path d="M477.109 232.99C477.078 233.067 477.055 233.136 477.032 233.212C477.055 233.136 477.078 233.067 477.109 232.99Z" fill="#39AEA8"/>
<path d="M477.193 232.746C477.17 232.822 477.139 232.898 477.116 232.975C477.147 232.898 477.17 232.822 477.193 232.746Z" fill="#39AEA8"/>
<path d="M491.74 233.634C492.162 233.251 492.584 232.868 492.998 232.478C492.576 232.86 492.146 233.282 491.74 233.634Z" fill="#39AEA8"/>
<path d="M490.482 214.724C495.045 211.109 499.983 208.053 504.707 204.699C493.833 212.09 481.464 219.473 477.193 232.738C479.716 225.623 484.493 219.281 490.475 214.732L490.482 214.724Z" fill="#39AEA8"/>
<path d="M502.936 213.307C502.936 213.307 502.905 213.376 502.897 213.407C502.905 213.369 502.921 213.338 502.936 213.307Z" fill="#39AEA8"/>
<path d="M503.013 213.108C502.997 213.147 502.982 213.193 502.967 213.239C502.982 213.2 502.997 213.154 503.013 213.108Z" fill="#39AEA8"/>
<path d="M503.082 212.909C503.059 212.963 503.043 213.009 503.028 213.063C503.043 213.009 503.066 212.963 503.082 212.909Z" fill="#39AEA8"/>
<path d="M503.15 212.718C503.135 212.771 503.112 212.832 503.089 212.893C503.112 212.832 503.127 212.779 503.15 212.718Z" fill="#39AEA8"/>
<path d="M504.132 208.888C503.894 210.228 503.565 211.5 503.151 212.71C503.565 211.5 503.894 210.228 504.132 208.888Z" fill="#39AEA8"/>
<path d="M506.839 203.512C506.839 203.512 506.816 203.512 506.801 203.512C507.529 203.573 508.104 203.963 508.388 204.653C508.112 203.986 507.56 203.596 506.839 203.519V203.512Z" fill="#39AEA8"/>
<path d="M381.998 269.96C385.288 260.961 383.954 273.897 382.873 277.175C378.862 280.882 381.584 272.618 381.998 269.96Z" fill="#39AEA8"/>
<path d="M358.74 171.337C357.621 171.237 356.785 169.981 356.862 169.116C343.626 162.843 331.64 141.161 338.849 128.156C357.322 133.494 359.484 164.604 364.86 163.578C365.212 163.578 365.657 163.831 365.91 164.16C367.367 166.312 360.251 170.647 358.74 171.321V171.337ZM357.199 164.834C357.69 150.949 350.259 142.976 340.827 134.061C342.384 149.884 341.694 156.463 357.199 164.834Z" fill="#39AEA8"/>
<path d="M357.329 170.51C357.636 170.908 358.073 171.206 358.602 171.314C358.073 171.199 357.628 170.908 357.329 170.51Z" fill="#39AEA8"/>
<path d="M380.442 119.823L380.457 119.838C385.733 109.966 397.78 107.393 394.92 90.0761C393.371 55.9328 383.264 65.1158 378.908 93.2468C378.962 92.1286 379.069 91.0181 379.238 89.9152C375.634 96.1112 384.828 111.222 380.925 111.789C370.649 95.6977 379.299 70.2779 391.07 57.4875C399.843 73.8852 406.361 115.917 380.449 119.823H380.442Z" fill="#39AEA8"/>
<path d="M394.023 63.5461C394.023 63.5077 394.007 63.4692 394 63.4308C394 63.4692 394.015 63.5077 394.023 63.5461Z" fill="#39AEA8"/>
<path d="M376.408 93.1702C376.377 94.1275 376.385 95.0925 376.439 96.0576C376.385 95.0925 376.377 94.1352 376.408 93.1702Z" fill="#39AEA8"/>
<path d="M379.261 89.7007C379.253 89.7618 379.245 89.823 379.238 89.8841C379.245 89.823 379.253 89.7618 379.261 89.7007Z" fill="#39AEA8"/>
<path d="M379.291 89.4939C379.291 89.5323 379.276 89.5785 379.276 89.6246C379.276 89.5785 379.291 89.5323 379.291 89.4939Z" fill="#39AEA8"/>
<path d="M379.322 89.2948L379.307 89.3871L379.322 89.2948Z" fill="#39AEA8"/>
<path d="M394.851 89.3254C394.851 89.3254 394.851 89.387 394.858 89.41C394.858 89.3793 394.858 89.3562 394.851 89.3254Z" fill="#39AEA8"/>
<path d="M394.828 89.088L394.843 89.1957L394.828 89.088Z" fill="#39AEA8"/>
<path d="M394.804 88.8506C394.804 88.889 394.812 88.9352 394.82 88.9736C394.82 88.9352 394.812 88.889 394.804 88.8506Z" fill="#39AEA8"/>
<path d="M394.774 88.6208C394.774 88.667 394.782 88.7054 394.789 88.7516C394.789 88.7054 394.782 88.667 394.774 88.6208Z" fill="#39AEA8"/>
<path d="M394.751 88.3911C394.751 88.4373 394.759 88.4757 394.766 88.5218C394.766 88.4834 394.759 88.4373 394.751 88.3911Z" fill="#39AEA8"/>
<path d="M394.72 88.1613C394.72 88.2074 394.728 88.2535 394.736 88.2997C394.736 88.2535 394.728 88.2074 394.72 88.1613Z" fill="#39AEA8"/>
<path d="M394.697 87.9392C394.697 87.9853 394.705 88.0315 394.713 88.0776C394.713 88.0315 394.705 87.9853 394.697 87.9392Z" fill="#39AEA8"/>
<path d="M419.389 194.459C405.103 193.226 396.53 175.932 389.314 165.493C389.245 166.894 390.763 168.089 391.599 169.192C384.491 155.682 413.853 163.394 415.072 174.454C419.65 180.726 418.208 189.121 425.094 190.913C426.168 193.402 420.593 195.991 419.382 194.451L419.389 194.459ZM394.766 166.519C401.591 174.86 406.928 187.16 418.185 190.032C416.713 181.393 407.779 159.956 394.766 166.519Z" fill="#39AEA8"/>
<path d="M416.989 194.252C416.989 194.252 417.043 194.267 417.074 194.267C417.043 194.267 417.02 194.26 416.989 194.252Z" fill="#39AEA8"/>
<path d="M416.882 194.237C416.882 194.237 416.936 194.252 416.959 194.252C416.936 194.252 416.905 194.237 416.882 194.237Z" fill="#39AEA8"/>
<path d="M416.491 194.152C416.613 194.175 416.736 194.206 416.859 194.229C416.736 194.206 416.613 194.183 416.491 194.152Z" fill="#39AEA8"/>
<path d="M403.155 184.839C406.966 189.189 411.437 193.065 416.491 194.152C411.437 193.065 406.966 189.189 403.155 184.839Z" fill="#39AEA8"/>
<path d="M402.527 184.104C402.573 184.158 402.619 184.212 402.673 184.273C402.627 184.219 402.58 184.158 402.527 184.104Z" fill="#39AEA8"/>
<path d="M396.024 175.626C396.07 175.687 396.116 175.756 396.162 175.817C396.116 175.756 396.07 175.687 396.024 175.626Z" fill="#39AEA8"/>
<path d="M424.036 164.375C416.238 159.465 430.754 159.534 433.745 158.332C429.182 144.937 450.906 121.194 461.312 125.583C456.872 146.07 447.931 165.409 424.036 164.375ZM438.384 145.649C427.917 164.796 451.619 154.051 452.831 141.873C459.495 120.681 444.649 135.6 438.384 145.649Z" fill="#39AEA8"/>
<path d="M461.327 125.682C461.327 125.682 461.32 125.621 461.312 125.598C461.312 125.629 461.32 125.659 461.327 125.682Z" fill="#39AEA8"/>
<path d="M431.214 155.667C431.352 156.547 431.605 157.405 431.988 158.248C431.605 157.405 431.352 156.547 431.214 155.667Z" fill="#39AEA8"/>
<path d="M421.291 132.59C418.063 131.87 419.849 128.623 422.357 128.003C424.412 117.357 414.635 90.9414 432.786 87.1196C438.384 103.219 441.651 125.858 421.291 132.59ZM428.354 92.8868C420.9 101.25 423.76 115.289 426.107 125.56C437.609 119.8 434.757 92.657 428.354 92.8868Z" fill="#39AEA8"/>
<path d="M421.245 107.592C421.245 110.732 421.421 113.857 421.797 116.959C421.414 113.857 421.253 110.724 421.245 107.592Z" fill="#39AEA8"/>
<path d="M425.424 279.526C425.631 279.725 425.869 279.886 426.13 279.978C425.869 279.894 425.624 279.725 425.424 279.526Z" fill="#39AEA8"/>
<path d="M424.903 277.297C424.834 277.489 424.788 277.703 424.772 277.925C424.78 277.703 424.826 277.496 424.903 277.297Z" fill="#39AEA8"/>
<path d="M435.891 273.046C435.316 273.789 434.718 274.586 434.066 275.375C434.711 274.593 435.316 273.789 435.891 273.046Z" fill="#39AEA8"/>
<path d="M436.007 272.886C435.969 272.94 435.93 272.993 435.892 273.047C435.93 272.993 435.969 272.94 436.007 272.886Z" fill="#39AEA8"/>
<path d="M436.13 272.709C436.091 272.763 436.053 272.817 436.022 272.863C436.06 272.809 436.099 272.756 436.13 272.709Z" fill="#39AEA8"/>
<path d="M436.374 272.35C436.298 272.457 436.221 272.571 436.152 272.678C436.229 272.571 436.305 272.457 436.374 272.35Z" fill="#39AEA8"/>
<path d="M436.72 271.806C436.612 271.982 436.497 272.158 436.382 272.334C436.497 272.158 436.612 271.982 436.72 271.806Z" fill="#39AEA8"/>
<path d="M436.834 271.614C436.796 271.675 436.758 271.744 436.72 271.805C436.758 271.744 436.796 271.675 436.834 271.614Z" fill="#39AEA8"/>
<path d="M436.957 271.415C436.926 271.476 436.888 271.53 436.858 271.591C436.896 271.53 436.926 271.476 436.957 271.415Z" fill="#39AEA8"/>
<path d="M438.43 268.306C438.031 269.363 437.548 270.389 436.965 271.392C437.548 270.389 438.039 269.355 438.43 268.306Z" fill="#39AEA8"/>
<path d="M438.507 268.106C438.491 268.16 438.468 268.214 438.445 268.268C438.468 268.214 438.484 268.16 438.507 268.106Z" fill="#39AEA8"/>
<path d="M438.576 267.915C438.56 267.961 438.545 268.007 438.53 268.053C438.545 268.007 438.56 267.961 438.576 267.915Z" fill="#39AEA8"/>
<path d="M438.645 267.716C438.629 267.762 438.614 267.8 438.598 267.847C438.614 267.8 438.629 267.762 438.645 267.716Z" fill="#39AEA8"/>
<path d="M438.698 267.547C438.683 267.601 438.66 267.663 438.645 267.717C438.66 267.663 438.683 267.601 438.698 267.547Z" fill="#39AEA8"/>
<path d="M438.767 267.348C438.752 267.395 438.737 267.441 438.721 267.487C438.737 267.441 438.752 267.395 438.767 267.348Z" fill="#39AEA8"/>
<path d="M438.829 267.149C438.813 267.195 438.798 267.249 438.782 267.295C438.798 267.249 438.813 267.195 438.829 267.149Z" fill="#39AEA8"/>
<path d="M439.902 260.754C439.948 259.781 439.956 258.793 439.917 257.805C440.025 260.999 439.756 264.147 438.828 267.134C439.465 265.073 439.795 262.929 439.902 260.754Z" fill="#39AEA8"/>
<path d="M421.835 243.483C418.852 248.546 416.698 254.098 416.56 259.911C416.698 254.106 418.852 248.538 421.835 243.483Z" fill="#39AEA8"/>
<path d="M421.928 243.322C421.897 243.368 421.874 243.415 421.843 243.461C421.874 243.415 421.897 243.368 421.928 243.322Z" fill="#39AEA8"/>
<path d="M422.035 243.154C422.004 243.2 421.981 243.246 421.95 243.292C421.981 243.246 422.004 243.2 422.035 243.154Z" fill="#39AEA8"/>
<path d="M422.318 242.671C422.226 242.824 422.134 242.977 422.042 243.13C422.134 242.977 422.226 242.824 422.318 242.671Z" fill="#39AEA8"/>
<path d="M422.403 242.541C422.38 242.587 422.349 242.626 422.326 242.672C422.349 242.626 422.38 242.587 422.403 242.541Z" fill="#39AEA8"/>
<path d="M422.51 242.373C422.51 242.373 422.464 242.449 422.441 242.488C422.464 242.449 422.487 242.411 422.51 242.373Z" fill="#39AEA8"/>
<path d="M422.618 242.197C422.618 242.197 422.572 242.266 422.549 242.304C422.572 242.266 422.595 242.227 422.618 242.197Z" fill="#39AEA8"/>
<path d="M422.901 241.752C422.817 241.882 422.733 242.02 422.648 242.15C422.733 242.02 422.817 241.882 422.901 241.752Z" fill="#39AEA8"/>
<path d="M423.001 241.592C423.001 241.592 422.955 241.661 422.932 241.699C422.955 241.661 422.978 241.63 423.001 241.592Z" fill="#39AEA8"/>
<path d="M423.109 241.423C423.109 241.423 423.07 241.492 423.047 241.523C423.07 241.484 423.093 241.454 423.109 241.423Z" fill="#39AEA8"/>
<path d="M423.224 241.247L423.155 241.354L423.224 241.247Z" fill="#39AEA8"/>
<path d="M436.244 235.219C436.566 237.471 437.096 239.707 437.533 241.898C437.088 239.7 436.559 237.471 436.244 235.219Z" fill="#39AEA8"/>
<path d="M423.392 240.994C423.354 241.055 423.308 241.116 423.27 241.178C423.308 241.116 423.354 241.055 423.392 240.994Z" fill="#39AEA8"/>
<path d="M423.5 240.826C423.5 240.826 423.461 240.887 423.438 240.918C423.461 240.887 423.477 240.856 423.5 240.826Z" fill="#39AEA8"/>
<path d="M423.615 240.665C423.615 240.665 423.576 240.719 423.561 240.749C423.576 240.726 423.599 240.696 423.615 240.665Z" fill="#39AEA8"/>
<path d="M423.73 240.489C423.73 240.489 423.691 240.535 423.676 240.565C423.691 240.542 423.714 240.519 423.73 240.489Z" fill="#39AEA8"/>
<path d="M424.013 240.075C424.013 240.075 423.975 240.129 423.952 240.16C423.975 240.136 423.99 240.106 424.013 240.075Z" fill="#39AEA8"/>
<path d="M433.246 227.124C430.899 230.701 428.238 234.239 425.677 237.747C428.238 234.239 430.899 230.701 433.246 227.124Z" fill="#39AEA8"/>
<path d="M434.105 226.787C433.813 226.818 433.522 226.917 433.254 227.124C433.522 226.925 433.813 226.818 434.105 226.787Z" fill="#39AEA8"/>
<path d="M434.48 226.795C434.557 226.802 434.633 226.817 434.702 226.84C434.626 226.825 434.557 226.81 434.48 226.795Z" fill="#39AEA8"/>
<path d="M434.349 226.787C434.265 226.787 434.189 226.787 434.105 226.787C434.189 226.779 434.265 226.779 434.349 226.787Z" fill="#39AEA8"/>
<path d="M434.396 226.787C434.396 226.787 434.458 226.787 434.489 226.795C434.458 226.795 434.427 226.795 434.396 226.787Z" fill="#39AEA8"/>
<path d="M436.214 235.043C436.214 235.089 436.229 235.135 436.237 235.189C436.237 235.143 436.221 235.097 436.214 235.043Z" fill="#39AEA8"/>
<path d="M436.191 234.859C436.191 234.859 436.198 234.921 436.206 234.952C436.206 234.921 436.198 234.89 436.191 234.859Z" fill="#39AEA8"/>
<path d="M436.167 234.676C436.167 234.676 436.175 234.729 436.175 234.76C436.175 234.729 436.175 234.706 436.167 234.676Z" fill="#39AEA8"/>
<path d="M435.968 230.639V230.532C435.968 230.693 435.968 230.861 435.953 231.029C435.953 230.899 435.953 230.769 435.968 230.639Z" fill="#39AEA8"/>
<path d="M436.083 229.276C436.083 229.322 436.068 229.376 436.068 229.422C436.068 229.376 436.076 229.322 436.083 229.276Z" fill="#39AEA8"/>
<path d="M436.083 229.245C436.298 228.694 436.183 228.074 435.845 227.622C436.191 228.035 436.298 228.824 436.083 229.245Z" fill="#39AEA8"/>
<path d="M434.764 226.856C434.764 226.856 434.834 226.879 434.872 226.894C434.834 226.879 434.803 226.871 434.764 226.856Z" fill="#39AEA8"/>
<path d="M459.786 298.826C459.495 298.819 459.203 298.811 458.927 298.796C459.211 298.811 459.495 298.819 459.786 298.826Z" fill="#39AEA8"/>
<path d="M457.869 298.727C458.199 298.75 458.544 298.773 458.897 298.788C458.544 298.773 458.199 298.75 457.869 298.727Z" fill="#39AEA8"/>
<path d="M451.934 294.851C454.226 295.564 456.665 295.992 459.119 296.107C456.657 295.985 454.226 295.564 451.934 294.851Z" fill="#39AEA8"/>
<path d="M439.365 280.682C442.41 285.898 445.262 292.194 451.197 294.614C445.262 292.194 442.41 285.906 439.365 280.682Z" fill="#39AEA8"/>
<path d="M475.659 294.445C475.652 294.506 475.636 294.575 475.621 294.636C475.636 294.568 475.644 294.506 475.659 294.445Z" fill="#39AEA8"/>
<path d="M475.675 294.3C475.744 293.006 474.502 292.01 473.428 292.301C474.509 292.01 475.759 293.021 475.675 294.33V294.3Z" fill="#39AEA8"/>
<path d="M479.938 298.122C480.184 298.55 480.621 298.803 481.089 298.88C480.621 298.803 480.184 298.55 479.938 298.122Z" fill="#39AEA8"/>
<path d="M483.895 296.015C483.757 296.743 483.405 297.494 482.99 298.045C483.405 297.501 483.757 296.743 483.895 296.015Z" fill="#39AEA8"/>
<path d="M483.911 295.939C483.911 295.939 483.903 295.993 483.896 296.024C483.896 295.993 483.903 295.97 483.911 295.939Z" fill="#39AEA8"/>
<path d="M483.941 295.686C483.941 295.77 483.926 295.854 483.911 295.931C483.926 295.847 483.934 295.762 483.941 295.686Z" fill="#39AEA8"/>
<path d="M483.466 294.07C483.757 294.346 483.911 294.721 483.949 295.142C483.911 294.721 483.757 294.346 483.466 294.07Z" fill="#39AEA8"/>
<path d="M467.73 279.993C473.689 282.988 480.974 286.473 482.392 293.611C480.974 286.473 473.681 282.98 467.73 279.993Z" fill="#39AEA8"/>
<path d="M467.447 279.847C461.197 276.485 454.096 275.727 447.317 273.996C454.196 275.742 461.404 276.524 467.731 279.993C467.638 279.947 467.539 279.901 467.447 279.847Z" fill="#39AEA8"/>
<path d="M209.139 510.946C202.176 508.312 190.735 511.934 185.942 507.385C194.262 499.382 211.715 509.775 223.095 506.259C236.898 501.557 250.126 493.431 265.148 498.945C294.556 511.306 285.914 435.124 291.159 416.964C290.968 418.489 291.021 416.712 291.029 416.084C291.029 416.168 291.029 416.245 291.029 416.329C295.906 387.118 293.759 502.958 277.947 504.881C253.078 496.785 233.332 511.375 209.131 510.946H209.139Z" fill="#39AEA8"/>
<path d="M291.006 417.393C291.006 417.609 291.006 417.501 291.006 417.393C291.006 417.501 291.021 417.609 291.006 417.393Z" fill="#39AEA8"/>
<path d="M439.151 205.457C451.267 146.56 549.375 177.939 546.454 72.9278C544.023 65.6825 543.394 90.0377 544.736 92.4502C540.227 104.505 538.555 78.917 540.143 74.4672C562.504 42.3153 543.072 125.797 533.885 133.257C512.429 169.927 447.126 165.087 439.151 205.449V205.457Z" fill="#39AEA8"/>
<path d="M513.51 152.465C532.973 134.436 571.046 141.559 580.24 110.181C581.659 107.883 583.438 102.055 586.966 104.368C585.877 139.162 536.431 138.365 513.51 152.473V152.465ZM583.277 111.674C581.943 114.278 580.547 116.859 578.898 119.279C581.544 118.23 585.762 106.987 583.277 111.674Z" fill="#39AEA8"/>
<path d="M492.384 161.281C505.267 114.638 468.321 104.766 479.563 74.9268C482.001 70.3008 484.8 75.754 484.263 78.8175C481.541 106.765 507.307 133.004 492.384 161.273V161.281ZM480.284 90.3977C480.422 87.518 480.506 84.6153 480.383 81.7355C479.517 84.5463 479.609 87.5486 480.284 90.3977Z" fill="#39AEA8"/>
<path d="M240.878 169.958C293.583 122.91 244.306 54.6767 291.566 25.9176C293.736 32.1596 289.656 41.1051 282.855 42.3765C277.18 39.1828 288.874 35.2538 287.609 31.7307C254.183 71.2811 290.937 134.191 240.87 169.958H240.878Z" fill="#39AEA8"/>
<path d="M274.113 101.756C277.778 96.6244 290.346 97.306 295.707 84.6229C285.929 84.891 277.026 94.4723 273.215 97.6277C275.984 87.832 292.003 81.7738 299.924 83.0758C293.621 91.3015 286.459 104 274.113 101.763V101.756Z" fill="#39AEA8"/>
<path d="M257.81 93.3004C250.341 92.4196 233.532 68.3784 242.925 67.7887C257.603 71.059 260.547 89.8999 273.353 89.3178C271.544 93.6757 262.265 93.354 257.817 93.3004H257.81ZM249.068 81.8274C252.15 86.9742 257.365 91.8912 263.814 89.7314C260.118 77.975 233.961 60.0992 249.068 81.8274Z" fill="#39AEA8"/>
<path d="M161.242 242.962C147.884 182.993 -5.23753 247.489 0.137981 202.309C12.3536 200.885 20.4438 209.761 26.4557 218.224C65.2575 215.965 152.431 196.297 161.25 242.962H161.242ZM1.99372 205.756C6.12696 212.71 14.7232 215.314 22.0081 217.703C14.8535 212.166 11.7862 204.699 1.99372 205.756Z" fill="#39AEA8"/>
<path d="M75.1729 236.866C77.9488 223.754 97.8328 211.347 110.163 215.628C103.937 220.798 90.8546 219.856 85.1647 228.663C83.3396 229.667 78.0331 239.784 75.1729 236.866Z" fill="#39AEA8"/>
<path d="M113.131 210.619C113.146 210.205 113.79 210.236 113.767 210.65C113.752 211.063 113.108 211.033 113.131 210.619Z" fill="#39AEA8"/>
<path d="M109.995 210.251C110.018 209.646 110.961 209.692 110.93 210.297C110.907 210.902 109.964 210.856 109.995 210.251Z" fill="#39AEA8"/>
<path d="M108.423 215.337C107.94 204.852 98.2468 196.642 100.724 185.352C101.214 178.406 105.969 178.858 106.621 185.529C107.111 192.307 116.375 216.723 108.423 215.337ZM107.525 204.974C106.513 197.89 104.926 190.851 103.247 183.897C101 190.867 103.668 199.077 107.525 204.974Z" fill="#39AEA8"/>
<path d="M96.5137 141.39C96.5443 140.671 97.6639 140.724 97.6256 141.444C97.5949 142.164 96.4753 142.11 96.5137 141.39Z" fill="#39AEA8"/>
<path d="M133.299 181.898C114.174 130.032 67.0367 142.8 99.0597 67.7964C103.814 71.5875 105.248 84.7684 97.4494 85.5267C70.0964 135.508 135.431 145.84 133.291 181.906L133.299 181.898Z" fill="#39AEA8"/>
<path d="M96.3528 132.943C88.7764 125.36 66.1932 135.662 64.7285 127.268C75.4489 123.653 93.2547 125.682 96.3528 132.943ZM71.9674 127.574C74.9811 127.589 77.6267 127.459 80.5406 127.122C77.6957 126.417 74.7817 126.954 71.9674 127.574Z" fill="#39AEA8"/>
<path d="M101.881 130.362C90.1872 108.526 131.021 104.812 102.349 127.199C103.239 128.278 104.389 132.146 101.881 130.362ZM107.165 114.263C104.397 116.76 100.478 120.895 101.391 124.909C105.018 124.227 115.984 109.43 107.165 114.263Z" fill="#39AEA8"/>
<path d="M184.661 143.106C133.835 75.6313 196.21 34.4955 157.4 5.0931C182.046 29.4024 161.388 22.249 153.52 5.68283C151.672 -13.112 180.275 19.89 174.547 30.1682C157.584 79.4607 166.917 102.56 184.654 143.114L184.661 143.106Z" fill="#39AEA8"/>
<path d="M168.404 88.2072C159.846 76.9946 204.047 43.8011 191.187 65.1081C184.761 76.1445 171.594 81.0155 168.404 88.2072ZM171.472 78.557C179.424 75.5011 185.873 69.1596 189.845 61.7764C183.281 66.839 175.175 70.7526 171.472 78.557Z" fill="#39AEA8"/>
<path d="M162.761 85.4271C146.235 64.9243 118.721 72.8589 156.618 82.218C150.775 86.0857 135.86 81.3526 133.583 73.5788C135.078 60.26 166.227 80.9083 162.761 85.4347V85.4271Z" fill="#39AEA8"/>
<path d="M345.758 110.862C342.23 89.6088 356.087 77.4465 361.524 58.2534C366.209 45.1874 361.9 27.8247 372.336 18.8868C371.738 15.2948 367.559 7.52104 374.422 7.98057C387.52 12.0934 376.937 18.994 371.178 24.6616C364.515 39.7955 367.083 58.2458 358.495 73.035C346.509 82.218 349.385 102.836 345.758 110.862ZM373.602 11.0211C373.924 13.1656 374.437 17.6997 376.822 14.8353C379.752 13.8166 375.189 11.4117 373.602 11.0211Z" fill="#39AEA8"/>
<path d="M355.757 74.36C355.742 70.8676 361.808 70.0481 363.832 67.2985C355.949 68.9452 355.911 60.2064 357.421 71.4726C358.119 67.0994 342.453 53.4743 349.27 54.9448C356.003 64.6792 362.069 67.0611 370.488 58.5751C381.515 57.2041 360.044 77.3163 355.757 74.3524V74.36ZM365.328 66.0042C366.593 64.8707 367.789 63.6759 368.932 62.4198C367.536 63.4078 366.478 64.7558 365.328 66.0042Z" fill="#39AEA8"/>
<path d="M25.2673 277.956C20.4286 276.562 -3.45066 270.527 4.96918 265.625C23.1968 264.384 19.5084 278.408 40.1439 275.091C68.1256 269.485 105.064 238.321 129.15 268.987C98.7837 238.045 62.8422 281.272 25.2749 277.948L25.2673 277.956ZM18.3581 273.047C15.7969 271.453 13.0746 269.86 10.1146 269.186C12.7909 270.626 15.4058 272.258 18.3581 273.047Z" fill="#39AEA8"/>
<path d="M60.3806 285.707C56.048 282.505 65.9478 264.882 67.0674 270.106C73.3861 268.321 62.6121 285.354 60.3806 285.707ZM61.3775 281.862C63.0645 277.964 65.4954 274.417 66.799 270.381C63.1796 273.705 61.3545 276.853 61.3775 281.862Z" fill="#39AEA8"/>
<path d="M350.903 345.423C352.153 344.128 351.885 344.45 351.011 345.714C350.98 345.614 350.942 345.515 350.903 345.423Z" fill="#39AEA8"/>
<path d="M362.39 331.637C363.533 330.902 362.628 332.487 362.306 333.023C362.406 332.564 362.444 332.096 362.39 331.637Z" fill="#39AEA8"/>
<path d="M381.914 277.642C382.213 274.448 379.514 272.227 380.235 269.194C381.446 271.208 385.388 277.527 381.914 277.642Z" fill="#39AEA8"/>
<path d="M351.049 457.495C345.229 412.492 371.01 434.978 353.909 370.766C354.431 345.109 365.849 403.554 362.897 412.224C364.261 422.923 356.271 429.142 353.863 437.766C352.897 442.17 358.74 464.35 351.041 457.503L351.049 457.495Z" fill="#39AEA8"/>
<path d="M355.481 468.302C355.957 467.888 356.754 467.888 357.184 468.378L355.481 468.302Z" fill="#39AEA8"/>
<path d="M400.586 507.569C400.885 506.787 402.028 507.699 402.718 507.722C402.005 507.668 401.3 507.607 400.586 507.569Z" fill="#39AEA8"/>
<path d="M352.192 468.784C352.199 468.539 352.59 468.554 352.575 468.8C352.567 469.045 352.176 469.029 352.192 468.784Z" fill="#39AEA8"/>
<path d="M434.849 510.931C415.716 511.858 397.872 503.142 380.664 501.128C372.007 507.01 360.251 505.486 357.452 494.281C348.005 461.156 352.759 463.224 360.328 494.541C366.608 511.299 381.293 490.926 391.967 498.118C416.13 510.41 444.818 504.023 470.79 503.961C478.367 512.555 441.305 509.353 434.849 510.923V510.931Z" fill="#39AEA8"/>
<path d="M488.979 268.39C520.627 252.896 559.796 237.655 577.901 202.906C595.907 183.537 598.721 152.703 625.56 142.149C630.368 140.364 651.103 132.093 647.384 141.827C641.449 149.371 626.948 165.102 618.375 153.989C621.741 149.869 630.33 154.809 634.601 149.356C646.847 134.344 612.961 150.78 610.53 158.516C603.008 167.431 598.115 178.191 592.356 188.339C571.199 227.154 531.654 260.547 488.972 268.397L488.979 268.39Z" fill="#39AEA8"/>
<path d="M537.528 244.632C554.329 224.987 552.312 199.56 556.062 174.538C565.563 148.605 579.788 166.366 563.37 182.036C553.003 183.468 570.64 170.571 566.568 165.041C546.63 187.198 565.778 226.925 537.528 244.624V244.632Z" fill="#39AEA8"/>
<path d="M539.406 248.056C572.334 248.385 617.884 184.035 637.914 194.65C642.27 207.157 623.958 197.147 620.737 203.711C595.991 215.582 569.198 250.997 539.406 248.063V248.056ZM632.477 197.775C634.962 198.633 635.307 195.745 632.83 195.883C627.171 196.419 626.166 197.79 632.477 197.775Z" fill="#39AEA8"/>
<path d="M516.01 287.376C549.176 246.991 604.02 276.738 646.824 273.56C651.962 268.421 666.417 256.519 667 271.086C618.038 292.554 562.105 244.724 516.01 287.384V287.376ZM655.014 272.396C656.341 271.997 663.795 270.588 663.472 269.332C660.344 266.253 656.724 269.455 655.014 272.396Z" fill="#39AEA8"/>
<path d="M571.483 270.182C579.19 256.825 604.756 258.97 611.052 243.675C612.44 240.083 615.507 237.831 619.395 239.179C632.776 242.871 615.653 255.102 611.42 248.301C601.06 258.679 583.024 261.865 571.483 270.182ZM611.995 247.274C615.147 246.264 619.633 247.642 621.496 243.92C617.693 239.225 613.36 242.587 611.995 247.274Z" fill="#39AEA8"/>
<path d="M610.745 298.604C596.329 292.577 588.17 271.561 574.489 270.963C588.936 269.11 594.611 284.627 603.874 292.561C609.027 287.591 620.722 297.884 610.753 298.604H610.745ZM611.443 296.146C611.305 294.568 609.35 295.311 608.245 295.196C609.281 295.602 610.339 295.993 611.443 296.146Z" fill="#39AEA8"/>
<path d="M429.005 74.6893C442.509 60.2906 441.827 35.2231 447.172 16.0223C452.685 11.0594 457.739 21.0082 453.475 25.481C452.601 28.6901 447.593 27.9778 449.142 24.5619C450.945 7.91155 442.103 76.3742 429.013 74.6893H429.005Z" fill="#39AEA8"/>
<path d="M383.11 267.953C383.118 267.708 383.509 267.723 383.494 267.969C383.486 268.214 383.095 268.198 383.11 267.953Z" fill="#39AEA8"/>
<path d="M353.211 347.789C345.558 339.242 361.432 328.795 364.829 321.075C370.105 303.621 378.77 292.952 380.978 275.467C381.883 269.202 384.928 269.853 384.169 275.804C380.12 287.238 386.868 282.926 395.372 284.91C405.709 284.994 400.939 292.906 392.964 290.348C370.128 299.148 369.346 333.551 353.211 347.797V347.789Z" fill="#39AEA8"/>
<path d="M384.176 273.069C384.176 273 384.153 272.924 384.138 272.847C384.161 272.97 384.253 273.306 384.176 273.069Z" fill="#39AEA8"/>
<path d="M292.187 402.972C291.857 399.517 291.512 396.071 291.704 392.601V392.732C291.941 381.864 288.23 371.317 287.41 360.48C287.225 359.4 286.972 358.221 286.842 357.087L286.896 357.44C286.773 356.16 286.42 354.062 286.298 353.212C286.275 352.155 286.221 351.121 286.206 350.064C286.206 350.187 286.206 350.301 286.206 350.424C285.201 346.281 286.528 342.175 284.074 338.943C284.741 316.028 263.852 305.635 259.274 287.698C259.19 287.583 258.868 287.192 259.075 287.476C259.037 287.422 258.945 287.315 258.975 287.338L259.021 287.391C259.021 287.391 259.052 287.422 259.067 287.437C259.006 287.376 258.945 287.3 258.891 287.223C259.06 287.407 257.626 285.806 258.193 286.442C258.04 286.212 256.844 285.354 257.212 285.607C257.135 285.561 257.058 285.507 256.982 285.461C257.005 285.477 257.028 285.492 257.058 285.507C256.759 285.324 256.452 285.17 256.138 285.025C256.161 285.033 256.176 285.04 256.199 285.048C256.115 285.01 256.038 284.979 255.954 284.933C255.862 284.895 255.762 284.849 255.67 284.803C255.762 284.849 255.862 284.887 255.954 284.933C254.957 284.458 253.876 284.267 252.894 283.769C252.91 283.769 252.925 283.784 252.94 283.792C252.764 283.708 252.588 283.631 252.411 283.547C250.325 282.796 246.192 280.79 243.347 279.832L243.409 279.855C243.309 279.825 243.225 279.794 243.14 279.756C243.017 279.702 242.902 279.656 242.787 279.602C237.19 282.651 218.763 267.394 229.115 268.26C230.771 276.501 240.142 276.217 246.683 277.489C266.521 294.752 255.647 253.539 265.24 255.546L265.256 255.423C265.179 255.982 265.072 256.534 265.003 257.093C248.531 304.187 297.762 294.154 295.967 398.468C295.952 398.598 295.921 398.736 295.906 398.882C295.638 399.387 295.323 401.585 295.454 401.187C295.415 401.539 295.362 401.899 295.323 402.252C295.408 401.501 295.362 401.853 295.293 402.443L295.323 402.144C295.293 402.405 295.293 402.474 295.247 402.65C295.254 402.619 295.262 402.573 295.27 402.558C295.27 402.558 295.262 402.596 295.254 402.627C295.216 402.719 295.132 403.247 295.093 403.515C295.661 405.116 292.869 406.303 292.172 402.949L292.187 402.972Z" fill="#39AEA8"/>
<path d="M243.24 279.802C243.24 279.802 243.232 279.802 243.224 279.802C243.255 279.802 243.278 279.825 243.309 279.84L243.232 279.809L243.24 279.802Z" fill="#39AEA8"/>
<path d="M286.98 358.175L286.965 358.083C286.965 358.083 286.995 358.26 286.98 358.175Z" fill="#39AEA8"/>
<path d="M295.262 402.65C295.262 402.65 295.254 402.719 295.247 402.758C295.247 402.719 295.254 402.688 295.262 402.65Z" fill="#39AEA8"/>
<path d="M295.254 403.117C295.27 403.048 295.254 403.156 295.254 403.179C295.254 403.156 295.254 403.14 295.254 403.117Z" fill="#39AEA8"/>
<path d="M263.898 288.87C263.868 288.77 263.998 289.114 264.044 289.214C263.99 289.099 263.944 288.984 263.898 288.87Z" fill="#39AEA8"/>
<path d="M296.105 395.389C296.082 396.217 296.067 397.082 295.998 398.07C295.998 397.174 296.029 396.285 296.105 395.389Z" fill="#39AEA8"/>
<path d="M332.246 214.418C332.837 209.11 338.933 203.695 338.059 196.795C333.734 201.497 334.968 215.245 332.745 203.427C332.384 199.468 334.225 195.064 337.737 193.042C347.146 191.924 339.93 219.289 332.246 214.418Z" fill="#39AEA8"/>
<path d="M377.558 267.095C377.558 267.095 377.558 267.142 377.551 267.172C377.551 267.142 377.551 267.119 377.558 267.095Z" fill="#39AEA8"/>
<path d="M331.809 423.75C322.929 416.091 324.325 391.805 335.889 387.225C350.16 390.978 346.816 424.125 331.809 423.75ZM332.975 421.016C343.787 422.28 341.08 381.971 337.453 399.479C334.769 379.788 322.109 413.931 332.975 421.016Z" fill="#39AEA8"/>
<path d="M326.748 457.472C321.58 430.559 304.832 406.755 317.83 378.004C328.957 364.938 325.245 341.425 329.309 328.719C333.719 352.867 320.759 374.726 318.068 398.537C308.843 411.756 343.48 462.45 326.748 457.48V457.472Z" fill="#39AEA8"/>
<path d="M326.211 498.11C325.797 486.047 325.605 468.823 329.14 457.104C328.328 469.274 329.417 486.553 326.211 498.11Z" fill="#39AEA8"/>
<path d="M337.921 496.64C333.788 476.497 335.651 447.738 339.608 431.432C335.774 451.965 342.821 479.614 337.921 496.64Z" fill="#39AEA8"/>
<path d="M347.268 384.131C342.897 366.24 337.583 344.619 343.266 326.965C341.924 344.726 342.744 362.962 349.439 380.209C350.443 382.086 350.167 385.67 347.268 384.131Z" fill="#39AEA8"/>
<path d="M310.077 492.833C310.844 463.178 299.671 434.434 302.616 406.502C304.947 432.037 312.224 457.043 312.999 484.087C314.172 487.135 314.379 500.163 310.077 492.833Z" fill="#39AEA8"/>
<path d="M304.587 386.183C298.973 370 304.602 354.675 310.852 339.334C313.558 332.839 308.091 318.487 314.778 316.028C318.367 331.216 310.169 348.012 305.269 362.74C302.784 369.372 308.321 383.365 304.587 386.183Z" fill="#39AEA8"/>
<path d="M180.935 282.674C179.853 274.594 220.427 270.94 204.208 277.221C195.719 276.079 187.874 281.042 180.935 282.674Z" fill="#39AEA8"/>
<path d="M213.824 236.675C212.497 230.05 224.989 227.729 227.474 222.781C228.325 219.488 231.637 222.774 229.713 224.857C224.23 228.334 218.456 233.335 213.824 236.675Z" fill="#39AEA8"/>
<path d="M188.388 206.828C182.407 203.741 175.015 195.14 176.272 188.569C180.566 192.23 181.494 201.52 188.541 204.063C190.796 203.841 190.597 207.127 188.388 206.828Z" fill="#39AEA8"/>
<path d="M212.045 163.609C215.58 156.976 217.236 147.724 220.672 142.087C223.946 143.566 214.192 170.349 212.045 163.609Z" fill="#39AEA8"/>
<path d="M301.028 138.327C302.064 131.748 316.733 111.965 308.835 128.317C306.342 130.637 305.407 142.547 301.028 138.327Z" fill="#39AEA8"/>
<path d="M308.812 231.283C307.723 228.165 311.404 215.329 314.893 214.311C312.539 218.845 311.91 227.737 308.812 231.283Z" fill="#39AEA8"/>
<path d="M267.242 233.879C265.555 231.528 270.347 218.5 273.645 218.531C273.123 222.322 270.562 231.367 267.242 233.879Z" fill="#39AEA8"/>
<path d="M351.555 156.272C347.514 155.222 344.715 133.035 349.6 146.683C349.239 149.739 355.052 155.039 351.555 156.272Z" fill="#39AEA8"/>
<path d="M384.675 99.527C384.682 94.4951 383.992 82.9609 387.144 78.917C389.038 83.0834 389.582 97.4361 384.675 99.527Z" fill="#39AEA8"/>
<path d="M411.598 182.503C409.443 179.225 401.606 174.216 404.812 170.188C407.158 170.318 419.849 185.904 411.598 182.503Z" fill="#39AEA8"/>
<path d="M438.077 150.566C437.088 147.556 444.833 140.671 447.716 141.429C447.087 144.377 440.983 150.022 438.077 150.566Z" fill="#39AEA8"/>
<path d="M425.999 118.414C423.638 115.19 424.91 102.683 428.599 100.538C429.604 104.383 428.99 115.657 425.999 118.414Z" fill="#39AEA8"/>
<path d="M254.873 84.0102C254.42 80.9313 249.528 77.3546 251.43 74.6281C254.52 73.372 260.655 87.9928 254.873 84.0102Z" fill="#39AEA8"/>
<path d="M426.881 270.619C426.666 265.885 425.432 249.695 431.797 248.929C433.706 250.269 432.494 255.676 430.616 252.184C428.154 257.246 432.441 268.689 426.881 270.619Z" fill="#39AEA8"/>
<path d="M462.593 294.614C456.749 290.861 452.087 284.887 445.462 284.152C451.343 276.187 459.395 294.392 465.093 289.643C467.478 290.861 464.686 294.974 462.593 294.614Z" fill="#39AEA8"/>
<path d="M625.652 148.705C626.028 143.994 638.781 142.953 629.893 148.123C628.697 148.743 626.596 150.505 625.652 148.705Z" fill="#39AEA8"/>
<path d="M15.0453 215.383C11.7939 215.574 4.87708 206.284 10.5517 209.179C10.7204 211.722 20.8042 213.943 15.0453 215.383Z" fill="#39AEA8"/>
<path d="M300.162 306.615C294.112 299.615 298.559 287.162 293.337 279.35C287.018 274.686 277.164 250.062 286.436 251.104C282.279 269.914 304.241 282.176 302.194 302.319C304.494 303.82 302.823 307.611 300.162 306.615Z" fill="#39AEA8"/>
<path d="M353.855 290.34C354.247 280.928 361.961 268.658 358.127 257.269C361.255 251.265 351.118 236.728 359.216 236.138C363.249 252.567 364.223 276.194 353.863 290.34H353.855Z" fill="#39AEA8"/>
<path d="M450.316 244.341C457.079 233.657 464.387 222.291 464.257 207.594C468.781 200.586 475.015 191.533 481.955 187.558C485.751 185.452 487.522 191.587 483.167 192.054C461.557 201.283 470.077 233.956 450.316 244.333V244.341Z" fill="#39AEA8"/>
<path d="M171.917 155.82C168.006 133.119 128.054 129.711 134.84 103.111C137.217 117.28 145.3 129.818 160.184 134.965C166.234 136.604 183.166 160.461 171.917 155.82Z" fill="#39AEA8"/>
<path d="M259.044 189.504C253.738 172.57 271.613 166.887 277.034 154.763C276.497 149.509 278.016 128.93 285.531 134.52C278.951 146.162 283.514 162.184 268.844 168.871C258.967 171.138 264.55 193.172 259.044 189.511V189.504Z" fill="#39AEA8"/>
<path d="M207.743 106.121C202.498 61.7382 230.204 74.9345 219.69 29.1038C231.086 47.6765 219.591 65.3838 211.386 81.3985C211.041 85.8713 213.54 105.838 207.743 106.129V106.121Z" fill="#39AEA8"/>
<path d="M521.041 233.45C515.351 225.898 530.726 215.613 530.281 206.583C516.862 188.63 525.059 179.11 539.759 164.742C534.414 167.017 536.907 162.56 540.618 162.36C547.06 163.739 533.586 173.565 531.731 176.79C510.282 198.993 552.374 195.738 521.041 233.45Z" fill="#39AEA8"/>
<path d="M290.093 508.028C291.274 496.877 311.404 501.526 310.867 488.575C316.311 486.254 311.128 500.232 306.174 500.898C299.656 500.132 295.093 511.061 290.101 508.028H290.093Z" fill="#39AEA8"/>
<path d="M348.196 506.512C346.387 503.709 344.638 502.407 341.249 502.192C336.395 502.054 335.567 488.176 339.447 492.611C336.939 498.983 343.312 499.267 347.453 500.415C349.998 501.687 353.518 507.569 348.196 506.504V506.512Z" fill="#39AEA8"/>
<path d="M333.389 413.38C332.507 410.301 330.689 403.293 334.922 402.19C340.819 398.667 337.921 417.845 333.389 413.38Z" fill="#39AEA8"/>
<path d="M230.38 497.926C274.02 442.399 259.573 535.608 286.366 426.201C281.213 444.942 284.066 471.273 269.941 486.124C262.411 490.153 255.072 476.535 249.06 484.791C243.784 488.498 236.929 500.461 230.38 497.926Z" fill="#39AEA8"/>
</g>
<defs>
<clipPath id="clip0_320_2014">
<rect width="667" height="511" fill="white"/>
</clipPath>
</defs>
</svg>
